<svg width="24" height="29" viewBox="0 0 24 29" fill="none" xmlns="http://www.w3.org/2000/svg">
<path d="M9.01347 14.5254H4.28711C4.09291 14.5254 3.93555 14.7156 3.93555 14.9502C3.93555 15.1848 4.09291 15.375 4.28711 15.375H9.01347C9.20767 15.375 9.36503 15.1848 9.36503 14.9502C9.36503 14.7156 9.20767 14.5254 9.01347 14.5254Z" fill="white"/>
<path d="M9.01347 18.2305H4.28711C4.09291 18.2305 3.93555 18.4207 3.93555 18.6553C3.93555 18.8899 4.09291 19.0801 4.28711 19.0801H9.01347C9.20767 19.0801 9.36503 18.8899 9.36503 18.6553C9.36503 18.4207 9.20767 18.2305 9.01347 18.2305Z" fill="white"/>
<path d="M9.01347 21.9358H4.28711C4.09291 21.9358 3.93555 22.126 3.93555 22.3606C3.93555 22.5952 4.09291 22.7854 4.28711 22.7854H9.01347C9.20767 22.7854 9.36503 22.5952 9.36503 22.3606C9.36503 22.126 9.20767 21.9358 9.01347 21.9358Z" fill="white"/>
<path d="M12.9561 17.7014H13.7022C13.8964 17.7014 14.0538 17.5112 14.0538 17.2766C14.0538 17.042 13.8964 16.8518 13.7022 16.8518H12.9561C12.7619 16.8518 12.6045 17.042 12.6045 17.2766C12.6045 17.5112 12.7619 17.7014 12.9561 17.7014Z" fill="white"/>
<path d="M15.9688 16.8518H15.2227C15.0285 16.8518 14.8711 17.042 14.8711 17.2766C14.8711 17.5112 15.0285 17.7014 15.2227 17.7014H15.9688C16.163 17.7014 16.3204 17.5112 16.3204 17.2766C16.3204 17.042 16.163 16.8518 15.9688 16.8518Z" fill="white"/>
<path d="M18.2354 16.8518H17.4893C17.2951 16.8518 17.1377 17.042 17.1377 17.2766C17.1377 17.5112 17.2951 17.7014 17.4893 17.7014H18.2354C18.4296 17.7014 18.587 17.5112 18.587 17.2766C18.587 17.042 18.4296 16.8518 18.2354 16.8518Z" fill="white"/>
<path d="M20.502 16.8518H19.7559C19.5617 16.8518 19.4043 17.042 19.4043 17.2766C19.4043 17.5112 19.5617 17.7014 19.7559 17.7014H20.502C20.6962 17.7014 20.8535 17.5112 20.8535 17.2766C20.8535 17.042 20.6961 16.8518 20.502 16.8518Z" fill="white"/>
<path d="M12.9561 19.9104H13.7022C13.8964 19.9104 14.0538 19.7202 14.0538 19.4856C14.0538 19.251 13.8964 19.0608 13.7022 19.0608H12.9561C12.7619 19.0608 12.6045 19.251 12.6045 19.4856C12.6045 19.7202 12.7619 19.9104 12.9561 19.9104Z" fill="white"/>
<path d="M15.9688 19.0608H15.2227C15.0285 19.0608 14.8711 19.251 14.8711 19.4856C14.8711 19.7202 15.0285 19.9104 15.2227 19.9104H15.9688C16.163 19.9104 16.3204 19.7202 16.3204 19.4856C16.3204 19.251 16.163 19.0608 15.9688 19.0608Z" fill="white"/>
<path d="M18.2354 19.0608H17.4893C17.2951 19.0608 17.1377 19.251 17.1377 19.4856C17.1377 19.7202 17.2951 19.9104 17.4893 19.9104H18.2354C18.4296 19.9104 18.587 19.7202 18.587 19.4856C18.587 19.251 18.4296 19.0608 18.2354 19.0608Z" fill="white"/>
<path d="M20.502 19.0608H19.7559C19.5617 19.0608 19.4043 19.251 19.4043 19.4856C19.4043 19.7202 19.5617 19.9104 19.7559 19.9104H20.502C20.6962 19.9104 20.8535 19.7202 20.8535 19.4856C20.8535 19.251 20.6961 19.0608 20.502 19.0608Z" fill="white"/>
<path d="M12.9561 22.1194H13.7022C13.8964 22.1194 14.0538 21.9292 14.0538 21.6946C14.0538 21.46 13.8964 21.2698 13.7022 21.2698H12.9561C12.7619 21.2698 12.6045 21.46 12.6045 21.6946C12.6045 21.9292 12.7619 22.1194 12.9561 22.1194Z" fill="white"/>
<path d="M15.9688 21.2698H15.2227C15.0285 21.2698 14.8711 21.46 14.8711 21.6946C14.8711 21.9292 15.0285 22.1194 15.2227 22.1194H15.9688C16.163 22.1194 16.3204 21.9292 16.3204 21.6946C16.3204 21.46 16.163 21.2698 15.9688 21.2698Z" fill="white"/>
<path d="M18.2354 21.2698H17.4893C17.2951 21.2698 17.1377 21.46 17.1377 21.6946C17.1377 21.9292 17.2951 22.1194 17.4893 22.1194H18.2354C18.4296 22.1194 18.587 21.9292 18.587 21.6946C18.587 21.46 18.4296 21.2698 18.2354 21.2698Z" fill="white"/>
<path d="M20.502 21.2698H19.7559C19.5617 21.2698 19.4043 21.46 19.4043 21.6946C19.4043 21.9292 19.5617 22.1194 19.7559 22.1194H20.502C20.6962 22.1194 20.8535 21.9292 20.8535 21.6946C20.8535 21.46 20.6961 21.2698 20.502 21.2698Z" fill="white"/>
<path d="M5.06262 10.295C4.90025 10.1665 4.68228 10.2216 4.57596 10.4179C4.46965 10.6142 4.51521 10.8775 4.67773 11.0059C5.19232 11.4127 5.53976 11.5252 6.00092 11.5508V12.1226C6.00092 12.3572 6.15828 12.5474 6.35248 12.5474C6.54668 12.5474 6.70404 12.3572 6.70404 12.1226V11.519C7.5964 11.3283 8.11746 10.4488 8.2317 9.62771C8.37621 8.58909 7.92626 7.68596 7.08542 7.3268C6.94817 7.26818 6.8216 7.21205 6.70404 7.15773V4.78205C7.04618 4.86293 7.25107 5.0746 7.26748 5.09199C7.41021 5.24865 7.63114 5.2371 7.7622 5.06548C7.89387 4.89301 7.88487 4.62425 7.74214 4.4652C7.71964 4.44011 7.334 4.02103 6.70404 3.92179V3.41016C6.70404 3.17555 6.54668 2.98535 6.35248 2.98535C6.15828 2.98535 6.00092 3.17555 6.00092 3.41016V3.95447C5.93173 3.97152 5.8609 3.99299 5.78853 4.01933C5.23671 4.22017 4.82431 4.79139 4.71218 5.51011C4.61028 6.16363 4.7825 6.79285 5.16176 7.15229C5.37223 7.35172 5.6359 7.53433 6.00092 7.72849V10.701C5.65906 10.6786 5.43832 10.592 5.06262 10.295ZM6.70404 8.06426C6.7519 8.08522 6.80075 8.1064 6.85109 8.12787C7.61862 8.4557 7.57114 9.25094 7.53832 9.4869C7.4719 9.96438 7.18803 10.4731 6.70404 10.6461V8.06426ZM5.59564 6.4837C5.42375 6.32086 5.35001 6.00803 5.40317 5.6674C5.45276 5.34936 5.63332 4.96307 5.99131 4.83274C5.99454 4.83155 5.99768 4.83065 6.00092 4.82951V6.78843C5.83531 6.68529 5.70289 6.58537 5.59564 6.4837Z" fill="white"/>
<path d="M19.7331 26.5001C19.5389 26.5001 19.3815 26.6903 19.3815 26.9249V27.2287C19.3815 27.7369 19.0393 28.1504 18.6187 28.1504H2.7833C2.36265 28.1504 2.02051 27.7369 2.02051 27.2287V1.77132C2.02051 1.26309 2.36265 0.849609 2.7833 0.849609H15.0837C15.1209 0.849609 15.1575 0.853971 15.1937 0.860371V4.41247C15.1937 5.23812 15.7496 5.90983 16.4329 5.90983H19.3726C19.3779 5.95367 19.3815 5.99785 19.3815 6.04276V8.07072C19.3815 8.30533 19.5389 8.49553 19.7331 8.49553C19.9273 8.49553 20.0846 8.30533 20.0846 8.07072V6.04276C20.0846 5.55718 19.8922 5.07528 19.6627 4.79967C19.5184 4.62527 16.1241 0.523359 16.1203 0.518828L16.1123 0.509256C16.112 0.508916 16.1116 0.50852 16.1113 0.50818L16.1111 0.507953C16.1102 0.50682 16.1093 0.505744 16.1082 0.504555C15.844 0.192691 15.4797 0 15.0837 0H2.7833C1.97499 0 1.31738 0.794611 1.31738 1.77132V27.2286C1.31738 28.2053 1.97499 28.9999 2.7833 28.9999H18.6187C19.427 28.9999 20.0846 28.2053 20.0846 27.2286V26.9249C20.0846 26.6903 19.9272 26.5001 19.7331 26.5001ZM15.8969 1.45045C16.1588 1.7669 18.5306 4.63281 18.8843 5.06022H16.4329C16.1373 5.06022 15.8968 4.76965 15.8968 4.41247V1.45045H15.8969Z" fill="white"/>
<path d="M21.4621 9.63892H11.9959C11.3229 9.63892 10.7754 10.3005 10.7754 11.1137V12.5428C10.7754 12.7774 10.9327 12.9676 11.127 12.9676C11.3212 12.9676 11.4785 12.7774 11.4785 12.5428V11.1137C11.4785 10.769 11.7106 10.4885 11.9959 10.4885H21.4621C21.7473 10.4885 21.9794 10.769 21.9794 11.1137V23.8914C21.9794 24.2361 21.7473 24.5165 21.4621 24.5165H11.9959C11.7106 24.5165 11.4785 24.2361 11.4785 23.8914V14.5288C11.4785 14.2942 11.3212 14.104 11.127 14.104C10.9327 14.104 10.7754 14.2942 10.7754 14.5288V23.8914C10.7754 24.7045 11.3229 25.3662 11.9959 25.3662H21.4621C22.135 25.3662 22.6825 24.7046 22.6825 23.8914V11.1136C22.6825 10.3005 22.1351 9.63892 21.4621 9.63892Z" fill="white"/>
<path d="M20.8538 12.4495C20.8538 12.0351 20.5748 11.698 20.2319 11.698H13.2265C12.8835 11.698 12.6045 12.0351 12.6045 12.4495V14.6236C12.6045 15.038 12.8835 15.3751 13.2265 15.3751H20.2319C20.5747 15.3751 20.8538 15.038 20.8538 14.6236V12.4495ZM20.1507 14.5255H13.3076V12.5476H20.1506V14.5255H20.1507Z" fill="white"/>
</svg>
