<svg width="24" height="29" viewBox="0 0 24 29" fill="none" xmlns="http://www.w3.org/2000/svg">
<path d="M9.01347 14.5254H4.28711C4.09291 14.5254 3.93555 14.7156 3.93555 14.9502C3.93555 15.1848 4.09291 15.375 4.28711 15.375H9.01347C9.20767 15.375 9.36503 15.1848 9.36503 14.9502C9.36503 14.7156 9.20767 14.5254 9.01347 14.5254Z" fill="white"/>
<path d="M9.01347 18.2305H4.28711C4.09291 18.2305 3.93555 18.4207 3.93555 18.6553C3.93555 18.8899 4.09291 19.0801 4.28711 19.0801H9.01347C9.20767 19.0801 9.36503 18.8899 9.36503 18.6553C9.36503 18.4207 9.20767 18.2305 9.01347 18.2305Z" fill="white"/>
<path d="M9.01347 21.9355H4.28711C4.09291 21.9355 3.93555 22.1257 3.93555 22.3604C3.93555 22.595 4.09291 22.7852 4.28711 22.7852H9.01347C9.20767 22.7852 9.36503 22.595 9.36503 22.3604C9.36503 22.1257 9.20767 21.9355 9.01347 21.9355Z" fill="white"/>
<path d="M12.9561 17.7012H13.7022C13.8964 17.7012 14.0538 17.511 14.0538 17.2764C14.0538 17.0418 13.8964 16.8516 13.7022 16.8516H12.9561C12.7619 16.8516 12.6045 17.0418 12.6045 17.2764C12.6045 17.511 12.7619 17.7012 12.9561 17.7012Z" fill="white"/>
<path d="M15.9691 16.8516H15.2229C15.0287 16.8516 14.8713 17.0418 14.8713 17.2764C14.8713 17.511 15.0287 17.7012 15.2229 17.7012H15.9691C16.1633 17.7012 16.3206 17.511 16.3206 17.2764C16.3206 17.0418 16.1632 16.8516 15.9691 16.8516Z" fill="white"/>
<path d="M18.2357 16.8516H17.4895C17.2953 16.8516 17.1379 17.0418 17.1379 17.2764C17.1379 17.511 17.2953 17.7012 17.4895 17.7012H18.2357C18.4299 17.7012 18.5872 17.511 18.5872 17.2764C18.5872 17.0418 18.4299 16.8516 18.2357 16.8516Z" fill="white"/>
<path d="M20.5025 16.8516H19.7563C19.5621 16.8516 19.4048 17.0418 19.4048 17.2764C19.4048 17.511 19.5621 17.7012 19.7563 17.7012H20.5025C20.6967 17.7012 20.854 17.511 20.854 17.2764C20.854 17.0418 20.6966 16.8516 20.5025 16.8516Z" fill="white"/>
<path d="M12.9561 19.9102H13.7022C13.8964 19.9102 14.0538 19.72 14.0538 19.4854C14.0538 19.2507 13.8964 19.0605 13.7022 19.0605H12.9561C12.7619 19.0605 12.6045 19.2507 12.6045 19.4854C12.6045 19.72 12.7619 19.9102 12.9561 19.9102Z" fill="white"/>
<path d="M15.9691 19.0605H15.2229C15.0287 19.0605 14.8713 19.2507 14.8713 19.4854C14.8713 19.72 15.0287 19.9102 15.2229 19.9102H15.9691C16.1633 19.9102 16.3206 19.72 16.3206 19.4854C16.3206 19.2507 16.1632 19.0605 15.9691 19.0605Z" fill="white"/>
<path d="M18.2357 19.0605H17.4895C17.2953 19.0605 17.1379 19.2507 17.1379 19.4854C17.1379 19.72 17.2953 19.9102 17.4895 19.9102H18.2357C18.4299 19.9102 18.5872 19.72 18.5872 19.4854C18.5872 19.2507 18.4299 19.0605 18.2357 19.0605Z" fill="white"/>
<path d="M20.5025 19.0605H19.7563C19.5621 19.0605 19.4048 19.2507 19.4048 19.4854C19.4048 19.72 19.5621 19.9102 19.7563 19.9102H20.5025C20.6967 19.9102 20.854 19.72 20.854 19.4854C20.854 19.2507 20.6966 19.0605 20.5025 19.0605Z" fill="white"/>
<path d="M12.9561 22.1191H13.7022C13.8964 22.1191 14.0538 21.9289 14.0538 21.6943C14.0538 21.4597 13.8964 21.2695 13.7022 21.2695H12.9561C12.7619 21.2695 12.6045 21.4597 12.6045 21.6943C12.6045 21.9289 12.7619 22.1191 12.9561 22.1191Z" fill="white"/>
<path d="M15.9691 21.2695H15.2229C15.0287 21.2695 14.8713 21.4597 14.8713 21.6943C14.8713 21.9289 15.0287 22.1191 15.2229 22.1191H15.9691C16.1633 22.1191 16.3206 21.9289 16.3206 21.6943C16.3206 21.4597 16.1632 21.2695 15.9691 21.2695Z" fill="white"/>
<path d="M18.2357 21.2695H17.4895C17.2953 21.2695 17.1379 21.4597 17.1379 21.6943C17.1379 21.9289 17.2953 22.1191 17.4895 22.1191H18.2357C18.4299 22.1191 18.5872 21.9289 18.5872 21.6943C18.5872 21.4597 18.4299 21.2695 18.2357 21.2695Z" fill="white"/>
<path d="M20.5025 21.2695H19.7563C19.5621 21.2695 19.4048 21.4597 19.4048 21.6943C19.4048 21.9289 19.5621 22.1191 19.7563 22.1191H20.5025C20.6967 22.1191 20.854 21.9289 20.854 21.6943C20.854 21.4597 20.6966 21.2695 20.5025 21.2695Z" fill="white"/>
<path d="M5.06262 10.295C4.90025 10.1665 4.68228 10.2216 4.57596 10.4179C4.46965 10.6142 4.51521 10.8775 4.67773 11.0059C5.19232 11.4127 5.53976 11.5252 6.00092 11.5508V12.1226C6.00092 12.3572 6.15828 12.5474 6.35248 12.5474C6.54668 12.5474 6.70404 12.3572 6.70404 12.1226V11.519C7.5964 11.3283 8.11746 10.4488 8.2317 9.62771C8.37621 8.58909 7.92626 7.68596 7.08542 7.3268C6.94817 7.26818 6.8216 7.21205 6.70404 7.15773V4.78205C7.04618 4.86293 7.25107 5.0746 7.26748 5.09199C7.41021 5.24865 7.63114 5.2371 7.7622 5.06548C7.89387 4.89301 7.88487 4.62425 7.74214 4.4652C7.71964 4.44011 7.334 4.02103 6.70404 3.92179V3.41016C6.70404 3.17555 6.54668 2.98535 6.35248 2.98535C6.15828 2.98535 6.00092 3.17555 6.00092 3.41016V3.95447C5.93173 3.97152 5.8609 3.99299 5.78853 4.01933C5.23671 4.22017 4.82431 4.79139 4.71218 5.51011C4.61028 6.16363 4.7825 6.79285 5.16176 7.15229C5.37223 7.35172 5.6359 7.53433 6.00092 7.72849V10.701C5.65906 10.6786 5.43832 10.592 5.06262 10.295ZM6.70404 8.06426C6.7519 8.08522 6.80075 8.1064 6.85109 8.12787C7.61862 8.4557 7.57114 9.25094 7.53832 9.4869C7.4719 9.96438 7.18803 10.4731 6.70404 10.6461V8.06426ZM5.59564 6.4837C5.42375 6.32086 5.35001 6.00803 5.40317 5.6674C5.45276 5.34936 5.63332 4.96307 5.99131 4.83274C5.99454 4.83155 5.99768 4.83065 6.00092 4.82951V6.78843C5.83531 6.68529 5.70289 6.58537 5.59564 6.4837Z" fill="white"/>
<path d="M19.7331 26.5001C19.5389 26.5001 19.3815 26.6903 19.3815 26.9249V27.2287C19.3815 27.7369 19.0393 28.1504 18.6187 28.1504H2.7833C2.36265 28.1504 2.02051 27.7369 2.02051 27.2287V1.77132C2.02051 1.26309 2.36265 0.849609 2.7833 0.849609H15.0837C15.1209 0.849609 15.1575 0.853971 15.1937 0.860371V4.41247C15.1937 5.23812 15.7496 5.90983 16.4329 5.90983H19.3726C19.3779 5.95367 19.3815 5.99785 19.3815 6.04276V8.07072C19.3815 8.30533 19.5389 8.49553 19.7331 8.49553C19.9273 8.49553 20.0846 8.30533 20.0846 8.07072V6.04276C20.0846 5.55718 19.8922 5.07528 19.6627 4.79967C19.5184 4.62527 16.1241 0.523359 16.1203 0.518828L16.1123 0.509256C16.112 0.508916 16.1116 0.50852 16.1113 0.50818L16.1111 0.507953C16.1102 0.50682 16.1093 0.505744 16.1082 0.504555C15.844 0.192691 15.4797 0 15.0837 0H2.7833C1.97499 0 1.31738 0.794611 1.31738 1.77132V27.2286C1.31738 28.2053 1.97499 28.9999 2.7833 28.9999H18.6187C19.427 28.9999 20.0846 28.2053 20.0846 27.2286V26.9249C20.0846 26.6903 19.9272 26.5001 19.7331 26.5001ZM15.8969 1.45045C16.1588 1.7669 18.5306 4.63281 18.8843 5.06022H16.4329C16.1373 5.06022 15.8968 4.76965 15.8968 4.41247V1.45045H15.8969Z" fill="white"/>
<path d="M21.4623 9.63916H11.9961C11.3232 9.63916 10.7756 10.3007 10.7756 11.1139V12.543C10.7756 12.7776 10.933 12.9678 11.1272 12.9678C11.3214 12.9678 11.4788 12.7776 11.4788 12.543V11.1139C11.4788 10.7693 11.7108 10.4888 11.9961 10.4888H21.4623C21.7476 10.4888 21.9797 10.7692 21.9797 11.1139V23.8916C21.9797 24.2363 21.7476 24.5168 21.4623 24.5168H11.9961C11.7108 24.5168 11.4788 24.2364 11.4788 23.8916V14.529C11.4788 14.2944 11.3214 14.1042 11.1272 14.1042C10.933 14.1042 10.7756 14.2944 10.7756 14.529V23.8916C10.7756 24.7048 11.3232 25.3664 11.9961 25.3664H21.4623C22.1353 25.3664 22.6828 24.7048 22.6828 23.8916V11.1139C22.6828 10.3007 22.1353 9.63916 21.4623 9.63916Z" fill="white"/>
<path d="M20.8538 12.4493C20.8538 12.0349 20.5748 11.6978 20.2319 11.6978H13.2265C12.8835 11.6978 12.6045 12.0349 12.6045 12.4493V14.6234C12.6045 15.0377 12.8835 15.3749 13.2265 15.3749H20.2319C20.5747 15.3749 20.8538 15.0377 20.8538 14.6234V12.4493ZM20.1507 14.5253H13.3076V12.5474H20.1506V14.5253H20.1507Z" fill="white"/>
</svg>
