<svg width="24" height="29" viewBox="0 0 24 29" fill="none" xmlns="http://www.w3.org/2000/svg">
<path d="M9.01335 14.5255H4.28699C4.09278 14.5255 3.93542 14.7157 3.93542 14.9503C3.93542 15.1849 4.09278 15.3751 4.28699 15.3751H9.01335C9.20755 15.3751 9.36491 15.1849 9.36491 14.9503C9.36491 14.7157 9.20755 14.5255 9.01335 14.5255Z" fill="#D3D729"/>
<path d="M9.01335 18.2306H4.28699C4.09278 18.2306 3.93542 18.4208 3.93542 18.6554C3.93542 18.89 4.09278 19.0802 4.28699 19.0802H9.01335C9.20755 19.0802 9.36491 18.89 9.36491 18.6554C9.36491 18.4208 9.20755 18.2306 9.01335 18.2306Z" fill="#D3D729"/>
<path d="M9.01335 21.9357H4.28699C4.09278 21.9357 3.93542 22.1259 3.93542 22.3605C3.93542 22.5951 4.09278 22.7853 4.28699 22.7853H9.01335C9.20755 22.7853 9.36491 22.5951 9.36491 22.3605C9.36491 22.1259 9.20755 21.9357 9.01335 21.9357Z" fill="#D3D729"/>
<path d="M12.9561 17.7014H13.7022C13.8964 17.7014 14.0538 17.5112 14.0538 17.2766C14.0538 17.042 13.8964 16.8518 13.7022 16.8518H12.9561C12.7619 16.8518 12.6045 17.042 12.6045 17.2766C12.6045 17.5112 12.7619 17.7014 12.9561 17.7014Z" fill="#D3D729"/>
<path d="M15.9689 16.8518H15.2227C15.0285 16.8518 14.8712 17.042 14.8712 17.2766C14.8712 17.5112 15.0285 17.7014 15.2227 17.7014H15.9689C16.1631 17.7014 16.3204 17.5112 16.3204 17.2766C16.3204 17.042 16.163 16.8518 15.9689 16.8518Z" fill="#D3D729"/>
<path d="M18.2355 16.8518H17.4894C17.2952 16.8518 17.1378 17.042 17.1378 17.2766C17.1378 17.5112 17.2952 17.7014 17.4894 17.7014H18.2355C18.4297 17.7014 18.5871 17.5112 18.5871 17.2766C18.5871 17.042 18.4297 16.8518 18.2355 16.8518Z" fill="#D3D729"/>
<path d="M20.5022 16.8518H19.7561C19.5619 16.8518 19.4045 17.042 19.4045 17.2766C19.4045 17.5112 19.5619 17.7014 19.7561 17.7014H20.5022C20.6964 17.7014 20.8538 17.5112 20.8538 17.2766C20.8538 17.042 20.6964 16.8518 20.5022 16.8518Z" fill="#D3D729"/>
<path d="M12.9561 19.9104H13.7022C13.8964 19.9104 14.0538 19.7202 14.0538 19.4856C14.0538 19.251 13.8964 19.0608 13.7022 19.0608H12.9561C12.7619 19.0608 12.6045 19.251 12.6045 19.4856C12.6045 19.7202 12.7619 19.9104 12.9561 19.9104Z" fill="#D3D729"/>
<path d="M15.9689 19.0608H15.2227C15.0285 19.0608 14.8712 19.251 14.8712 19.4856C14.8712 19.7202 15.0285 19.9104 15.2227 19.9104H15.9689C16.1631 19.9104 16.3204 19.7202 16.3204 19.4856C16.3204 19.251 16.163 19.0608 15.9689 19.0608Z" fill="#D3D729"/>
<path d="M18.2355 19.0608H17.4894C17.2952 19.0608 17.1378 19.251 17.1378 19.4856C17.1378 19.7202 17.2952 19.9104 17.4894 19.9104H18.2355C18.4297 19.9104 18.5871 19.7202 18.5871 19.4856C18.5871 19.251 18.4297 19.0608 18.2355 19.0608Z" fill="#D3D729"/>
<path d="M20.5022 19.0608H19.7561C19.5619 19.0608 19.4045 19.251 19.4045 19.4856C19.4045 19.7202 19.5619 19.9104 19.7561 19.9104H20.5022C20.6964 19.9104 20.8538 19.7202 20.8538 19.4856C20.8538 19.251 20.6964 19.0608 20.5022 19.0608Z" fill="#D3D729"/>
<path d="M12.9561 22.1194H13.7022C13.8964 22.1194 14.0538 21.9292 14.0538 21.6946C14.0538 21.46 13.8964 21.2698 13.7022 21.2698H12.9561C12.7619 21.2698 12.6045 21.46 12.6045 21.6946C12.6045 21.9292 12.7619 22.1194 12.9561 22.1194Z" fill="#D3D729"/>
<path d="M15.9689 21.2698H15.2227C15.0285 21.2698 14.8712 21.46 14.8712 21.6946C14.8712 21.9292 15.0285 22.1194 15.2227 22.1194H15.9689C16.1631 22.1194 16.3204 21.9292 16.3204 21.6946C16.3204 21.46 16.163 21.2698 15.9689 21.2698Z" fill="#D3D729"/>
<path d="M18.2355 21.2698H17.4894C17.2952 21.2698 17.1378 21.46 17.1378 21.6946C17.1378 21.9292 17.2952 22.1194 17.4894 22.1194H18.2355C18.4297 22.1194 18.5871 21.9292 18.5871 21.6946C18.5871 21.46 18.4297 21.2698 18.2355 21.2698Z" fill="#D3D729"/>
<path d="M20.5022 21.2698H19.7561C19.5619 21.2698 19.4045 21.46 19.4045 21.6946C19.4045 21.9292 19.5619 22.1194 19.7561 22.1194H20.5022C20.6964 22.1194 20.8538 21.9292 20.8538 21.6946C20.8538 21.46 20.6964 21.2698 20.5022 21.2698Z" fill="#D3D729"/>
<path d="M5.06244 10.2951C4.90006 10.1666 4.68209 10.2218 4.57578 10.418C4.46947 10.6143 4.51503 10.8776 4.67755 11.0061C5.19214 11.4128 5.53958 11.5253 6.00073 11.5509V12.1227C6.00073 12.3573 6.15809 12.5475 6.3523 12.5475C6.5465 12.5475 6.70386 12.3573 6.70386 12.1227V11.5191C7.59622 11.3284 8.11728 10.4489 8.23151 9.62782C8.37603 8.5892 7.92608 7.68606 7.08523 7.32691C6.94798 7.26828 6.82142 7.21215 6.70386 7.15783V4.78216C7.046 4.86304 7.25089 5.0747 7.2673 5.09209C7.41003 5.24876 7.63095 5.23721 7.76201 5.06559C7.89369 4.89311 7.88469 4.62435 7.74195 4.46531C7.71945 4.44022 7.33381 4.02113 6.70386 3.9219V3.41026C6.70386 3.17566 6.5465 2.98546 6.3523 2.98546C6.15809 2.98546 6.00073 3.17566 6.00073 3.41026V3.95458C5.93155 3.97163 5.86072 3.99309 5.78834 4.01943C5.23653 4.22028 4.82413 4.7915 4.712 5.51021C4.61009 6.16373 4.78231 6.79295 5.16158 7.1524C5.37205 7.35183 5.63572 7.53444 6.00073 7.7286V10.7011C5.65888 10.6787 5.43814 10.5921 5.06244 10.2951ZM6.70386 8.06437C6.75172 8.08532 6.80056 8.10651 6.85091 8.12797C7.61844 8.45581 7.57095 9.25104 7.53814 9.48701C7.47172 9.96449 7.18784 10.4732 6.70386 10.6462V8.06437ZM5.59545 6.48381C5.42356 6.32097 5.34983 6.00814 5.40298 5.66751C5.45258 5.34947 5.63314 4.96318 5.99112 4.83285C5.99436 4.83166 5.9975 4.83075 6.00073 4.82962V6.78854C5.83513 6.68539 5.7027 6.58548 5.59545 6.48381Z" fill="#D3D729"/>
<path d="M19.733 26.5001C19.5387 26.5001 19.3814 26.6903 19.3814 26.9249V27.2287C19.3814 27.7369 19.0392 28.1504 18.6186 28.1504H2.78318C2.36253 28.1504 2.02039 27.7369 2.02039 27.2287V1.77132C2.02039 1.26309 2.36253 0.849609 2.78318 0.849609H15.0836C15.1207 0.849609 15.1573 0.853971 15.1936 0.860371V4.41247C15.1936 5.23812 15.7495 5.90983 16.4328 5.90983H19.3725C19.3778 5.95367 19.3814 5.99785 19.3814 6.04276V8.07072C19.3814 8.30533 19.5387 8.49553 19.733 8.49553C19.9272 8.49553 20.0845 8.30533 20.0845 8.07072V6.04276C20.0845 5.55718 19.8921 5.07528 19.6626 4.79967C19.5183 4.62527 16.124 0.523359 16.1202 0.518828L16.1121 0.509256C16.1119 0.508916 16.1115 0.50852 16.1112 0.50818L16.111 0.507953C16.1101 0.50682 16.1091 0.505744 16.1081 0.504555C15.8439 0.192691 15.4796 0 15.0836 0H2.78318C1.97487 0 1.31726 0.794611 1.31726 1.77132V27.2286C1.31726 28.2053 1.97487 28.9999 2.78318 28.9999H18.6185C19.4269 28.9999 20.0845 28.2053 20.0845 27.2286V26.9249C20.0845 26.6903 19.9271 26.5001 19.733 26.5001ZM15.8967 1.45045C16.1586 1.7669 18.5305 4.63281 18.8842 5.06022H16.4328C16.1372 5.06022 15.8967 4.76965 15.8967 4.41247V1.45045H15.8967Z" fill="#D3D729"/>
<path d="M21.4623 9.63898H11.9961C11.3231 9.63898 10.7756 10.3005 10.7756 11.1137V12.5428C10.7756 12.7774 10.9329 12.9676 11.1271 12.9676C11.3213 12.9676 11.4787 12.7774 11.4787 12.5428V11.1137C11.4787 10.7691 11.7108 10.4886 11.9961 10.4886H21.4623C21.7475 10.4886 21.9796 10.769 21.9796 11.1137V23.8915C21.9796 24.2361 21.7475 24.5166 21.4623 24.5166H11.9961C11.7108 24.5166 11.4787 24.2362 11.4787 23.8915V14.5288C11.4787 14.2942 11.3213 14.104 11.1271 14.104C10.9329 14.104 10.7756 14.2942 10.7756 14.5288V23.8915C10.7756 24.7046 11.3231 25.3662 11.9961 25.3662H21.4623C22.1352 25.3662 22.6827 24.7047 22.6827 23.8915V11.1137C22.6827 10.3005 22.1353 9.63898 21.4623 9.63898Z" fill="#D3D729"/>
<path d="M20.8538 12.4495C20.8538 12.0351 20.5748 11.698 20.2319 11.698H13.2265C12.8835 11.698 12.6045 12.0351 12.6045 12.4495V14.6236C12.6045 15.038 12.8835 15.3751 13.2265 15.3751H20.2319C20.5747 15.3751 20.8538 15.038 20.8538 14.6236V12.4495ZM20.1507 14.5255H13.3076V12.5476H20.1506V14.5255H20.1507Z" fill="#D3D729"/>
</svg>
