<svg width="24" height="29" viewBox="0 0 24 29" fill="none" xmlns="http://www.w3.org/2000/svg">
<path d="M9.01347 14.5255H4.28711C4.09291 14.5255 3.93555 14.7157 3.93555 14.9503C3.93555 15.1849 4.09291 15.3751 4.28711 15.3751H9.01347C9.20767 15.3751 9.36503 15.1849 9.36503 14.9503C9.36503 14.7157 9.20767 14.5255 9.01347 14.5255Z" fill="white"/>
<path d="M9.01347 18.2306H4.28711C4.09291 18.2306 3.93555 18.4208 3.93555 18.6554C3.93555 18.89 4.09291 19.0802 4.28711 19.0802H9.01347C9.20767 19.0802 9.36503 18.89 9.36503 18.6554C9.36503 18.4208 9.20767 18.2306 9.01347 18.2306Z" fill="white"/>
<path d="M9.01347 21.9357H4.28711C4.09291 21.9357 3.93555 22.1259 3.93555 22.3605C3.93555 22.5951 4.09291 22.7853 4.28711 22.7853H9.01347C9.20767 22.7853 9.36503 22.5951 9.36503 22.3605C9.36503 22.1259 9.20767 21.9357 9.01347 21.9357Z" fill="white"/>
<path d="M12.9561 17.7014H13.7022C13.8964 17.7014 14.0538 17.5112 14.0538 17.2766C14.0538 17.042 13.8964 16.8518 13.7022 16.8518H12.9561C12.7619 16.8518 12.6045 17.042 12.6045 17.2766C12.6045 17.5112 12.7619 17.7014 12.9561 17.7014Z" fill="white"/>
<path d="M15.9691 16.8518H15.2229C15.0287 16.8518 14.8713 17.042 14.8713 17.2766C14.8713 17.5112 15.0287 17.7014 15.2229 17.7014H15.9691C16.1633 17.7014 16.3206 17.5112 16.3206 17.2766C16.3206 17.042 16.1632 16.8518 15.9691 16.8518Z" fill="white"/>
<path d="M18.2357 16.8518H17.4895C17.2953 16.8518 17.1379 17.042 17.1379 17.2766C17.1379 17.5112 17.2953 17.7014 17.4895 17.7014H18.2357C18.4299 17.7014 18.5872 17.5112 18.5872 17.2766C18.5872 17.042 18.4299 16.8518 18.2357 16.8518Z" fill="white"/>
<path d="M20.5025 16.8518H19.7563C19.5621 16.8518 19.4048 17.042 19.4048 17.2766C19.4048 17.5112 19.5621 17.7014 19.7563 17.7014H20.5025C20.6967 17.7014 20.854 17.5112 20.854 17.2766C20.854 17.042 20.6966 16.8518 20.5025 16.8518Z" fill="white"/>
<path d="M12.9561 19.9104H13.7022C13.8964 19.9104 14.0538 19.7202 14.0538 19.4856C14.0538 19.251 13.8964 19.0608 13.7022 19.0608H12.9561C12.7619 19.0608 12.6045 19.251 12.6045 19.4856C12.6045 19.7202 12.7619 19.9104 12.9561 19.9104Z" fill="white"/>
<path d="M15.9691 19.0608H15.2229C15.0287 19.0608 14.8713 19.251 14.8713 19.4856C14.8713 19.7202 15.0287 19.9104 15.2229 19.9104H15.9691C16.1633 19.9104 16.3206 19.7202 16.3206 19.4856C16.3206 19.251 16.1632 19.0608 15.9691 19.0608Z" fill="white"/>
<path d="M18.2357 19.0608H17.4895C17.2953 19.0608 17.1379 19.251 17.1379 19.4856C17.1379 19.7202 17.2953 19.9104 17.4895 19.9104H18.2357C18.4299 19.9104 18.5872 19.7202 18.5872 19.4856C18.5872 19.251 18.4299 19.0608 18.2357 19.0608Z" fill="white"/>
<path d="M20.5025 19.0608H19.7563C19.5621 19.0608 19.4048 19.251 19.4048 19.4856C19.4048 19.7202 19.5621 19.9104 19.7563 19.9104H20.5025C20.6967 19.9104 20.854 19.7202 20.854 19.4856C20.854 19.251 20.6966 19.0608 20.5025 19.0608Z" fill="white"/>
<path d="M12.9561 22.1194H13.7022C13.8964 22.1194 14.0538 21.9292 14.0538 21.6946C14.0538 21.46 13.8964 21.2698 13.7022 21.2698H12.9561C12.7619 21.2698 12.6045 21.46 12.6045 21.6946C12.6045 21.9292 12.7619 22.1194 12.9561 22.1194Z" fill="white"/>
<path d="M15.9691 21.2698H15.2229C15.0287 21.2698 14.8713 21.46 14.8713 21.6946C14.8713 21.9292 15.0287 22.1194 15.2229 22.1194H15.9691C16.1633 22.1194 16.3206 21.9292 16.3206 21.6946C16.3206 21.46 16.1632 21.2698 15.9691 21.2698Z" fill="white"/>
<path d="M18.2357 21.2698H17.4895C17.2953 21.2698 17.1379 21.46 17.1379 21.6946C17.1379 21.9292 17.2953 22.1194 17.4895 22.1194H18.2357C18.4299 22.1194 18.5872 21.9292 18.5872 21.6946C18.5872 21.46 18.4299 21.2698 18.2357 21.2698Z" fill="white"/>
<path d="M20.5025 21.2698H19.7563C19.5621 21.2698 19.4048 21.46 19.4048 21.6946C19.4048 21.9292 19.5621 22.1194 19.7563 22.1194H20.5025C20.6967 22.1194 20.854 21.9292 20.854 21.6946C20.854 21.46 20.6966 21.2698 20.5025 21.2698Z" fill="white"/>
<path d="M5.06262 10.2951C4.90025 10.1667 4.68228 10.2218 4.57596 10.418C4.46965 10.6143 4.51521 10.8777 4.67773 11.0061C5.19232 11.4129 5.53976 11.5253 6.00092 11.5509V12.1227C6.00092 12.3573 6.15828 12.5475 6.35248 12.5475C6.54668 12.5475 6.70404 12.3573 6.70404 12.1227V11.5191C7.5964 11.3284 8.11746 10.449 8.2317 9.62783C8.37621 8.58921 7.92626 7.68608 7.08542 7.32692C6.94817 7.2683 6.8216 7.21217 6.70404 7.15785V4.78217C7.04618 4.86305 7.25107 5.07472 7.26748 5.09211C7.41021 5.24878 7.63114 5.23722 7.7622 5.0656C7.89387 4.89313 7.88487 4.62437 7.74214 4.46532C7.71964 4.44023 7.334 4.02115 6.70404 3.92191V3.41028C6.70404 3.17567 6.54668 2.98547 6.35248 2.98547C6.15828 2.98547 6.00092 3.17567 6.00092 3.41028V3.95459C5.93173 3.97164 5.8609 3.99311 5.78853 4.01945C5.23671 4.2203 4.82431 4.79152 4.71218 5.51023C4.61028 6.16375 4.7825 6.79297 5.16176 7.15241C5.37223 7.35184 5.6359 7.53445 6.00092 7.72862V10.7011C5.65906 10.6787 5.43832 10.5921 5.06262 10.2951ZM6.70404 8.06438C6.7519 8.08534 6.80075 8.10652 6.85109 8.12799C7.61862 8.45583 7.57114 9.25106 7.53832 9.48702C7.4719 9.9645 7.18803 10.4733 6.70404 10.6462V8.06438ZM5.59564 6.48383C5.42375 6.32098 5.35001 6.00816 5.40317 5.66752C5.45276 5.34948 5.63332 4.96319 5.99131 4.83286C5.99454 4.83167 5.99768 4.83077 6.00092 4.82964V6.78855C5.83531 6.68541 5.70289 6.58549 5.59564 6.48383Z" fill="white"/>
<path d="M19.7331 26.5001C19.5389 26.5001 19.3815 26.6903 19.3815 26.9249V27.2287C19.3815 27.7369 19.0393 28.1504 18.6187 28.1504H2.7833C2.36265 28.1504 2.02051 27.7369 2.02051 27.2287V1.77132C2.02051 1.26309 2.36265 0.849609 2.7833 0.849609H15.0837C15.1209 0.849609 15.1575 0.853971 15.1937 0.860371V4.41247C15.1937 5.23812 15.7496 5.90983 16.4329 5.90983H19.3726C19.3779 5.95367 19.3815 5.99785 19.3815 6.04276V8.07072C19.3815 8.30533 19.5389 8.49553 19.7331 8.49553C19.9273 8.49553 20.0846 8.30533 20.0846 8.07072V6.04276C20.0846 5.55718 19.8922 5.07528 19.6627 4.79967C19.5184 4.62527 16.1241 0.523359 16.1203 0.518828L16.1123 0.509256C16.112 0.508916 16.1116 0.50852 16.1113 0.50818L16.1111 0.507953C16.1102 0.50682 16.1093 0.505744 16.1082 0.504555C15.844 0.192691 15.4797 0 15.0837 0H2.7833C1.97499 0 1.31738 0.794611 1.31738 1.77132V27.2286C1.31738 28.2053 1.97499 28.9999 2.7833 28.9999H18.6187C19.427 28.9999 20.0846 28.2053 20.0846 27.2286V26.9249C20.0846 26.6903 19.9272 26.5001 19.7331 26.5001ZM15.8969 1.45045C16.1588 1.7669 18.5306 4.63281 18.8843 5.06022H16.4329C16.1373 5.06022 15.8968 4.76965 15.8968 4.41247V1.45045H15.8969Z" fill="white"/>
<path d="M21.4623 9.63898H11.9961C11.3232 9.63898 10.7756 10.3005 10.7756 11.1137V12.5428C10.7756 12.7774 10.933 12.9676 11.1272 12.9676C11.3214 12.9676 11.4788 12.7774 11.4788 12.5428V11.1137C11.4788 10.7691 11.7108 10.4886 11.9961 10.4886H21.4623C21.7476 10.4886 21.9797 10.769 21.9797 11.1137V23.8915C21.9797 24.2361 21.7476 24.5166 21.4623 24.5166H11.9961C11.7108 24.5166 11.4788 24.2362 11.4788 23.8915V14.5288C11.4788 14.2942 11.3214 14.104 11.1272 14.104C10.933 14.104 10.7756 14.2942 10.7756 14.5288V23.8915C10.7756 24.7046 11.3232 25.3662 11.9961 25.3662H21.4623C22.1353 25.3662 22.6828 24.7047 22.6828 23.8915V11.1137C22.6828 10.3005 22.1353 9.63898 21.4623 9.63898Z" fill="white"/>
<path d="M20.8538 12.4495C20.8538 12.0351 20.5748 11.698 20.2319 11.698H13.2265C12.8835 11.698 12.6045 12.0351 12.6045 12.4495V14.6236C12.6045 15.038 12.8835 15.3751 13.2265 15.3751H20.2319C20.5747 15.3751 20.8538 15.038 20.8538 14.6236V12.4495ZM20.1507 14.5255H13.3076V12.5476H20.1506V14.5255H20.1507Z" fill="white"/>
</svg>
