<svg width="24" height="24" viewBox="0 0 24 24" fill="none" xmlns="http://www.w3.org/2000/svg">
<path d="M12 24C5.3828 24 0 18.6172 0 12C0 5.3828 5.3828 0 12 0C18.6172 0 24 5.38373 24 12C24 18.6163 18.6172 24 12 24ZM12 1.85902C6.40898 1.85902 1.85902 6.40805 1.85902 12C1.85902 17.592 6.40898 22.141 12 22.141C17.591 22.141 22.141 17.592 22.141 12C22.141 6.40805 17.592 1.85902 12 1.85902Z" fill="black"/>
<path d="M16.6476 13.0131H12.9295V16.7311C12.9295 17.2442 12.514 17.6606 12 17.6606C11.486 17.6606 11.0705 17.2442 11.0705 16.7311V13.0131H7.35244C6.83841 13.0131 6.42291 12.5966 6.42291 12.0835C6.42291 11.5705 6.83841 11.154 7.35244 11.154H11.0705V7.43599C11.0705 6.92289 11.486 6.50646 12 6.50646C12.514 6.50646 12.9295 6.92289 12.9295 7.43599V11.154H16.6476C17.1616 11.154 17.5771 11.5705 17.5771 12.0835C17.5771 12.5966 17.1616 13.0131 16.6476 13.0131Z" fill="black"/>
</svg>
