<svg width="24" height="24" viewBox="0 0 24 24" fill="none" xmlns="http://www.w3.org/2000/svg">
<g clip-path="url(#clip0_0_753)">
<path d="M12 24C5.3828 24 0 18.6172 0 12C0 5.3828 5.3828 0 12 0C18.6172 0 24 5.38373 24 12C24 18.6163 18.6172 24 12 24ZM12 1.85902C6.40898 1.85902 1.85902 6.40805 1.85902 12C1.85902 17.592 6.40898 22.141 12 22.141C17.591 22.141 22.141 17.592 22.141 12C22.141 6.40805 17.592 1.85902 12 1.85902Z" fill="#3D8CD6"/>
<path d="M16.6476 13.0131H12.9295V16.7312C12.9295 17.2443 12.514 17.6607 12 17.6607C11.486 17.6607 11.0705 17.2443 11.0705 16.7312V13.0131H7.35244C6.83841 13.0131 6.42291 12.5967 6.42291 12.0836C6.42291 11.5705 6.83841 11.1541 7.35244 11.1541H11.0705V7.43605C11.0705 6.92295 11.486 6.50652 12 6.50652C12.514 6.50652 12.9295 6.92295 12.9295 7.43605V11.1541H16.6476C17.1616 11.1541 17.5771 11.5705 17.5771 12.0836C17.5771 12.5967 17.1616 13.0131 16.6476 13.0131Z" fill="#3D8CD6"/>
</g>
<defs>
<clipPath id="clip0_0_753">
<rect width="24" height="24" fill="white" transform="matrix(1 0 0 -1 0 24)"/>
</clipPath>
</defs>
</svg>
