<svg width="32" height="32" viewBox="0 0 32 32" fill="none" xmlns="http://www.w3.org/2000/svg">
<path d="M17.2092 6.89823C17.1683 6.13485 16.3882 6.26472 15.627 6.26472C16.1893 6.41448 16.7212 6.62284 17.2092 6.89823Z" fill="white"/>
<path d="M9.07174 4.98486C6.11662 4.98486 4.75642 8.72528 7.11876 10.6065C7.92408 8.45616 9.52724 6.91215 11.6289 6.30272C11.054 5.50792 10.1251 4.98486 9.07174 4.98486Z" fill="white"/>
<path d="M2.96652 10.0213C3.08695 10.4077 3.24298 10.7784 3.42835 11.1297L2.45762 12.101C2.19694 12.3616 2.19694 12.7848 2.45762 13.046L4.16866 14.7576C4.29327 14.8822 4.46401 14.9523 4.64196 14.9523C4.81795 14.9523 4.98754 14.8822 5.1143 14.7576L6.08395 13.7863C6.22946 13.8633 6.39076 13.9105 6.54146 13.9769C6.54146 13.9659 6.54039 13.9544 6.54039 13.9433C6.54039 13.1496 6.63155 12.4009 6.79386 11.6978C5.62313 10.9443 4.84195 9.63645 4.84195 8.1432C4.84195 5.81066 6.73937 3.9127 9.07138 3.9127C10.6505 3.9127 12.0138 4.79179 12.7416 6.07613C13.5186 5.97977 14.2485 5.97977 15.127 6.14579C15.014 5.80392 14.881 5.46933 14.7145 5.15571L15.6852 4.18397C15.8118 4.05882 15.882 3.88863 15.882 3.71169C15.882 3.53469 15.8118 3.36456 15.6852 3.23941L13.9751 1.52891C13.8443 1.39803 13.6736 1.33309 13.5029 1.33309C13.3322 1.33309 13.1615 1.39803 13.0316 1.52891L12.0578 2.50065C11.706 2.31427 11.3364 2.15824 10.949 2.04044V0.667559C10.949 0.298985 10.6515 0 10.2819 0H7.86195C7.49439 0 7.19378 0.298985 7.19378 0.667559V2.04037C6.80741 2.15817 6.43769 2.3142 6.08483 2.50058L5.1143 1.52992C4.98335 1.39904 4.81269 1.33411 4.64196 1.33411C4.47129 1.33411 4.29961 1.39904 4.16974 1.52938L2.45762 3.23988C2.33301 3.36557 2.26288 3.53516 2.26288 3.71271C2.26288 3.89018 2.33301 4.05984 2.45762 4.18499L3.42835 5.15618C3.24291 5.50803 3.08695 5.87822 2.96868 6.2646H1.59688C1.22722 6.2646 0.928711 6.56406 0.928711 6.93317V9.35317C0.928711 9.7212 1.22722 10.0213 1.59688 10.0213H2.96652Z" fill="white"/>
<path d="M23.9293 22.9702C24.9995 22.3833 25.7346 21.2597 25.7346 19.9559C25.7346 18.0532 24.1859 16.5056 22.2832 16.5056C21.6141 16.5056 20.9941 16.7056 20.4643 17.0365C20.1471 18.2993 19.6475 19.5073 18.9941 20.5565C20.8464 20.9047 22.546 21.7482 23.9293 22.9702Z" fill="white"/>
<path d="M31.0712 18.6504C31.0712 18.2519 30.7476 17.9293 30.3507 17.9293H28.8702C28.7423 17.512 28.5727 17.112 28.3717 16.7324L29.4198 15.6843C29.556 15.5492 29.6313 15.366 29.6313 15.1749C29.6313 14.9837 29.5559 14.8004 29.4198 14.6649L27.5747 12.8193C27.4345 12.6783 27.2491 12.6077 27.0649 12.6077C26.8805 12.6077 26.6962 12.6783 26.556 12.8193L25.5057 13.8679C25.1265 13.6669 24.7276 13.4984 24.3087 13.371V11.8904C24.3087 11.4925 23.9872 11.1699 23.5893 11.1699H20.9788C20.8039 11.1699 20.65 11.24 20.5244 11.3438C20.7442 12.1458 20.8647 13.0156 20.8647 13.9433C20.8647 14.5323 20.8187 15.1304 20.7328 15.725C21.2186 15.5459 21.7359 15.4335 22.2836 15.4335C24.7778 15.4335 26.8072 17.4624 26.8072 19.956C26.8072 21.5499 25.9748 22.9467 24.7255 23.7525C25.6345 24.7494 26.357 25.9322 26.8272 27.2573C26.9046 27.284 26.9852 27.3034 27.0659 27.3034C27.2502 27.3034 27.4345 27.2333 27.5759 27.0924L29.422 25.2467C29.5572 25.1116 29.6315 24.9284 29.6315 24.7373C29.6315 24.5462 29.5572 24.363 29.422 24.2273L28.3717 23.1786C28.5728 22.7996 28.7424 22.3995 28.8702 21.9818H30.3508C30.5414 21.9818 30.7267 21.9064 30.8608 21.7702C30.9959 21.6356 31.0724 21.4519 31.0724 21.2607L31.0712 18.6504Z" fill="white"/>
<path d="M25.3572 27.9096C24.2377 24.6158 21.2796 22.3504 17.8648 22.042C16.7213 23.2529 15.3056 24.0211 13.7023 24.0211C12.1002 24.0211 10.6834 23.253 9.54096 22.042C6.12414 22.3504 3.16591 24.6158 2.04644 27.9102L1.42763 29.7317C1.25062 30.2558 1.33538 30.8333 1.65797 31.283C1.98049 31.7329 2.4999 31.9999 3.05276 31.9999H24.3508C24.9047 31.9999 25.4241 31.7329 25.7467 31.283C26.0682 30.8333 26.1541 30.2558 25.976 29.7317L25.3572 27.9096Z" fill="white"/>
<path d="M8.14844 13.9434C8.14844 18.0289 10.6355 22.4128 13.7014 22.4128C16.7686 22.4128 19.2555 18.0289 19.2555 13.9434C19.2556 5.47454 8.14844 5.45775 8.14844 13.9434Z" fill="white"/>
</svg>
