<svg width="32" height="32" viewBox="0 0 32 32" fill="none" xmlns="http://www.w3.org/2000/svg">
<path d="M17.2085 6.89823C17.1676 6.13485 16.3874 6.26472 15.6262 6.26472C16.1885 6.41448 16.7205 6.62284 17.2085 6.89823Z" fill="white"/>
<path d="M9.07101 4.98486C6.11588 4.98486 4.75568 8.72528 7.11803 10.6065C7.92335 8.45616 9.5265 6.91215 11.6282 6.30272C11.0533 5.50792 10.1244 4.98486 9.07101 4.98486Z" fill="white"/>
<path d="M2.96603 10.0213C3.08646 10.4077 3.24249 10.7784 3.42786 11.1297L2.45713 12.101C2.19645 12.3616 2.19645 12.7848 2.45713 13.046L4.16818 14.7576C4.29279 14.8822 4.46352 14.9523 4.64147 14.9523C4.81746 14.9523 4.98705 14.8822 5.11382 14.7576L6.08346 13.7863C6.22898 13.8633 6.39027 13.9105 6.54098 13.9769C6.54098 13.9659 6.5399 13.9544 6.5399 13.9433C6.5399 13.1496 6.63106 12.4009 6.79337 11.6978C5.62264 10.9443 4.84147 9.63645 4.84147 8.1432C4.84147 5.81066 6.73888 3.9127 9.07089 3.9127C10.65 3.9127 12.0133 4.79179 12.7411 6.07613C13.5181 5.97977 14.248 5.97977 15.1265 6.14579C15.0135 5.80392 14.8805 5.46933 14.714 5.15571L15.6847 4.18397C15.8113 4.05882 15.8815 3.88863 15.8815 3.71169C15.8815 3.53469 15.8113 3.36456 15.6847 3.23941L13.9746 1.52891C13.8438 1.39803 13.6731 1.33309 13.5024 1.33309C13.3317 1.33309 13.161 1.39803 13.0311 1.52891L12.0573 2.50065C11.7055 2.31427 11.3359 2.15824 10.9485 2.04044V0.667559C10.9485 0.298985 10.651 0 10.2814 0H7.86146C7.4939 0 7.1933 0.298985 7.1933 0.667559V2.04037C6.80692 2.15817 6.4372 2.3142 6.08434 2.50058L5.11382 1.52992C4.98287 1.39904 4.8122 1.33411 4.64147 1.33411C4.4708 1.33411 4.29912 1.39904 4.16925 1.52938L2.45713 3.23988C2.33252 3.36557 2.2624 3.53516 2.2624 3.71271C2.2624 3.89018 2.33252 4.05984 2.45713 4.18499L3.42786 5.15618C3.24243 5.50803 3.08646 5.87822 2.96819 6.2646H1.59639C1.22674 6.2646 0.928223 6.56406 0.928223 6.93317V9.35317C0.928223 9.7212 1.22674 10.0213 1.59639 10.0213H2.96603Z" fill="white"/>
<path d="M23.929 22.9702C24.9993 22.3833 25.7344 21.2597 25.7344 19.9559C25.7344 18.0532 24.1857 16.5056 22.283 16.5056C21.6139 16.5056 20.9939 16.7056 20.4641 17.0365C20.1468 18.2993 19.6473 19.5073 18.9939 20.5565C20.8462 20.9047 22.5458 21.7482 23.929 22.9702Z" fill="white"/>
<path d="M31.0705 18.6504C31.0705 18.2519 30.7469 17.9293 30.35 17.9293H28.8694C28.7416 17.512 28.572 17.112 28.3709 16.7324L29.4191 15.6843C29.5553 15.5492 29.6306 15.366 29.6306 15.1749C29.6306 14.9837 29.5552 14.8004 29.4191 14.6649L27.574 12.8193C27.4337 12.6783 27.2484 12.6077 27.0641 12.6077C26.8798 12.6077 26.6955 12.6783 26.5552 12.8193L25.505 13.8679C25.1258 13.6669 24.7269 13.4984 24.308 13.371V11.8904C24.308 11.4925 23.9865 11.1699 23.5886 11.1699H20.9781C20.8032 11.1699 20.6492 11.24 20.5237 11.3438C20.7435 12.1458 20.8639 13.0156 20.8639 13.9433C20.8639 14.5323 20.8179 15.1304 20.732 15.725C21.2179 15.5459 21.7351 15.4335 22.2829 15.4335C24.7771 15.4335 26.8065 17.4624 26.8065 19.956C26.8065 21.5499 25.9741 22.9467 24.7248 23.7525C25.6337 24.7494 26.3563 25.9322 26.8264 27.2573C26.9039 27.284 26.9845 27.3034 27.0652 27.3034C27.2494 27.3034 27.4338 27.2333 27.5751 27.0924L29.4213 25.2467C29.5564 25.1116 29.6307 24.9284 29.6307 24.7373C29.6307 24.5462 29.5564 24.363 29.4213 24.2273L28.371 23.1786C28.5721 22.7996 28.7417 22.3995 28.8695 21.9818H30.3501C30.5406 21.9818 30.726 21.9064 30.8601 21.7702C30.9952 21.6356 31.0717 21.4519 31.0717 21.2607L31.0705 18.6504Z" fill="white"/>
<path d="M25.3562 27.9096C24.2367 24.6158 21.2786 22.3504 17.8638 22.042C16.7204 23.2529 15.3046 24.0211 13.7013 24.0211C12.0992 24.0211 10.6824 23.253 9.53998 22.042C6.12316 22.3504 3.16493 24.6158 2.04546 27.9102L1.42665 29.7317C1.24965 30.2558 1.33441 30.8333 1.65699 31.283C1.97951 31.7329 2.49893 31.9999 3.05179 31.9999H24.3498C24.9037 31.9999 25.4232 31.7329 25.7457 31.283C26.0672 30.8333 26.1531 30.2558 25.975 29.7317L25.3562 27.9096Z" fill="white"/>
<path d="M8.14844 13.9434C8.14844 18.0289 10.6355 22.4128 13.7014 22.4128C16.7686 22.4128 19.2555 18.0289 19.2555 13.9434C19.2556 5.47454 8.14844 5.45775 8.14844 13.9434Z" fill="white"/>
</svg>
