<svg width="60" height="60" viewBox="0 0 60 60" fill="none" xmlns="http://www.w3.org/2000/svg">
<path d="M53.4475 42.2825C49.6675 39.0875 47.5 34.4175 47.5 29.47V22.5C47.5 13.7025 40.965 6.42 32.5 5.2V2.5C32.5 1.1175 31.38 0 30 0C28.62 0 27.5 1.1175 27.5 2.5V5.2C19.0325 6.42 12.5 13.7025 12.5 22.5V29.47C12.5 34.4175 10.3325 39.0875 6.53 42.3025C5.5575 43.135 5 44.345 5 45.625C5 48.0375 6.9625 50 9.375 50H50.625C53.0375 50 55 48.0375 55 45.625C55 44.345 54.4425 43.135 53.4475 42.2825Z" fill="white"/>
<path d="M30 60C34.5275 60 38.315 56.7725 39.185 52.5H20.815C21.685 56.7725 25.4725 60 30 60Z" fill="white"/>
</svg>
