<svg width="39" height="39" viewBox="0 0 39 39" fill="none" xmlns="http://www.w3.org/2000/svg">
<g clip-path="url(#clip0_109_150)">
<path d="M36.2178 13.4751C36.0601 12.2896 36.0378 10.2476 37.139 9.56198C37.1587 9.54941 37.1733 9.53125 37.1906 9.51566C38.0908 9.22771 38.7139 8.8236 38.2248 8.27982L24.9445 4.27832L3.44056 7.26804C3.44056 7.26804 0.978093 7.62001 1.19807 11.4458C1.31749 13.528 1.97055 14.5506 2.54168 15.0539L0.777087 15.5857C0.287318 16.1294 0.910238 16.5337 1.81063 16.8211C1.82774 16.8372 1.84217 16.8552 1.86219 16.8678C2.96266 17.554 2.94148 19.5958 2.78319 20.7816C-1.17024 21.9041 0.248909 22.27 0.248909 22.27L1.11613 22.4798C0.506131 23.031 -0.0996793 24.0763 0.013801 26.0588C0.233895 29.8839 2.25652 30.1478 2.25652 30.1478L16.3286 34.7218L37.5686 29.5771C37.5686 29.5771 38.9882 29.2107 35.0337 28.088C34.8747 26.904 34.8526 24.8626 35.9557 24.1746C35.9759 24.1623 35.9907 24.1438 36.0071 24.1285C36.9075 23.8405 37.5299 23.4368 37.0408 22.893L36.1176 22.6142C36.7333 22.243 37.6581 21.2726 37.803 18.7521C37.903 17.0183 37.4507 16.0029 36.9272 15.4051L38.7519 14.9635C38.752 14.9642 40.1717 14.5978 36.2178 13.4751ZM18.4517 13.4261L22.0235 12.6921L34.0941 10.2116L35.8925 9.84167C35.3178 10.8934 35.3419 12.3327 35.437 13.2577C35.4579 13.467 35.4818 13.6581 35.5051 13.8034L33.5367 14.2928L18.3016 18.0828L18.4517 13.4261ZM3.10885 17.1487L4.90696 17.5185L16.4991 19.9015L17.5118 20.1089L20.5487 20.7331L20.6985 25.3899L5.04011 21.4942L3.49643 21.1106C3.51912 20.9651 3.5431 20.7742 3.56486 20.5644C3.65937 19.64 3.68393 18.2004 3.10885 17.1487ZM2.41027 11.2616C2.38851 10.244 2.56984 9.50809 2.93636 9.13401C3.1696 8.89518 3.44487 8.84548 3.63365 8.84548C3.7334 8.84548 3.80521 8.85933 3.8101 8.85933L13.0756 11.88L17.6982 13.3872L17.5466 18.0764L4.57816 14.4406L3.89378 14.2489C3.86864 14.2418 3.83454 14.2369 3.80824 14.2358C3.75481 14.2319 2.47266 14.1139 2.41027 11.2616ZM16.3621 32.6902L2.70963 28.8625C2.68437 28.8552 2.65062 28.8503 2.62432 28.849C2.56996 28.8454 1.28723 28.7275 1.22519 25.876C1.20308 24.8571 1.38534 24.1218 1.75116 23.7474C1.98498 23.5086 2.26036 23.4589 2.4488 23.4589C2.54878 23.4589 2.62036 23.4723 2.6256 23.4723C2.6256 23.4723 2.62618 23.4723 2.6256 23.4723L16.5128 28.0008L16.3621 32.6902ZM34.2518 27.8708C34.2733 28.0808 34.2973 28.2715 34.3206 28.417L17.1167 32.6968L17.2671 28.04L20.9452 27.2838L21.4884 27.4152L23.5243 26.7536L32.9089 24.8251L34.708 24.455C34.1328 25.5065 34.1566 26.9464 34.2518 27.8708ZM35.1995 21.5421C35.1682 21.5428 35.1369 21.5469 35.1074 21.5563L33.8099 21.9195L21.4553 25.3838L21.3042 20.6945L25.3576 19.3724L35.1725 16.1716C35.1737 16.171 35.6888 16.0566 36.0668 16.441C36.4327 16.8151 36.6143 17.551 36.5929 18.5686C36.5289 21.42 35.2461 21.5384 35.1995 21.5421Z" fill="white"/>
</g>
<defs>
<clipPath id="clip0_109_150">
<rect width="39" height="39" fill="white"/>
</clipPath>
</defs>
</svg>
