<svg width="25" height="25" viewBox="0 0 25 25" fill="none" xmlns="http://www.w3.org/2000/svg">
<path d="M25 5.37109V21.582C25 22.7935 24.0142 23.7793 22.8027 23.7793H2.19727C0.98584 23.7793 0 22.7935 0 21.582V5.37109C0 4.15967 0.98584 3.17383 2.19727 3.17383H22.8027C24.0142 3.17383 25 4.15967 25 5.37109Z" fill="#EEF4FF"/>
<path d="M25 5.37109V21.582C25 22.7935 24.0142 23.7793 22.8027 23.7793H12.5V3.17383H22.8027C24.0142 3.17383 25 4.15967 25 5.37109Z" fill="#D9E6FC"/>
<path d="M25 5.37109V8.98438C25 9.38867 24.6719 9.7168 24.2676 9.7168H0.732422C0.328125 9.7168 0 9.38867 0 8.98438V5.37109C0 4.15967 0.98584 3.17383 2.19727 3.17383H22.8027C24.0142 3.17383 25 4.15967 25 5.37109Z" fill="#DD5958"/>
<path d="M25 5.37109V8.98438C25 9.38867 24.6719 9.7168 24.2676 9.7168H12.5V3.17383H22.8027C24.0142 3.17383 25 4.15967 25 5.37109Z" fill="#D8225B"/>
<path d="M4.6875 6.5918C4.28301 6.5918 3.95508 6.26387 3.95508 5.85938V1.95312C3.95508 1.54863 4.28301 1.2207 4.6875 1.2207C5.09199 1.2207 5.41992 1.54863 5.41992 1.95312V5.85938C5.41992 6.26387 5.09199 6.5918 4.6875 6.5918Z" fill="#FFE278"/>
<path d="M13.2324 1.95312V5.85938C13.2324 6.26367 12.9043 6.5918 12.5 6.5918C12.0957 6.5918 11.7676 6.26367 11.7676 5.85938V1.95312C11.7676 1.54883 12.0957 1.2207 12.5 1.2207C12.9043 1.2207 13.2324 1.54883 13.2324 1.95312Z" fill="#FFE278"/>
<path d="M13.2324 1.95312V5.85938C13.2324 6.26367 12.9043 6.5918 12.5 6.5918V1.2207C12.9043 1.2207 13.2324 1.54883 13.2324 1.95312Z" fill="#FFB454"/>
<path d="M20.3125 6.5918C19.908 6.5918 19.5801 6.26387 19.5801 5.85938V1.95312C19.5801 1.54863 19.908 1.2207 20.3125 1.2207C20.717 1.2207 21.0449 1.54863 21.0449 1.95312V5.85938C21.0449 6.26387 20.717 6.5918 20.3125 6.5918Z" fill="#FFB454"/>
<path d="M7.03125 13.623H5.46875C5.06426 13.623 4.73633 13.2951 4.73633 12.8906C4.73633 12.4861 5.06426 12.1582 5.46875 12.1582H7.03125C7.43574 12.1582 7.76367 12.4861 7.76367 12.8906C7.76367 13.2951 7.43574 13.623 7.03125 13.623Z" fill="#425796"/>
<path d="M7.03125 16.748H5.46875C5.06426 16.748 4.73633 16.4201 4.73633 16.0156C4.73633 15.6111 5.06426 15.2832 5.46875 15.2832H7.03125C7.43574 15.2832 7.76367 15.6111 7.76367 16.0156C7.76367 16.4201 7.43574 16.748 7.03125 16.748Z" fill="#425796"/>
<path d="M7.03125 19.873H5.46875C5.06426 19.873 4.73633 19.5451 4.73633 19.1406C4.73633 18.7361 5.06426 18.4082 5.46875 18.4082H7.03125C7.43574 18.4082 7.76367 18.7361 7.76367 19.1406C7.76367 19.5451 7.43574 19.873 7.03125 19.873Z" fill="#425796"/>
<path d="M14.0137 12.8906C14.0137 13.2949 13.6855 13.623 13.2812 13.623H11.7188C11.3145 13.623 10.9863 13.2949 10.9863 12.8906C10.9863 12.4863 11.3145 12.1582 11.7188 12.1582H13.2812C13.6855 12.1582 14.0137 12.4863 14.0137 12.8906Z" fill="#425796"/>
<path d="M14.0137 12.8906C14.0137 13.2949 13.6855 13.623 13.2812 13.623H12.5V12.1582H13.2812C13.6855 12.1582 14.0137 12.4863 14.0137 12.8906Z" fill="#283758"/>
<path d="M14.0137 16.0156C14.0137 16.4199 13.6855 16.748 13.2812 16.748H11.7188C11.3145 16.748 10.9863 16.4199 10.9863 16.0156C10.9863 15.6113 11.3145 15.2832 11.7188 15.2832H13.2812C13.6855 15.2832 14.0137 15.6113 14.0137 16.0156Z" fill="#425796"/>
<path d="M13.2812 16.748H12.5V15.2832H13.2812C13.6855 15.2832 14.0137 15.6113 14.0137 16.0156C14.0137 16.4199 13.6855 16.748 13.2812 16.748Z" fill="#283758"/>
<path d="M14.0137 19.1406C14.0137 19.5449 13.6855 19.873 13.2812 19.873H11.7188C11.3145 19.873 10.9863 19.5449 10.9863 19.1406C10.9863 18.7363 11.3145 18.4082 11.7188 18.4082H13.2812C13.6855 18.4082 14.0137 18.7363 14.0137 19.1406Z" fill="#425796"/>
<path d="M14.0137 19.1406C14.0137 19.5449 13.6855 19.873 13.2812 19.873H12.5V18.4082H13.2812C13.6855 18.4082 14.0137 18.7363 14.0137 19.1406Z" fill="#283758"/>
<path d="M19.5312 13.623H17.9688C17.5643 13.623 17.2363 13.2951 17.2363 12.8906C17.2363 12.4861 17.5643 12.1582 17.9688 12.1582H19.5312C19.9357 12.1582 20.2637 12.4861 20.2637 12.8906C20.2637 13.2951 19.9357 13.623 19.5312 13.623Z" fill="#283758"/>
<path d="M19.5312 16.748H17.9688C17.5643 16.748 17.2363 16.4201 17.2363 16.0156C17.2363 15.6111 17.5643 15.2832 17.9688 15.2832H19.5312C19.9357 15.2832 20.2637 15.6111 20.2637 16.0156C20.2637 16.4201 19.9357 16.748 19.5312 16.748Z" fill="#283758"/>
<path d="M19.5312 19.873H17.9688C17.5643 19.873 17.2363 19.5451 17.2363 19.1406C17.2363 18.7361 17.5643 18.4082 17.9688 18.4082H19.5312C19.9357 18.4082 20.2637 18.7361 20.2637 19.1406C20.2637 19.5451 19.9357 19.873 19.5312 19.873Z" fill="#283758"/>
</svg>
