<svg width="25" height="25" viewBox="0 0 25 25" fill="none" xmlns="http://www.w3.org/2000/svg">
<g clip-path="url(#clip0_242_516)">
<path d="M20.8333 3.125C20.8333 2.54971 20.367 2.08335 19.7917 2.08335H16.6667V0H14.5833V2.08335H11.4584V0H9.375V2.08335H6.25V0H4.16665V2.08335H1.04165C0.466357 2.08335 0 2.54971 0 3.125V5.20835H20.8333V3.125Z" fill="#A7A1A1"/>
<path d="M16.648 11.7655C17.3299 11.5609 18.0381 11.4574 18.75 11.4583C19.4557 11.4589 20.1575 11.5625 20.8333 11.7656V6.25H0V19.7917C0 20.3669 0.466357 20.8333 1.04165 20.8333H11.7656C10.6099 16.9811 12.7958 12.9213 16.648 11.7655ZM14.5833 8.33335H16.6667V10.4167H14.5833V8.33335ZM9.375 8.33335H11.4584V10.4167H9.375V8.33335ZM6.25 18.75H4.16665V16.6667H6.25V18.75ZM6.25 14.5833H4.16665V12.5H6.25V14.5833ZM6.25 10.4166H4.16665V8.3333H6.25V10.4166ZM9.375 12.5H11.4584V14.5833H9.375V12.5Z" fill="#A7A1A1"/>
<path d="M18.75 12.5C15.2982 12.5 12.5 15.2982 12.5 18.75C12.5 22.2018 15.2982 25 18.75 25C22.2018 25 25 22.2018 25 18.75C24.996 15.2999 22.2001 12.504 18.75 12.5ZM19.4865 19.4865C19.2068 19.764 18.7952 19.8613 18.4208 19.7386L15.2958 18.6969L15.9552 16.7178L18.4687 17.5511L21.1385 14.8813L22.6114 16.3542L19.4865 19.4865Z" fill="#A7A1A1"/>
</g>
<defs>
<clipPath id="clip0_242_516">
<rect width="25" height="25" fill="white"/>
</clipPath>
</defs>
</svg>
