<svg width="25" height="25" viewBox="0 0 25 25" fill="none" xmlns="http://www.w3.org/2000/svg">
<g clip-path="url(#clip0_175_2799)">
<path d="M23.7666 19.0452C23.7666 19.5756 23.5559 20.0843 23.1808 20.4594C22.8057 20.8345 22.297 21.0452 21.7666 21.0452H3.7666C3.23617 21.0452 2.72746 20.8345 2.35239 20.4594C1.97732 20.0843 1.7666 19.5756 1.7666 19.0452V8.04517C1.7666 7.51473 1.97732 7.00603 2.35239 6.63095C2.72746 6.25588 3.23617 6.04517 3.7666 6.04517H7.7666L9.7666 3.04517H15.7666L17.7666 6.04517H21.7666C22.297 6.04517 22.8057 6.25588 23.1808 6.63095C23.5559 7.00603 23.7666 7.51473 23.7666 8.04517V19.0452Z" stroke="white" stroke-width="2" stroke-linecap="round" stroke-linejoin="round"/>
<path d="M12.7666 17.0452C14.9757 17.0452 16.7666 15.2543 16.7666 13.0452C16.7666 10.836 14.9757 9.04517 12.7666 9.04517C10.5575 9.04517 8.7666 10.836 8.7666 13.0452C8.7666 15.2543 10.5575 17.0452 12.7666 17.0452Z" stroke="white" stroke-width="2" stroke-linecap="round" stroke-linejoin="round"/>
</g>
<defs>
<clipPath id="clip0_175_2799">
<rect width="24" height="24" fill="white" transform="translate(0.766602 0.045166)"/>
</clipPath>
</defs>
</svg>
