<svg width="23" height="23" viewBox="0 0 23 23" fill="none" xmlns="http://www.w3.org/2000/svg">
<g clip-path="url(#clip0_40_421)">
<path d="M21.8759 11.5454C21.8714 11.5499 21.8905 11.5454 21.8188 11.5454C21.0637 11.5454 20.5417 12.2457 20.8049 12.8983C20.6781 13.0318 21.2251 12.4851 11.9755 21.6863C11.712 21.9479 11.2884 21.9484 11.0244 21.6863C1.77768 12.4875 2.32308 13.0332 2.19508 12.8983C2.4687 12.2198 1.89669 11.5092 1.12495 11.5468C1.1245 11.5463 1.1245 11.5459 1.12405 11.5455C0.358593 10.3494 -0.0256394 9.05189 0.00132744 7.72018C0.105824 2.49332 6.48407 -1.36065 11.5 3.02659C16.5131 -1.35822 22.8941 2.49058 22.9987 7.72018C23.0256 9.05189 22.6414 10.3494 21.8759 11.5454Z" fill="#FF405C"/>
<path d="M21.876 11.5454C21.8715 11.5499 21.8905 11.5454 21.8189 11.5454C21.0637 11.5454 20.5417 12.2457 20.8049 12.8983C20.6782 13.0318 21.2251 12.4851 11.9755 21.6863C11.8438 21.8171 11.6721 21.8827 11.5 21.8827V3.02658C14.6225 0.295468 18.5184 0.644284 21 3.12501C23.2066 5.33167 23.7152 8.67151 21.876 11.5454Z" fill="#C30047"/>
<path d="M21.8759 11.5454C21.5779 12.0115 21.2219 12.4623 20.8093 12.8938H15.8147C15.5666 12.8938 15.3387 12.7576 15.221 12.5392L13.3364 9.03885L10.6712 14.6655C10.4455 15.1419 9.77846 15.1884 9.49319 14.7388L7.56191 11.7041L7.04415 12.5665C6.92235 12.7697 6.70302 12.8937 6.46616 12.8937H2.19056C1.77797 12.4623 1.42201 12.0115 1.12402 11.5454H6.08458L6.96685 10.0748C7.22195 9.64862 7.84232 9.63338 8.11339 10.06L9.975 12.985L12.6883 7.25674C12.9258 6.75727 13.6293 6.74028 13.8915 7.22573L16.2174 11.5454H21.8759V11.5454Z" fill="#E1F3FF"/>
<path d="M13.8915 7.22579C13.6298 6.74133 12.9263 6.75647 12.6883 7.2568L11.5 9.76552V12.9158L13.3364 9.03886L15.221 12.5392C15.3387 12.7575 15.5666 12.8938 15.8147 12.8938H20.8094C21.222 12.4623 21.578 12.0115 21.876 11.5454H16.2174L13.8915 7.22579Z" fill="#B1D5F1"/>
</g>
<defs>
<clipPath id="clip0_40_421">
<rect width="23" height="23" fill="white"/>
</clipPath>
</defs>
</svg>
