<svg width="28" height="28" viewBox="0 0 28 28" fill="none" xmlns="http://www.w3.org/2000/svg">
<path d="M18.6138 8.97597C23.7264 8.89788 27.8992 12.9218 27.9982 18.0341C28.0128 18.7846 27.9377 19.5152 27.7832 20.216C27.5215 21.4025 27.3659 22.61 27.3659 23.8251V26.1738C27.3659 26.5336 27.0742 26.8253 26.7143 26.8253H24.3656C23.1505 26.8253 21.9431 26.9809 20.7565 27.2427C20.0558 27.3972 19.3252 27.4722 18.5747 27.4577C13.4625 27.3588 9.43851 23.186 9.5165 18.0735C9.59257 13.0833 13.6236 9.05221 18.6138 8.97597Z" fill="url(#paint0_linear_40_496)"/>
<path d="M18.6138 8.97597C23.7264 8.89788 27.8992 12.9218 27.9982 18.0341C28.0128 18.7846 27.9377 19.5152 27.7832 20.216C27.5215 21.4025 27.3659 22.61 27.3659 23.8251V26.1738C27.3659 26.5336 27.0742 26.8253 26.7143 26.8253H24.3656C23.1505 26.8253 21.9431 26.9809 20.7565 27.2427C20.0558 27.3972 19.3252 27.4722 18.5747 27.4577C13.4625 27.3588 9.43851 23.186 9.5165 18.0735C9.59257 13.0833 13.6236 9.05221 18.6138 8.97597Z" fill="url(#paint1_linear_40_496)"/>
<path d="M11.435 0.541889C5.20648 0.446733 0.122793 5.34897 0.00215246 11.5771C-0.0155116 12.4914 0.0758711 13.3816 0.264214 14.2352C0.583042 15.6807 0.772588 17.1518 0.772588 18.6321V21.4935C0.772588 21.9318 1.12795 22.2872 1.56638 22.2872H4.42773C5.90801 22.2872 7.37904 22.4768 8.8246 22.7956C9.67827 22.9839 10.5684 23.0753 11.4827 23.0576C17.7107 22.937 22.6129 17.8535 22.518 11.6251C22.4252 5.54562 17.5144 0.634694 11.435 0.541889Z" fill="url(#paint2_linear_40_496)"/>
<path d="M7.2293 11.1967C6.91124 10.8587 6.46105 10.6465 5.96022 10.6465C4.99701 10.6465 4.21619 11.4273 4.21619 12.3905C4.21619 12.8913 4.42837 13.3415 4.7664 13.6596L8.52856 17.4218C8.84668 17.7597 9.29686 17.972 9.79764 17.972C10.7608 17.972 11.5417 17.1911 11.5417 16.2279C11.5417 15.7272 11.3294 15.277 10.9915 14.9589L7.2293 11.1967Z" fill="url(#paint3_linear_40_496)"/>
<path d="M5.96022 14.1343C6.92343 14.1343 7.70426 13.3535 7.70426 12.3903C7.70426 11.4271 6.92343 10.6462 5.96022 10.6462C4.99702 10.6462 4.21619 11.4271 4.21619 12.3903C4.21619 13.3535 4.99702 14.1343 5.96022 14.1343Z" fill="white"/>
<path d="M12.1615 11.1967C11.8435 10.8587 11.3933 10.6465 10.8925 10.6465C9.92926 10.6465 9.14844 11.4273 9.14844 12.3905C9.14844 12.8913 9.36062 13.3415 9.69865 13.6596L13.4608 17.4218C13.7789 17.7597 14.2291 17.972 14.7299 17.972C15.6931 17.972 16.4739 17.1911 16.4739 16.2279C16.4739 15.7272 16.2617 15.277 15.9237 14.9589L12.1615 11.1967Z" fill="url(#paint4_linear_40_496)"/>
<path d="M10.8925 14.1343C11.8557 14.1343 12.6365 13.3535 12.6365 12.3903C12.6365 11.4271 11.8557 10.6462 10.8925 10.6462C9.92927 10.6462 9.14844 11.4271 9.14844 12.3903C9.14844 13.3535 9.92927 14.1343 10.8925 14.1343Z" fill="white"/>
<path d="M17.0938 11.1967C16.7757 10.8587 16.3256 10.6465 15.8247 10.6465C14.8615 10.6465 14.0807 11.4273 14.0807 12.3905C14.0807 12.8913 14.2929 13.3415 14.6309 13.6596L18.3931 17.4218C18.7112 17.7597 19.1614 17.972 19.6621 17.972C20.6253 17.972 21.4062 17.1911 21.4062 16.2279C21.4062 15.7272 21.1939 15.277 20.856 14.9589L17.0938 11.1967Z" fill="url(#paint5_linear_40_496)"/>
<path d="M15.825 14.1343C16.7882 14.1343 17.569 13.3535 17.569 12.3903C17.569 11.4271 16.7882 10.6462 15.825 10.6462C14.8618 10.6462 14.0809 11.4271 14.0809 12.3903C14.0809 13.3535 14.8618 14.1343 15.825 14.1343Z" fill="white"/>
<defs>
<linearGradient id="paint0_linear_40_496" x1="16.892" y1="16.3521" x2="30.4613" y2="29.9213" gradientUnits="userSpaceOnUse">
<stop stop-color="#A7F3CE"/>
<stop offset="1" stop-color="#61DB99"/>
</linearGradient>
<linearGradient id="paint1_linear_40_496" x1="21.3339" y1="20.7937" x2="15.5704" y2="15.0308" gradientUnits="userSpaceOnUse">
<stop stop-color="#61DB99" stop-opacity="0"/>
<stop offset="1" stop-color="#009E74"/>
</linearGradient>
<linearGradient id="paint2_linear_40_496" x1="7.14597" y1="9.97983" x2="21.4723" y2="24.3062" gradientUnits="userSpaceOnUse">
<stop stop-color="#62E1FB"/>
<stop offset="1" stop-color="#00A2F3"/>
</linearGradient>
<linearGradient id="paint3_linear_40_496" x1="9.83985" y1="16.2705" x2="2.29683" y2="8.72769" gradientUnits="userSpaceOnUse">
<stop stop-color="#00A2F3" stop-opacity="0"/>
<stop offset="1" stop-color="#0075CD"/>
</linearGradient>
<linearGradient id="paint4_linear_40_496" x1="14.7718" y1="16.2703" x2="7.22896" y2="8.72751" gradientUnits="userSpaceOnUse">
<stop stop-color="#00A2F3" stop-opacity="0"/>
<stop offset="1" stop-color="#0075CD"/>
</linearGradient>
<linearGradient id="paint5_linear_40_496" x1="19.704" y1="16.2704" x2="12.1612" y2="8.72759" gradientUnits="userSpaceOnUse">
<stop stop-color="#00A2F3" stop-opacity="0"/>
<stop offset="1" stop-color="#0075CD"/>
</linearGradient>
</defs>
</svg>
