<svg width="68" height="64" viewBox="0 0 68 64" fill="none" xmlns="http://www.w3.org/2000/svg">
<g clip-path="url(#clip0_69_292)" filter="url(#filter0_i_69_292)">
<path d="M33 27C26.3831 27 21 32.3833 21 39C21 45.6167 26.3831 51 33 51C39.6169 51 45 45.6167 45 39C45 32.3833 39.6167 27 33 27ZM31.0616 45.7539L24.565 39.3304L27.2096 36.6558L31.1613 40.563L38.8425 33.53L41.3826 36.3042L31.0616 45.7539Z" fill="#D92550"/>
<path d="M47 7.4932C47 6.38863 46.1046 5.4932 45 5.4932H39.0734L38.6389 4.14743C37.838 1.66674 35.5718 0 33 0C30.4282 0 28.162 1.66674 27.3611 4.14743L26.9266 5.4932H21C19.8954 5.4932 19 6.38863 19 7.4932V12H47V7.4932Z" fill="#D92550"/>
<path d="M50.7403 8V14.9876H15.2597V8H10C8.89543 8 8 8.89543 8 10V62C8 63.1046 8.89543 64 10 64H56C57.1046 64 58 63.1046 58 62V10C58 8.89543 57.1046 8 56 8H50.7403ZM33 54.5778C24.1585 54.5778 16.9656 47.489 16.9656 38.7759C16.9656 30.0627 24.1585 22.9739 33 22.9739C41.8415 22.9739 49.0344 30.0627 49.0344 38.7759C49.0344 47.489 41.8413 54.5778 33 54.5778Z" fill="#D92550"/>
</g>
<defs>
<filter id="filter0_i_69_292" x="0" y="0" width="68" height="68" filterUnits="userSpaceOnUse" color-interpolation-filters="sRGB">
<feFlood flood-opacity="0" result="BackgroundImageFix"/>
<feBlend mode="normal" in="SourceGraphic" in2="BackgroundImageFix" result="shape"/>
<feColorMatrix in="SourceAlpha" type="matrix" values="0 0 0 0 0 0 0 0 0 0 0 0 0 0 0 0 0 0 127 0" result="hardAlpha"/>
<feOffset dy="4"/>
<feGaussianBlur stdDeviation="2"/>
<feComposite in2="hardAlpha" operator="arithmetic" k2="-1" k3="1"/>
<feColorMatrix type="matrix" values="0 0 0 0 0 0 0 0 0 0 0 0 0 0 0 0 0 0 0.25 0"/>
<feBlend mode="normal" in2="shape" result="effect1_innerShadow_69_292"/>
</filter>
<clipPath id="clip0_69_292">
<rect width="68" height="64" fill="white"/>
</clipPath>
</defs>
</svg>
