<svg width="68" height="65" viewBox="0 0 68 65" fill="none" xmlns="http://www.w3.org/2000/svg">
<g clip-path="url(#clip0_291_935)">
<path d="M33 27.5658C26.3831 27.5658 21 32.9491 21 39.5658C21 46.1825 26.3831 51.5658 33 51.5658C39.6169 51.5658 45 46.1825 45 39.5658C45 32.9491 39.6167 27.5658 33 27.5658ZM31.0616 46.3197L24.565 39.8962L27.2096 37.2216L31.1613 41.1288L38.8425 34.0958L41.3826 36.87L31.0616 46.3197Z" fill="#222222"/>
<path d="M47 8.059C47 6.95443 46.1046 6.059 45 6.059H39.0734L38.6389 4.71323C37.838 2.23254 35.5718 0.565796 33 0.565796C30.4282 0.565796 28.162 2.23254 27.3611 4.71323L26.9266 6.059H21C19.8954 6.059 19 6.95443 19 8.059V12.5658H47V8.059Z" fill="#222222"/>
<path d="M50.7403 8.5658V15.5534H15.2597V8.5658H10C8.89543 8.5658 8 9.46123 8 10.5658V62.5658C8 63.6704 8.89543 64.5658 10 64.5658H56C57.1046 64.5658 58 63.6704 58 62.5658V10.5658C58 9.46123 57.1046 8.5658 56 8.5658H50.7403ZM33 55.1436C24.1585 55.1436 16.9656 48.0548 16.9656 39.3417C16.9656 30.6285 24.1585 23.5397 33 23.5397C41.8415 23.5397 49.0344 30.6285 49.0344 39.3417C49.0344 48.0548 41.8413 55.1436 33 55.1436Z" fill="#222222"/>
</g>
<defs>
<clipPath id="clip0_291_935">
<rect width="68" height="64" fill="white" transform="translate(0 0.565796)"/>
</clipPath>
</defs>
</svg>
