<svg width="28" height="28" viewBox="0 0 28 28" fill="none" xmlns="http://www.w3.org/2000/svg">
<path d="M5.34591 9.11805C5.41193 9.51596 5.56539 9.76756 5.71706 9.92636C6.07749 12.3281 8.08489 14.5567 9.92098 14.5567C12.0604 14.5567 14.0089 12.1443 14.3836 9.93172C14.5389 9.77469 14.6941 9.52132 14.7619 9.11805C14.8833 8.6684 15.0403 7.88685 14.7655 7.51928C14.7512 7.50143 14.7352 7.48181 14.7209 7.46753C14.9796 6.52361 15.3061 4.57153 14.1374 3.24219C14.0339 3.11015 13.3773 2.32682 11.9766 1.91285L11.3074 1.68267C10.2047 1.34186 9.51237 1.26513 9.48203 1.26157C9.43207 1.258 9.38032 1.26157 9.33215 1.27406C9.29467 1.28476 9.16263 1.32045 9.06093 1.30617C8.79684 1.2687 8.40072 1.40431 8.33113 1.43108C8.24013 1.46855 6.10426 2.32325 5.45654 4.3128C5.39587 4.47339 5.13714 5.31918 5.48152 7.39259C5.42978 7.42828 5.38338 7.4711 5.34413 7.52285C5.06577 7.88685 5.22279 8.6684 5.34591 9.11805Z" fill="#FFE377"/>
<path d="M13.8894 24.2566C13.495 24.0354 13.0668 23.823 12.61 23.6214C12.3887 23.5233 12.1639 23.4305 11.9409 23.343C11.766 23.277 11.559 23.1914 11.4145 23.1539L9.29824 22.5829L13.2577 14.5212L14.9546 15.5918C15.3133 15.8166 15.5774 16.0076 15.8664 16.2199L15.9271 16.2645C16.2144 16.4769 16.4963 16.6945 16.7729 16.9194C17.3742 17.4047 17.9059 17.8794 18.4002 18.3701C18.4377 18.4075 18.4734 18.4414 18.5108 18.4789C18.6768 18.2951 18.8392 18.1309 19.0015 17.9543C18.7945 17.3387 18.543 16.7695 18.236 16.3127C18.236 16.3127 17.8007 15.7185 16.7675 15.3224C16.7675 15.3224 16.6801 15.2956 16.5463 15.251C15.6273 14.821 14.7548 14.5444 14.7548 14.5444C14.5674 14.4766 14.4033 14.4106 14.2552 14.3463C13.6306 14.0377 13.1114 13.6897 13.0043 13.3614C13.0043 13.3614 13.3648 16.8498 10.3153 16.9319L9.89065 16.9122C7.12669 16.666 6.9429 13.3542 6.9429 13.3542C6.65384 14.2625 3.17793 15.3188 3.17793 15.3188C2.14479 15.7149 1.70762 16.3109 1.70762 16.3109C0.180219 18.577 0 23.6196 0 23.6196C0.0196278 24.7723 0.517461 24.8918 0.517461 24.8918C4.03084 26.4603 9.5427 26.7369 9.5427 26.7369C9.84068 26.744 10.1173 26.7279 10.3938 26.7119L10.401 26.7404C10.401 26.7404 13.0918 26.603 15.9128 25.9857L15.5684 25.5342C15.2883 25.1649 14.662 24.6884 13.8894 24.2566Z" fill="#FFE377"/>
<path d="M12.8867 13.5093C12.9242 13.4612 12.9652 13.413 13.0045 13.3595C12.9956 13.3273 12.9938 13.3113 12.9938 13.3113C12.9599 13.3809 12.9206 13.4398 12.8867 13.5093Z" fill="#FFE377"/>
<path d="M6.95893 13.3488L6.95001 13.3113L6.94287 13.3505C6.94466 13.3434 6.95179 13.3363 6.95358 13.3291C6.95536 13.3309 6.95715 13.338 6.95893 13.3488Z" fill="#FFE377"/>
<path d="M24.7705 14.9671C23.7695 15.6737 22.8363 16.4731 21.9477 17.3136C21.0573 18.1593 20.2133 19.0497 19.4014 19.9687C19.0999 20.3113 18.8072 20.6574 18.5164 21.0054C18.5128 21 18.5092 20.9947 18.5075 20.9893C18.0792 20.4183 17.6153 19.9098 17.1335 19.4334C16.6517 18.9587 16.1521 18.5198 15.6382 18.1022C15.3795 17.8953 15.119 17.6918 14.8531 17.492C14.5765 17.2921 14.3339 17.1119 13.9948 16.8978L11.8857 21.1892C12.0785 21.2409 12.3586 21.3498 12.5959 21.4425C12.8475 21.5389 13.0937 21.6424 13.34 21.7512C13.8325 21.9689 14.3125 22.2062 14.771 22.4614C15.6775 22.9682 16.5215 23.5855 17.0033 24.2154L18.6252 26.3424L19.5584 24.3189C20.0277 23.3054 20.5898 22.2455 21.1661 21.2356C21.7478 20.2185 22.3688 19.221 23.0415 18.2593C23.7142 17.2975 24.4351 16.3679 25.2416 15.5114C26.0481 14.6602 26.9385 13.868 28.0002 13.3059C26.8475 13.6485 25.7698 14.2677 24.7705 14.9671Z" fill="#FFE377"/>
</svg>
