<svg width="25" height="25" viewBox="0 0 25 25" fill="none" xmlns="http://www.w3.org/2000/svg">
<path d="M18.9409 3.7627C18.1453 3.7627 17.3822 4.07877 16.8196 4.64138C16.257 5.20398 15.9409 5.96705 15.9409 6.7627V18.7627C15.9409 19.5583 16.257 20.3214 16.8196 20.884C17.3822 21.4466 18.1453 21.7627 18.9409 21.7627C19.7366 21.7627 20.4996 21.4466 21.0622 20.884C21.6248 20.3214 21.9409 19.5583 21.9409 18.7627C21.9409 17.967 21.6248 17.204 21.0622 16.6414C20.4996 16.0788 19.7366 15.7627 18.9409 15.7627H6.94092C6.14527 15.7627 5.38221 16.0788 4.8196 16.6414C4.25699 17.204 3.94092 17.967 3.94092 18.7627C3.94092 19.5583 4.25699 20.3214 4.8196 20.884C5.38221 21.4466 6.14527 21.7627 6.94092 21.7627C7.73657 21.7627 8.49963 21.4466 9.06224 20.884C9.62485 20.3214 9.94092 19.5583 9.94092 18.7627V6.7627C9.94092 5.96705 9.62485 5.20398 9.06224 4.64138C8.49963 4.07877 7.73657 3.7627 6.94092 3.7627C6.14527 3.7627 5.38221 4.07877 4.8196 4.64138C4.25699 5.20398 3.94092 5.96705 3.94092 6.7627C3.94092 7.55834 4.25699 8.32141 4.8196 8.88402C5.38221 9.44663 6.14527 9.7627 6.94092 9.7627H18.9409C19.7366 9.7627 20.4996 9.44663 21.0622 8.88402C21.6248 8.32141 21.9409 7.55834 21.9409 6.7627C21.9409 5.96705 21.6248 5.20398 21.0622 4.64138C20.4996 4.07877 19.7366 3.7627 18.9409 3.7627Z" stroke="#7A7A7A" stroke-width="2" stroke-linecap="round" stroke-linejoin="round"/>
</svg>
