<svg width="25" height="25" viewBox="0 0 25 25" fill="none" xmlns="http://www.w3.org/2000/svg">
<path d="M18.9414 3.7627C18.1458 3.7627 17.3827 4.07877 16.8201 4.64138C16.2575 5.20398 15.9414 5.96705 15.9414 6.7627V18.7627C15.9414 19.5583 16.2575 20.3214 16.8201 20.884C17.3827 21.4466 18.1458 21.7627 18.9414 21.7627C19.7371 21.7627 20.5001 21.4466 21.0627 20.884C21.6253 20.3214 21.9414 19.5583 21.9414 18.7627C21.9414 17.967 21.6253 17.204 21.0627 16.6414C20.5001 16.0788 19.7371 15.7627 18.9414 15.7627H6.94141C6.14576 15.7627 5.3827 16.0788 4.82009 16.6414C4.25748 17.204 3.94141 17.967 3.94141 18.7627C3.94141 19.5583 4.25748 20.3214 4.82009 20.884C5.3827 21.4466 6.14576 21.7627 6.94141 21.7627C7.73706 21.7627 8.50012 21.4466 9.06273 20.884C9.62534 20.3214 9.94141 19.5583 9.94141 18.7627V6.7627C9.94141 5.96705 9.62534 5.20398 9.06273 4.64138C8.50012 4.07877 7.73706 3.7627 6.94141 3.7627C6.14576 3.7627 5.3827 4.07877 4.82009 4.64138C4.25748 5.20398 3.94141 5.96705 3.94141 6.7627C3.94141 7.55834 4.25748 8.32141 4.82009 8.88402C5.3827 9.44663 6.14576 9.7627 6.94141 9.7627H18.9414C19.7371 9.7627 20.5001 9.44663 21.0627 8.88402C21.6253 8.32141 21.9414 7.55834 21.9414 6.7627C21.9414 5.96705 21.6253 5.20398 21.0627 4.64138C20.5001 4.07877 19.7371 3.7627 18.9414 3.7627Z" stroke="#7A7A7A" stroke-width="2" stroke-linecap="round" stroke-linejoin="round"/>
</svg>
