<svg width="31" height="31" viewBox="0 0 31 31" fill="none" xmlns="http://www.w3.org/2000/svg">
<path d="M0 20.041V26.8401C0 27.1661 0.174617 27.467 0.457674 27.6286L6.41797 31V23.6738L0 20.041Z" fill="white"/>
<path d="M8.23438 23.6738V31L14.5918 27.3672V20.041L8.23438 23.6738Z" fill="white"/>
<path d="M16.4082 20.041V27.3672L22.7656 31V23.6738L16.4082 20.041Z" fill="white"/>
<path d="M24.582 23.6738V31L30.5423 27.6286C30.8254 27.467 31 27.1661 31 26.8402V20.041L24.582 23.6738Z" fill="white"/>
<path d="M23.6736 14.5918L16.665 18.096L23.6736 22.1012L30.7427 18.096L23.6736 14.5918Z" fill="white"/>
<path d="M15.906 0.0958608C15.6502 -0.0319536 15.3493 -0.0319536 15.0935 0.0958608L8.49121 3.50423L15.4998 7.5094L22.5083 3.50417L15.906 0.0958608Z" fill="white"/>
<path d="M8.23438 5.44922V13.0149L14.5918 16.1936V9.08203L8.23438 5.44922Z" fill="white"/>
<path d="M7.32641 14.5918L0.257324 18.096L7.32641 22.1012L14.335 18.096L7.32641 14.5918Z" fill="white"/>
<path d="M16.4082 9.08203V16.1936L22.7656 13.0149V5.44922L16.4082 9.08203Z" fill="white"/>
</svg>
