<svg width="29" height="29" viewBox="0 0 29 29" fill="none" xmlns="http://www.w3.org/2000/svg">
<g clip-path="url(#clip0_103_544)">
<path d="M17.281 19.5977H11.7192C10.9054 19.5977 10.2437 20.2583 10.2437 21.0703V29H18.7566V21.0703C18.7566 20.2583 18.0948 19.5977 17.281 19.5977Z" fill="white"/>
<path d="M25.8332 22.2031H21.9525C21.1316 22.2031 20.4639 22.8638 20.4639 23.6758C20.4639 28.3978 20.4663 28.1154 20.4592 28.1827V29H27.3218V23.6758C27.3218 22.8638 26.6539 22.2031 25.8332 22.2031Z" fill="white"/>
<path d="M29 6.85352V3.11523C29 1.39743 27.6026 0 25.8852 0H3.11479C1.39743 0 0 1.39743 0 3.11523V6.85352H29ZM24.694 3.45508C25.1633 3.45508 25.5436 3.83541 25.5436 4.30469C25.5436 4.77396 25.1633 5.1543 24.694 5.1543C24.2249 5.1543 23.8446 4.77396 23.8446 4.30469C23.8446 3.83541 24.2249 3.45508 24.694 3.45508ZM21.296 3.45508C21.765 3.45508 22.1454 3.83541 22.1454 4.30469C22.1454 4.77396 21.765 5.1543 21.296 5.1543C20.8267 5.1543 20.4464 4.77396 20.4464 4.30469C20.4464 3.83541 20.8267 3.45508 21.296 3.45508ZM17.898 3.45508C18.3671 3.45508 18.7474 3.83541 18.7474 4.30469C18.7474 4.77396 18.3671 5.1543 17.898 5.1543C17.4289 5.1543 17.0484 4.77396 17.0484 4.30469C17.0484 3.83541 17.4289 3.45508 17.898 3.45508Z" fill="white"/>
<path d="M5.1358 17.1055C4.66631 17.1055 4.28442 17.4867 4.28442 17.9551C4.28442 18.4235 4.66631 18.8047 5.1358 18.8047C5.60508 18.8047 5.98696 18.4235 5.98696 17.9551C5.98696 17.4867 5.60508 17.1055 5.1358 17.1055Z" fill="white"/>
<path d="M7.04984 22.2031H3.16509C2.34292 22.2031 1.67407 22.8638 1.67407 23.6758V29H8.54086C8.54086 27.5353 8.54086 23.9008 8.54086 23.6758C8.54086 22.8638 7.87202 22.2031 7.04984 22.2031Z" fill="white"/>
<path d="M23.921 17.1055C23.4515 17.1055 23.0696 17.4867 23.0696 17.9551C23.0696 18.4235 23.4515 18.8047 23.921 18.8047C24.3905 18.8047 24.7723 18.4235 24.7723 17.9551C24.7723 17.4867 24.3905 17.1055 23.921 17.1055Z" fill="white"/>
<path d="M0 8.55273V23.2583C0.206429 21.706 1.54678 20.5039 3.16502 20.5039H5.13549C3.72722 20.5039 2.58157 19.3605 2.58157 17.9551C2.58157 16.5497 3.72722 15.4062 5.13549 15.4062C6.54376 15.4062 7.68941 16.5497 7.68941 17.9551C7.68941 19.3605 6.54376 20.5039 5.13549 20.5039C7.13119 20.5039 7.67414 20.4128 8.54742 20.8754C8.64876 19.2169 10.0322 17.8984 11.7191 17.8984H14.5283C12.8855 17.8984 11.5487 16.5645 11.5487 14.9248C11.5487 13.2851 12.8855 11.9512 14.5283 11.9512C16.1713 11.9512 17.5079 13.2851 17.5079 14.9248C17.5079 16.5645 16.1713 17.8984 14.5283 17.8984H17.2809C18.9684 17.8984 20.3521 19.2178 20.4528 20.8772C21.3146 20.4189 21.8252 20.5039 23.9212 20.5039C22.5129 20.5039 21.3672 19.3605 21.3672 17.9551C21.3672 16.5497 22.5129 15.4062 23.9212 15.4062C25.3294 15.4062 26.4751 16.5497 26.4751 17.9551C26.4751 19.3605 25.3294 20.5039 23.9212 20.5039H25.8332C27.4616 20.5039 28.8082 21.7228 29 23.2908V8.55273H0Z" fill="white"/>
<path d="M14.5283 13.6504C13.8243 13.6504 13.2515 14.2221 13.2515 14.9248C13.2515 15.6275 13.8243 16.1992 14.5283 16.1992C15.2326 16.1992 15.8054 15.6275 15.8054 14.9248C15.8054 14.2221 15.2326 13.6504 14.5283 13.6504Z" fill="white"/>
</g>
<defs>
<clipPath id="clip0_103_544">
<rect width="29" height="29" fill="white"/>
</clipPath>
</defs>
</svg>
