<svg width="25" height="25" viewBox="0 0 25 25" fill="none" xmlns="http://www.w3.org/2000/svg">
<path d="M17.6348 3.82177C17.8974 3.55913 18.2092 3.35079 18.5524 3.20865C18.8955 3.06651 19.2633 2.99335 19.6348 2.99335C20.0062 2.99335 20.374 3.06651 20.7172 3.20865C21.0603 3.35079 21.3721 3.55913 21.6348 3.82177C21.8974 4.08442 22.1058 4.39622 22.2479 4.73938C22.39 5.08254 22.4632 5.45034 22.4632 5.82177C22.4632 6.19321 22.39 6.56101 22.2479 6.90417C22.1058 7.24733 21.8974 7.55913 21.6348 7.82177L8.13477 21.3218L2.63477 22.8218L4.13477 17.3218L17.6348 3.82177Z" stroke="white" stroke-width="2" stroke-linecap="round" stroke-linejoin="round"/>
</svg>
