<svg width="25" height="25" viewBox="0 0 25 25" fill="none" xmlns="http://www.w3.org/2000/svg">
<path d="M17.4487 3.38751C17.7114 3.12487 18.0232 2.91652 18.3663 2.77438C18.7095 2.63224 19.0773 2.55908 19.4487 2.55908C19.8202 2.55908 20.188 2.63224 20.5311 2.77438C20.8743 2.91652 21.1861 3.12487 21.4487 3.38751C21.7114 3.65015 21.9197 3.96196 22.0619 4.30512C22.204 4.64828 22.2772 5.01607 22.2772 5.38751C22.2772 5.75894 22.204 6.12674 22.0619 6.4699C21.9197 6.81306 21.7114 7.12487 21.4487 7.38751L7.94873 20.8875L2.44873 22.3875L3.94873 16.8875L17.4487 3.38751Z" stroke="#7A7A7A" stroke-width="2" stroke-linecap="round" stroke-linejoin="round"/>
</svg>
