<svg width="25" height="25" viewBox="0 0 25 25" fill="none" xmlns="http://www.w3.org/2000/svg">
<path d="M17.6348 3.82184C17.8974 3.55919 18.2092 3.35085 18.5524 3.20871C18.8955 3.06657 19.2633 2.99341 19.6348 2.99341C20.0062 2.99341 20.374 3.06657 20.7172 3.20871C21.0603 3.35085 21.3721 3.55919 21.6348 3.82184C21.8974 4.08448 22.1058 4.39628 22.2479 4.73944C22.39 5.0826 22.4632 5.4504 22.4632 5.82184C22.4632 6.19327 22.39 6.56107 22.2479 6.90423C22.1058 7.24739 21.8974 7.55919 21.6348 7.82184L8.13477 21.3218L2.63477 22.8218L4.13477 17.3218L17.6348 3.82184Z" stroke="white" stroke-width="2" stroke-linecap="round" stroke-linejoin="round"/>
</svg>
