<svg width="25" height="25" viewBox="0 0 25 25" fill="none" xmlns="http://www.w3.org/2000/svg">
<path d="M17.4487 3.38775C17.7114 3.12511 18.0232 2.91677 18.3663 2.77463C18.7095 2.63249 19.0773 2.55933 19.4487 2.55933C19.8202 2.55933 20.188 2.63249 20.5311 2.77463C20.8743 2.91677 21.1861 3.12511 21.4487 3.38775C21.7114 3.6504 21.9197 3.9622 22.0619 4.30536C22.204 4.64852 22.2772 5.01632 22.2772 5.38775C22.2772 5.75919 22.204 6.12698 22.0619 6.47015C21.9197 6.81331 21.7114 7.12511 21.4487 7.38775L7.94873 20.8878L2.44873 22.3878L3.94873 16.8878L17.4487 3.38775Z" stroke="#7A7A7A" stroke-width="2" stroke-linecap="round" stroke-linejoin="round"/>
</svg>
