<svg width="29" height="29" viewBox="0 0 29 29" fill="none" xmlns="http://www.w3.org/2000/svg">
<path d="M19.2234 14.6487L29 20.8293V8.20703L19.2234 14.6487Z" fill="#7A7A7A"/>
<path d="M0 8.20703V20.8293L9.77662 14.6487L0 8.20703Z" fill="#7A7A7A"/>
<path d="M27.1875 4.53125H1.81251C0.90807 4.53125 0.19032 5.2055 0.0543823 6.07369L14.5 15.5911L28.9456 6.07369C28.8097 5.2055 28.0919 4.53125 27.1875 4.53125Z" fill="#7A7A7A"/>
<path d="M17.5631 15.7435L14.9985 17.4328C14.8462 17.5324 14.674 17.5814 14.5 17.5814C14.326 17.5814 14.1538 17.5324 14.0016 17.4328L11.4369 15.7417L0.0580139 22.9391C0.197576 23.8001 0.911701 24.4689 1.81251 24.4689H27.1875C28.0883 24.4689 28.8025 23.8001 28.942 22.9391L17.5631 15.7435Z" fill="#7A7A7A"/>
</svg>
