<svg width="29" height="29" viewBox="0 0 29 29" fill="none" xmlns="http://www.w3.org/2000/svg">
<path d="M19.2234 14.6487L29 20.8293V8.20703L19.2234 14.6487Z" fill="#7A7A7A"/>
<path d="M0 8.20703V20.8293L9.77662 14.6487L0 8.20703Z" fill="#7A7A7A"/>
<path d="M27.1874 4.53125H1.81245C0.908009 4.53125 0.190259 5.2055 0.0543213 6.07369L14.4999 15.5911L28.9456 6.07369C28.8096 5.2055 28.0919 4.53125 27.1874 4.53125Z" fill="#7A7A7A"/>
<path d="M17.5631 15.7435L14.9984 17.4328C14.8462 17.5324 14.674 17.5814 14.5 17.5814C14.326 17.5814 14.1538 17.5324 14.0015 17.4328L11.4369 15.7417L0.0579834 22.9391C0.197546 23.8001 0.911671 24.4689 1.81248 24.4689H27.1875C28.0883 24.4689 28.8024 23.8001 28.942 22.9391L17.5631 15.7435Z" fill="#7A7A7A"/>
</svg>
