<svg width="29" height="29" viewBox="0 0 29 29" fill="none" xmlns="http://www.w3.org/2000/svg">
<path d="M19.2236 14.6487L29.0003 20.8293V8.20703L19.2236 14.6487Z" fill="#C4C4C4"/>
<path d="M0 8.20703V20.8293L9.77662 14.6487L0 8.20703Z" fill="#C4C4C4"/>
<path d="M27.1878 4.53125H1.81281C0.908375 4.53125 0.190625 5.2055 0.0546875 6.07369L14.5003 15.5911L28.9459 6.07369C28.81 5.2055 28.0923 4.53125 27.1878 4.53125Z" fill="#C4C4C4"/>
<path d="M17.5627 15.7434L14.9981 17.4326C14.8458 17.5323 14.6736 17.5813 14.4996 17.5813C14.3256 17.5813 14.1534 17.5323 14.0012 17.4326L11.4365 15.7416L0.0576172 22.939C0.19718 23.8 0.911305 24.4688 1.81212 24.4688H27.1871C28.0879 24.4688 28.8021 23.8 28.9416 22.939L17.5627 15.7434Z" fill="#C4C4C4"/>
</svg>
