<svg width="68" height="64" viewBox="0 0 68 64" fill="none" xmlns="http://www.w3.org/2000/svg">
<g clip-path="url(#clip0_291_894)">
<path d="M14.7631 11.3421H20.1316C20.3787 11.3421 20.5789 11.1564 20.5789 10.9276V0.980231C20.5789 0.751276 20.3787 0.565796 20.1316 0.565796H14.7631C14.516 0.565796 14.3158 0.751435 14.3158 0.980231V10.9276C14.3158 11.1566 14.516 11.3421 14.7631 11.3421Z" fill="#222222"/>
<path d="M62.9895 8.02627H56.3685V10.6788C56.3685 12.2539 55.1159 13.8288 53.4158 13.8288H48.1369C46.3153 13.7092 44.8661 12.3666 44.737 10.6788V8.02627H23.2632V10.6788C23.1341 12.3666 21.6849 13.7092 19.8632 13.8288H14.5842C12.8841 13.8288 11.6315 12.2538 11.6315 10.6788V8.02627H5.0105C2.72301 8.07149 0.89414 9.80269 0.894653 11.9225V22.1185H67.1052V11.9225C67.1059 9.80269 65.277 8.07149 62.9895 8.02627Z" fill="#222222"/>
<path d="M47.8684 11.3421H53.2368C53.484 11.3421 53.6842 11.1564 53.6842 10.9276V0.980231C53.6842 0.751276 53.4838 0.565796 53.2368 0.565796H47.8684C47.6213 0.565796 47.4211 0.751435 47.4211 0.980231V10.9276C47.4211 11.1566 47.6213 11.3421 47.8684 11.3421Z" fill="#222222"/>
<path d="M27.2895 46.8212L26.0369 53.5356L32.479 50.3856L33.1053 50.2198L33.7316 50.3856L40.1736 53.5356L38.921 46.8212C38.8733 46.4315 39.0029 46.041 39.279 45.7435L44.558 41.1014L37.3107 40.1067C36.887 40.044 36.5214 39.7976 36.3265 39.4435L33.1055 33.3921L29.8844 39.4435C29.6895 39.7976 29.3239 40.044 28.9002 40.1067L21.6529 41.1014L26.9319 45.7435C27.2077 46.0408 27.3373 46.4313 27.2895 46.8212Z" fill="#222222"/>
<path d="M0.894653 59.8356C0.943291 61.909 2.77182 63.5663 5.0105 63.5658H62.9895C65.228 63.5663 67.0565 61.909 67.1053 59.8356V24.6052H0.894653V59.8356ZM17.5369 39.8579C17.6797 39.4051 18.1041 39.0775 18.6105 39.0291L27.8262 37.7028L31.9421 29.9935C32.3118 29.3984 33.1325 29.1937 33.7749 29.5363C33.98 29.6457 34.1503 29.8035 34.2684 29.9935L38.3843 37.7028L47.6 39.0291C48.1065 39.0775 48.531 39.4053 48.6737 39.8579C48.836 40.3014 48.6949 40.7917 48.3157 41.1014L41.6947 47.0698L43.3052 55.6079C43.3674 56.0565 43.1617 56.5009 42.7683 56.7684C42.5332 56.9248 42.2525 57.0115 41.9631 57.017C41.7392 57.0367 41.5156 56.9775 41.3368 56.8512L33.1053 52.8722L24.8737 56.8512C24.425 57.1044 23.8534 57.0714 23.4422 56.7684C23.0488 56.5007 22.8433 56.0563 22.9053 55.6079L24.5158 47.0698L17.8948 41.1014C17.5156 40.7917 17.3745 40.3013 17.5369 39.8579Z" fill="#222222"/>
</g>
<defs>
<clipPath id="clip0_291_894">
<rect width="68" height="63" fill="white" transform="translate(0 0.565796)"/>
</clipPath>
</defs>
</svg>
