<svg width="68" height="63" viewBox="0 0 68 63" fill="none" xmlns="http://www.w3.org/2000/svg">
<g clip-path="url(#clip0_69_254)" filter="url(#filter0_i_69_254)">
<path d="M14.7631 10.7763H20.1316C20.3787 10.7763 20.5789 10.5906 20.5789 10.3618V0.414435C20.5789 0.18548 20.3787 0 20.1316 0H14.7631C14.516 0 14.3158 0.185639 14.3158 0.414435V10.3618C14.3158 10.5908 14.516 10.7763 14.7631 10.7763Z" fill="#8BCD00"/>
<path d="M62.9895 7.46048H56.3685V10.1131C56.3685 11.6881 55.1159 13.263 53.4158 13.263H48.1369C46.3153 13.1434 44.8661 11.8008 44.737 10.1131V7.46048H23.2632V10.1131C23.1341 11.8008 21.6849 13.1434 19.8632 13.263H14.5842C12.8841 13.263 11.6315 11.688 11.6315 10.1131V7.46048H5.0105C2.72301 7.5057 0.89414 9.2369 0.894653 11.3567V21.5527H67.1052V11.3567C67.1059 9.2369 65.277 7.5057 62.9895 7.46048Z" fill="#8BCD00"/>
<path d="M47.8684 10.7763H53.2368C53.484 10.7763 53.6842 10.5906 53.6842 10.3618V0.414435C53.6842 0.18548 53.4838 0 53.2368 0H47.8684C47.6213 0 47.4211 0.185639 47.4211 0.414435V10.3618C47.4211 10.5908 47.6213 10.7763 47.8684 10.7763Z" fill="#8BCD00"/>
<path d="M27.2895 46.2554L26.0369 52.9698L32.479 49.8198L33.1053 49.654L33.7316 49.8198L40.1736 52.9698L38.921 46.2554C38.8733 45.8657 39.0029 45.4752 39.279 45.1777L44.558 40.5356L37.3107 39.5409C36.887 39.4783 36.5214 39.2319 36.3265 38.8777L33.1055 32.8264L29.8844 38.8777C29.6895 39.2319 29.3239 39.4783 28.9002 39.5409L21.6529 40.5356L26.9319 45.1777C27.2077 45.475 27.3373 45.8655 27.2895 46.2554Z" fill="#8BCD00"/>
<path d="M0.894653 59.2697C0.943291 61.3432 2.77182 63.0005 5.0105 63H62.9895C65.228 63.0005 67.0565 61.3432 67.1053 59.2697V24.0394H0.894653V59.2697ZM17.5369 39.2921C17.6797 38.8393 18.1041 38.5117 18.6105 38.4633L27.8262 37.137L31.9421 29.4277C32.3118 28.8326 33.1325 28.6279 33.7749 28.9704C33.98 29.0799 34.1503 29.2376 34.2684 29.4277L38.3843 37.137L47.6 38.4633C48.1065 38.5117 48.531 38.8395 48.6737 39.2921C48.836 39.7356 48.6949 40.2259 48.3157 40.5356L41.6947 46.504L43.3052 55.0421C43.3674 55.4906 43.1617 55.9351 42.7683 56.2026C42.5332 56.359 42.2525 56.4457 41.9631 56.4512C41.7392 56.4709 41.5156 56.4117 41.3368 56.2854L33.1053 52.3064L24.8737 56.2854C24.425 56.5386 23.8534 56.5056 23.4422 56.2026C23.0488 55.9349 22.8433 55.4905 22.9053 55.0421L24.5158 46.504L17.8948 40.5356C17.5156 40.2259 17.3745 39.7354 17.5369 39.2921Z" fill="#8BCD00"/>
</g>
<defs>
<filter id="filter0_i_69_254" x="0" y="0" width="68" height="67" filterUnits="userSpaceOnUse" color-interpolation-filters="sRGB">
<feFlood flood-opacity="0" result="BackgroundImageFix"/>
<feBlend mode="normal" in="SourceGraphic" in2="BackgroundImageFix" result="shape"/>
<feColorMatrix in="SourceAlpha" type="matrix" values="0 0 0 0 0 0 0 0 0 0 0 0 0 0 0 0 0 0 127 0" result="hardAlpha"/>
<feOffset dy="4"/>
<feGaussianBlur stdDeviation="2"/>
<feComposite in2="hardAlpha" operator="arithmetic" k2="-1" k3="1"/>
<feColorMatrix type="matrix" values="0 0 0 0 0 0 0 0 0 0 0 0 0 0 0 0 0 0 0.25 0"/>
<feBlend mode="normal" in2="shape" result="effect1_innerShadow_69_254"/>
</filter>
<clipPath id="clip0_69_254">
<rect width="68" height="63" fill="white"/>
</clipPath>
</defs>
</svg>
