<svg width="22" height="22" viewBox="0 0 22 22" fill="none" xmlns="http://www.w3.org/2000/svg">
<g clip-path="url(#clip0_180_4241)">
<path d="M21.6528 0.884433C21.6427 0.546893 21.3717 0.275652 21.0343 0.265413L12.3314 0.000383138C12.1538 -0.00465227 11.983 0.0633257 11.8583 0.189379L1.11622 11.042C-0.2002 12.372 -0.2002 14.5359 1.11622 15.8659L6.19578 20.9977C6.83544 21.6441 7.68659 22.0001 8.59213 22.0001C9.49783 22.0001 10.349 21.6441 10.9886 20.9977L21.7309 10.1449C21.8537 10.0207 21.9204 9.85149 21.9152 9.67676L21.6528 0.884433ZM13.392 14.3718C13.2673 14.4963 13.104 14.5588 12.9405 14.5588C12.7772 14.5588 12.6139 14.4965 12.4892 14.3718L12.2116 14.094L11.752 14.5536C11.6273 14.6781 11.464 14.7404 11.3007 14.7404C11.1372 14.7404 10.9739 14.6781 10.8493 14.5534C10.5999 14.3041 10.5999 13.9 10.8493 13.6507L12.0716 12.4284C12.3004 12.1997 12.3002 11.8274 12.0714 11.5986C11.8425 11.3697 11.4704 11.3695 11.2416 11.5983L10.9302 11.9095C10.9302 11.9096 10.9302 11.9096 10.9301 11.9096L10.6187 12.2212C10.2555 12.5844 9.7783 12.766 9.30128 12.766C8.82393 12.766 8.34674 12.5844 7.98335 12.2208C7.63137 11.8688 7.43751 11.4011 7.43734 10.9032C7.43734 10.472 7.58286 10.0633 7.85058 9.73299L7.56541 9.44765C7.31616 9.1984 7.31616 8.79422 7.56541 8.54497C7.81466 8.29572 8.21884 8.29572 8.46809 8.54497L8.74588 8.82275L9.03692 8.53154C9.28618 8.28229 9.69035 8.28229 9.93977 8.53154C10.189 8.78096 10.189 9.18514 9.93977 9.43439L8.88569 10.4883C8.77491 10.5991 8.71399 10.7463 8.71399 10.903C8.71399 11.0598 8.77508 11.2072 8.88603 11.3181C9.11497 11.5471 9.48726 11.5471 9.71586 11.3185L10.0274 11.0069C10.0274 11.0069 10.0274 11.0068 10.0276 11.0068L10.3387 10.6954C11.0654 9.96898 12.2475 9.96915 12.9741 10.6958C13.6536 11.375 13.6977 12.4526 13.1069 13.1836L13.392 13.4689C13.6413 13.7183 13.6413 14.1225 13.392 14.3718ZM17.9081 6.76428C17.5348 7.13757 17.0444 7.32422 16.5541 7.32422C16.0637 7.32422 15.5732 7.13757 15.1999 6.76428C14.8382 6.40257 14.639 5.92169 14.639 5.41009C14.639 4.89866 14.8382 4.41778 15.1999 4.05607C15.9465 3.30949 17.1616 3.30932 17.9081 4.05607C18.6549 4.80265 18.6549 6.0177 17.9081 6.76428Z" fill="#FFE377"/>
</g>
<defs>
<clipPath id="clip0_180_4241">
<rect width="22" height="22" fill="white"/>
</clipPath>
</defs>
</svg>
