<svg width="22" height="22" viewBox="0 0 22 22" fill="none" xmlns="http://www.w3.org/2000/svg">
<g clip-path="url(#clip0_242_484)">
<path d="M21.6528 0.884372C21.6427 0.546832 21.3717 0.275591 21.0343 0.265352L12.3314 0.000322103C12.1538 -0.00471331 11.983 0.0632647 11.8583 0.189318L1.11622 11.042C-0.2002 12.372 -0.2002 14.5359 1.11622 15.8659L6.19578 20.9976C6.83544 21.644 7.68659 22 8.59213 22C9.49783 22 10.349 21.644 10.9886 20.9976L21.7309 10.1448C21.8537 10.0206 21.9204 9.85143 21.9152 9.6767L21.6528 0.884372ZM13.392 14.3717C13.2673 14.4963 13.104 14.5587 12.9405 14.5587C12.7772 14.5587 12.6139 14.4964 12.4892 14.3717L12.2116 14.0939L11.752 14.5535C11.6273 14.678 11.464 14.7403 11.3007 14.7403C11.1372 14.7403 10.9739 14.678 10.8493 14.5533C10.5999 14.3041 10.5999 13.8999 10.8493 13.6506L12.0716 12.4284C12.3004 12.1996 12.3002 11.8273 12.0714 11.5985C11.8425 11.3696 11.4704 11.3694 11.2416 11.5982L10.9302 11.9094C10.9302 11.9096 10.9302 11.9096 10.9301 11.9096L10.6187 12.2211C10.2555 12.5843 9.7783 12.7659 9.30128 12.7659C8.82393 12.7659 8.34674 12.5843 7.98335 12.2208C7.63137 11.8688 7.43751 11.401 7.43734 10.9032C7.43734 10.472 7.58286 10.0633 7.85058 9.73293L7.56541 9.44759C7.31616 9.19833 7.31616 8.79416 7.56541 8.54491C7.81466 8.29565 8.21884 8.29565 8.46809 8.54491L8.74588 8.82269L9.03692 8.53148C9.28618 8.28223 9.69035 8.28223 9.93977 8.53148C10.189 8.7809 10.189 9.18508 9.93977 9.43433L8.88569 10.4882C8.77491 10.599 8.71399 10.7462 8.71399 10.903C8.71399 11.0598 8.77508 11.2071 8.88603 11.3181C9.11497 11.547 9.48726 11.547 9.71586 11.3184L10.0274 11.0069C10.0274 11.0069 10.0274 11.0067 10.0276 11.0067L10.3387 10.6954C11.0654 9.96892 12.2475 9.96909 12.9741 10.6957C13.6536 11.375 13.6977 12.4526 13.1069 13.1835L13.392 13.4689C13.6413 13.7183 13.6413 14.1225 13.392 14.3717ZM17.9081 6.76422C17.5348 7.13751 17.0444 7.32416 16.5541 7.32416C16.0637 7.32416 15.5732 7.13751 15.1999 6.76422C14.8382 6.40251 14.639 5.92163 14.639 5.41003C14.639 4.8986 14.8382 4.41772 15.1999 4.05601C15.9465 3.30942 17.1616 3.30926 17.9081 4.05601C18.6549 4.80259 18.6549 6.01764 17.9081 6.76422Z" fill="#A7A1A1"/>
</g>
<defs>
<clipPath id="clip0_242_484">
<rect width="22" height="22" fill="white"/>
</clipPath>
</defs>
</svg>
