<svg width="88" height="104" viewBox="0 0 88 104" fill="none" xmlns="http://www.w3.org/2000/svg">
<circle cx="44" cy="44" r="44" fill="#3D8CD6"/>
<g clip-path="url(#clip0_200_42)">
<path d="M44.1139 19C44.1005 19 44.0737 19 44.0335 19C30.4763 19 19.451 30.0253 19.451 43.5826C19.451 49.1153 21.3399 54.4873 24.7962 58.8144L21.2193 67.1336C20.9246 67.8168 21.2461 68.6072 21.9159 68.8885C22.1571 68.9957 22.425 69.0225 22.6795 68.9823L35.7947 66.6781C38.4204 67.6292 41.1801 68.1115 43.9665 68.0981C57.5238 68.0981 68.5491 57.0728 68.5491 43.5156C68.5759 29.9985 57.631 19.0134 44.1139 19ZM35.7009 38.6392H42.935C43.6718 38.6392 44.2747 39.2421 44.2747 39.9789C44.2747 40.7157 43.6718 41.3185 42.935 41.3185H35.7009C34.9641 41.3185 34.3613 40.7157 34.3613 39.9789C34.3613 39.2421 34.9641 38.6392 35.7009 38.6392ZM52.3126 48.0168H35.7009C34.9641 48.0168 34.3613 47.4139 34.3613 46.6771C34.3613 45.9403 34.9641 45.3375 35.7009 45.3375H52.3126C53.0494 45.3375 53.6522 45.9403 53.6522 46.6771C53.6522 47.4139 53.0494 48.0168 52.3126 48.0168Z" fill="white"/>
</g>
<defs>
<clipPath id="clip0_200_42">
<rect width="50" height="50" fill="white" transform="translate(19 19)"/>
</clipPath>
</defs>
</svg>
