<svg width="45" height="37" viewBox="0 0 45 37" fill="none" xmlns="http://www.w3.org/2000/svg">
<path d="M12.1914 9.90039H11.6272L10.5728 14.2363H13.2459L12.1914 9.90039Z" fill="white"/>
<path d="M33.519 18.5723C34.0883 19.8296 34.8455 20.8474 35.6834 21.7134C36.5214 20.8474 37.3665 19.8295 37.9357 18.5723H33.519Z" fill="white"/>
<path d="M41.0448 6.57617H24.6722L28.0861 29.0998C28.1465 30.0211 27.8402 30.8884 27.1089 31.5674L21.3276 37H41.0448C43.2257 37 44.9998 35.5412 44.9998 33.748V9.90039C44.9998 8.10719 43.2257 6.57617 41.0448 6.57617ZM41.0448 18.5723H40.6927C39.9425 20.5511 38.7529 22.0996 37.5167 23.3203C38.4851 24.0483 39.5207 24.6455 40.5504 25.3144C41.1181 25.688 41.2109 26.3697 40.7551 26.8376C40.3014 27.3048 39.4691 27.3806 38.9024 27.006C37.7837 26.2799 36.7335 25.6721 35.6834 24.8798C34.6333 25.6721 33.6711 26.2799 32.5523 27.006C31.9857 27.3806 31.1534 27.3048 30.6997 26.8376C30.2439 26.3697 30.3366 25.688 30.9044 25.3144C31.934 24.6455 32.8817 24.0483 33.8502 23.3203C32.6139 22.0996 31.5121 20.5512 30.7621 18.5723H30.41C29.6813 18.5723 29.0916 18.0874 29.0916 17.4883C29.0916 16.8891 29.6813 16.4043 30.41 16.4043H34.3651V15.3203C34.3651 14.7212 34.9547 14.2363 35.6834 14.2363C36.4121 14.2363 37.0018 14.7212 37.0018 15.3203V16.4043H41.0448C41.7735 16.4043 42.3631 16.8891 42.3631 17.4883C42.3631 18.0874 41.7735 18.5723 41.0448 18.5723Z" fill="white"/>
<path d="M21.4597 2.84864C21.2138 1.22476 19.526 0 17.5356 0H3.95508C1.77416 0 0 1.45875 0 3.25195V27.2441C0 29.0373 1.77416 30.4961 3.95508 30.4961C11.8362 30.4961 17.5058 30.4961 24.7457 30.4961C25.1303 30.1346 25.4527 29.9083 25.4663 29.4365C25.4696 29.3182 21.4776 2.966 21.4597 2.84864ZM16.167 20.7191C15.4679 20.8374 14.7597 20.4642 14.6156 19.869L13.773 16.4043H10.0455L9.20285 19.869C9.06126 20.4554 8.37369 20.8408 7.65149 20.7191C6.93826 20.6016 6.47473 20.031 6.61764 19.4435L9.25427 8.60366C9.37784 8.09765 9.91863 7.73242 10.5469 7.73242H13.2715C13.8997 7.73242 14.4405 8.09765 14.5641 8.60366L17.2008 19.4435C17.3437 20.031 16.8803 20.6016 16.167 20.7191Z" fill="white"/>
<path d="M15.4038 32.6641L15.63 34.1514C15.7809 35.1474 16.5858 36.1631 17.9097 36.6703C20.4083 34.4088 18.8967 35.7769 22.3358 32.6641H15.4038Z" fill="white"/>
</svg>
