<svg width="42" height="42" viewBox="0 0 42 42" fill="none" xmlns="http://www.w3.org/2000/svg">
<path d="M17.4999 42C20.6693 42 23.3206 39.7406 23.9294 36.75H11.0704C11.6795 39.7406 14.3308 42 17.4999 42Z" fill="white"/>
<path d="M30.7579 25.3678C30.7124 25.3678 30.6704 25.3749 30.6249 25.3749C22.9056 25.3749 16.6251 19.0944 16.6251 11.3751C16.6251 8.34219 17.605 5.54063 19.2501 3.2444V1.74989C19.2501 0.782181 18.466 0 17.4999 0C16.5341 0 15.75 0.782181 15.75 1.74989V3.64014C9.8226 4.49409 5.25 9.59189 5.25 15.75V20.6289C5.25 24.0922 3.73274 27.3613 1.07089 29.6117C0.390289 30.1945 0 31.0415 0 31.9374C0 33.6264 1.3737 35.0001 3.06239 35.0001H31.9374C33.6264 35.0001 35.0001 33.6264 35.0001 31.9374C35.0001 31.0415 34.6098 30.1945 33.9116 29.5979C32.5324 28.4306 31.4686 26.978 30.7579 25.3678Z" fill="white"/>
<path d="M30.6249 0C24.353 0 19.2501 5.10292 19.2501 11.3751C19.2501 17.647 24.353 22.7499 30.6249 22.7499C36.8971 22.7499 42 17.647 42 11.3751C42 5.10292 36.8971 0 30.6249 0V0ZM32.3751 15.3126C32.3751 16.0371 31.7871 16.6251 31.0626 16.6251C30.3381 16.6251 29.7501 16.0371 29.7501 15.3126V9.62489H28.875C28.1505 9.62489 27.5625 9.0369 27.5625 8.31239C27.5625 7.58789 28.1505 6.99989 28.875 6.99989H31.0626C31.7871 6.99989 32.3751 7.58789 32.3751 8.31239V15.3126Z" fill="#D3D729"/>
</svg>
