<svg width="45" height="37" viewBox="0 0 45 37" fill="none" xmlns="http://www.w3.org/2000/svg">
<path d="M12.1913 9.90039H11.6271L10.5726 14.2363H13.2457L12.1913 9.90039Z" fill="white"/>
<path d="M33.5192 18.5723C34.0885 19.8296 34.8456 20.8474 35.6836 21.7134C36.5215 20.8474 37.3666 19.8295 37.9359 18.5723H33.5192Z" fill="white"/>
<path d="M41.0449 6.57617H24.6724L28.0863 29.0998C28.1466 30.0211 27.8403 30.8884 27.1091 31.5674L21.3278 37H41.0449C43.2259 37 45 35.5412 45 33.748V9.90039C45 8.10719 43.2259 6.57617 41.0449 6.57617ZM41.0449 18.5723H40.6928C39.9427 20.5511 38.7531 22.0996 37.5168 23.3203C38.4853 24.0483 39.5209 24.6455 40.5506 25.3144C41.1183 25.688 41.2111 26.3697 40.7553 26.8376C40.3016 27.3048 39.4692 27.3806 38.9026 27.006C37.7838 26.2799 36.7337 25.6721 35.6836 24.8798C34.6335 25.6721 33.6713 26.2799 32.5525 27.006C31.9859 27.3806 31.1536 27.3048 30.6999 26.8376C30.2441 26.3697 30.3368 25.688 30.9046 25.3144C31.9342 24.6455 32.8819 24.0483 33.8504 23.3203C32.6141 22.0996 31.5123 20.5512 30.7623 18.5723H30.4102C29.6815 18.5723 29.0918 18.0874 29.0918 17.4883C29.0918 16.8891 29.6815 16.4043 30.4102 16.4043H34.3653V15.3203C34.3653 14.7212 34.9549 14.2363 35.6836 14.2363C36.4123 14.2363 37.002 14.7212 37.002 15.3203V16.4043H41.0449C41.7736 16.4043 42.3633 16.8891 42.3633 17.4883C42.3633 18.0874 41.7736 18.5723 41.0449 18.5723Z" fill="white"/>
<path d="M21.4597 2.84864C21.2138 1.22476 19.526 0 17.5356 0H3.95508C1.77416 0 0 1.45875 0 3.25195V27.2441C0 29.0373 1.77416 30.4961 3.95508 30.4961C11.8362 30.4961 17.5058 30.4961 24.7457 30.4961C25.1303 30.1346 25.4527 29.9083 25.4663 29.4365C25.4696 29.3182 21.4776 2.966 21.4597 2.84864ZM16.167 20.7191C15.4679 20.8374 14.7597 20.4642 14.6156 19.869L13.773 16.4043H10.0455L9.20285 19.869C9.06126 20.4554 8.37369 20.8408 7.65149 20.7191C6.93826 20.6016 6.47473 20.031 6.61764 19.4435L9.25427 8.60366C9.37784 8.09765 9.91863 7.73242 10.5469 7.73242H13.2715C13.8997 7.73242 14.4405 8.09765 14.5641 8.60366L17.2008 19.4435C17.3437 20.031 16.8803 20.6016 16.167 20.7191Z" fill="white"/>
<path d="M15.4038 32.6641L15.63 34.1514C15.7809 35.1474 16.5858 36.1631 17.9097 36.6703C20.4083 34.4088 18.8967 35.7769 22.3358 32.6641H15.4038Z" fill="white"/>
</svg>
