<svg width="38" height="38" viewBox="0 0 38 38" fill="none" xmlns="http://www.w3.org/2000/svg">
<path d="M7.08831 26.4289L12.1906 21.3267C11.2629 19.4713 10.6444 17.3067 10.6444 15.1421C10.6444 7.87531 16.5197 2 23.7866 2C31.0534 2 36.9287 7.87531 36.9287 15.1421C36.9287 22.409 31.0534 28.2843 23.7866 28.2843C21.622 28.2843 19.4574 27.6658 17.602 26.7382L12.4998 31.8404C10.9536 33.3865 8.63444 33.3865 7.08831 31.8404C5.69678 30.2943 5.69678 27.9751 7.08831 26.4289ZM23.7866 25.192C29.3527 25.192 33.8364 20.7082 33.8364 15.1421C33.8364 9.57606 29.3527 5.09227 23.7866 5.09227C18.2205 5.09227 13.7367 9.57606 13.7367 15.1421C13.7367 20.7082 18.2205 25.192 23.7866 25.192Z" fill="#C4C4C4"/>
</svg>
