<svg width="88" height="88" viewBox="0 0 88 88" fill="none" xmlns="http://www.w3.org/2000/svg">
<circle cx="44" cy="44" r="44" fill="#3D8CD6"/>
<g clip-path="url(#clip0_109_252)">
<path d="M44.1141 19C44.1007 19 44.0739 19 44.0337 19C30.4765 19 19.4512 30.0253 19.4512 43.5826C19.4512 49.1153 21.3401 54.4873 24.7964 58.8144L21.2195 67.1336C20.9248 67.8168 21.2463 68.6072 21.9161 68.8885C22.1573 68.9957 22.4252 69.0225 22.6797 68.9823L35.7949 66.6781C38.4206 67.6292 41.1803 68.1115 43.9668 68.0981C57.524 68.0981 68.5493 57.0728 68.5493 43.5156C68.5761 29.9985 57.6312 19.0134 44.1141 19ZM35.7011 38.6392H42.9352C43.672 38.6392 44.2749 39.2421 44.2749 39.9789C44.2749 40.7157 43.672 41.3185 42.9352 41.3185H35.7011C34.9643 41.3185 34.3615 40.7157 34.3615 39.9789C34.3615 39.2421 34.9643 38.6392 35.7011 38.6392ZM52.3128 48.0168H35.7011C34.9643 48.0168 34.3615 47.4139 34.3615 46.6771C34.3615 45.9403 34.9643 45.3375 35.7011 45.3375H52.3128C53.0496 45.3375 53.6524 45.9403 53.6524 46.6771C53.6524 47.4139 53.0496 48.0168 52.3128 48.0168Z" fill="white"/>
</g>
<defs>
<clipPath id="clip0_109_252">
<rect width="50" height="50" fill="white" transform="translate(19 19)"/>
</clipPath>
</defs>
</svg>
