<svg width="122" height="50" viewBox="0 0 122 50" fill="none" xmlns="http://www.w3.org/2000/svg">
<g clip-path="url(#clip0_242_339)">
<path d="M97.499 0C83.9698 0 73 10.9698 73 24.499C73 38.0281 83.9698 49 97.499 49C111.028 49 122 38.0281 122 24.499C122 10.9698 111.028 0 97.499 0ZM102.599 37.9701C101.338 38.4678 100.334 38.8453 99.5813 39.1067C98.8305 39.368 97.9573 39.4987 96.9639 39.4987C95.4373 39.4987 94.2489 39.1253 93.4027 38.3807C92.5564 37.6361 92.1354 36.6924 92.1354 35.5455C92.1354 35.0996 92.1665 34.6433 92.2287 34.1787C92.293 33.7141 92.3947 33.1914 92.5336 32.6044L94.112 27.0293C94.251 26.4942 94.3713 25.9861 94.4667 25.5132C94.5621 25.0361 94.6077 24.5985 94.6077 24.2003C94.6077 23.491 94.4604 22.9932 94.168 22.7132C93.8714 22.4332 93.3135 22.2963 92.4818 22.2963C92.0753 22.2963 91.6563 22.3564 91.227 22.483C90.8018 22.6136 90.4326 22.7319 90.1298 22.848L90.5467 21.1307C91.5796 20.7096 92.5689 20.3487 93.5126 20.0501C94.4563 19.7473 95.3481 19.5979 96.1881 19.5979C97.7043 19.5979 98.8741 19.9671 99.6975 20.6972C100.517 21.4293 100.929 22.3813 100.929 23.5511C100.929 23.7938 100.9 24.221 100.844 24.8308C100.788 25.4427 100.683 26.0006 100.529 26.5129L98.9591 32.0714C98.8305 32.5173 98.7164 33.0276 98.6127 33.5979C98.5111 34.1683 98.4613 34.6039 98.4613 34.8963C98.4613 35.6347 98.6252 36.1387 98.957 36.4062C99.2847 36.6738 99.8593 36.8086 100.672 36.8086C101.056 36.8086 101.485 36.7401 101.971 36.6074C102.452 36.4747 102.8 36.3564 103.02 36.2548L102.599 37.9701ZM102.321 15.4083C101.589 16.0886 100.708 16.4287 99.6767 16.4287C98.648 16.4287 97.7603 16.0886 97.0219 15.4083C96.2877 14.728 95.9164 13.9004 95.9164 12.9339C95.9164 11.9695 96.2898 11.1399 97.0219 10.4533C97.7603 9.76474 98.648 9.42252 99.6767 9.42252C100.708 9.42252 101.591 9.76474 102.321 10.4533C103.053 11.1399 103.42 11.9695 103.42 12.9339C103.42 13.9025 103.053 14.728 102.321 15.4083Z" fill="#3D8CD6"/>
</g>
<rect y="1" width="49" height="49" rx="24.5" fill="#3C8CD6"/>
<path d="M10 18.85L24 8L38 18.85V35.8999C38 36.7221 37.6722 37.5106 37.0888 38.0919C36.5053 38.6733 35.714 38.9999 34.8889 38.9999H13.1111C12.286 38.9999 11.4947 38.6733 10.9112 38.0919C10.3278 37.5106 10 36.7221 10 35.8999V18.85Z" stroke="white" stroke-width="2" stroke-linecap="round" stroke-linejoin="round"/>
<path d="M19.333 39V23.5H28.6663V39" stroke="white" stroke-width="2" stroke-linecap="round" stroke-linejoin="round"/>
<defs>
<clipPath id="clip0_242_339">
<rect width="49" height="49" fill="white" transform="translate(73)"/>
</clipPath>
</defs>
</svg>
