<svg width="38" height="38" viewBox="0 0 38 38" fill="none" xmlns="http://www.w3.org/2000/svg">
<path d="M1.35016 29.9451L7.60452 23.6908C6.46737 21.4165 5.70926 18.7631 5.70926 16.1097C5.70926 7.20199 12.9113 0 21.819 0C30.7267 0 37.9287 7.20199 37.9287 16.1097C37.9287 25.0175 30.7267 32.2194 21.819 32.2194C19.1656 32.2194 16.5123 31.4613 14.2379 30.3242L7.98358 36.5785C6.08832 38.4738 3.24542 38.4738 1.35016 36.5785C-0.355576 34.6833 -0.355576 31.8404 1.35016 29.9451ZM21.819 28.4289C28.6419 28.4289 34.1382 22.9327 34.1382 16.1097C34.1382 9.28678 28.6419 3.79052 21.819 3.79052C14.996 3.79052 9.49979 9.28678 9.49979 16.1097C9.49979 22.9327 14.996 28.4289 21.819 28.4289Z" fill="white"/>
</svg>
