<svg width="54" height="53" viewBox="0 0 54 53" fill="none" xmlns="http://www.w3.org/2000/svg">
<path d="M0 10C0 4.47715 4.47715 0 10 0H44C49.5228 0 54 4.47715 54 10V53H0V10Z" fill="#E96E6E"/>
<g clip-path="url(#clip0_109_385)">
<path d="M30.281 31.5977H24.7192C23.9054 31.5977 23.2437 32.2583 23.2437 33.0703V41H31.7566V33.0703C31.7566 32.2583 31.0948 31.5977 30.281 31.5977Z" fill="white"/>
<path d="M38.8332 34.2031H34.9525C34.1316 34.2031 33.4639 34.8638 33.4639 35.6758C33.4639 40.3978 33.4663 40.1154 33.4592 40.1827V41H40.3218V35.6758C40.3218 34.8638 39.6539 34.2031 38.8332 34.2031Z" fill="white"/>
<path d="M42 18.8535V15.1152C42 13.3974 40.6026 12 38.8852 12H16.1148C14.3974 12 13 13.3974 13 15.1152V18.8535H42ZM37.694 15.4551C38.1633 15.4551 38.5436 15.8354 38.5436 16.3047C38.5436 16.774 38.1633 17.1543 37.694 17.1543C37.2249 17.1543 36.8446 16.774 36.8446 16.3047C36.8446 15.8354 37.2249 15.4551 37.694 15.4551ZM34.296 15.4551C34.765 15.4551 35.1454 15.8354 35.1454 16.3047C35.1454 16.774 34.765 17.1543 34.296 17.1543C33.8267 17.1543 33.4464 16.774 33.4464 16.3047C33.4464 15.8354 33.8267 15.4551 34.296 15.4551ZM30.898 15.4551C31.3671 15.4551 31.7474 15.8354 31.7474 16.3047C31.7474 16.774 31.3671 17.1543 30.898 17.1543C30.4289 17.1543 30.0484 16.774 30.0484 16.3047C30.0484 15.8354 30.4289 15.4551 30.898 15.4551Z" fill="white"/>
<path d="M18.1358 29.1055C17.6663 29.1055 17.2844 29.4867 17.2844 29.9551C17.2844 30.4235 17.6663 30.8047 18.1358 30.8047C18.6051 30.8047 18.987 30.4235 18.987 29.9551C18.987 29.4867 18.6051 29.1055 18.1358 29.1055Z" fill="white"/>
<path d="M20.0498 34.2031H16.1651C15.3429 34.2031 14.6741 34.8638 14.6741 35.6758V41H21.5409C21.5409 39.5353 21.5409 35.9008 21.5409 35.6758C21.5409 34.8638 20.872 34.2031 20.0498 34.2031Z" fill="white"/>
<path d="M36.921 29.1055C36.4515 29.1055 36.0696 29.4867 36.0696 29.9551C36.0696 30.4235 36.4515 30.8047 36.921 30.8047C37.3905 30.8047 37.7723 30.4235 37.7723 29.9551C37.7723 29.4867 37.3905 29.1055 36.921 29.1055Z" fill="white"/>
<path d="M13 20.5527V35.2583C13.2064 33.706 14.5468 32.5039 16.165 32.5039H18.1355C16.7272 32.5039 15.5816 31.3605 15.5816 29.9551C15.5816 28.5497 16.7272 27.4062 18.1355 27.4062C19.5438 27.4062 20.6894 28.5497 20.6894 29.9551C20.6894 31.3605 19.5438 32.5039 18.1355 32.5039C20.1312 32.5039 20.6741 32.4128 21.5474 32.8754C21.6488 31.2169 23.0322 29.8984 24.7191 29.8984H27.5283C25.8855 29.8984 24.5487 28.5645 24.5487 26.9248C24.5487 25.2851 25.8855 23.9512 27.5283 23.9512C29.1713 23.9512 30.5079 25.2851 30.5079 26.9248C30.5079 28.5645 29.1713 29.8984 27.5283 29.8984H30.2809C31.9684 29.8984 33.3521 31.2178 33.4528 32.8772C34.3146 32.4189 34.8252 32.5039 36.9212 32.5039C35.5129 32.5039 34.3672 31.3605 34.3672 29.9551C34.3672 28.5497 35.5129 27.4062 36.9212 27.4062C38.3294 27.4062 39.4751 28.5497 39.4751 29.9551C39.4751 31.3605 38.3294 32.5039 36.9212 32.5039H38.8332C40.4616 32.5039 41.8082 33.7228 42 35.2908V20.5527H13Z" fill="white"/>
<path d="M27.5283 25.6504C26.8243 25.6504 26.2515 26.2221 26.2515 26.9248C26.2515 27.6275 26.8243 28.1992 27.5283 28.1992C28.2326 28.1992 28.8054 27.6275 28.8054 26.9248C28.8054 26.2221 28.2326 25.6504 27.5283 25.6504Z" fill="white"/>
</g>
<defs>
<clipPath id="clip0_109_385">
<rect width="29" height="29" fill="white" transform="translate(13 12)"/>
</clipPath>
</defs>
</svg>
