<svg width="45" height="37" viewBox="0 0 45 37" fill="none" xmlns="http://www.w3.org/2000/svg">
<path d="M12.1909 9.90039H11.6267L10.5723 14.2363H13.2454L12.1909 9.90039Z" fill="white"/>
<path d="M33.5195 18.5723C34.0888 19.8296 34.846 20.8474 35.6839 21.7134C36.5219 20.8474 37.3669 19.8295 37.9362 18.5723H33.5195Z" fill="white"/>
<path d="M41.0452 6.57617H24.6727L28.0866 29.0998C28.1469 30.0211 27.8406 30.8884 27.1094 31.5674L21.3281 37H41.0452C43.2262 37 45.0003 35.5412 45.0003 33.748V9.90039C45.0003 8.10719 43.2262 6.57617 41.0452 6.57617ZM41.0452 18.5723H40.6932C39.943 20.5511 38.7534 22.0996 37.5171 23.3203C38.4856 24.0483 39.5212 24.6455 40.5509 25.3144C41.1186 25.688 41.2114 26.3697 40.7556 26.8376C40.3019 27.3048 39.4695 27.3806 38.9029 27.006C37.7842 26.2799 36.734 25.6721 35.6839 24.8798C34.6338 25.6721 33.6716 26.2799 32.5528 27.006C31.9862 27.3806 31.1539 27.3048 30.7002 26.8376C30.2444 26.3697 30.3371 25.688 30.9049 25.3144C31.9345 24.6455 32.8822 24.0483 33.8507 23.3203C32.6144 22.0996 31.5126 20.5512 30.7626 18.5723H30.4105C29.6818 18.5723 29.0921 18.0874 29.0921 17.4883C29.0921 16.8891 29.6818 16.4043 30.4105 16.4043H34.3656V15.3203C34.3656 14.7212 34.9552 14.2363 35.6839 14.2363C36.4126 14.2363 37.0023 14.7212 37.0023 15.3203V16.4043H41.0452C41.7739 16.4043 42.3636 16.8891 42.3636 17.4883C42.3636 18.0874 41.7739 18.5723 41.0452 18.5723Z" fill="white"/>
<path d="M21.4597 2.84864C21.2138 1.22476 19.526 0 17.5356 0H3.95508C1.77416 0 0 1.45875 0 3.25195V27.2441C0 29.0373 1.77416 30.4961 3.95508 30.4961C11.8362 30.4961 17.5058 30.4961 24.7457 30.4961C25.1303 30.1346 25.4527 29.9083 25.4663 29.4365C25.4696 29.3182 21.4776 2.966 21.4597 2.84864ZM16.167 20.7191C15.4679 20.8374 14.7597 20.4642 14.6156 19.869L13.773 16.4043H10.0455L9.20285 19.869C9.06126 20.4554 8.37369 20.8408 7.65149 20.7191C6.93826 20.6016 6.47473 20.031 6.61764 19.4435L9.25427 8.60366C9.37784 8.09765 9.91863 7.73242 10.5469 7.73242H13.2715C13.8997 7.73242 14.4405 8.09765 14.5641 8.60366L17.2008 19.4435C17.3437 20.031 16.8803 20.6016 16.167 20.7191Z" fill="white"/>
<path d="M15.4033 32.6641L15.6296 34.1514C15.7804 35.1474 16.5853 36.1631 17.9093 36.6703C20.4078 34.4088 18.8962 35.7769 22.3353 32.6641H15.4033Z" fill="white"/>
</svg>
