<svg width="49" height="49" viewBox="0 0 49 49" fill="none" xmlns="http://www.w3.org/2000/svg">
<g clip-path="url(#clip0_200_57)">
<path d="M24.499 0C10.9698 0 0 10.9698 0 24.499C0 38.0281 10.9698 49 24.499 49C38.0281 49 49 38.0281 49 24.499C49 10.9698 38.0281 0 24.499 0ZM29.5991 37.9701C28.3381 38.4678 27.3342 38.8453 26.5813 39.1067C25.8305 39.368 24.9573 39.4987 23.9639 39.4987C22.4373 39.4987 21.2489 39.1253 20.4027 38.3807C19.5564 37.6361 19.1354 36.6924 19.1354 35.5455C19.1354 35.0996 19.1665 34.6433 19.2287 34.1787C19.293 33.7141 19.3947 33.1914 19.5336 32.6044L21.112 27.0293C21.251 26.4942 21.3713 25.9861 21.4667 25.5132C21.5621 25.0361 21.6077 24.5985 21.6077 24.2003C21.6077 23.491 21.4604 22.9932 21.168 22.7132C20.8714 22.4332 20.3135 22.2963 19.4818 22.2963C19.0753 22.2963 18.6563 22.3564 18.227 22.483C17.8018 22.6136 17.4326 22.7319 17.1298 22.848L17.5467 21.1307C18.5796 20.7096 19.5689 20.3487 20.5126 20.0501C21.4563 19.7473 22.3481 19.5979 23.1881 19.5979C24.7043 19.5979 25.8741 19.9671 26.6975 20.6972C27.5167 21.4293 27.9295 22.3813 27.9295 23.5511C27.9295 23.7938 27.9004 24.221 27.8444 24.8308C27.7884 25.4427 27.6827 26.0006 27.5292 26.5129L25.9591 32.0714C25.8305 32.5173 25.7164 33.0276 25.6127 33.5979C25.5111 34.1683 25.4613 34.6039 25.4613 34.8963C25.4613 35.6347 25.6252 36.1387 25.957 36.4062C26.2847 36.6738 26.8593 36.8086 27.6723 36.8086C28.056 36.8086 28.4853 36.7401 28.9707 36.6074C29.4519 36.4747 29.8003 36.3564 30.0201 36.2548L29.5991 37.9701ZM29.3212 15.4083C28.589 16.0886 27.7076 16.4287 26.6767 16.4287C25.648 16.4287 24.7603 16.0886 24.0219 15.4083C23.2877 14.728 22.9164 13.9004 22.9164 12.9339C22.9164 11.9695 23.2898 11.1399 24.0219 10.4533C24.7603 9.76474 25.648 9.42252 26.6767 9.42252C27.7076 9.42252 28.5911 9.76474 29.3212 10.4533C30.0533 11.1399 30.4204 11.9695 30.4204 12.9339C30.4204 13.9025 30.0533 14.728 29.3212 15.4083Z" fill="#3D8CD6"/>
</g>
<defs>
<clipPath id="clip0_200_57">
<rect width="49" height="49" fill="white"/>
</clipPath>
</defs>
</svg>
