<svg width="30" height="29" viewBox="0 0 30 29" fill="none" xmlns="http://www.w3.org/2000/svg">
<path d="M28.838 20.0098C28.8468 19.9925 28.8546 19.9748 28.8608 19.9567C30.6383 15.9911 30.3207 11.1294 28.0121 7.41357C29.2446 5.98937 27.6437 3.94982 25.893 4.73896C25.5854 4.43506 25.2624 4.14379 24.9277 3.86839C25.5847 2.14187 23.3919 0.725545 22.0263 2.0155C18.057 0.0780152 13.1202 0.102552 9.17285 2.08107C7.76865 0.642585 5.4104 2.18494 6.26057 3.98977C5.77367 4.40134 5.3128 4.84595 4.88785 5.31611C4.52095 5.72207 5.18565 6.27848 5.55003 5.87535C5.94537 5.438 6.37371 5.02428 6.82615 4.64087C7.70106 5.25089 8.96967 4.94013 9.44966 4.00898C11.0336 4.44973 12.5463 5.0823 13.9558 5.89417C13.8378 6.30551 13.886 6.7649 14.0885 7.14463C12.9284 8.11334 11.8836 9.20916 10.9764 10.4101C10.1389 10.1655 9.21576 10.5749 8.85155 11.3416C7.00459 11.3512 5.15188 11.5433 3.33288 11.9149C3.17226 11.6256 2.92875 11.3858 2.63354 11.2252C2.9753 9.93693 3.5166 8.7114 4.24572 7.57824C4.53625 7.12661 3.8029 6.65713 3.49907 7.12927C2.72387 8.334 2.1481 9.63683 1.78395 11.0063C-0.322292 11.0409 -0.675892 13.8576 1.32923 14.3994C1.29968 18.4081 3.09265 22.3056 6.20178 24.9605C5.5532 26.6541 7.65879 28.051 9.04834 26.8565C13.1036 28.941 18.2287 28.9413 22.2842 26.8572C23.6975 28.2084 25.9611 26.6989 25.165 24.9325C26.7674 23.5559 28.0122 21.8722 28.838 20.0098ZM28.2841 19.0592C27.067 17.8904 25.7352 16.8301 24.3132 15.8994C24.5152 15.2879 24.3397 14.5999 23.8681 14.1485C25.0638 12.2267 26.0025 10.1659 26.6633 8.01321C26.8834 8.01395 27.0951 7.97468 27.2902 7.90362C29.3149 11.2092 29.6852 15.4711 28.2841 19.0592ZM8.05255 23.8637C7.68254 20.3603 8.33182 16.8651 9.93879 13.7066C10.9371 14.0077 12.0161 13.3731 12.21 12.3825C15.2416 12.7437 18.1613 13.6041 20.9013 14.944C20.7695 15.4392 20.8786 15.9851 21.1925 16.397C18.104 20.1795 14.0271 23.0257 9.36114 24.6569C9.07841 24.2242 8.60294 23.9214 8.05255 23.8637ZM21.7245 15.3747C21.7245 14.8931 22.1268 14.5013 22.6214 14.5013C23.8113 14.5491 23.811 16.2004 22.6214 16.2481C22.1268 16.2481 21.7245 15.8563 21.7245 15.3747ZM27.5641 6.28987C27.5641 6.77148 27.1617 7.16327 26.6671 7.16327C25.4772 7.11539 25.4775 5.46418 26.6671 5.41647C27.1617 5.41647 27.5641 5.80826 27.5641 6.28987ZM25.2212 5.29072C24.6135 6.11607 24.8956 7.30919 25.8117 7.79975C25.1716 9.87624 24.2642 11.864 23.1097 13.7181C22.8684 13.651 22.6005 13.6343 22.3524 13.671C21.1457 11.1803 19.39 8.93677 17.2451 7.14474C17.4478 6.76479 17.4961 6.30619 17.3779 5.89428C18.7355 5.11239 20.1897 4.4962 21.7104 4.05817C22.2158 5.00144 23.5717 5.26777 24.4134 4.56165C24.6924 4.79364 24.9624 5.03737 25.2212 5.29072ZM14.7699 6.35566C14.7699 5.87405 15.1723 5.48226 15.6668 5.48226C16.8568 5.53014 16.8564 7.18129 15.6668 7.229C15.1723 7.229 14.7699 6.83721 14.7699 6.35566ZM23.2739 2.36752C23.7685 2.36752 24.1709 2.75931 24.1709 3.24092C24.1215 4.39958 22.4261 4.3993 22.3769 3.24092C22.3769 2.75931 22.7793 2.36752 23.2739 2.36752ZM7.86016 4.11427C7.36557 4.11427 6.9632 3.72247 6.9632 3.24086C7.01256 2.08214 8.70799 2.08254 8.75717 3.24086C8.75717 3.72247 8.35474 4.11427 7.86016 4.11427ZM9.63478 3.1757C9.63021 3.05772 9.61344 2.94285 9.58554 2.83201C13.2659 0.992218 17.8637 0.960145 21.5725 2.74645C21.5248 2.90052 21.4987 3.06344 21.4978 3.23214C19.8983 3.68955 18.3688 4.33566 16.941 5.15659C16.2546 4.4703 15.0794 4.47008 14.3928 5.15654C12.9048 4.30098 11.3076 3.63594 9.63478 3.1757ZM14.6706 7.78167C15.2651 8.17392 16.0684 8.17398 16.663 7.78173C18.7107 9.49085 20.3882 11.6303 21.5437 14.0061C21.4654 14.0642 21.3922 14.1287 21.3249 14.1984C18.4361 12.7821 15.3534 11.8815 12.1513 11.5192C12.0648 11.2662 11.9197 11.0391 11.7313 10.8532C12.5907 9.72466 13.5769 8.69395 14.6706 7.78167ZM10.4653 11.1871C10.9598 11.1871 11.3622 11.5788 11.3622 12.0605C11.3129 13.2192 9.61743 13.2188 9.56825 12.0605C9.5683 11.5788 9.97068 11.1871 10.4653 11.1871ZM0.870931 12.7294C0.870931 12.2478 1.2733 11.856 1.76789 11.856C2.95777 11.9039 2.95742 13.555 1.76789 13.6028C1.27336 13.6028 0.870931 13.211 0.870931 12.7294ZM2.20848 14.3991C2.20848 14.3991 3.54392 14.1176 3.54392 12.7406C3.54392 12.7406 6.97065 12.2111 8.69474 12.1925C8.7271 12.6043 8.909 12.9759 9.18797 13.2562C7.47461 16.5883 6.78353 20.2825 7.18133 23.9844C7.01004 24.0534 6.85235 24.1478 6.71295 24.2625C3.84458 21.7786 2.20848 17.6167 2.20848 14.3991ZM7.86016 26.4501C7.36557 26.4501 6.9632 26.0583 6.9632 25.5767C6.9632 25.0951 7.36557 24.7033 7.86016 24.7033C8.34811 24.7033 8.75717 25.1119 8.75717 25.5767C8.75717 26.0583 8.35474 26.4501 7.86016 26.4501ZM15.6668 27.5765C13.533 27.5765 11.4229 27.0824 9.53694 26.1446C9.6135 25.9325 9.64727 25.6908 9.63238 25.4657C14.4591 23.7839 18.6769 20.8448 21.8721 16.9367C22.1346 17.0557 22.4259 17.1103 22.7153 17.0956C22.9106 17.7964 23.065 18.5114 23.1743 19.2263C23.2581 19.7736 24.1282 19.6513 24.0442 19.102C23.9281 18.3429 23.7637 17.5836 23.5549 16.8401C23.66 16.7768 23.7577 16.7031 23.8467 16.6207C25.3138 17.5835 26.6817 18.6888 27.9209 19.912C27.1523 21.5543 26.0338 23.0413 24.6127 24.27C24.4721 24.168 24.3154 24.0859 24.1473 24.0275C24.2337 23.2374 24.2713 22.4397 24.2586 21.6507C24.2497 21.0954 23.3705 21.1085 23.3795 21.6638C23.3916 22.4222 23.3553 23.1891 23.2718 23.9486C22.2349 24.108 21.5567 25.1474 21.8424 26.1215C19.9446 27.0743 17.8182 27.5765 15.6668 27.5765ZM23.5507 26.524C23.0562 26.524 22.6538 26.1322 22.6538 25.6506C22.7031 24.4919 24.3986 24.4923 24.4478 25.6506C24.4478 26.1322 24.0454 26.524 23.5507 26.524Z" fill="white"/>
</svg>
