<svg width="30" height="29" viewBox="0 0 30 29" fill="none" xmlns="http://www.w3.org/2000/svg">
<path d="M28.838 20.0099C28.8468 19.9926 28.8546 19.9749 28.8608 19.9568C30.6383 15.9912 30.3207 11.1296 28.0121 7.4137C29.2446 5.9895 27.6437 3.94995 25.893 4.73909C25.5854 4.43519 25.2624 4.14392 24.9277 3.86852C25.5847 2.142 23.3919 0.725675 22.0263 2.01563C18.057 0.0781449 13.1202 0.102682 9.17285 2.0812C7.76865 0.642715 5.4104 2.18507 6.26057 3.9899C5.77367 4.40147 5.3128 4.84608 4.88785 5.31624C4.52095 5.7222 5.18565 6.27861 5.55003 5.87548C5.94537 5.43813 6.37371 5.02441 6.82615 4.641C7.70106 5.25102 8.96967 4.94026 9.44966 4.00911C11.0336 4.44986 12.5463 5.08243 13.9558 5.8943C13.8378 6.30564 13.886 6.76503 14.0885 7.14476C12.9284 8.11347 11.8836 9.20929 10.9764 10.4102C10.1389 10.1656 9.21576 10.5751 8.85155 11.3418C7.00459 11.3513 5.15188 11.5434 3.33288 11.9151C3.17226 11.6257 2.92875 11.386 2.63354 11.2254C2.9753 9.93706 3.5166 8.71153 4.24572 7.57837C4.53625 7.12674 3.8029 6.65726 3.49907 7.1294C2.72387 8.33413 2.1481 9.63696 1.78395 11.0065C-0.322292 11.041 -0.675892 13.8577 1.32923 14.3996C1.29968 18.4083 3.09265 22.3057 6.20178 24.9606C5.5532 26.6542 7.65879 28.0512 9.04834 26.8566C13.1036 28.9411 18.2287 28.9414 22.2842 26.8573C23.6975 28.2085 25.9611 26.699 25.165 24.9326C26.7674 23.556 28.0122 21.8723 28.838 20.0099ZM28.2841 19.0594C27.067 17.8906 25.7352 16.8303 24.3132 15.8995C24.5152 15.288 24.3397 14.6 23.8681 14.1486C25.0638 12.2268 26.0025 10.1661 26.6633 8.01334C26.8834 8.01408 27.0951 7.97481 27.2902 7.90375C29.3149 11.2093 29.6852 15.4712 28.2841 19.0594ZM8.05255 23.8638C7.68254 20.3604 8.33182 16.8652 9.93879 13.7067C10.9371 14.0078 12.0161 13.3732 12.21 12.3826C15.2416 12.7439 18.1613 13.6042 20.9013 14.9441C20.7695 15.4393 20.8786 15.9853 21.1925 16.3972C18.104 20.1796 14.0271 23.0258 9.36114 24.6571C9.07841 24.2243 8.60294 23.9215 8.05255 23.8638ZM21.7245 15.3748C21.7245 14.8932 22.1268 14.5014 22.6214 14.5014C23.8113 14.5493 23.811 16.2005 22.6214 16.2482C22.1268 16.2482 21.7245 15.8564 21.7245 15.3748ZM27.5641 6.29C27.5641 6.77161 27.1617 7.1634 26.6671 7.1634C25.4772 7.11552 25.4775 5.46431 26.6671 5.4166C27.1617 5.4166 27.5641 5.80839 27.5641 6.29ZM25.2212 5.29085C24.6135 6.1162 24.8956 7.30932 25.8117 7.79988C25.1716 9.87637 24.2642 11.8641 23.1097 13.7182C22.8684 13.6511 22.6005 13.6344 22.3524 13.6712C21.1457 11.1804 19.39 8.9369 17.2451 7.14487C17.4478 6.76492 17.4961 6.30632 17.3779 5.89441C18.7355 5.11252 20.1897 4.49633 21.7104 4.0583C22.2158 5.00157 23.5717 5.2679 24.4134 4.56178C24.6924 4.79377 24.9624 5.0375 25.2212 5.29085ZM14.7699 6.35579C14.7699 5.87418 15.1723 5.48239 15.6668 5.48239C16.8568 5.53027 16.8564 7.18142 15.6668 7.22913C15.1723 7.22913 14.7699 6.83734 14.7699 6.35579ZM23.2739 2.36765C23.7685 2.36765 24.1709 2.75944 24.1709 3.24105C24.1215 4.39971 22.4261 4.39943 22.3769 3.24105C22.3769 2.75944 22.7793 2.36765 23.2739 2.36765ZM7.86016 4.1144C7.36557 4.1144 6.9632 3.7226 6.9632 3.24099C7.01256 2.08227 8.70799 2.08267 8.75717 3.24099C8.75717 3.7226 8.35474 4.1144 7.86016 4.1144ZM9.63478 3.17583C9.63021 3.05785 9.61344 2.94298 9.58554 2.83214C13.2659 0.992348 17.8637 0.960275 21.5725 2.74658C21.5248 2.90065 21.4987 3.06357 21.4978 3.23227C19.8983 3.68968 18.3688 4.33579 16.941 5.15672C16.2546 4.47043 15.0794 4.47021 14.3928 5.15667C12.9048 4.30111 11.3076 3.63607 9.63478 3.17583ZM14.6706 7.7818C15.2651 8.17405 16.0684 8.17411 16.663 7.78186C18.7107 9.49098 20.3882 11.6304 21.5437 14.0062C21.4654 14.0644 21.3922 14.1288 21.3249 14.1986C18.4361 12.7822 15.3534 11.8816 12.1513 11.5193C12.0648 11.2663 11.9197 11.0392 11.7313 10.8533C12.5907 9.72479 13.5769 8.69408 14.6706 7.7818ZM10.4653 11.1872C10.9598 11.1872 11.3622 11.579 11.3622 12.0606C11.3129 13.2193 9.61743 13.219 9.56825 12.0606C9.5683 11.579 9.97068 11.1872 10.4653 11.1872ZM0.870931 12.7295C0.870931 12.2479 1.2733 11.8561 1.76789 11.8561C2.95777 11.904 2.95742 13.5552 1.76789 13.6029C1.27336 13.6029 0.870931 13.2111 0.870931 12.7295ZM2.20848 14.3992C2.20848 14.3992 3.54392 14.1177 3.54392 12.7408C3.54392 12.7408 6.97065 12.2113 8.69474 12.1927C8.7271 12.6044 8.909 12.976 9.18797 13.2564C7.47461 16.5884 6.78353 20.2826 7.18133 23.9846C7.01004 24.0536 6.85235 24.1479 6.71295 24.2626C3.84458 21.7787 2.20848 17.6169 2.20848 14.3992ZM7.86016 26.4502C7.36557 26.4502 6.9632 26.0584 6.9632 25.5768C6.9632 25.0952 7.36557 24.7034 7.86016 24.7034C8.34811 24.7034 8.75717 25.112 8.75717 25.5768C8.75717 26.0584 8.35474 26.4502 7.86016 26.4502ZM15.6668 27.5766C13.533 27.5766 11.4229 27.0826 9.53694 26.1447C9.6135 25.9326 9.64727 25.691 9.63238 25.4659C14.4591 23.7841 18.6769 20.8449 21.8721 16.9368C22.1346 17.0558 22.4259 17.1104 22.7153 17.0958C22.9106 17.7966 23.065 18.5115 23.1743 19.2264C23.2581 19.7737 24.1282 19.6514 24.0442 19.1021C23.9281 18.343 23.7637 17.5838 23.5549 16.8402C23.66 16.777 23.7577 16.7032 23.8467 16.6208C25.3138 17.5836 26.6817 18.6889 27.9209 19.9121C27.1523 21.5544 26.0338 23.0414 24.6127 24.2701C24.4721 24.1681 24.3154 24.086 24.1473 24.0277C24.2337 23.2376 24.2713 22.4398 24.2586 21.6508C24.2497 21.0956 23.3705 21.1086 23.3795 21.6639C23.3916 22.4224 23.3553 23.1892 23.2718 23.9487C22.2349 24.1081 21.5567 25.1475 21.8424 26.1216C19.9446 27.0744 17.8182 27.5766 15.6668 27.5766ZM23.5507 26.5241C23.0562 26.5241 22.6538 26.1323 22.6538 25.6507C22.7031 24.492 24.3986 24.4924 24.4478 25.6507C24.4478 26.1323 24.0454 26.5241 23.5507 26.5241Z" fill="white"/>
</svg>
