<svg width="30" height="29" viewBox="0 0 30 29" fill="none" xmlns="http://www.w3.org/2000/svg">
<path d="M28.8382 20.0099C28.8469 19.9926 28.8547 19.9749 28.861 19.9568C30.6384 15.9912 30.3208 11.1295 28.0122 7.41369C29.2447 5.98949 27.6438 3.94994 25.8932 4.73908C25.5855 4.43518 25.2625 4.14391 24.9278 3.86851C25.5848 2.14199 23.3921 0.725667 22.0264 2.01563C18.0572 0.0781373 13.1203 0.102674 9.17297 2.08119C7.76877 0.642707 5.41052 2.18506 6.2607 3.98989C5.77379 4.40146 5.31292 4.84607 4.88798 5.31623C4.52107 5.72219 5.18577 6.2786 5.55016 5.87547C5.94549 5.43812 6.37383 5.0244 6.82627 4.64099C7.70118 5.25101 8.96979 4.94025 9.44978 4.0091C11.0338 4.44986 12.5464 5.08242 13.9559 5.89429C13.8379 6.30563 13.8861 6.76503 14.0886 7.14475C12.9285 8.11347 11.8838 9.20929 10.9766 10.4102C10.139 10.1656 9.21588 10.5751 8.85167 11.3418C7.00471 11.3513 5.152 11.5434 3.333 11.9151C3.17238 11.6257 2.92887 11.386 2.63366 11.2254C2.97542 9.93706 3.51672 8.71153 4.24585 7.57836C4.53637 7.12673 3.80303 6.65725 3.49919 7.12939C2.72399 8.33413 2.14822 9.63695 1.78407 11.0065C-0.32217 11.041 -0.67577 13.8577 1.32935 14.3996C1.2998 18.4083 3.09278 22.3057 6.2019 24.9606C5.55332 26.6542 7.65892 28.0512 9.04846 26.8566C13.1037 28.9411 18.2289 28.9414 22.2844 26.8573C23.6976 28.2085 25.9612 26.699 25.1652 24.9326C26.7676 23.556 28.0124 21.8723 28.8382 20.0099ZM28.2842 19.0594C27.0672 17.8906 25.7353 16.8303 24.3133 15.8995C24.5153 15.288 24.3398 14.6 23.8682 14.1486C25.0639 12.2268 26.0026 10.166 26.6634 8.01334C26.8836 8.01407 27.0952 7.9748 27.2903 7.90374C29.315 11.2093 29.6853 15.4712 28.2842 19.0594ZM8.05267 23.8638C7.68266 20.3604 8.33194 16.8652 9.93891 13.7067C10.9372 14.0078 12.0162 13.3732 12.2101 12.3826C15.2417 12.7439 18.1614 13.6042 20.9014 14.9441C20.7697 15.4393 20.8788 15.9853 21.1927 16.3972C18.1041 20.1796 14.0272 23.0258 9.36126 24.6571C9.07853 24.2243 8.60306 23.9215 8.05267 23.8638ZM21.7246 15.3748C21.7246 14.8932 22.127 14.5014 22.6215 14.5014C23.8114 14.5493 23.8111 16.2005 22.6215 16.2482C22.127 16.2482 21.7246 15.8564 21.7246 15.3748ZM27.5642 6.28999C27.5642 6.7716 27.1618 7.16339 26.6673 7.16339C25.4773 7.11551 25.4776 5.4643 26.6673 5.41659C27.1618 5.41659 27.5642 5.80838 27.5642 6.28999ZM25.2213 5.29084C24.6137 6.11619 24.8957 7.30931 25.8118 7.79987C25.1717 9.87637 24.2643 11.8641 23.1099 13.7182C22.8685 13.6511 22.6006 13.6344 22.3525 13.6712C21.1458 11.1804 19.3901 8.93689 17.2453 7.14486C17.4479 6.76491 17.4962 6.30631 17.378 5.8944C18.7356 5.11251 20.1898 4.49632 21.7105 4.05829C22.216 5.00156 23.5718 5.26789 24.4135 4.56177C24.6925 4.79377 24.9626 5.03749 25.2213 5.29084ZM14.77 6.35578C14.77 5.87417 15.1724 5.48238 15.667 5.48238C16.8569 5.53026 16.8566 7.18141 15.667 7.22913C15.1724 7.22913 14.77 6.83733 14.77 6.35578ZM23.274 2.36764C23.7686 2.36764 24.171 2.75943 24.171 3.24104C24.1217 4.3997 22.4262 4.39942 22.377 3.24104C22.377 2.75943 22.7794 2.36764 23.274 2.36764ZM7.86028 4.11439C7.3657 4.11439 6.96332 3.7226 6.96332 3.24099C7.01268 2.08227 8.70811 2.08266 8.75729 3.24099C8.75729 3.7226 8.35486 4.11439 7.86028 4.11439ZM9.6349 3.17582C9.63033 3.05784 9.61356 2.94298 9.58566 2.83214C13.266 0.99234 17.8638 0.960267 21.5726 2.74657C21.5249 2.90065 21.4988 3.06356 21.498 3.23226C19.8984 3.68967 18.369 4.33579 16.9411 5.15671C16.2548 4.47043 15.0795 4.4702 14.3929 5.15666C12.9049 4.30111 11.3077 3.63607 9.6349 3.17582ZM14.6707 7.7818C15.2652 8.17404 16.0685 8.1741 16.6631 7.78185C18.7108 9.49098 20.3883 11.6304 21.5438 14.0062C21.4655 14.0644 21.3923 14.1288 21.325 14.1986C18.4363 12.7822 15.3535 11.8816 12.1514 11.5193C12.065 11.2663 11.9198 11.0392 11.7314 10.8533C12.5908 9.72478 13.577 8.69407 14.6707 7.7818ZM10.4654 11.1872C10.96 11.1872 11.3623 11.579 11.3623 12.0606C11.313 13.2193 9.61755 13.219 9.56837 12.0606C9.56843 11.579 9.9708 11.1872 10.4654 11.1872ZM0.871053 12.7295C0.871053 12.2479 1.27343 11.8561 1.76801 11.8561C2.95789 11.904 2.95754 13.5552 1.76801 13.6029C1.27348 13.6029 0.871053 13.2111 0.871053 12.7295ZM2.2086 14.3992C2.2086 14.3992 3.54404 14.1177 3.54404 12.7408C3.54404 12.7408 6.97077 12.2113 8.69486 12.1927C8.72722 12.6044 8.90912 12.976 9.1881 13.2564C7.47473 16.5884 6.78365 20.2826 7.18145 23.9845C7.01016 24.0536 6.85247 24.1479 6.71307 24.2626C3.8447 21.7787 2.2086 17.6169 2.2086 14.3992ZM7.86028 26.4502C7.3657 26.4502 6.96332 26.0584 6.96332 25.5768C6.96332 25.0952 7.3657 24.7034 7.86028 24.7034C8.34824 24.7034 8.75729 25.112 8.75729 25.5768C8.75729 26.0584 8.35486 26.4502 7.86028 26.4502ZM15.667 27.5766C13.5331 27.5766 11.423 27.0826 9.53706 26.1447C9.61362 25.9326 9.64739 25.6909 9.6325 25.4659C14.4592 23.7841 18.677 20.8449 21.8722 16.9368C22.1347 17.0558 22.426 17.1104 22.7154 17.0958C22.9107 17.7965 23.0651 18.5115 23.1745 19.2264C23.2582 19.7737 24.1283 19.6514 24.0443 19.1021C23.9282 18.343 23.7638 17.5838 23.555 16.8402C23.6601 16.7769 23.7578 16.7032 23.8468 16.6208C25.3139 17.5836 26.6818 18.6889 27.921 19.9121C27.1525 21.5544 26.0339 23.0414 24.6128 24.2701C24.4723 24.1681 24.3156 24.086 24.1474 24.0277C24.2338 23.2376 24.2714 22.4398 24.2588 21.6508C24.2499 21.0956 23.3706 21.1086 23.3796 21.6639C23.3918 22.4224 23.3554 23.1892 23.2719 23.9487C22.235 24.1081 21.5568 25.1475 21.8425 26.1216C19.9448 27.0744 17.8183 27.5766 15.667 27.5766ZM23.5509 26.5241C23.0563 26.5241 22.6539 26.1323 22.6539 25.6507C22.7033 24.492 24.3987 24.4924 24.4479 25.6507C24.4479 26.1323 24.0455 26.5241 23.5509 26.5241Z" fill="white"/>
</svg>
