<svg width="30" height="29" viewBox="0 0 30 29" fill="none" xmlns="http://www.w3.org/2000/svg">
<path d="M28.838 20.0099C28.8468 19.9926 28.8546 19.9749 28.8608 19.9568C30.6383 15.9912 30.3207 11.1295 28.0121 7.41369C29.2446 5.98949 27.6437 3.94994 25.893 4.73908C25.5854 4.43518 25.2624 4.14391 24.9277 3.86851C25.5847 2.14199 23.3919 0.725667 22.0263 2.01563C18.057 0.0781373 13.1202 0.102674 9.17285 2.08119C7.76865 0.642707 5.4104 2.18506 6.26057 3.98989C5.77367 4.40146 5.3128 4.84607 4.88785 5.31623C4.52095 5.72219 5.18565 6.2786 5.55003 5.87547C5.94537 5.43812 6.37371 5.0244 6.82615 4.64099C7.70106 5.25101 8.96967 4.94025 9.44966 4.0091C11.0336 4.44986 12.5463 5.08242 13.9558 5.89429C13.8378 6.30563 13.886 6.76503 14.0885 7.14475C12.9284 8.11347 11.8836 9.20929 10.9764 10.4102C10.1389 10.1656 9.21576 10.5751 8.85155 11.3418C7.00459 11.3513 5.15188 11.5434 3.33288 11.9151C3.17226 11.6257 2.92875 11.386 2.63354 11.2254C2.9753 9.93706 3.5166 8.71153 4.24572 7.57836C4.53625 7.12673 3.8029 6.65725 3.49907 7.12939C2.72387 8.33413 2.1481 9.63695 1.78395 11.0065C-0.322292 11.041 -0.675892 13.8577 1.32923 14.3996C1.29968 18.4083 3.09265 22.3057 6.20178 24.9606C5.5532 26.6542 7.65879 28.0512 9.04834 26.8566C13.1036 28.9411 18.2287 28.9414 22.2842 26.8573C23.6975 28.2085 25.9611 26.699 25.165 24.9326C26.7674 23.556 28.0122 21.8723 28.838 20.0099ZM28.2841 19.0594C27.067 17.8906 25.7352 16.8303 24.3132 15.8995C24.5152 15.288 24.3397 14.6 23.8681 14.1486C25.0638 12.2268 26.0025 10.166 26.6633 8.01334C26.8834 8.01407 27.0951 7.9748 27.2902 7.90374C29.3149 11.2093 29.6852 15.4712 28.2841 19.0594ZM8.05255 23.8638C7.68254 20.3604 8.33182 16.8652 9.93879 13.7067C10.9371 14.0078 12.0161 13.3732 12.21 12.3826C15.2416 12.7439 18.1613 13.6042 20.9013 14.9441C20.7695 15.4393 20.8786 15.9853 21.1925 16.3972C18.104 20.1796 14.0271 23.0258 9.36114 24.6571C9.07841 24.2243 8.60294 23.9215 8.05255 23.8638ZM21.7245 15.3748C21.7245 14.8932 22.1268 14.5014 22.6214 14.5014C23.8113 14.5493 23.811 16.2005 22.6214 16.2482C22.1268 16.2482 21.7245 15.8564 21.7245 15.3748ZM27.5641 6.28999C27.5641 6.7716 27.1617 7.16339 26.6671 7.16339C25.4772 7.11551 25.4775 5.4643 26.6671 5.41659C27.1617 5.41659 27.5641 5.80838 27.5641 6.28999ZM25.2212 5.29084C24.6135 6.11619 24.8956 7.30931 25.8117 7.79987C25.1716 9.87637 24.2642 11.8641 23.1097 13.7182C22.8684 13.6511 22.6005 13.6344 22.3524 13.6712C21.1457 11.1804 19.39 8.93689 17.2451 7.14486C17.4478 6.76491 17.4961 6.30631 17.3779 5.8944C18.7355 5.11251 20.1897 4.49632 21.7104 4.05829C22.2158 5.00156 23.5717 5.26789 24.4134 4.56177C24.6924 4.79377 24.9624 5.03749 25.2212 5.29084ZM14.7699 6.35578C14.7699 5.87417 15.1723 5.48238 15.6668 5.48238C16.8568 5.53026 16.8564 7.18141 15.6668 7.22913C15.1723 7.22913 14.7699 6.83733 14.7699 6.35578ZM23.2739 2.36764C23.7685 2.36764 24.1709 2.75943 24.1709 3.24104C24.1215 4.3997 22.4261 4.39942 22.3769 3.24104C22.3769 2.75943 22.7793 2.36764 23.2739 2.36764ZM7.86016 4.11439C7.36557 4.11439 6.9632 3.7226 6.9632 3.24099C7.01256 2.08227 8.70799 2.08266 8.75717 3.24099C8.75717 3.7226 8.35474 4.11439 7.86016 4.11439ZM9.63478 3.17582C9.63021 3.05784 9.61344 2.94298 9.58554 2.83214C13.2659 0.99234 17.8637 0.960267 21.5725 2.74657C21.5248 2.90065 21.4987 3.06356 21.4978 3.23226C19.8983 3.68967 18.3688 4.33579 16.941 5.15671C16.2546 4.47043 15.0794 4.4702 14.3928 5.15666C12.9048 4.30111 11.3076 3.63607 9.63478 3.17582ZM14.6706 7.7818C15.2651 8.17404 16.0684 8.1741 16.663 7.78185C18.7107 9.49098 20.3882 11.6304 21.5437 14.0062C21.4654 14.0644 21.3922 14.1288 21.3249 14.1986C18.4361 12.7822 15.3534 11.8816 12.1513 11.5193C12.0648 11.2663 11.9197 11.0392 11.7313 10.8533C12.5907 9.72478 13.5769 8.69407 14.6706 7.7818ZM10.4653 11.1872C10.9598 11.1872 11.3622 11.579 11.3622 12.0606C11.3129 13.2193 9.61743 13.219 9.56825 12.0606C9.5683 11.579 9.97068 11.1872 10.4653 11.1872ZM0.870931 12.7295C0.870931 12.2479 1.2733 11.8561 1.76789 11.8561C2.95777 11.904 2.95742 13.5552 1.76789 13.6029C1.27336 13.6029 0.870931 13.2111 0.870931 12.7295ZM2.20848 14.3992C2.20848 14.3992 3.54392 14.1177 3.54392 12.7408C3.54392 12.7408 6.97065 12.2113 8.69474 12.1927C8.7271 12.6044 8.909 12.976 9.18797 13.2564C7.47461 16.5884 6.78353 20.2826 7.18133 23.9845C7.01004 24.0536 6.85235 24.1479 6.71295 24.2626C3.84458 21.7787 2.20848 17.6169 2.20848 14.3992ZM7.86016 26.4502C7.36557 26.4502 6.9632 26.0584 6.9632 25.5768C6.9632 25.0952 7.36557 24.7034 7.86016 24.7034C8.34811 24.7034 8.75717 25.112 8.75717 25.5768C8.75717 26.0584 8.35474 26.4502 7.86016 26.4502ZM15.6668 27.5766C13.533 27.5766 11.4229 27.0826 9.53694 26.1447C9.6135 25.9326 9.64727 25.6909 9.63238 25.4659C14.4591 23.7841 18.6769 20.8449 21.8721 16.9368C22.1346 17.0558 22.4259 17.1104 22.7153 17.0958C22.9106 17.7965 23.065 18.5115 23.1743 19.2264C23.2581 19.7737 24.1282 19.6514 24.0442 19.1021C23.9281 18.343 23.7637 17.5838 23.5549 16.8402C23.66 16.7769 23.7577 16.7032 23.8467 16.6208C25.3138 17.5836 26.6817 18.6889 27.9209 19.9121C27.1523 21.5544 26.0338 23.0414 24.6127 24.2701C24.4721 24.1681 24.3154 24.086 24.1473 24.0277C24.2337 23.2376 24.2713 22.4398 24.2586 21.6508C24.2497 21.0956 23.3705 21.1086 23.3795 21.6639C23.3916 22.4224 23.3553 23.1892 23.2718 23.9487C22.2349 24.1081 21.5567 25.1475 21.8424 26.1216C19.9446 27.0744 17.8182 27.5766 15.6668 27.5766ZM23.5507 26.5241C23.0562 26.5241 22.6538 26.1323 22.6538 25.6507C22.7031 24.492 24.3986 24.4924 24.4478 25.6507C24.4478 26.1323 24.0454 26.5241 23.5507 26.5241Z" fill="white"/>
</svg>
