<svg width="30" height="29" viewBox="0 0 30 29" fill="none" xmlns="http://www.w3.org/2000/svg">
<path d="M28.838 20.01C28.8468 19.9927 28.8546 19.975 28.8608 19.9569C30.6383 15.9913 30.3207 11.1297 28.0121 7.41381C29.2446 5.98961 27.6437 3.95006 25.893 4.7392C25.5854 4.4353 25.2624 4.14403 24.9277 3.86863C25.5847 2.14211 23.3919 0.725789 22.0263 2.01575C18.057 0.0782593 13.1202 0.102796 9.17285 2.08131C7.76865 0.642829 5.4104 2.18518 6.26057 3.99001C5.77367 4.40158 5.3128 4.84619 4.88785 5.31635C4.52095 5.72231 5.18565 6.27872 5.55003 5.8756C5.94537 5.43824 6.37371 5.02452 6.82615 4.64111C7.70106 5.25113 8.96967 4.94037 9.44966 4.00922C11.0336 4.44998 12.5463 5.08255 13.9558 5.89441C13.8378 6.30575 13.886 6.76515 14.0885 7.14487C12.9284 8.11359 11.8836 9.20941 10.9764 10.4103C10.1389 10.1657 9.21576 10.5752 8.85155 11.3419C7.00459 11.3515 5.15188 11.5435 3.33288 11.9152C3.17226 11.6258 2.92875 11.3861 2.63354 11.2255C2.9753 9.93718 3.5166 8.71165 4.24572 7.57849C4.53625 7.12685 3.8029 6.65737 3.49907 7.12952C2.72387 8.33425 2.1481 9.63707 1.78395 11.0066C-0.322292 11.0412 -0.675892 13.8578 1.32923 14.3997C1.29968 18.4084 3.09265 22.3058 6.20178 24.9607C5.5532 26.6543 7.65879 28.0513 9.04834 26.8568C13.1036 28.9412 18.2287 28.9415 22.2842 26.8574C23.6975 28.2086 25.9611 26.6991 25.165 24.9328C26.7674 23.5562 28.0122 21.8724 28.838 20.01ZM28.2841 19.0595C27.067 17.8907 25.7352 16.8304 24.3132 15.8996C24.5152 15.2882 24.3397 14.6002 23.8681 14.1488C25.0638 12.2269 26.0025 10.1662 26.6633 8.01346C26.8834 8.0142 27.0951 7.97493 27.2902 7.90387C29.3149 11.2094 29.6852 15.4713 28.2841 19.0595ZM8.05255 23.8639C7.68254 20.3605 8.33182 16.8654 9.93879 13.7068C10.9371 14.0079 12.0161 13.3733 12.21 12.3827C15.2416 12.744 18.1613 13.6044 20.9013 14.9442C20.7695 15.4394 20.8786 15.9854 21.1925 16.3973C18.104 20.1797 14.0271 23.0259 9.36114 24.6572C9.07841 24.2244 8.60294 23.9217 8.05255 23.8639ZM21.7245 15.3749C21.7245 14.8933 22.1268 14.5015 22.6214 14.5015C23.8113 14.5494 23.811 16.2006 22.6214 16.2483C22.1268 16.2483 21.7245 15.8565 21.7245 15.3749ZM27.5641 6.29011C27.5641 6.77172 27.1617 7.16352 26.6671 7.16352C25.4772 7.11563 25.4775 5.46442 26.6671 5.41671C27.1617 5.41671 27.5641 5.8085 27.5641 6.29011ZM25.2212 5.29097C24.6135 6.11632 24.8956 7.30943 25.8117 7.8C25.1716 9.87649 24.2642 11.8642 23.1097 13.7183C22.8684 13.6512 22.6005 13.6346 22.3524 13.6713C21.1457 11.1805 19.39 8.93701 17.2451 7.14499C17.4478 6.76504 17.4961 6.30643 17.3779 5.89452C18.7355 5.11264 20.1897 4.49644 21.7104 4.05841C22.2158 5.00168 23.5717 5.26802 24.4134 4.56189C24.6924 4.79389 24.9624 5.03761 25.2212 5.29097ZM14.7699 6.3559C14.7699 5.87429 15.1723 5.4825 15.6668 5.4825C16.8568 5.53038 16.8564 7.18154 15.6668 7.22925C15.1723 7.22925 14.7699 6.83746 14.7699 6.3559ZM23.2739 2.36776C23.7685 2.36776 24.1709 2.75955 24.1709 3.24116C24.1215 4.39983 22.4261 4.39954 22.3769 3.24116C22.3769 2.75955 22.7793 2.36776 23.2739 2.36776ZM7.86016 4.11451C7.36557 4.11451 6.9632 3.72272 6.9632 3.24111C7.01256 2.08239 8.70799 2.08279 8.75717 3.24111C8.75717 3.72272 8.35474 4.11451 7.86016 4.11451ZM9.63478 3.17594C9.63021 3.05796 9.61344 2.9431 9.58554 2.83226C13.2659 0.992462 17.8637 0.960389 21.5725 2.74669C21.5248 2.90077 21.4987 3.06368 21.4978 3.23238C19.8983 3.68979 18.3688 4.33591 16.941 5.15684C16.2546 4.47055 15.0794 4.47032 14.3928 5.15678C12.9048 4.30123 11.3076 3.63619 9.63478 3.17594ZM14.6706 7.78192C15.2651 8.17417 16.0684 8.17422 16.663 7.78198C18.7107 9.4911 20.3882 11.6305 21.5437 14.0063C21.4654 14.0645 21.3922 14.1289 21.3249 14.1987C18.4361 12.7823 15.3534 11.8817 12.1513 11.5194C12.0648 11.2665 11.9197 11.0393 11.7313 10.8534C12.5907 9.72491 13.5769 8.69419 14.6706 7.78192ZM10.4653 11.1873C10.9598 11.1873 11.3622 11.5791 11.3622 12.0607C11.3129 13.2194 9.61743 13.2191 9.56825 12.0607C9.5683 11.5791 9.97068 11.1873 10.4653 11.1873ZM0.870931 12.7297C0.870931 12.248 1.2733 11.8562 1.76789 11.8562C2.95777 11.9041 2.95742 13.5553 1.76789 13.603C1.27336 13.6031 0.870931 13.2113 0.870931 12.7297ZM2.20848 14.3993C2.20848 14.3993 3.54392 14.1178 3.54392 12.7409C3.54392 12.7409 6.97065 12.2114 8.69474 12.1928C8.7271 12.6045 8.909 12.9761 9.18797 13.2565C7.47461 16.5885 6.78353 20.2827 7.18133 23.9847C7.01004 24.0537 6.85235 24.148 6.71295 24.2627C3.84458 21.7788 2.20848 17.617 2.20848 14.3993ZM7.86016 26.4503C7.36557 26.4503 6.9632 26.0586 6.9632 25.5769C6.9632 25.0953 7.36557 24.7035 7.86016 24.7035C8.34811 24.7035 8.75717 25.1121 8.75717 25.5769C8.75717 26.0586 8.35474 26.4503 7.86016 26.4503ZM15.6668 27.5767C13.533 27.5767 11.4229 27.0827 9.53694 26.1448C9.6135 25.9327 9.64727 25.6911 9.63238 25.466C14.4591 23.7842 18.6769 20.8451 21.8721 16.9369C22.1346 17.0559 22.4259 17.1105 22.7153 17.0959C22.9106 17.7967 23.065 18.5116 23.1743 19.2265C23.2581 19.7738 24.1282 19.6515 24.0442 19.1022C23.9281 18.3431 23.7637 17.5839 23.5549 16.8403C23.66 16.7771 23.7577 16.7033 23.8467 16.6209C25.3138 17.5837 26.6817 18.689 27.9209 19.9123C27.1523 21.5545 26.0338 23.0415 24.6127 24.2702C24.4721 24.1682 24.3154 24.0862 24.1473 24.0278C24.2337 23.2377 24.2713 22.4399 24.2586 21.6509C24.2497 21.0957 23.3705 21.1087 23.3795 21.6641C23.3916 22.4225 23.3553 23.1894 23.2718 23.9489C22.2349 24.1083 21.5567 25.1476 21.8424 26.1217C19.9446 27.0745 17.8182 27.5767 15.6668 27.5767ZM23.5507 26.5242C23.0562 26.5242 22.6538 26.1324 22.6538 25.6508C22.7031 24.4921 24.3986 24.4925 24.4478 25.6508C24.4478 26.1324 24.0454 26.5242 23.5507 26.5242Z" fill="white"/>
</svg>
