<svg width="537" height="45" viewBox="0 0 537 45" fill="none" xmlns="http://www.w3.org/2000/svg">
<rect width="537" height="45" rx="10" fill="#EBEBEB"/>
<g clip-path="url(#clip0_83_1241)">
<path d="M481.5 29.0625C479.76 29.0625 478.09 28.3711 476.86 27.1404C475.629 25.9097 474.938 24.2405 474.938 22.5C474.938 20.7595 475.629 19.0903 476.86 17.8596C478.09 16.6289 479.76 15.9375 481.5 15.9375C483.24 15.9375 484.91 16.6289 486.14 17.8596C487.371 19.0903 488.062 20.7595 488.062 22.5C488.062 24.2405 487.371 25.9097 486.14 27.1404C484.91 28.3711 483.24 29.0625 481.5 29.0625ZM481.5 30C483.489 30 485.397 29.2098 486.803 27.8033C488.21 26.3968 489 24.4891 489 22.5C489 20.5109 488.21 18.6032 486.803 17.1967C485.397 15.7902 483.489 15 481.5 15C479.511 15 477.603 15.7902 476.197 17.1967C474.79 18.6032 474 20.5109 474 22.5C474 24.4891 474.79 26.3968 476.197 27.8033C477.603 29.2098 479.511 30 481.5 30Z" fill="black" fill-opacity="0.5"/>
<path d="M485.56 23.9062C485.643 24.0488 485.686 24.2104 485.686 24.375C485.686 24.5396 485.643 24.7012 485.56 24.8438C485.149 25.5566 484.557 26.1485 483.844 26.5599C483.131 26.9714 482.323 27.1878 481.5 27.1875C480.677 27.1877 479.869 26.9711 479.156 26.5597C478.443 26.1483 477.852 25.5565 477.441 24.8438C477.358 24.7013 477.315 24.5397 477.315 24.3752C477.315 24.2108 477.358 24.0492 477.44 23.9067C477.522 23.7642 477.641 23.6458 477.783 23.5635C477.925 23.4811 478.087 23.4377 478.251 23.4375H484.748C484.913 23.4375 485.075 23.4808 485.217 23.5631C485.36 23.6454 485.478 23.7637 485.56 23.9062ZM480.562 21.0938C480.562 21.87 480.142 21.0938 479.625 21.0938C479.107 21.0938 478.687 21.87 478.687 21.0938C478.687 20.3175 479.107 19.6875 479.625 19.6875C480.142 19.6875 480.562 20.3175 480.562 21.0938ZM484.312 21.0938C484.312 21.87 483.892 21.0938 483.375 21.0938C482.857 21.0938 482.437 21.87 482.437 21.0938C482.437 20.3175 482.857 19.6875 483.375 19.6875C483.892 19.6875 484.312 20.3175 484.312 21.0938Z" fill="black" fill-opacity="0.5"/>
</g>
<path d="M13 18.5C13 17.837 13.2634 17.2011 13.7322 16.7322C14.2011 16.2634 14.837 16 15.5 16H19.5C20.163 16 20.7989 16.2634 21.2678 16.7322C21.7366 17.2011 22 17.837 22 18.5V19H21V18.5C21 18.1022 20.842 17.7206 20.5607 17.4393C20.2794 17.158 19.8978 17 19.5 17H15.5C15.1022 17 14.7206 17.158 14.4393 17.4393C14.158 17.7206 14 18.1022 14 18.5V22.5C14 22.8978 14.158 23.2794 14.4393 23.5607C14.7206 23.842 15.1022 24 15.5 24H21.085C21.2029 23.6664 21.435 23.3852 21.7402 23.2062C22.0454 23.0271 22.4041 22.9618 22.7529 23.0216C23.1016 23.0814 23.418 23.2626 23.6461 23.5332C23.8741 23.8037 23.9992 24.1462 23.9992 24.5C23.9992 24.8538 23.8741 25.1963 23.6461 25.4668C23.418 25.7374 23.1016 25.9186 22.7529 25.9784C22.4041 26.0382 22.0454 25.9729 21.7402 25.7938C21.435 25.6148 21.2029 25.3336 21.085 25H15.5C14.837 25 14.2011 24.7366 13.7322 24.2678C13.2634 23.7989 13 23.163 13 22.5V18.5ZM18 26V26.5C18 27.163 18.2634 27.7989 18.7322 28.2678C19.2011 28.7366 19.837 29 20.5 29H24.5C25.163 29 25.7989 28.7366 26.2678 28.2678C26.7366 27.7989 27 27.163 27 26.5V22.5C27 21.837 26.7366 21.2011 26.2678 20.7322C25.7989 20.2634 25.163 20 24.5 20H18.915C18.7971 19.6664 18.565 19.3852 18.2598 19.2062C17.9546 19.0271 17.5959 18.9618 17.2471 19.0216C16.8984 19.0814 16.582 19.2626 16.3539 19.5332C16.1259 19.8037 16.0008 20.1462 16.0008 20.5C16.0008 20.8538 16.1259 21.1963 16.3539 21.4668C16.582 21.7374 16.8984 21.9186 17.2471 21.9784C17.5959 22.0382 17.9546 21.9729 18.2598 21.7938C18.565 21.6148 18.7971 21.3336 18.915 21H24.5C24.8978 21 25.2794 21.158 25.5607 21.4393C25.842 21.7206 26 22.1022 26 22.5V26.5C26 26.8978 25.842 27.2794 25.5607 27.5607C25.2794 27.842 24.8978 28 24.5 28H20.5C20.1022 28 19.7206 27.842 19.4393 27.5607C19.158 27.2794 19 26.8978 19 26.5V26H18Z" fill="black"/>
<path fill-rule="evenodd" clip-rule="evenodd" d="M515.237 15.7694H520.409L521.091 16.3977V27.7076L520.409 28.3359H502.682L502 27.7076V16.3977L502.682 15.7694H507.854L509.017 14.6962L509.5 14.5127H513.591L514.074 14.6962L515.237 15.7694ZM503.364 27.0793H519.727V17.026H514.955L514.472 16.8425L513.309 15.7694H509.782L508.619 16.8425L508.136 17.026H503.364V27.0793ZM505.409 18.2827C505.228 18.2827 505.055 18.3489 504.927 18.4667C504.799 18.5845 504.727 18.7444 504.727 18.911C504.727 19.0776 504.799 19.2375 504.927 19.3553C505.055 19.4731 505.228 19.5393 505.409 19.5393C505.59 19.5393 505.763 19.4731 505.891 19.3553C506.019 19.2375 506.091 19.0776 506.091 18.911C506.091 18.7444 506.019 18.5845 505.891 18.4667C505.763 18.3489 505.59 18.2827 505.409 18.2827ZM511.545 19.5393C512.269 19.5393 512.962 19.8041 513.474 20.2755C513.985 20.7468 514.273 21.3861 514.273 22.0526C514.273 22.7192 513.985 23.3585 513.474 23.8298C512.962 24.3012 512.269 24.566 511.545 24.566C510.822 24.566 510.128 24.3012 509.617 23.8298C509.106 23.3585 508.818 22.7192 508.818 22.0526C508.818 21.3861 509.106 20.7468 509.617 20.2755C510.128 19.8041 510.822 19.5393 511.545 19.5393ZM511.545 18.2827C510.46 18.2827 509.42 18.6799 508.653 19.3869C507.886 20.0939 507.455 21.0528 507.455 22.0526C507.455 23.0525 507.886 24.0114 508.653 24.7184C509.42 25.4254 510.46 25.8226 511.545 25.8226C512.63 25.8226 513.671 25.4254 514.438 24.7184C515.205 24.0114 515.636 23.0525 515.636 22.0526C515.636 21.0528 515.205 20.0939 514.438 19.3869C513.671 18.6799 512.63 18.2827 511.545 18.2827Z" fill="black" fill-opacity="0.5"/>
<defs>
<clipPath id="clip0_83_1241">
<rect width="15" height="15" fill="white" transform="translate(474 15)"/>
</clipPath>
</defs>
</svg>
