<svg width="27" height="32" viewBox="0 0 27 32" fill="none" xmlns="http://www.w3.org/2000/svg">
<path d="M6.99309 8.42382H3.0871C3.0871 8.42382 0.000105409 8.56708 0.000105409 11.7605V16.1578C0.000105409 16.1578 -0.0638944 19.8419 2.9621 19.8419C2.9621 19.8419 4.0331 20.554 4.0331 21.9032V29.8488C4.0331 29.8488 3.8441 31.1243 5.0401 31.1243C5.0401 31.1243 8.53309 31.7059 6.80209 27.887C8.11109 26.4448 6.95009 24.9672 6.95009 24.9672C6.95009 24.9672 8.12809 23.7634 6.99309 22.1159C6.99309 22.1159 8.00209 20.6256 8.00209 19.7735L8.06409 9.62977C8.06409 9.62871 8.25409 8.42382 6.99309 8.42382ZM2.4461 16.3823C2.4461 16.9115 2.0461 17.3413 1.5481 17.3413C1.0521 17.3413 0.652104 16.9115 0.652104 16.3823V11.752C0.652104 11.2228 1.0521 10.794 1.5481 10.794C2.0461 10.794 2.4461 11.2228 2.4461 11.752V16.3823Z" fill="#3D8CD6"/>
<path d="M24.8872 10.5043V1.23511C24.8872 0.021668 23.9262 1.36768 23.9262 1.36768C19.3822 8.91347 10.0052 8.30835 10.0052 8.30835C8.89722 8.30835 9.07322 9.31759 9.07322 9.31759V18.0725C9.07322 19.0818 10.0612 19.0818 10.0612 19.0818C20.5462 19.0818 24.1182 26.1657 24.1182 26.1657C24.1182 26.1657 24.9442 27.2648 24.8872 26.1197V16.8677C25.9482 16.2561 26.6812 15.0683 26.6812 13.6849C26.6812 12.3026 25.9472 11.1158 24.8872 10.5043Z" fill="#3D8CD6"/>
</svg>
