<svg width="28" height="29" viewBox="0 0 28 29" fill="none" xmlns="http://www.w3.org/2000/svg">
<path d="M7.883 7.63214H3.977C3.977 7.63214 0.889998 7.76614 0.889998 10.7531V14.8661C0.889998 14.8661 0.825998 18.3121 3.852 18.3121C3.852 18.3121 4.923 18.9781 4.923 20.2401V27.6721C4.923 27.6721 4.734 28.8651 5.93 28.8651C5.93 28.8651 9.423 29.4091 7.692 25.8371C9.001 24.4881 7.84 23.1061 7.84 23.1061C7.84 23.1061 9.018 21.9801 7.883 20.4391C7.883 20.4391 8.892 19.0451 8.892 18.2481L8.954 8.76014C8.954 8.75914 9.144 7.63214 7.883 7.63214ZM3.336 15.0761C3.336 15.5711 2.936 15.9731 2.438 15.9731C1.942 15.9731 1.542 15.5711 1.542 15.0761V10.7451C1.542 10.2501 1.942 9.84914 2.438 9.84914C2.936 9.84914 3.336 10.2501 3.336 10.7451V15.0761Z" fill="#3D8CD6"/>
<path d="M25.777 9.57815V0.908148C25.777 -0.226852 24.816 1.03215 24.816 1.03215C20.272 8.09015 10.895 7.52415 10.895 7.52415C9.78699 7.52415 9.96299 8.46815 9.96299 8.46815V16.6571C9.96299 17.6011 10.951 17.6011 10.951 17.6011C21.436 17.6011 25.008 24.2271 25.008 24.2271C25.008 24.2271 25.834 25.2551 25.777 24.1841V15.5301C26.838 14.9581 27.571 13.8471 27.571 12.5531C27.571 11.2601 26.837 10.1501 25.777 9.57815Z" fill="#3D8CD6"/>
</svg>
