<svg width="45" height="45" viewBox="0 0 45 45" fill="none" xmlns="http://www.w3.org/2000/svg">
<rect width="45" height="45" rx="10" fill="#3D8CD6"/>
<path d="M27.9688 19.6395V21.7994C27.9688 23.136 27.3926 24.4179 26.367 25.363C25.3414 26.3082 23.9504 26.8391 22.5 26.8391C21.0496 26.8391 19.6586 26.3082 18.633 25.363C17.6074 24.4179 17.0312 23.136 17.0312 21.7994V19.6395H15.4688V21.7994C15.4696 23.3927 16.1074 24.9299 17.2603 26.1172C18.4133 27.3046 20.0005 28.0588 21.7188 28.2358V29.719H18.5938V31.1589H26.4062V29.719H23.2812V28.2358C24.9995 28.0588 26.5867 27.3046 27.7397 26.1172C28.8926 24.9299 29.5304 23.3927 29.5312 21.7994V19.6395H27.9688Z" fill="white"/>
<path d="M22.5 25.3992C23.536 25.3992 24.5296 25.0199 25.2621 24.3448C25.9947 23.6697 26.4062 22.7541 26.4062 21.7994V14.5998C26.4062 13.6451 25.9947 12.7294 25.2621 12.0544C24.5296 11.3793 23.536 11 22.5 11C21.464 11 20.4704 11.3793 19.7379 12.0544C19.0053 12.7294 18.5938 13.6451 18.5938 14.5998V21.7994C18.5938 22.7541 19.0053 23.6697 19.7379 24.3448C20.4704 25.0199 21.464 25.3992 22.5 25.3992Z" fill="white"/>
</svg>
