<svg width="28" height="29" viewBox="0 0 28 29" fill="none" xmlns="http://www.w3.org/2000/svg">
<path d="M7.883 7.19819H3.977C3.977 7.19819 0.889998 7.33219 0.889998 10.3192V14.4322C0.889998 14.4322 0.825998 17.8782 3.852 17.8782C3.852 17.8782 4.923 18.5442 4.923 19.8062V27.2382C4.923 27.2382 4.734 28.4312 5.93 28.4312C5.93 28.4312 9.423 28.9752 7.692 25.4032C9.001 24.0542 7.84 22.6722 7.84 22.6722C7.84 22.6722 9.018 21.5462 7.883 20.0052C7.883 20.0052 8.892 18.6112 8.892 17.8142L8.954 8.32619C8.954 8.32519 9.144 7.19819 7.883 7.19819ZM3.336 14.6422C3.336 15.1372 2.936 15.5392 2.438 15.5392C1.942 15.5392 1.542 15.1372 1.542 14.6422V10.3112C1.542 9.81619 1.942 9.41519 2.438 9.41519C2.936 9.41519 3.336 9.81619 3.336 10.3112V14.6422Z" fill="#3D8CD6"/>
<path d="M25.7771 9.14419V0.474188C25.7771 -0.660812 24.8161 0.598188 24.8161 0.598188C20.2721 7.65619 10.8951 7.09019 10.8951 7.09019C9.78711 7.09019 9.96311 8.03419 9.96311 8.03419V16.2232C9.96311 17.1672 10.9511 17.1672 10.9511 17.1672C21.4361 17.1672 25.0081 23.7932 25.0081 23.7932C25.0081 23.7932 25.8341 24.8212 25.7771 23.7502V15.0962C26.8381 14.5242 27.5711 13.4132 27.5711 12.1192C27.5711 10.8262 26.8371 9.71619 25.7771 9.14419Z" fill="#3D8CD6"/>
</svg>
