<svg width="35" height="33" viewBox="0 0 35 33" fill="none" xmlns="http://www.w3.org/2000/svg">
<path d="M12.364 18.2059C12.364 17.7925 12.0084 17.4576 11.5696 17.4576H8.79735C8.35905 17.4576 8.00336 17.7925 8.00336 18.2059V20.8194C8.00336 21.2333 8.35905 21.5684 8.79735 21.5684H11.5696C12.0084 21.5684 12.364 21.2333 12.364 20.8194V18.2059Z" fill="#3D8CD6"/>
<path d="M19.2922 18.2059C19.2922 17.7925 18.9365 17.4576 18.4985 17.4576H15.7259C15.2876 17.4576 14.9319 17.7925 14.9319 18.2059V20.8194C14.9319 21.2333 15.2876 21.5684 15.7259 21.5684H18.4985C18.9365 21.5684 19.2922 21.2333 19.2922 20.8194V18.2059Z" fill="#3D8CD6"/>
<path d="M26.2208 18.2059C26.2208 17.7925 25.8651 17.4576 25.4268 17.4576H22.6545C22.2157 17.4576 21.8601 17.7925 21.8601 18.2059V20.8194C21.8601 21.2333 22.2157 21.5684 22.6545 21.5684H25.4268C25.8651 21.5684 26.2208 21.2333 26.2208 20.8194V18.2059Z" fill="#3D8CD6"/>
<path d="M12.364 24.7389C12.364 24.3249 12.0084 23.9902 11.5696 23.9902H8.79735C8.35905 23.9902 8.00336 24.3249 8.00336 24.7389V27.3519C8.00336 27.7656 8.35905 28.1006 8.79735 28.1006H11.5696C12.0084 28.1006 12.364 27.7655 12.364 27.3519V24.7389Z" fill="#3D8CD6"/>
<path d="M19.2922 24.7389C19.2922 24.3249 18.9365 23.9902 18.4985 23.9902H15.7259C15.2876 23.9902 14.9319 24.3249 14.9319 24.7389V27.3519C14.9319 27.7656 15.2876 28.1006 15.7259 28.1006H18.4985C18.9365 28.1006 19.2922 27.7655 19.2922 27.3519V24.7389Z" fill="#3D8CD6"/>
<path d="M26.2208 24.7389C26.2208 24.3249 25.8651 23.9902 25.4271 23.9902H22.6545C22.2157 23.9902 21.8601 24.3249 21.8601 24.7389V27.3519C21.8601 27.7656 22.2157 28.1006 22.6545 28.1006H25.4271C25.8651 28.1006 26.2208 27.7655 26.2208 27.3519V24.7389Z" fill="#3D8CD6"/>
<path d="M31.1778 3.67446V7.66635C31.1778 9.47064 29.6254 10.9246 27.712 10.9246H25.5257C23.6122 10.9246 22.0392 9.47064 22.0392 7.66635V3.66013H12.1849V7.66635C12.1849 9.47064 10.612 10.9246 8.69874 10.9246H6.51199C4.5987 10.9246 3.04635 9.47064 3.04635 7.66635V3.67446C1.37411 3.72198 0 5.02663 0 6.63022V30.0246C0 31.6583 1.40444 33.0001 3.13719 33.0001H31.0869C32.8171 33.0001 34.2241 31.6556 34.2241 30.0246V6.63022C34.2241 5.02663 32.85 3.72198 31.1778 3.67446ZM30.1623 28.5678C30.1623 29.2738 29.5552 29.8466 28.8061 29.8466H5.35828C4.60917 29.8466 4.00202 29.2738 4.00202 28.5678V16.4837C4.00202 15.7774 4.6091 15.2046 5.35828 15.2046H28.806C29.5551 15.2046 30.1623 15.7774 30.1623 16.4837L30.1623 28.5678Z" fill="#3D8CD6"/>
<path d="M6.5043 8.78453H8.66688C9.32329 8.78453 9.85551 8.28346 9.85551 7.66457V1.12037C9.85551 0.501403 9.32329 0 8.66688 0H6.5043C5.84782 0 5.31567 0.501403 5.31567 1.12037V7.66457C5.31567 8.28346 5.84782 8.78453 6.5043 8.78453Z" fill="#3D8CD6"/>
<path d="M25.4979 8.78453H27.6605C28.3164 8.78453 28.8487 8.28346 28.8487 7.66457V1.12037C28.8487 0.501403 28.3165 0 27.6605 0H25.4979C24.8415 0 24.3093 0.501403 24.3093 1.12037V7.66457C24.3093 8.28346 24.8415 8.78453 25.4979 8.78453Z" fill="#3D8CD6"/>
</svg>
