<svg width="5" height="24" viewBox="0 0 5 24" fill="none" xmlns="http://www.w3.org/2000/svg">
<path d="M2.5 5.52827C3.88071 5.52827 5 4.4968 5 3.2244C5 1.95201 3.88071 0.920532 2.5 0.920532C1.11929 0.920532 0 1.95201 0 3.2244C0 4.4968 1.11929 5.52827 2.5 5.52827Z" fill="#3C8CD6"/>
<path d="M2.5 14.7437C3.88071 14.7437 5 13.7123 5 12.4399C5 11.1675 3.88071 10.136 2.5 10.136C1.11929 10.136 0 11.1675 0 12.4399C0 13.7123 1.11929 14.7437 2.5 14.7437Z" fill="#3C8CD6"/>
<path d="M2.5 23.9592C3.88071 23.9592 5 22.9277 5 21.6553C5 20.3829 3.88071 19.3514 2.5 19.3514C1.11929 19.3514 0 20.3829 0 21.6553C0 22.9277 1.11929 23.9592 2.5 23.9592Z" fill="#3C8CD6"/>
</svg>
