<svg width="28" height="29" viewBox="0 0 28 29" fill="none" xmlns="http://www.w3.org/2000/svg">
<path d="M7.883 7.19794H3.977C3.977 7.19794 0.889998 7.33194 0.889998 10.3189V14.4319C0.889998 14.4319 0.825998 17.8779 3.852 17.8779C3.852 17.8779 4.923 18.5439 4.923 19.8059V27.2379C4.923 27.2379 4.734 28.4309 5.93 28.4309C5.93 28.4309 9.423 28.9749 7.692 25.4029C9.001 24.0539 7.84 22.6719 7.84 22.6719C7.84 22.6719 9.018 21.5459 7.883 20.0049C7.883 20.0049 8.892 18.6109 8.892 17.8139L8.954 8.32594C8.954 8.32494 9.144 7.19794 7.883 7.19794ZM3.336 14.6419C3.336 15.1369 2.936 15.5389 2.438 15.5389C1.942 15.5389 1.542 15.1369 1.542 14.6419V10.3109C1.542 9.81594 1.942 9.41494 2.438 9.41494C2.936 9.41494 3.336 9.81594 3.336 10.3109V14.6419Z" fill="#3D8CD6"/>
<path d="M25.777 9.14394V0.473944C25.777 -0.661056 24.816 0.597944 24.816 0.597944C20.272 7.65594 10.895 7.08994 10.895 7.08994C9.78699 7.08994 9.96299 8.03394 9.96299 8.03394V16.2229C9.96299 17.1669 10.951 17.1669 10.951 17.1669C21.436 17.1669 25.008 23.7929 25.008 23.7929C25.008 23.7929 25.834 24.8209 25.777 23.7499V15.0959C26.838 14.5239 27.571 13.4129 27.571 12.1189C27.571 10.8259 26.837 9.71594 25.777 9.14394Z" fill="#3D8CD6"/>
</svg>
