<svg width="31" height="31" viewBox="0 0 31 31" fill="none" xmlns="http://www.w3.org/2000/svg">
<path d="M24 24V22C24 20.9391 23.5786 19.9217 22.8284 19.1716C22.0783 18.4214 21.0609 18 20 18H12C10.9391 18 9.92172 18.4214 9.17157 19.1716C8.42143 19.9217 8 20.9391 8 22V24" stroke="#A7A1A1" stroke-width="2" stroke-linecap="round" stroke-linejoin="round"/>
<path d="M16 14C18.2091 14 20 12.2091 20 10C20 7.79086 18.2091 6 16 6C13.7909 6 12 7.79086 12 10C12 12.2091 13.7909 14 16 14Z" stroke="#A7A1A1" stroke-width="2" stroke-linecap="round" stroke-linejoin="round"/>
<path d="M15.5 30C23.5081 30 30 23.5081 30 15.5C30 7.49187 23.5081 1 15.5 1C7.49187 1 1 7.49187 1 15.5C1 23.5081 7.49187 30 15.5 30Z" stroke="#A7A1A1" stroke-width="2" stroke-linecap="round" stroke-linejoin="round"/>
</svg>
