<svg width="24" height="24" viewBox="0 0 24 24" fill="none" xmlns="http://www.w3.org/2000/svg">
<g clip-path="url(#clip0_180_4370)">
<path d="M19.7314 4.96875C19.7314 2.25511 17.5232 0 14.8096 0C13.7521 0 12.764 0.452484 11.9971 1.26684C11.2301 0.452484 10.242 0 9.18457 0C6.47093 0 4.2627 2.25511 4.2627 4.96875C4.2627 7.69819 6.26562 9.10716 8.58513 10.7393C9.54162 11.4122 10.5311 12.1085 11.5363 12.9805L11.9964 13.3801L12.4571 12.9812C13.5935 11.9979 14.6743 11.2282 15.6274 10.5491C17.9201 8.91698 19.7314 7.62745 19.7314 4.96875ZM14.1064 7.07812H12.7002V8.48438H11.2939V7.07812H9.8877V5.67188H11.2939V4.26562H12.7002V5.67188H14.1064V7.07812Z" fill="#A7A1A1"/>
<path d="M23.1538 6.43115C21.7194 6.43115 21.3492 13.0968 21.321 13.2374C21.1782 14.2141 20.4901 15.6599 19.3282 16.5305L16.2827 18.7417L15.4395 17.6157L18.485 15.4051C19.6914 14.5006 20.2413 12.9561 18.7335 12.9561C17.3831 12.9561 14.8589 14.5196 14.1106 15.1398C13.2171 15.8804 12.7007 16.9808 12.7007 18.1415V23.9999H16.9194C16.9194 23.3249 17.2851 22.589 17.8475 21.8858C18.4382 21.1124 19.2819 20.3249 20.1538 19.5233C21.8131 17.9624 23.5334 16.3593 23.7585 14.7281C23.8921 13.6323 24.003 11.753 23.9975 10.0781C23.9914 8.20237 23.8325 6.49176 23.1538 6.43115Z" fill="#A7A1A1"/>
<path d="M9.71909 15.0093C7.73623 13.6452 6.23163 12.9561 5.26132 12.9561C3.75354 12.9561 4.30338 14.5006 5.50981 15.4051L8.55532 17.6157L7.71213 18.7417L4.66662 16.5305C3.50459 15.6599 2.81656 14.2141 2.67373 13.2374C2.64556 13.0968 2.27529 6.43115 0.840869 6.43115C0.0533685 6.50146 -0.0310066 8.79365 0.0112278 10.9874C0.0393997 12.5905 0.165915 14.1515 0.236181 14.7281C0.461228 16.3593 2.18154 17.9624 3.84092 19.5233C4.71279 20.3249 5.55649 21.1124 6.14717 21.8858C6.70962 22.589 7.07524 23.3249 7.07524 23.9999H11.294V18.1695C11.2941 16.9273 10.7109 15.7572 9.71909 15.0093Z" fill="#A7A1A1"/>
</g>
<defs>
<clipPath id="clip0_180_4370">
<rect width="24" height="24" fill="white"/>
</clipPath>
</defs>
</svg>
