<svg width="24" height="24" viewBox="0 0 24 24" fill="none" xmlns="http://www.w3.org/2000/svg">
<g clip-path="url(#clip0_242_523)">
<path d="M19.7314 4.96875C19.7314 2.25511 17.5232 0 14.8096 0C13.7521 0 12.764 0.452484 11.9971 1.26684C11.2301 0.452484 10.242 0 9.18457 0C6.47093 0 4.2627 2.25511 4.2627 4.96875C4.2627 7.69819 6.26562 9.10716 8.58513 10.7393C9.54162 11.4122 10.5311 12.1085 11.5363 12.9805L11.9964 13.3801L12.4571 12.9812C13.5935 11.9979 14.6743 11.2282 15.6274 10.5491C17.9201 8.91698 19.7314 7.62745 19.7314 4.96875ZM14.1064 7.07812H12.7002V8.48438H11.2939V7.07812H9.8877V5.67188H11.2939V4.26562H12.7002V5.67188H14.1064V7.07812Z" fill="#A7A1A1"/>
<path d="M23.1538 6.43121C21.7194 6.43121 21.3492 13.0968 21.321 13.2375C21.1782 14.2142 20.4901 15.66 19.3282 16.5306L16.2827 18.7418L15.4395 17.6157L18.485 15.4051C19.6914 14.5006 20.2413 12.9562 18.7335 12.9562C17.3831 12.9562 14.8589 14.5196 14.1106 15.1398C13.2171 15.8805 12.7007 16.9809 12.7007 18.1415V24H16.9194C16.9194 23.3249 17.2851 22.589 17.8475 21.8859C18.4382 21.1125 19.2819 20.325 20.1538 19.5234C21.8131 17.9625 23.5334 16.3593 23.7585 14.7281C23.8921 13.6324 24.003 11.7531 23.9975 10.0781C23.9914 8.20243 23.8325 6.49182 23.1538 6.43121Z" fill="#A7A1A1"/>
<path d="M9.71909 15.0094C7.73623 13.6453 6.23163 12.9562 5.26132 12.9562C3.75354 12.9562 4.30338 14.5006 5.50981 15.4051L8.55532 17.6157L7.71213 18.7418L4.66662 16.5306C3.50459 15.66 2.81656 14.2142 2.67373 13.2375C2.64556 13.0968 2.27529 6.43121 0.840869 6.43121C0.0533685 6.50153 -0.0310066 8.79371 0.0112278 10.9875C0.0393997 12.5906 0.165915 14.1515 0.236181 14.7281C0.461228 16.3593 2.18154 17.9625 3.84092 19.5234C4.71279 20.325 5.55649 21.1125 6.14717 21.8859C6.70962 22.589 7.07524 23.3249 7.07524 24H11.294V18.1696C11.2941 16.9274 10.7109 15.7572 9.71909 15.0094Z" fill="#A7A1A1"/>
</g>
<defs>
<clipPath id="clip0_242_523">
<rect width="24" height="24" fill="white"/>
</clipPath>
</defs>
</svg>
