<svg width="27" height="27" viewBox="0 0 27 27" fill="none" xmlns="http://www.w3.org/2000/svg">
<path d="M12.7638 22.1947C12.6944 21.8525 12.5479 21.5307 12.3356 21.2536C12.1233 20.9764 11.8506 20.7513 11.5383 20.5953L8.85041 19.4478V19.3776C8.21573 19.6743 7.52365 19.8281 6.82304 19.8281C6.12242 19.8281 5.43034 19.6743 4.79566 19.3776V19.4478L2.10779 20.5953C1.75457 20.7717 1.45273 21.0362 1.23134 21.3631C1.00996 21.6901 0.876473 22.0685 0.84375 22.462V25.3846H12.8023V22.462C12.7952 22.3722 12.7823 22.2829 12.7638 22.1947Z" fill="#50A6EA"/>
<path d="M3.68982 20.5952L5.76476 19.7093C5.43078 19.6337 5.10588 19.5225 4.79566 19.3775V19.4477L2.10779 20.5952C1.75456 20.7717 1.45272 21.0361 1.23133 21.3631C1.00994 21.6901 0.876464 22.0685 0.84375 22.462V25.3846H2.42578V22.462C2.4585 22.0685 2.59199 21.6901 2.81337 21.3631C3.03476 21.0362 3.3366 20.7717 3.68982 20.5952Z" fill="#72BCEF"/>
<path d="M25.1016 2.58646H10.8654C10.5857 2.58646 10.3174 2.69757 10.1196 2.89537C9.92183 3.09316 9.81071 3.36142 9.81071 3.64114V6.62749C10.5825 7.43865 11.0123 8.51582 11.0109 9.63546V11.3045H11.1143C11.2882 11.318 11.4534 11.3861 11.5862 11.4992C11.719 11.6123 11.8127 11.7646 11.8536 11.9342C11.8895 12.0802 11.8949 12.232 11.8697 12.3802C11.8445 12.5285 11.7891 12.6699 11.707 12.7959C11.6249 12.9218 11.5178 13.0296 11.3923 13.1125C11.2669 13.1954 11.1258 13.2517 10.9777 13.2778V13.8199C10.9792 14.9126 10.5613 15.9642 9.81018 16.7578L9.81071 16.7583V19.858L11.5383 20.5952C11.8506 20.7513 12.1233 20.9764 12.3356 21.2536C12.5479 21.5307 12.6944 21.8525 12.7638 22.1947H25.1016C25.2401 22.1947 25.3772 22.1675 25.5052 22.1145C25.6332 22.0615 25.7495 21.9838 25.8474 21.8859C25.9454 21.7879 26.0231 21.6716 26.0761 21.5437C26.129 21.4157 26.1563 21.2785 26.1563 21.14V3.64114C26.1563 3.36142 26.0451 3.09316 25.8473 2.89537C25.6496 2.69757 25.3813 2.58646 25.1016 2.58646Z" fill="#E5F5FD"/>
<path d="M15.1807 12.23C16.9281 12.23 18.3447 10.8134 18.3447 9.06595C18.3447 7.31849 16.9281 5.90189 15.1807 5.90189C13.4332 5.90189 12.0166 7.31849 12.0166 9.06595C12.0166 10.8134 13.4332 12.23 15.1807 12.23Z" fill="#49C160"/>
<path d="M13.0713 9.06586C13.0716 8.31824 13.3365 7.59485 13.8191 7.02387C14.3017 6.45289 14.9709 6.07119 15.708 5.94641C15.2542 5.86941 14.789 5.89235 14.345 6.01364C13.901 6.13493 13.4887 6.35164 13.1371 6.64865C12.7854 6.94567 12.5028 7.31583 12.3089 7.73333C12.1151 8.15082 12.0146 8.60558 12.0146 9.06589C12.0146 9.52619 12.1151 9.98096 12.3089 10.3984C12.5028 10.8159 12.7854 11.1861 13.1371 11.4831C13.4887 11.7801 13.901 11.9968 14.345 12.1181C14.789 12.2394 15.2542 12.2624 15.708 12.1854C14.9708 12.0607 14.3016 11.679 13.819 11.108C13.3363 10.537 13.0715 9.81352 13.0713 9.06586Z" fill="#5AE070"/>
<path d="M11.0109 11.3045V11.353C11.0109 11.353 7.27675 12.0112 4.77292 9.77996C4.25874 9.82323 3.74246 9.83626 3.22675 9.81899L3.1102 11.7317C3.10907 11.7462 3.10435 11.7602 3.09648 11.7725C3.08861 11.7848 3.07783 11.7949 3.06509 11.802C3.05236 11.8091 3.03806 11.813 3.02349 11.8132C3.00891 11.8134 2.99449 11.8101 2.98153 11.8034L2.46474 11.5381C2.41017 11.51 2.36375 11.4683 2.32995 11.417C2.29615 11.3658 2.2761 11.3067 2.27173 11.2455V9.63547C2.27173 8.47659 2.73209 7.36517 3.55155 6.54572C4.371 5.72626 5.48242 5.2659 6.6413 5.2659C7.80018 5.2659 8.9116 5.72626 9.73105 6.54572C10.5505 7.36517 11.0109 8.47659 11.0109 9.63547V11.3045Z" fill="#4A5160"/>
<path d="M4.60628 6.54576C5.29731 5.8536 6.20117 5.41415 7.17233 5.29817C6.99613 5.27674 6.8188 5.26597 6.6413 5.2659C5.48243 5.26594 4.37104 5.72632 3.55159 6.54576C2.73215 7.36521 2.27177 8.4766 2.27173 9.63547V11.2455C2.2761 11.3067 2.29615 11.3658 2.32995 11.417C2.36375 11.4683 2.41017 11.51 2.46474 11.5381L2.98153 11.8034C2.9945 11.81 3.00891 11.8134 3.02348 11.8132C3.03805 11.8129 3.05234 11.8091 3.06507 11.802C3.07781 11.7949 3.08859 11.7847 3.09646 11.7725C3.10433 11.7602 3.10906 11.7462 3.1102 11.7317C3.1102 11.7317 2.88308 8.26875 4.60628 6.54576Z" fill="#58606D"/>
<path d="M8.8504 17.5208V19.3776C8.21571 19.6743 7.52364 19.8281 6.82303 19.8281C6.12241 19.8281 5.43034 19.6743 4.79565 19.3776V17.659C5.43036 17.9726 6.13286 18.1241 6.84041 18.1C7.54795 18.0759 8.23851 17.8769 8.8504 17.5208Z" fill="#EFC597"/>
<path d="M5.85034 19.3776V18.0188C5.48453 17.9456 5.12993 17.8246 4.79565 17.659V19.3776C5.59235 19.75 6.47626 19.8958 7.35037 19.7989C6.83069 19.7414 6.32396 19.599 5.85034 19.3776Z" fill="#D8AD82"/>
<path d="M8.8505 17.5208C8.19972 17.9 7.46044 18.1009 6.70725 18.1031C5.95405 18.1053 5.2136 17.9088 4.56062 17.5334C3.90763 17.158 3.36521 16.617 2.98809 15.965C2.61097 15.3131 2.41249 14.5731 2.41269 13.8199V13.2778C2.26473 13.2514 2.12374 13.195 1.9984 13.1121C1.87307 13.0291 1.76605 12.9214 1.68394 12.7955C1.60183 12.6696 1.54636 12.5283 1.52096 12.3801C1.49556 12.232 1.50076 12.0802 1.53624 11.9342C1.57735 11.7646 1.67106 11.6123 1.80395 11.4992C1.93685 11.3861 2.10212 11.318 2.27611 11.3045L2.28085 11.3035C2.29281 11.3535 2.31544 11.4004 2.34721 11.4409C2.37897 11.4814 2.41912 11.5146 2.4649 11.5381L2.98169 11.8034C2.99466 11.8101 3.00907 11.8134 3.02365 11.8132C3.03823 11.813 3.05252 11.8091 3.06526 11.802C3.07799 11.7949 3.08877 11.7848 3.09665 11.7725C3.10452 11.7602 3.10923 11.7462 3.11037 11.7317L3.22691 9.81899C3.74262 9.83627 4.2589 9.82324 4.77308 9.77997C7.27691 12.0112 11.011 11.353 11.011 11.353V11.3045H11.1144C11.2883 11.318 11.4535 11.3862 11.5863 11.4993C11.7191 11.6124 11.8127 11.7646 11.8537 11.9342C11.8895 12.0802 11.895 12.232 11.8698 12.3802C11.8446 12.5285 11.7892 12.6699 11.7071 12.7959C11.625 12.9219 11.5179 13.0296 11.3924 13.1125C11.267 13.1954 11.1259 13.2517 10.9778 13.2778V13.8199C10.9793 14.9126 10.5614 15.9642 9.81027 16.7578C9.78232 16.7884 9.75279 16.8184 9.72326 16.848C9.46251 17.1089 9.16917 17.335 8.8505 17.5208Z" fill="#FFD8B7"/>
<path d="M5.85028 17.659C5.13466 17.3049 4.53229 16.7578 4.11119 16.0794C3.6901 15.401 3.46704 14.6184 3.46722 13.8199V13.2778C3.31925 13.2514 3.17826 13.195 3.05293 13.1121C2.9276 13.0291 2.82058 12.9214 2.73847 12.7955C2.65636 12.6696 2.60089 12.5283 2.57549 12.3801C2.55009 12.232 2.55529 12.0802 2.59077 11.9342C2.61419 11.8378 2.65468 11.7463 2.71032 11.6642L2.46474 11.5383C2.41896 11.5147 2.37881 11.4816 2.34705 11.4411C2.31528 11.4006 2.29264 11.3537 2.28069 11.3036L2.27595 11.3047C2.10196 11.3181 1.93669 11.3863 1.80379 11.4994C1.6709 11.6125 1.57719 11.7647 1.53608 11.9343C1.5003 12.0804 1.49487 12.2322 1.52014 12.3805C1.54542 12.5287 1.60085 12.6702 1.68301 12.7962C1.76516 12.9221 1.8723 13.0299 1.99779 13.1128C2.12327 13.1956 2.26443 13.2519 2.41253 13.278V13.8201C2.41225 14.3826 2.52283 14.9396 2.73795 15.4593C2.95308 15.979 3.26852 16.4512 3.66624 16.849C4.06397 17.2467 4.53619 17.5621 5.0559 17.7772C5.5756 17.9924 6.13262 18.1029 6.69509 18.1027C6.87109 18.1025 7.04691 18.0916 7.22159 18.0701C6.74456 18.0114 6.2809 17.8725 5.85028 17.659Z" fill="#E8BC9E"/>
<path d="M23.5504 12.3233H21.2372C21.1533 12.3233 21.0728 12.29 21.0135 12.2306C20.9541 12.1713 20.9208 12.0908 20.9208 12.0069C20.9208 11.923 20.9541 11.8425 21.0135 11.7832C21.0728 11.7238 21.1533 11.6905 21.2372 11.6905H23.5504C23.6344 11.6905 23.7148 11.7238 23.7742 11.7832C23.8335 11.8425 23.8668 11.923 23.8668 12.0069C23.8668 12.0908 23.8335 12.1713 23.7742 12.2306C23.7148 12.29 23.6344 12.3233 23.5504 12.3233Z" fill="#B9C8DB"/>
<path d="M19.8741 12.3233H19.0981C19.0142 12.3233 18.9337 12.29 18.8744 12.2306C18.8151 12.1713 18.7817 12.0908 18.7817 12.0069C18.7817 11.923 18.8151 11.8425 18.8744 11.7832C18.9337 11.7238 19.0142 11.6905 19.0981 11.6905H19.8741C19.958 11.6905 20.0385 11.7238 20.0979 11.7832C20.1572 11.8425 20.1905 11.923 20.1905 12.0069C20.1905 12.0908 20.1572 12.1713 20.0979 12.2306C20.0385 12.29 19.958 12.3233 19.8741 12.3233Z" fill="#B9C8DB"/>
<path d="M23.5504 15.7456H22.7649C22.681 15.7456 22.6005 15.7122 22.5412 15.6529C22.4818 15.5936 22.4485 15.5131 22.4485 15.4292C22.4485 15.3453 22.4818 15.2648 22.5412 15.2054C22.6005 15.1461 22.681 15.1128 22.7649 15.1128H23.5504C23.6343 15.1128 23.7148 15.1461 23.7741 15.2054C23.8334 15.2648 23.8668 15.3453 23.8668 15.4292C23.8668 15.5131 23.8334 15.5936 23.7741 15.6529C23.7148 15.7122 23.6343 15.7456 23.5504 15.7456Z" fill="#B9C8DB"/>
<path d="M21.6706 15.7456H17.4803C17.3964 15.7456 17.316 15.7122 17.2566 15.6529C17.1973 15.5936 17.1639 15.5131 17.1639 15.4292C17.1639 15.3453 17.1973 15.2648 17.2566 15.2054C17.316 15.1461 17.3964 15.1128 17.4803 15.1128H21.6706C21.7545 15.1128 21.835 15.1461 21.8943 15.2054C21.9536 15.2648 21.987 15.3453 21.987 15.4292C21.987 15.5131 21.9536 15.5936 21.8943 15.6529C21.835 15.7122 21.7545 15.7456 21.6706 15.7456Z" fill="#B9C8DB"/>
<path d="M16.3707 15.7456H16.088C16.0041 15.7456 15.9236 15.7122 15.8643 15.6529C15.8049 15.5936 15.7716 15.5131 15.7716 15.4292C15.7716 15.3453 15.8049 15.2648 15.8643 15.2054C15.9236 15.1461 16.0041 15.1128 16.088 15.1128H16.3707C16.4546 15.1128 16.5351 15.1461 16.5945 15.2054C16.6538 15.2648 16.6871 15.3453 16.6871 15.4292C16.6871 15.5131 16.6538 15.5936 16.5945 15.6529C16.5351 15.7122 16.4546 15.7456 16.3707 15.7456Z" fill="#B9C8DB"/>
<path d="M14.7251 15.7456H12.9312C12.8472 15.7456 12.7668 15.7122 12.7074 15.6529C12.6481 15.5936 12.6147 15.5131 12.6147 15.4292C12.6147 15.3453 12.6481 15.2648 12.7074 15.2054C12.7668 15.1461 12.8472 15.1128 12.9312 15.1128H14.7251C14.809 15.1128 14.8895 15.1461 14.9488 15.2054C15.0081 15.2648 15.0415 15.3453 15.0415 15.4292C15.0415 15.5131 15.0081 15.5936 14.9488 15.6529C14.8895 15.7122 14.809 15.7456 14.7251 15.7456Z" fill="#B9C8DB"/>
<path d="M23.5504 18.9086H21.7397C21.6558 18.9086 21.5754 18.8753 21.516 18.816C21.4567 18.7566 21.4233 18.6761 21.4233 18.5922C21.4233 18.5083 21.4567 18.4278 21.516 18.3685C21.5754 18.3092 21.6558 18.2758 21.7397 18.2758H23.5504C23.6343 18.2758 23.7148 18.3092 23.7741 18.3685C23.8335 18.4278 23.8668 18.5083 23.8668 18.5922C23.8668 18.6761 23.8335 18.7566 23.7741 18.816C23.7148 18.8753 23.6343 18.9086 23.5504 18.9086Z" fill="#B9C8DB"/>
<path d="M20.6041 18.9086H20.3766C20.2927 18.9086 20.2122 18.8753 20.1529 18.816C20.0935 18.7566 20.0602 18.6761 20.0602 18.5922C20.0602 18.5083 20.0935 18.4278 20.1529 18.3685C20.2122 18.3092 20.2927 18.2758 20.3766 18.2758H20.6039C20.6878 18.2758 20.7683 18.3092 20.8277 18.3685C20.887 18.4278 20.9203 18.5083 20.9203 18.5922C20.9203 18.6761 20.887 18.7566 20.8277 18.816C20.7683 18.8753 20.6878 18.9086 20.6039 18.9086H20.6041Z" fill="#B9C8DB"/>
<path d="M19.4861 18.9086H17.7662C17.6823 18.9086 17.6018 18.8753 17.5425 18.816C17.4832 18.7566 17.4498 18.6761 17.4498 18.5922C17.4498 18.5083 17.4832 18.4278 17.5425 18.3685C17.6018 18.3092 17.6823 18.2758 17.7662 18.2758H19.4862C19.5701 18.2758 19.6506 18.3092 19.7099 18.3685C19.7692 18.4278 19.8026 18.5083 19.8026 18.5922C19.8026 18.6761 19.7692 18.7566 19.7099 18.816C19.6506 18.8753 19.5701 18.9086 19.4862 18.9086H19.4861Z" fill="#B9C8DB"/>
<path d="M16.3708 18.9086H12.9312C12.8472 18.9086 12.7668 18.8753 12.7074 18.816C12.6481 18.7566 12.6147 18.6761 12.6147 18.5922C12.6147 18.5083 12.6481 18.4278 12.7074 18.3685C12.7668 18.3092 12.8472 18.2758 12.9312 18.2758H16.3708C16.4547 18.2758 16.5351 18.3092 16.5945 18.3685C16.6538 18.4278 16.6872 18.5083 16.6872 18.5922C16.6872 18.6761 16.6538 18.7566 16.5945 18.816C16.5351 18.8753 16.4547 18.9086 16.3708 18.9086Z" fill="#B9C8DB"/>
<path d="M23.5504 9.62933H23.3462C23.2623 9.62933 23.1818 9.596 23.1225 9.53666C23.0631 9.47732 23.0298 9.39684 23.0298 9.31293C23.0298 9.22901 23.0631 9.14853 23.1225 9.08919C23.1818 9.02986 23.2623 8.99652 23.3462 8.99652H23.5504C23.6343 8.99652 23.7148 9.02986 23.7741 9.08919C23.8335 9.14853 23.8668 9.22901 23.8668 9.31293C23.8668 9.39684 23.8335 9.47732 23.7741 9.53666C23.7148 9.596 23.6343 9.62933 23.5504 9.62933Z" fill="#B9C8DB"/>
<path d="M21.9833 9.62933H19.7406C19.6567 9.62933 19.5762 9.596 19.5169 9.53666C19.4575 9.47732 19.4242 9.39684 19.4242 9.31293C19.4242 9.22901 19.4575 9.14853 19.5169 9.08919C19.5762 9.02986 19.6567 8.99652 19.7406 8.99652H21.9833C22.0672 8.99652 22.1477 9.02986 22.207 9.08919C22.2664 9.14853 22.2997 9.22901 22.2997 9.31293C22.2997 9.39684 22.2664 9.47732 22.207 9.53666C22.1477 9.596 22.0672 9.62933 21.9833 9.62933Z" fill="#B9C8DB"/>
<path d="M23.5504 6.99261H21.2898C21.2059 6.99261 21.1254 6.95928 21.0661 6.89994C21.0067 6.8406 20.9734 6.76012 20.9734 6.67621C20.9734 6.59229 21.0067 6.51181 21.0661 6.45248C21.1254 6.39314 21.2059 6.3598 21.2898 6.3598H23.5504C23.6343 6.3598 23.7148 6.39314 23.7741 6.45248C23.8334 6.51181 23.8668 6.59229 23.8668 6.67621C23.8668 6.76012 23.8334 6.8406 23.7741 6.89994C23.7148 6.95928 23.6343 6.99261 23.5504 6.99261Z" fill="#B9C8DB"/>
<path d="M19.9269 6.99261H19.7406C19.6567 6.99261 19.5762 6.95928 19.5169 6.89994C19.4575 6.8406 19.4242 6.76012 19.4242 6.67621C19.4242 6.59229 19.4575 6.51181 19.5169 6.45248C19.5762 6.39314 19.6567 6.3598 19.7406 6.3598H19.9269C20.0108 6.3598 20.0913 6.39314 20.1506 6.45248C20.21 6.51181 20.2433 6.59229 20.2433 6.67621C20.2433 6.76012 20.21 6.8406 20.1506 6.89994C20.0913 6.95928 20.0108 6.99261 19.9269 6.99261Z" fill="#B9C8DB"/>
<path d="M14.4761 10.5382C14.4346 10.5382 14.3934 10.53 14.355 10.5141C14.3166 10.4982 14.2817 10.4749 14.2524 10.4456L13.3506 9.54354C13.3206 9.5143 13.2966 9.47939 13.2802 9.44084C13.2638 9.40228 13.2552 9.36084 13.2549 9.31893C13.2546 9.27702 13.2627 9.23547 13.2786 9.19669C13.2945 9.15792 13.3179 9.12269 13.3476 9.09306C13.3772 9.06342 13.4124 9.03997 13.4512 9.02406C13.49 9.00816 13.5315 9.00012 13.5735 9.0004C13.6154 9.00069 13.6568 9.0093 13.6954 9.02573C13.7339 9.04217 13.7688 9.0661 13.7981 9.09614L14.4763 9.77436L16.5638 7.68665C16.6233 7.62811 16.7035 7.59546 16.787 7.5958C16.8705 7.59614 16.9504 7.62945 17.0094 7.68847C17.0685 7.74749 17.1018 7.82744 17.1021 7.91091C17.1025 7.99438 17.0698 8.0746 17.0113 8.1341L14.6998 10.4456C14.6405 10.5049 14.56 10.5382 14.4761 10.5382Z" fill="#F4F8FC"/>
<path d="M13.4711 1.61563H23.0234V3.42864H13.4711V1.61563Z" fill="#475673"/>
</svg>
