<svg width="35" height="35" viewBox="0 0 35 35" fill="none" xmlns="http://www.w3.org/2000/svg">
<path d="M19.2523 2.91675L19.2517 29.1667H25.085H26.2517V8.823V2.91675H19.2523Z" fill="#EA6B65"/>
<path d="M7.40532 29.0744L0.580322 27.5146L5.43186 6.0614L12.2569 7.62123L7.40532 29.0744Z" fill="#6CBAE5"/>
<path d="M19.2518 29.1667H13.4185V0H19.2518V12.25V20.4167V29.1667H24.5018H19.2518Z" fill="#F7BA61"/>
<path d="M17.5027 26.25H15.1696V27.4169H17.5027V26.25Z" fill="#277BAA"/>
<path d="M17.5027 1.75H15.1696V2.91689H17.5027V1.75Z" fill="#277BAA"/>
<path d="M17.5027 4.08325H15.1696V5.25015H17.5027V4.08325Z" fill="#277BAA"/>
<path d="M17.5027 6.41687H15.1696V7.58377H17.5027V6.41687Z" fill="#277BAA"/>
<path d="M26.252 2.91675H19.2527V5.83344H26.252V2.91675Z" fill="#DC4D41"/>
<path d="M11.4442 11.2145L12.2568 7.62123L5.43179 6.0614L4.64429 9.54445L4.92025 9.60864L11.4442 11.2145Z" fill="#3B869E"/>
<path d="M1.43666 23.7277L0.580322 27.5146L7.40532 29.0745L8.23657 25.4001L1.92604 23.8472L1.43666 23.7277Z" fill="#3B869E"/>
<path d="M13.4185 15.9664L15.1737 8.20456L13.4185 7.80322V15.9664Z" fill="#EA9D2D"/>
<path d="M22.1694 2.91675H19.2527V29.1667H22.1694V2.91675Z" fill="#DC4D41"/>
<path d="M22.1688 2.91675H19.2527V5.83344H22.1688V2.91675Z" fill="#C7463B"/>
<path d="M19.2517 26.25V29.1667H25.085H26.2517V26.25H19.2517Z" fill="#DC4D41"/>
<path d="M28.5865 28H23.9196V35H28.5865V28Z" fill="#4799CF"/>
<path d="M27.4195 23.9169H25.0864V28.5838H27.4195V23.9169Z" fill="#B9B9B9"/>
<path d="M27.4195 26.8331H25.0864V28H27.4195V26.8331Z" fill="#6C7175"/>
<path d="M28.5865 32.0831H23.9196V33.25H28.5865V32.0831Z" fill="#277BAA"/>
<path d="M26.2527 24.5C30.7632 24.5 34.4196 20.8436 34.4196 16.3332C34.4196 11.8227 30.7632 8.16626 26.2527 8.16626C21.7423 8.16626 18.0858 11.8227 18.0858 16.3332C18.0858 20.8436 21.7423 24.5 26.2527 24.5Z" fill="#6FBBC6"/>
<path d="M26.2527 22.1662C29.4742 22.1662 32.0858 19.5546 32.0858 16.3331C32.0858 13.1116 29.4742 10.5 26.2527 10.5C23.0311 10.5 20.4196 13.1116 20.4196 16.3331C20.4196 19.5546 23.0311 22.1662 26.2527 22.1662Z" fill="#D9D9D9"/>
<path d="M26.2516 10.5C25.2898 10.5 24.3844 10.7369 23.5841 11.1498C23.4236 11.683 23.335 12.2477 23.335 12.8333C23.335 16.0551 25.9466 18.6666 29.1683 18.6666C30.1302 18.6666 31.0355 18.4298 31.8359 18.0168C31.9963 17.4837 32.085 16.9189 32.085 16.3333C32.085 13.1116 29.4734 10.5 26.2516 10.5Z" fill="#F0F0F0"/>
<path d="M28.5865 28H23.9196V30.3331H28.5865V28Z" fill="#DBDBDB"/>
<path d="M22.1694 26.25H19.2527V29.1667H22.1694V26.25Z" fill="#C7463B"/>
</svg>
