<svg width="38" height="38" viewBox="0 0 38 38" fill="none" xmlns="http://www.w3.org/2000/svg">
<path d="M1.35041 29.9451L7.60477 23.6908C6.46761 21.4165 5.70951 18.7631 5.70951 16.1097C5.70951 7.20199 12.9115 0 21.8192 0C30.727 0 37.929 7.20199 37.929 16.1097C37.929 25.0175 30.727 32.2194 21.8192 32.2194C19.1659 32.2194 16.5125 31.4613 14.2382 30.3242L7.98382 36.5785C6.08856 38.4738 3.24567 38.4738 1.35041 36.5785C-0.355331 34.6833 -0.355331 31.8404 1.35041 29.9451ZM21.8192 28.4289C28.6422 28.4289 34.1384 22.9327 34.1384 16.1097C34.1384 9.28678 28.6422 3.79052 21.8192 3.79052C14.9963 3.79052 9.50003 9.28678 9.50003 16.1097C9.50003 22.9327 14.9963 28.4289 21.8192 28.4289Z" fill="#C4C4C4"/>
</svg>
