<svg width="40" height="40" viewBox="0 0 40 40" fill="none" xmlns="http://www.w3.org/2000/svg">
<path d="M31.1275 37.5352L24.8087 31.346C22.5463 32.5067 19.9009 33.2923 17.2477 33.3198C8.34044 33.4121 1.06417 26.2852 0.97182 17.3779C0.879473 8.47068 8.00642 1.19441 16.9137 1.10206C25.8209 1.00972 33.0972 8.13666 33.1895 17.0439C33.217 19.6971 32.4865 22.3582 31.373 24.6442L37.6918 30.8334C39.6066 32.7089 39.6361 35.5516 37.7606 37.4664C35.8831 39.1917 33.0404 39.2212 31.1275 37.5352ZM29.3992 17.0832C29.3285 10.2606 23.7755 4.82165 16.953 4.89238C10.1304 4.96312 4.69141 10.5161 4.76214 17.3386C4.83287 24.1612 10.3858 29.6002 17.2084 29.5295C24.031 29.4587 29.47 23.9058 29.3992 17.0832Z" fill="#C4C4C4"/>
</svg>
