<svg width="38" height="38" viewBox="0 0 38 38" fill="none" xmlns="http://www.w3.org/2000/svg">
<path d="M1.35038 29.9451L7.60474 23.6908C6.46758 21.4165 5.70948 18.7631 5.70948 16.1097C5.70948 7.20199 12.9115 0 21.8192 0C30.7269 0 37.9289 7.20199 37.9289 16.1097C37.9289 25.0175 30.7269 32.2194 21.8192 32.2194C19.1658 32.2194 16.5125 31.4613 14.2382 30.3242L7.98379 36.5785C6.08853 38.4738 3.24564 38.4738 1.35038 36.5785C-0.355362 34.6833 -0.355362 31.8404 1.35038 29.9451ZM21.8192 28.4289C28.6421 28.4289 34.1384 22.9327 34.1384 16.1097C34.1384 9.28678 28.6421 3.79052 21.8192 3.79052C14.9963 3.79052 9.5 9.28678 9.5 16.1097C9.5 22.9327 14.9963 28.4289 21.8192 28.4289Z" fill="#F86363"/>
</svg>
