<svg width="25" height="25" viewBox="0 0 25 25" fill="none" xmlns="http://www.w3.org/2000/svg">
<path d="M0.888777 19.7007L5.00349 15.586C4.25536 14.0898 3.75661 12.3441 3.75661 10.5985C3.75661 4.73815 8.49476 0 14.3551 0C20.2155 0 24.9536 4.73815 24.9536 10.5985C24.9536 16.4589 20.2155 21.197 14.3551 21.197C12.6095 21.197 10.8638 20.6983 9.36758 19.9501L5.25286 24.0648C4.00598 25.3117 2.13566 25.3117 0.888777 24.0648C-0.233419 22.818 -0.233419 20.9476 0.888777 19.7007ZM14.3551 18.7032C18.8439 18.7032 22.4598 15.0873 22.4598 10.5985C22.4598 6.10973 18.8439 2.49377 14.3551 2.49377C9.86633 2.49377 6.25037 6.10973 6.25037 10.5985C6.25037 15.0873 9.86633 18.7032 14.3551 18.7032Z" fill="white"/>
</svg>
