<svg width="25" height="25" viewBox="0 0 25 25" fill="none" xmlns="http://www.w3.org/2000/svg">
<path d="M0.888533 19.7007L5.00324 15.586C4.25512 14.0898 3.75636 12.3441 3.75636 10.5985C3.75636 4.73815 8.49452 0 14.3549 0C20.2152 0 24.9534 4.73815 24.9534 10.5985C24.9534 16.4589 20.2152 21.197 14.3549 21.197C12.6092 21.197 10.8636 20.6983 9.36734 19.9501L5.25262 24.0648C4.00574 25.3117 2.13541 25.3117 0.888533 24.0648C-0.233664 22.818 -0.233664 20.9476 0.888533 19.7007ZM14.3549 18.7032C18.8436 18.7032 22.4596 15.0873 22.4596 10.5985C22.4596 6.10973 18.8436 2.49377 14.3549 2.49377C9.86609 2.49377 6.25013 6.10973 6.25013 10.5985C6.25013 15.0873 9.86609 18.7032 14.3549 18.7032Z" fill="white"/>
</svg>
