<svg width="24" height="23" viewBox="0 0 24 23" fill="none" xmlns="http://www.w3.org/2000/svg">
<path d="M21 11.0209C21.0034 12.2857 20.6951 13.5335 20.1 14.6625C19.3944 16.0154 18.3098 17.1534 16.9674 17.9489C15.6251 18.7444 14.0782 19.1661 12.5 19.1667C11.1801 19.17 9.87812 18.8745 8.7 18.3042L3 20.125L4.9 14.6625C4.30493 13.5335 3.99656 12.2857 4 11.0209C4.00061 9.50838 4.44061 8.02593 5.27072 6.73955C6.10083 5.45318 7.28825 4.4137 8.7 3.73753C9.87812 3.16725 11.1801 2.87173 12.5 2.87503H13C15.0843 2.98523 17.053 3.82834 18.5291 5.24293C20.0052 6.65753 20.885 8.54419 21 10.5417V11.0209Z" stroke="#94A7B8" stroke-width="2" stroke-linecap="round" stroke-linejoin="round"/>
</svg>
