<svg width="38" height="38" viewBox="0 0 38 38" fill="none" xmlns="http://www.w3.org/2000/svg">
<path d="M37.2571 9.52627L19.3704 3.21537C19.1308 3.13076 18.8693 3.13076 18.6297 3.21537L0.742931 9.52627C0.298212 9.68317 0.00059464 10.1032 8.89662e-07 10.5748C-0.00059286 11.0464 0.296059 11.4672 0.740407 11.6251L18.6271 17.9839C18.7477 18.0268 18.8739 18.0483 19 18.0483C19.1262 18.0483 19.2523 18.0268 19.3729 17.9839L37.2596 11.6251C37.7039 11.4672 38.0005 11.0464 38 10.5748C37.9994 10.1032 37.7018 9.68317 37.2571 9.52627Z" fill="white"/>
<path d="M35.326 24.3863V14.6756L33.0995 15.4671V24.3863C32.4288 24.7723 31.9769 25.4956 31.9769 26.325C31.9769 27.1543 32.4288 27.8777 33.0995 28.2637V33.7348C33.0995 34.3496 33.5979 34.8481 34.2128 34.8481C34.8276 34.8481 35.326 34.3496 35.326 33.7348V28.2637C35.9967 27.8778 36.4486 27.1544 36.4486 26.3251C36.4486 25.4957 35.9968 24.7723 35.326 24.3863Z" fill="white"/>
<path d="M19 20.2749C18.6179 20.2749 18.2415 20.2099 17.8813 20.0819L7.82593 16.5072V21.4062C7.82593 22.6048 9.07629 23.6184 11.5423 24.4187C13.6917 25.1164 16.3403 25.5006 19 25.5006C21.6597 25.5006 24.3082 25.1164 26.4577 24.4187C28.9237 23.6184 30.1741 22.6048 30.1741 21.4062V16.5072L20.1188 20.0819C19.7585 20.2099 19.3822 20.2749 19 20.2749Z" fill="white"/>
</svg>
