<svg width="38" height="38" viewBox="0 0 38 38" fill="none" xmlns="http://www.w3.org/2000/svg">
<path d="M37.2571 9.52621L19.3704 3.21531C19.1308 3.1307 18.8693 3.1307 18.6297 3.21531L0.742931 9.52621C0.298212 9.68311 0.00059464 10.1032 8.89662e-07 10.5748C-0.00059286 11.0464 0.296059 11.4671 0.740407 11.625L18.6271 17.9839C18.7477 18.0268 18.8739 18.0482 19 18.0482C19.1262 18.0482 19.2523 18.0268 19.3729 17.9839L37.2596 11.625C37.7039 11.4671 38.0005 11.0464 38 10.5748C37.9994 10.1032 37.7018 9.68311 37.2571 9.52621Z" fill="white"/>
<path d="M35.3262 24.3863V14.6755L33.0996 15.4671V24.3863C32.429 24.7723 31.9771 25.4956 31.9771 26.325C31.9771 27.1543 32.429 27.8776 33.0996 28.2637V33.7348C33.0996 34.3496 33.5981 34.848 34.2129 34.848C34.8277 34.848 35.3262 34.3496 35.3262 33.7348V28.2637C35.9968 27.8778 36.4487 27.1544 36.4487 26.3251C36.4487 25.4957 35.9969 24.7723 35.3262 24.3863Z" fill="white"/>
<path d="M19 20.2748C18.6179 20.2748 18.2415 20.2099 17.8813 20.0818L7.82593 16.5071V21.4061C7.82593 22.6047 9.07629 23.6183 11.5423 24.4187C13.6917 25.1163 16.3403 25.5006 19 25.5006C21.6597 25.5006 24.3082 25.1163 26.4577 24.4187C28.9237 23.6183 30.1741 22.6047 30.1741 21.4061V16.5071L20.1188 20.0818C19.7585 20.2099 19.3822 20.2748 19 20.2748Z" fill="white"/>
</svg>
