<svg width="38" height="38" viewBox="0 0 38 38" fill="none" xmlns="http://www.w3.org/2000/svg">
<path d="M37.2571 9.52621L19.3704 3.21531C19.1308 3.1307 18.8693 3.1307 18.6297 3.21531L0.742931 9.52621C0.298212 9.68311 0.00059464 10.1032 8.89662e-07 10.5748C-0.00059286 11.0464 0.296059 11.4671 0.740407 11.625L18.6271 17.9839C18.7477 18.0268 18.8739 18.0482 19 18.0482C19.1262 18.0482 19.2523 18.0268 19.3729 17.9839L37.2596 11.625C37.7039 11.4671 38.0005 11.0464 38 10.5748C37.9994 10.1032 37.7018 9.68311 37.2571 9.52621Z" fill="white"/>
<path d="M35.3257 24.3863V14.6755L33.0991 15.4671V24.3863C32.4285 24.7723 31.9766 25.4956 31.9766 26.325C31.9766 27.1543 32.4285 27.8776 33.0991 28.2637V33.7348C33.0991 34.3496 33.5976 34.848 34.2124 34.848C34.8272 34.848 35.3257 34.3496 35.3257 33.7348V28.2637C35.9963 27.8778 36.4482 27.1544 36.4482 26.3251C36.4482 25.4957 35.9964 24.7723 35.3257 24.3863Z" fill="white"/>
<path d="M19.0002 20.2748C18.6181 20.2748 18.2417 20.2099 17.8816 20.0818L7.82617 16.5071V21.4061C7.82617 22.6047 9.07653 23.6183 11.5425 24.4187C13.692 25.1163 16.3405 25.5006 19.0002 25.5006C21.66 25.5006 24.3084 25.1163 26.458 24.4187C28.924 23.6183 30.1743 22.6047 30.1743 21.4061V16.5071L20.119 20.0818C19.7588 20.2099 19.3824 20.2748 19.0002 20.2748Z" fill="white"/>
</svg>
