<svg width="38" height="38" viewBox="0 0 38 38" fill="none" xmlns="http://www.w3.org/2000/svg">
<path d="M37.2571 9.52621L19.3704 3.21531C19.1308 3.1307 18.8693 3.1307 18.6297 3.21531L0.742931 9.52621C0.298212 9.68311 0.00059464 10.1032 8.89662e-07 10.5748C-0.00059286 11.0464 0.296059 11.4671 0.740407 11.625L18.6271 17.9839C18.7477 18.0268 18.8739 18.0482 19 18.0482C19.1262 18.0482 19.2523 18.0268 19.3729 17.9839L37.2596 11.625C37.7039 11.4671 38.0005 11.0464 38 10.5748C37.9994 10.1032 37.7018 9.68311 37.2571 9.52621Z" fill="white"/>
<path d="M35.3262 24.3866V14.6758L33.0996 15.4673V24.3866C32.429 24.7726 31.9771 25.4958 31.9771 26.3252C31.9771 27.1546 32.429 27.8779 33.0996 28.2639V33.735C33.0996 34.3498 33.5981 34.8483 34.2129 34.8483C34.8277 34.8483 35.3262 34.3498 35.3262 33.735V28.264C35.9968 27.878 36.4487 27.1546 36.4487 26.3253C36.4487 25.4959 35.9969 24.7726 35.3262 24.3866Z" fill="white"/>
<path d="M19 20.275C18.6179 20.275 18.2415 20.2101 17.8813 20.0821L7.82593 16.5073V21.4064C7.82593 22.6049 9.07629 23.6185 11.5423 24.4189C13.6917 25.1166 16.3403 25.5008 19 25.5008C21.6597 25.5008 24.3082 25.1166 26.4577 24.4189C28.9237 23.6185 30.1741 22.6049 30.1741 21.4064V16.5073L20.1188 20.0821C19.7585 20.2101 19.3822 20.275 19 20.275Z" fill="white"/>
</svg>
