<svg width="38" height="38" viewBox="0 0 38 38" fill="none" xmlns="http://www.w3.org/2000/svg">
<path d="M37.2571 9.52633L19.3704 3.21543C19.1308 3.13083 18.8693 3.13083 18.6297 3.21543L0.742931 9.52633C0.298212 9.68323 0.00059464 10.1033 8.89662e-07 10.5749C-0.00059286 11.0465 0.296059 11.4672 0.740407 11.6252L18.6271 17.984C18.7477 18.0269 18.8739 18.0484 19 18.0484C19.1262 18.0484 19.2523 18.0269 19.3729 17.984L37.2596 11.6252C37.7039 11.4672 38.0005 11.0465 38 10.5749C37.9994 10.1033 37.7018 9.68323 37.2571 9.52633Z" fill="white"/>
<path d="M35.3262 24.3863V14.6755L33.0996 15.4671V24.3863C32.429 24.7723 31.9771 25.4956 31.9771 26.325C31.9771 27.1543 32.429 27.8776 33.0996 28.2637V33.7348C33.0996 34.3496 33.5981 34.848 34.2129 34.848C34.8277 34.848 35.3262 34.3496 35.3262 33.7348V28.2637C35.9968 27.8778 36.4487 27.1544 36.4487 26.3251C36.4487 25.4957 35.9969 24.7723 35.3262 24.3863Z" fill="white"/>
<path d="M19 20.2749C18.6179 20.2749 18.2415 20.21 17.8813 20.082L7.82593 16.5072V21.4062C7.82593 22.6048 9.07629 23.6184 11.5423 24.4188C13.6917 25.1164 16.3403 25.5007 19 25.5007C21.6597 25.5007 24.3082 25.1164 26.4577 24.4188C28.9237 23.6184 30.1741 22.6048 30.1741 21.4062V16.5072L20.1188 20.082C19.7585 20.21 19.3822 20.2749 19 20.2749Z" fill="white"/>
</svg>
