<svg width="29" height="29" viewBox="0 0 29 29" fill="none" xmlns="http://www.w3.org/2000/svg">
<g clip-path="url(#clip0_40_372)">
<path d="M8.97094 13.5779C8.81486 13.5779 8.66379 13.4941 8.58501 13.3469C8.47108 13.1339 8.55131 12.8689 8.76425 12.7549L13.3247 10.3143L17.8587 7.47908C17.8612 7.4775 17.8637 7.47599 17.8662 7.47453L21.7411 5.15777C21.9485 5.03387 22.217 5.10145 22.3409 5.30873C22.4648 5.51601 22.3973 5.78451 22.19 5.90847L18.3187 8.22295L13.7759 11.0637C13.7675 11.0689 13.759 11.0739 13.7503 11.0785L9.17688 13.5261C9.11123 13.5612 9.04056 13.5779 8.97094 13.5779Z" fill="#C8EFFE"/>
<path d="M21.9651 24.631C21.888 24.631 21.81 24.6105 21.7392 24.5678L17.5397 22.0276C17.5378 22.0264 17.536 22.0253 17.5342 22.0241L13.3121 19.3839C13.3065 19.3804 13.3009 19.3767 13.2953 19.3729L9.38453 16.6701C9.18582 16.5328 9.13609 16.2604 9.2734 16.0617C9.41071 15.863 9.68312 15.8133 9.88177 15.9506L13.7843 18.6477L17.995 21.2808L22.1918 23.8194C22.3984 23.9445 22.4646 24.2133 22.3397 24.4199C22.2575 24.5558 22.1131 24.631 21.9651 24.631Z" fill="#C8EFFE"/>
<path d="M23.3324 5.61118C23.0909 5.61118 22.8951 5.80697 22.8951 6.04847V21.8293C22.8951 22.0708 23.0909 22.2666 23.3324 22.2666C23.5739 22.2666 23.7697 22.0708 23.7697 21.8293V6.04847C23.7697 5.80697 23.5739 5.61118 23.3324 5.61118Z" fill="#C8EFFE"/>
<path d="M7.40174 7.42273C3.31445 7.42273 0.000305176 10.7369 0.000305176 14.8242C0.000305176 17.5776 1.50403 19.9796 3.73478 21.2545L4.2375 20.9801L10.5771 20.8879L11.0595 21.2597C13.2954 19.9863 14.8032 17.5815 14.8032 14.8242C14.8032 10.7369 11.4896 7.42273 7.40174 7.42273Z" fill="#98BCE5"/>
<path d="M5.06789 19.1699C4.18122 17.9496 3.65815 16.448 3.65815 14.8242C3.65815 11.3681 6.02773 8.46508 9.23063 7.65077C8.64558 7.50203 8.03278 7.42273 7.40144 7.42273C3.31415 7.42267 0 10.7368 0 14.8241C0 17.5775 1.50361 19.9794 3.73424 21.2543L5.06789 19.1699Z" fill="#7BACDF"/>
<path d="M7.40187 20.4761C10.5235 20.4761 13.0541 17.9455 13.0541 14.8239C13.0541 11.7023 10.5235 9.17166 7.40187 9.17166C4.28023 9.17166 1.74963 11.7023 1.74963 14.8239C1.74963 17.9455 4.28023 20.4761 7.40187 20.4761Z" fill="#5F99D7"/>
<path d="M6.11161 9.3204C3.61463 9.90569 1.74963 12.151 1.74963 14.8239C1.74963 17.4969 3.6148 19.7424 6.11196 20.3275C4.60584 18.9727 3.65842 17.009 3.65842 14.8237C3.65842 12.6388 4.60567 10.6752 6.11161 9.3204Z" fill="#3C87D0"/>
<path d="M11.0319 19.5319C11.0319 19.1244 10.8506 18.7378 10.5369 18.4772L8.45825 16.7513L8.02801 16.3103H6.77424L6.33298 16.7513L4.25435 18.4772C3.94124 18.7378 3.75932 19.1244 3.75932 19.5319L3.73425 21.2543C4.81526 21.8718 6.06768 22.2251 7.40173 22.2251C8.73229 22.2251 9.98063 21.8741 11.0599 21.2596L11.0319 19.5319Z" fill="#ADE194"/>
<path d="M8.75899 17.0011L8.45813 16.7513L8.02789 16.3103H6.77412L6.33286 16.7513L4.25423 18.4772C3.94112 18.7378 3.7592 19.1244 3.7592 19.5319L3.73413 21.2543C4.17289 21.5049 4.64027 21.7111 5.12952 21.8688L5.15349 20.2228C5.15349 19.8152 5.33541 19.4286 5.64851 19.168L6.19904 18.7109C6.43332 18.5164 6.74141 18.4259 7.04076 18.4814C7.15597 18.5027 7.27463 18.5139 7.39579 18.5139C7.91402 18.5139 8.40064 18.3121 8.76518 17.9464C8.94044 17.7712 9.0777 17.5675 9.17367 17.3454L8.75899 17.0011Z" fill="#97DA7B"/>
<path d="M8.45822 14.819V16.577C8.45822 16.6359 8.45356 16.693 8.44423 16.749C8.4075 16.9735 8.30079 17.174 8.14687 17.328C7.95504 17.5204 7.68916 17.6393 7.39588 17.6393C6.86762 17.6393 6.42915 17.2539 6.34694 16.749C6.33761 16.693 6.33295 16.6359 6.33295 16.577V14.8132L6.3551 14.7654C6.67287 14.9141 7.02738 14.9974 7.40171 14.9974C7.77137 14.9974 8.12179 14.9164 8.43607 14.7712L8.45822 14.819Z" fill="#FED2A4"/>
<path d="M8.87278 9.68162H6.05949L5.18664 9.39475C5.06011 9.35336 4.9295 9.44781 4.9295 9.58133V12.0011L5.76935 12.9H9.41614L9.87449 12.0011V10.6833C9.87449 10.13 9.42611 9.68162 8.87278 9.68162Z" fill="#A79BA7"/>
<path d="M6.33294 10.7053C6.33294 10.5718 6.46355 10.4773 6.59008 10.5187L7.46293 10.8056H9.87449V10.6833C9.87449 10.13 9.42611 9.68162 8.87278 9.68162H6.05949L5.18664 9.39475C5.06011 9.35336 4.9295 9.44781 4.9295 9.58133V12.0011L5.76935 12.9H6.33294V10.7053Z" fill="#918291"/>
<path d="M9.87449 12.001V13.5747C9.87449 14.5706 9.28501 15.4295 8.43606 15.8207C8.12179 15.9659 7.77137 16.0469 7.4017 16.0469C7.02738 16.0469 6.67287 15.9636 6.3551 15.8149C5.51257 15.4207 4.9295 14.5659 4.9295 13.5747V12.001H9.87449Z" fill="#FED2A4"/>
<path d="M7.75854 15.8149C6.91601 15.4207 6.33294 14.5659 6.33294 13.5747V12.001H4.9295V13.5747C4.9295 14.5659 5.51257 15.4207 6.3551 15.8149C6.67287 15.9636 7.02738 16.0469 7.4017 16.0469C7.64577 16.0469 7.88116 16.011 8.10354 15.9452C7.98459 15.91 7.86921 15.8667 7.75854 15.8149Z" fill="#FFBD86"/>
<path d="M23.3328 0.0258789C20.2029 0.0258789 17.666 2.5628 17.666 5.69328C17.666 7.57926 18.5874 9.24963 20.0044 10.2797L20.5041 9.81235L26.09 9.89917L26.6606 10.2806C28.0783 9.25062 29.0003 7.57985 29.0003 5.69334C29.0002 2.5628 26.4633 0.0258789 23.3328 0.0258789Z" fill="#98BCE5"/>
<path d="M21.5837 8.40722C21.143 7.60119 20.8918 6.67679 20.8918 5.69328C20.8918 3.12342 22.6016 0.954003 24.9454 0.259222C24.434 0.107625 23.8925 0.0258789 23.3319 0.0258789C20.202 0.0258789 17.6651 2.5628 17.6651 5.69328C17.6651 7.57926 18.5865 9.24963 20.0034 10.2797L21.5837 8.40722Z" fill="#7BACDF"/>
<path d="M23.3322 9.61048C21.172 9.61048 19.4146 7.85306 19.4146 5.69286C19.4146 3.53237 21.172 1.77466 23.3322 1.77466C25.4927 1.77466 27.2504 3.53237 27.2504 5.69286C27.2504 7.85306 25.4927 9.61048 23.3322 9.61048Z" fill="#5F99D7"/>
<path d="M22.3493 9.48555C21.4437 8.48128 20.892 7.15177 20.892 5.69288C20.892 4.2337 21.4437 2.90396 22.3494 1.89963C20.6633 2.33687 19.4146 3.87173 19.4146 5.69288C19.4146 7.51374 20.6633 9.04837 22.3493 9.48555Z" fill="#3C87D0"/>
<path d="M23.3323 6.65552C25.1689 6.65552 26.6575 8.14408 26.6575 9.98074L26.6603 10.2804C25.7169 10.983 24.5998 11.3597 23.3323 11.3597C22.0653 11.3597 20.9475 10.9823 20.0035 10.2797L20.007 9.98074C20.007 9.06241 20.379 8.23096 20.9813 7.62924C21.5831 7.02751 22.4139 6.65552 23.3323 6.65552Z" fill="#F37C7C"/>
<path d="M23.3322 1.77466C24.6803 1.77466 25.7729 2.86732 25.7729 4.21479C25.7729 5.56284 24.6803 6.6555 23.3322 6.6555C21.9848 6.6555 20.8921 5.56284 20.8921 4.21479C20.8921 2.86732 21.9848 1.77466 23.3322 1.77466Z" fill="#FFE5C2"/>
<path d="M21.3091 10.8358C21.3091 9.91748 21.6811 9.08603 22.2834 8.4843C22.8852 7.88258 23.716 7.51058 24.6344 7.51058C25.0279 7.51058 25.406 7.57904 25.7564 7.70451C25.1499 7.05894 24.2881 6.65552 23.3323 6.65552C22.4139 6.65552 21.5831 7.02751 20.9813 7.62924C20.379 8.23096 20.007 9.06241 20.007 9.98074L20.0035 10.2797C20.4069 10.5799 20.8426 10.8207 21.3075 10.9981L21.3091 10.8358Z" fill="#EE6161"/>
<path d="M22.5899 4.15007C22.5899 3.13437 23.2123 2.26356 24.0952 1.89623C23.8555 1.81757 23.5982 1.77466 23.3322 1.77466C21.9848 1.77466 20.8921 2.86732 20.8921 4.21479C20.8921 5.56284 21.9848 6.6555 23.3322 6.6555C23.6642 6.6555 23.9806 6.58903 24.269 6.46904C23.2943 6.14911 22.5899 5.23212 22.5899 4.15007Z" fill="#FED2A4"/>
<path d="M23.3336 17.6394C20.2037 17.6394 17.6667 20.1769 17.6667 23.3068C17.6667 25.1946 18.5898 26.8664 20.009 27.8964L20.5492 27.6653L26.3203 27.7823L26.6584 27.8965C28.0779 26.8666 29.001 25.1946 29.001 23.3068C29.001 20.1769 26.464 17.6394 23.3336 17.6394Z" fill="#98BCE5"/>
<path d="M21.4566 26.0313C21.0129 25.2231 20.76 24.2953 20.76 23.3082C20.76 20.7148 22.5018 18.5281 24.8794 17.8547C24.3875 17.7154 23.8684 17.6408 23.3318 17.6408C20.2019 17.6408 17.665 20.1783 17.665 23.3082C17.665 25.1958 18.5879 26.8676 20.0069 27.8976L21.4566 26.0313Z" fill="#7BACDF"/>
<path d="M23.3321 27.225C21.1719 27.225 19.4145 25.4673 19.4145 23.3068C19.4145 21.1463 21.1719 19.3886 23.3321 19.3886C25.4926 19.3886 27.2503 21.1463 27.2503 23.3068C27.2503 25.4673 25.4927 27.225 23.3321 27.225Z" fill="#5F99D7"/>
<path d="M22.1734 27.0499C21.2942 26.0514 20.7603 24.7417 20.7603 23.3067C20.7603 21.8718 21.2925 20.5625 22.1717 19.5641C20.5754 20.0594 19.4146 21.5495 19.4146 23.3067C19.4146 25.0639 20.5771 26.5546 22.1734 27.0499Z" fill="#3C87D0"/>
<path d="M23.3324 24.2699C24.6803 24.2699 25.773 23.1772 25.773 21.8293C25.773 20.4815 24.6803 19.3888 23.3324 19.3888C21.9846 19.3888 20.8919 20.4815 20.8919 21.8293C20.8919 23.1772 21.9846 24.2699 23.3324 24.2699Z" fill="#FFE5C2"/>
<path d="M22.3893 21.8293C22.3893 20.7427 23.1011 19.8224 24.0826 19.5062C23.8466 19.4302 23.5937 19.3888 23.3324 19.3888C21.9846 19.3888 20.8919 20.4815 20.8919 21.8293C20.8919 23.1772 21.9846 24.2699 23.3324 24.2699C23.5937 24.2699 23.8466 24.2284 24.0826 24.1524C23.1011 23.8363 22.3893 22.9159 22.3893 21.8293Z" fill="#FED2A4"/>
<path d="M26.6575 27.8966C25.724 28.5747 24.5748 28.9741 23.3322 28.9741C22.0897 28.9741 20.9411 28.5741 20.007 27.8966V27.5952C20.007 26.6768 20.379 25.8454 20.9813 25.2436C21.583 24.6419 22.4139 24.2699 23.3322 24.2699C25.1689 24.2699 26.6575 25.7585 26.6575 27.5952V27.8966Z" fill="#FEE97D"/>
<path d="M21.2726 28.4221C21.2726 27.5038 21.6446 26.6723 22.2469 26.0706C22.8486 25.4689 23.6795 25.0969 24.5978 25.0969C24.9967 25.0969 25.3805 25.1675 25.7348 25.2962C25.1295 24.6643 24.2765 24.2699 23.3322 24.2699C22.4139 24.2699 21.583 24.6419 20.9813 25.2436C20.379 25.8454 20.007 26.6768 20.007 27.5952V27.8966C20.3946 28.1778 20.8204 28.4116 21.2733 28.5884L21.2726 28.4221Z" fill="#FEE45A"/>
</g>
<defs>
<clipPath id="clip0_40_372">
<rect width="29" height="29" fill="white"/>
</clipPath>
</defs>
</svg>
