<svg width="25" height="25" viewBox="0 0 25 25" fill="none" xmlns="http://www.w3.org/2000/svg">
<path d="M22.0751 11.8717L12.8851 21.0617C11.7592 22.1875 10.2322 22.82 8.64006 22.82C7.04787 22.82 5.5209 22.1875 4.39506 21.0617C3.26921 19.9359 2.63672 18.4089 2.63672 16.8167C2.63672 15.2245 3.26921 13.6975 4.39506 12.5717L13.5851 3.3817C14.3356 2.63113 15.3536 2.20947 16.4151 2.20947C17.4765 2.20947 18.4945 2.63113 19.2451 3.3817C19.9956 4.13226 20.4173 5.15024 20.4173 6.2117C20.4173 7.27315 19.9956 8.29113 19.2451 9.0417L10.0451 18.2317C9.66977 18.607 9.16078 18.8178 8.63006 18.8178C8.09933 18.8178 7.59034 18.607 7.21506 18.2317C6.83977 17.8564 6.62894 17.3474 6.62894 16.8167C6.62894 16.286 6.83977 15.777 7.21506 15.4017L15.7051 6.9217" stroke="white" stroke-width="2" stroke-linecap="round" stroke-linejoin="round"/>
</svg>
