<svg width="25" height="25" viewBox="0 0 25 25" fill="none" xmlns="http://www.w3.org/2000/svg">
<path d="M22.0751 11.8718L12.8851 21.0618C11.7592 22.1876 10.2322 22.8201 8.64006 22.8201C7.04787 22.8201 5.5209 22.1876 4.39506 21.0618C3.26921 19.9359 2.63672 18.4089 2.63672 16.8168C2.63672 15.2246 3.26921 13.6976 4.39506 12.5718L13.5851 3.38176C14.3356 2.6312 15.3536 2.20953 16.4151 2.20953C17.4765 2.20953 18.4945 2.6312 19.2451 3.38176C19.9956 4.13232 20.4173 5.1503 20.4173 6.21176C20.4173 7.27321 19.9956 8.2912 19.2451 9.04176L10.0451 18.2318C9.66977 18.607 9.16078 18.8179 8.63006 18.8179C8.09933 18.8179 7.59034 18.607 7.21506 18.2318C6.83977 17.8565 6.62894 17.3475 6.62894 16.8168C6.62894 16.286 6.83977 15.777 7.21506 15.4018L15.7051 6.92176" stroke="white" stroke-width="2" stroke-linecap="round" stroke-linejoin="round"/>
</svg>
