<svg width="23" height="23" viewBox="0 0 23 23" fill="none" xmlns="http://www.w3.org/2000/svg">
<g clip-path="url(#clip0_69_1136)">
<path d="M11.5 0C5.15905 0 0 5.1591 0 11.5C0 17.8409 5.15905 23 11.5 23C14.5716 23 17.4974 21.7614 19.6694 19.5889C20.0304 19.2279 19.9897 18.6221 19.6236 18.2627L17.8086 16.4745C18.1999 15.9384 18.2514 15.2863 17.9285 14.6668C17.488 13.8209 16.8335 13.144 15.9847 12.6556C15.6573 12.4665 15.3478 12.3741 15.0397 12.3744C14.9197 12.3744 14.7987 12.3891 14.6809 12.4169C14.2893 12.5124 13.9127 12.6958 13.5299 12.9774C13.4101 13.0673 13.2619 13.1121 13.0916 13.1121C12.8838 13.1121 12.659 13.0406 12.5048 12.9263C11.3868 12.0929 10.4388 11.1441 9.60542 10.0268C9.44221 9.80694 9.31182 9.32875 9.55356 9.00059C9.83626 8.61827 10.019 8.2424 10.114 7.84993C10.2163 7.42706 10.1381 7.00074 9.87606 6.5478C9.38739 5.69743 8.71035 5.04377 7.86452 4.60276C7.59051 4.45998 7.31005 4.38693 7.03039 4.38693C6.56426 4.38693 6.12746 4.59037 5.76805 4.97306C5.43769 5.32489 5.14554 5.69748 4.80877 6.14817C4.50015 6.56094 4.52573 7.03764 4.54753 7.45784L4.54828 7.46654C4.5863 8.00038 4.78552 8.63113 5.1576 9.39497C5.78652 10.6889 6.67973 11.9174 7.88833 13.1504C8.13675 13.4041 9.12658 14.3943 9.38071 14.6427C10.6144 15.8516 11.8429 16.7449 13.1361 17.3738C13.9003 17.7456 14.5311 17.9448 15.0646 17.9831L15.0736 17.9835C15.1834 17.9887 15.3006 17.9947 15.4149 17.9947C15.6875 17.9947 16.0367 17.9617 16.3517 17.7414L17.5459 18.9181C15.8419 20.3119 13.7308 21.0754 11.5001 21.0754C6.22038 21.0754 1.92484 16.7798 1.92484 11.5001C1.92484 6.22034 6.22043 1.92474 11.5001 1.92474C16.7799 1.92474 21.0755 6.22034 21.0755 11.5001C21.0755 12.0316 21.5063 12.4624 22.0378 12.4624C22.5694 12.4624 23.0002 12.0316 23.0002 11.5001C23 5.1591 17.8409 0 11.5 0Z" fill="#7A7A7A"/>
</g>
<defs>
<clipPath id="clip0_69_1136">
<rect width="23" height="23" fill="white"/>
</clipPath>
</defs>
</svg>
