<svg width="24" height="24" viewBox="0 0 24 24" fill="none" xmlns="http://www.w3.org/2000/svg">
<path d="M17.25 0H2.75C1.233 0 0 1.233 0 2.75V21.25C0 22.767 1.233 24 2.75 24H17.25C18.767 24 20 22.767 20 21.25V2.75C20 1.233 18.767 0 17.25 0ZM8.75 13V8.076C11.15 8.441 13 10.5 13 13C13 15.757 10.757 18 8 18C6.892 18 5.877 17.626 5.047 17.013L8.53 13.53C8.671 13.39 8.75 13.199 8.75 13ZM7.25 8.076V12.69L3.987 15.953C3.374 15.123 3 14.108 3 13C3 10.5 4.85 8.441 7.25 8.076ZM16.25 21.25H3.75C3.336 21.25 3 20.914 3 20.5C3 20.086 3.336 19.75 3.75 19.75H16.25C16.664 19.75 17 20.086 17 20.5C17 20.914 16.664 21.25 16.25 21.25ZM16.25 18H14.75C14.336 18 14 17.664 14 17.25C14 16.836 14.336 16.5 14.75 16.5H16.25C16.664 16.5 17 16.836 17 17.25C17 17.664 16.664 18 16.25 18ZM16.25 15.25H14.75C14.336 15.25 14 14.914 14 14.5C14 14.086 14.336 13.75 14.75 13.75H16.25C16.664 13.75 17 14.086 17 14.5C17 14.914 16.664 15.25 16.25 15.25ZM16.25 12.25H14.75C14.336 12.25 14 11.914 14 11.5C14 11.086 14.336 10.75 14.75 10.75H16.25C16.664 10.75 17 11.086 17 11.5C17 11.914 16.664 12.25 16.25 12.25ZM16.25 9.5H14.75C14.336 9.5 14 9.164 14 8.75C14 8.336 14.336 8 14.75 8H16.25C16.664 8 17 8.336 17 8.75C17 9.164 16.664 9.5 16.25 9.5Z" fill="#FFE377"/>
</svg>
