<svg width="49" height="49" viewBox="0 0 49 49" fill="none" xmlns="http://www.w3.org/2000/svg">
<g clip-path="url(#clip0_171_2328)">
<path d="M24.5 4C13.1958 4 4 13.1958 4 24.5C4 35.8042 13.1958 45 24.5 45C35.8042 45 45 35.8042 45 24.5C45 13.1958 35.8042 4 24.5 4Z" fill="#2196F3"/>
<path d="M33.469 26.2082H26.2085V33.4687C26.2085 34.4118 25.4433 35.177 24.5002 35.177C23.5571 35.177 22.792 34.4118 22.792 33.4687V26.2082H15.5315C14.5884 26.2082 13.8232 25.4431 13.8232 24.5C13.8232 23.5569 14.5884 22.7917 15.5315 22.7917H22.792V15.5312C22.792 14.5881 23.5571 13.823 24.5002 13.823C25.4433 13.823 26.2085 14.5881 26.2085 15.5312V22.7917H33.469C34.4121 22.7917 35.1772 23.5569 35.1772 24.5C35.1772 25.4431 34.4121 26.2082 33.469 26.2082Z" fill="#FAFAFA"/>
</g>
<defs>
<clipPath id="clip0_171_2328">
<rect width="41" height="41" fill="white" transform="translate(4 4)"/>
</clipPath>
</defs>
</svg>
