<svg width="49" height="49" viewBox="0 0 49 49" fill="none" xmlns="http://www.w3.org/2000/svg">
<g clip-path="url(#clip0_175_3449)">
<path d="M24.5 4C13.1958 4 4 13.1958 4 24.5C4 35.8042 13.1958 45 24.5 45C35.8042 45 45 35.8042 45 24.5C45 13.1958 35.8042 4 24.5 4Z" fill="#D92550"/>
<path d="M26.2085 26.2085H33.469C34.4121 26.2085 35.1772 25.4433 35.1772 24.5002C35.1772 23.5571 34.4121 22.792 33.469 22.792H26.2085H15.5315C14.5884 22.792 13.8232 23.5571 13.8232 24.5002C13.8232 25.4433 14.5884 26.2085 15.5315 26.2085H26.2085Z" fill="white"/>
</g>
<defs>
<clipPath id="clip0_175_3449">
<rect width="41" height="41" fill="white" transform="translate(4 4)"/>
</clipPath>
</defs>
</svg>
