<svg width="49" height="49" viewBox="0 0 49 49" fill="none" xmlns="http://www.w3.org/2000/svg">
<g clip-path="url(#clip0_175_3106)">
<path d="M24.5 4C13.1958 4 4 13.1958 4 24.5C4 35.8042 13.1958 45 24.5 45C35.8042 45 45 35.8042 45 24.5C45 13.1958 35.8042 4 24.5 4Z" fill="#2196F3"/>
<path d="M33.469 26.2085H26.2085V33.469C26.2085 34.4121 25.4433 35.1772 24.5002 35.1772C23.5571 35.1772 22.792 34.4121 22.792 33.469V26.2085H15.5315C14.5884 26.2085 13.8232 25.4433 13.8232 24.5002C13.8232 23.5571 14.5884 22.792 15.5315 22.792H22.792V15.5315C22.792 14.5884 23.5571 13.8232 24.5002 13.8232C25.4433 13.8232 26.2085 14.5884 26.2085 15.5315V22.792H33.469C34.4121 22.792 35.1772 23.5571 35.1772 24.5002C35.1772 25.4433 34.4121 26.2085 33.469 26.2085Z" fill="#FAFAFA"/>
</g>
<defs>
<clipPath id="clip0_175_3106">
<rect width="41" height="41" fill="white" transform="translate(4 4)"/>
</clipPath>
</defs>
</svg>
