<svg width="24" height="24" viewBox="0 0 24 24" fill="none" xmlns="http://www.w3.org/2000/svg">
<g clip-path="url(#clip0_40_325)">
<path d="M21.5032 23.4L19.3034 13.6009H18.3035L20.5533 23.6C20.6033 23.75 20.6532 23.85 20.7533 23.9C20.8533 23.95 20.9033 23.95 21.0032 23.95C21.0532 23.95 21.0532 23.95 21.1032 23.95C21.4031 23.95 21.5531 23.65 21.5032 23.4Z" fill="#344A5E"/>
<path d="M12.9539 13.5509L10.7541 23.4C10.7041 23.65 10.8541 23.9 11.1041 23.95C11.1541 23.95 11.1541 23.95 11.2041 23.95C11.304 23.95 11.404 23.95 11.454 23.9C11.554 23.8499 11.654 23.7 11.654 23.6L13.9038 13.5009H12.9539V13.5509Z" fill="#344A5E"/>
<path d="M15.7536 13.6009L15.5536 22.5501C15.5536 22.8001 15.7536 23.0501 16.0036 23.0501C16.2536 23.0501 16.4536 22.8501 16.5036 22.6001L16.7036 13.6009H15.7536Z" fill="#344A5E"/>
<path d="M10.8541 1.40204L22.003 1.70201L21.7031 14.3009L10.5541 13.9509L10.8541 1.40204Z" fill="#E8EAE9"/>
<path d="M22.653 1.40198C22.653 1.55197 22.6029 1.70196 22.453 1.80193C22.353 1.95192 22.203 2.00193 22.053 2.00193L10.854 1.65194C10.704 1.65194 10.554 1.60193 10.4541 1.45195C10.3541 1.35197 10.3041 1.20198 10.3041 1.00199C10.3041 0.652001 10.6041 0.402039 10.904 0.402039L22.0531 0.752023C22.403 0.802035 22.653 1.10201 22.653 1.40198Z" fill="#F3705A"/>
<path d="M22.303 14.6508C22.303 14.8007 22.253 14.9507 22.103 15.0507C22.003 15.1507 21.853 15.2007 21.703 15.2007L10.504 14.9007C10.3541 14.9007 10.2041 14.8507 10.1041 14.7007C10.0041 14.6008 9.9541 14.4508 9.9541 14.2508C9.9541 13.9008 10.2541 13.6508 10.554 13.6508L21.7031 14.0008C22.053 14.0508 22.303 14.3508 22.303 14.6508Z" fill="#F3705A"/>
<path d="M7.50429 2.10198C7.45428 2.30197 7.30429 2.45196 7.20431 2.45196C7.10434 2.40195 7.05433 2.25196 7.10434 2.05201C7.15435 1.85206 7.30434 1.70203 7.40431 1.70203C7.5543 1.70203 7.60426 1.90198 7.50429 2.10198Z" fill="#FFD15C"/>
<path d="M5.1045 2.10194C5.15451 2.30194 5.30449 2.45192 5.40447 2.45192C5.55446 2.40191 5.55446 2.20196 5.50444 2.00196C5.45443 1.80196 5.30445 1.65198 5.20447 1.65198C5.05449 1.70199 5.05449 1.90194 5.1045 2.10194Z" fill="#FFD15C"/>
<path d="M5.00451 3.7518L5.55445 3.25183C5.55445 3.25183 5.40446 2.65188 5.40446 2.50189C5.40446 2.3519 5.05448 1.45198 5.20446 1.00202C5.35445 0.552062 5.30444 0.202077 6.05437 0.152113C6.80431 0.102148 6.9543 0.402075 7.20426 0.652085C7.45422 0.952058 7.40426 1.85198 7.40426 2.00197C7.40426 2.15195 7.25427 2.9519 7.05427 3.30184V3.5518L7.60421 4.50173V5.45166L7.05427 5.50167L4.65448 5.0017L5.00451 3.7518Z" fill="#FFD15C"/>
<path d="M7.60431 4.50169L7.00436 3.60177V3.35181C7.00436 3.35181 6.20442 4.05173 5.5545 3.25183C5.5545 3.25183 6.00447 4.40171 7.65432 4.70169L7.60431 4.50169Z" fill="#F7B64C"/>
<path d="M11.304 7.35146C11.304 7.35146 11.804 7.15146 11.854 7.1015C11.9539 7.05149 12.0039 6.95151 12.1539 6.9015C12.3039 6.85149 12.5039 6.7015 12.6039 6.7015C12.7039 6.7015 12.8538 6.65149 12.9039 6.65149C12.9539 6.65149 13.3538 6.80148 13.3538 6.80148C13.3538 6.80148 13.3538 7.00147 13.2038 7.00147C13.1538 7.00147 12.7539 6.9015 12.7039 6.9015C12.6539 6.9015 12.8538 6.95151 12.8538 6.95151C12.8538 6.95151 13.2538 7.00152 13.3038 7.00152C13.3038 7.00152 13.3038 7.00152 13.3538 7.00152C13.4038 6.95151 13.5038 7.00152 13.5038 7.1015C13.5038 7.15151 13.5038 7.15151 13.4538 7.20147C13.4038 7.20147 13.3538 7.25148 13.3538 7.25148C13.3538 7.25148 13.3038 7.25148 13.2538 7.25148C13.2039 7.25148 13.2538 7.35146 13.2538 7.40147C13.2538 7.45148 13.2038 7.45148 13.2038 7.45148C13.1538 7.45148 13.1039 7.45148 13.1039 7.45148C13.1039 7.45148 13.1039 7.55146 13.0538 7.60147C13.0038 7.65148 13.0038 7.60147 13.0038 7.60147C13.0038 7.60147 13.0538 7.75146 12.8038 7.85143C12.6038 7.95141 12.0539 7.95141 11.9539 7.95141C11.854 7.9014 11.404 8.20137 11.404 8.20137L11.304 7.35146Z" fill="#FFD15C"/>
<path d="M5.75451 23.95C5.85449 23.95 5.9045 23.9 5.95451 23.85C6.00452 23.8 6.00452 23.6001 5.95451 23.4501C5.85453 23.2001 5.85453 23.3001 5.85453 23.3001L4.50465 23.3501C4.50465 23.3501 4.45464 23.5501 4.50465 23.7001C4.55466 23.8501 4.70465 23.9001 4.85463 23.9001C5.10455 23.9 5.55451 23.95 5.75451 23.95Z" fill="#344A5E"/>
<path d="M4.55459 22.5001C4.55459 22.5001 4.50458 22.8501 4.45461 23.1001C4.4046 23.35 4.45461 23.6 4.50463 23.7C4.6046 23.8 5.0046 23.75 5.25456 23.75C5.50452 23.75 5.65451 23.8 5.8045 23.75C5.95448 23.75 5.90447 23.3001 5.8045 23.0501C5.70452 22.8001 5.55453 22.6001 5.55453 22.3502C5.55453 22.1002 5.55453 22.1002 5.55453 22.1002L4.55459 22.5001Z" fill="#415A6B"/>
<path d="M9.0542 23.6001L9.20418 23.7001C9.20418 23.7001 9.25419 23.7501 9.20418 23.85C9.20418 23.85 9.10421 23.85 8.95422 23.95C8.75422 24 8.50426 24 8.20428 24C7.90431 23.95 7.80433 23.8 7.70431 23.7001C7.60429 23.6001 7.45435 23.5501 7.45435 23.5501V23.65H6.8544C6.8544 23.65 6.75442 23.3501 6.95438 23.1501C7.15437 22.9501 7.15437 22.9501 7.15437 22.9501C7.20434 22.9501 9.0542 23.6001 9.0542 23.6001Z" fill="#344A5E"/>
<path d="M8.10429 22.3001C8.10429 22.3001 8.35425 22.5001 8.45428 22.7001C8.5543 22.9 8.55425 23.15 8.75425 23.25C8.95425 23.35 9.20421 23.55 9.20421 23.6499C9.20421 23.6499 8.95425 23.6499 8.70424 23.7499C8.45428 23.8499 8.05428 23.8499 7.90429 23.6999C7.75431 23.5999 7.65433 23.3999 7.40432 23.3499C7.15436 23.25 6.90435 23.3499 6.85439 23.25C6.80438 23.1 6.85439 22.55 7.00437 22.35C7.20437 22.2001 8.10429 22.3001 8.10429 22.3001Z" fill="#415A6B"/>
<path d="M8.30425 5.20167L8.7042 4.85168C8.7042 4.85168 8.85418 5.45163 8.85418 5.90159C8.85418 6.35155 8.75421 6.55155 8.85418 6.70154C8.95416 6.85153 9.30414 7.25147 9.30414 7.50148C9.30414 7.75145 9.35415 7.80146 9.50414 7.75145C9.65413 7.70144 10.2041 7.60146 10.3541 7.55145C10.454 7.50144 11.5039 7.20146 11.5039 7.20146C11.5039 7.20146 11.4539 8.25137 12.0039 8.40136C12.0039 8.40136 10.4041 8.95129 10.1041 9.00131C9.80411 9.05132 9.20417 9.25127 9.05418 9.25127C8.90419 9.25127 8.60422 9.20126 8.45423 9.00131C8.30425 8.80136 8.10425 8.45137 8.10425 8.30138C8.15426 8.15144 8.30425 5.20167 8.30425 5.20167Z" fill="#344A5E"/>
<path d="M8.25419 10.4012C8.25419 10.4012 7.00429 11.1511 5.65441 11.0011C4.30453 10.8512 4.15454 10.8512 4.15454 10.8011C4.15454 10.7511 4.85446 6.10154 5.10447 4.25173H5.35443C5.50442 4.65168 5.90437 4.85168 6.30437 4.85168C6.75433 4.85168 7.10431 4.60172 7.2543 4.20172H7.35427L7.95422 8.20135L8.25419 10.4012Z" fill="#8AD7F8"/>
<path d="M3.9046 10.7511C5.65443 11.1511 7.20431 11.1511 8.25422 10.4011C8.25422 10.4011 8.80416 12.001 8.80416 12.251C8.80416 12.501 8.70418 12.451 8.70418 12.8509C8.70418 13.2509 8.70418 15.9506 8.65417 16.4506C8.60416 16.9506 8.50418 17.6005 8.55419 17.8005C8.6042 18.0005 8.75419 18.6504 8.75419 19.2503C8.75419 19.8503 8.45422 21.7501 8.40421 21.9501C8.3542 22.1501 8.45422 22.5 8.45422 22.5C8.45422 22.5 7.95425 22.3501 7.70428 22.6C7.45432 22.8 7.05432 22.85 6.90434 22.6C6.90434 22.6 6.90434 21.5001 7.00431 21.0002C7.10429 20.5002 7.00431 18.8504 7.00431 18.4504C7.00431 18.0505 7.00431 17.7005 6.9543 17.2005C6.90429 16.7005 6.7543 15.5506 6.70434 15.4007C6.65433 15.2507 6.40437 14.4008 6.40437 14.4008C6.40437 14.4008 6.35435 15.0007 6.20437 15.5506C6.05438 16.1006 5.80442 16.9505 5.75441 17.1005C5.7044 17.3005 5.55441 18.5504 5.55441 19.0003C5.55441 19.4503 5.7044 20.1003 5.75441 20.5002C5.80442 20.8502 5.80442 22.1 5.80442 22.3C5.80442 22.5 5.80442 22.6 5.80442 22.6C5.80442 22.6 5.65443 22.4 5.30445 22.4C4.95446 22.4 4.65449 22.7 4.65449 22.7C4.65449 22.7 4.25454 22.25 4.25454 22.0001C4.25454 21.7501 4.05454 21.4501 4.00458 20.9502C3.95457 20.4502 3.95457 18.6004 4.00458 17.9504C4.05459 17.3005 3.9046 15.7506 3.80458 14.8007C3.75461 13.9008 3.60463 11.701 3.9046 10.7511Z" fill="#344A5E"/>
<path d="M7.00439 3.60181C7.00439 3.60181 7.30437 4.15174 7.30437 4.70172C7.35438 5.25166 7.50437 7.4515 7.60434 8.15142C7.70432 8.90135 8.00429 10.7012 8.00429 11.2012C8.0543 11.7011 7.95428 12.1011 8.30427 12.2511C8.65425 12.4011 8.90421 12.2511 8.90421 12.2511C8.90421 12.2511 8.55423 11.5011 8.50426 11.0512C8.50426 10.6012 8.20429 9.05134 8.20429 9.05134C8.20429 9.05134 8.40429 7.0515 8.55427 6.60154C8.65425 6.10157 8.70426 4.85171 8.70426 4.85171C8.70426 4.85171 7.50437 4.15179 7.30437 3.90178C7.10442 3.65182 7.00439 3.60181 7.00439 3.60181Z" fill="#415A6B"/>
<path d="M3.50466 9.00129C3.30466 9.0513 3.15467 9.35128 3.10471 9.65125C3.0547 9.95122 3.00473 10.3012 3.00473 10.3012C3.00473 10.3012 2.20479 9.4513 1.95483 9.20129C1.70486 8.95133 1.45486 8.45135 1.35488 8.20139C1.30487 8.00139 1.50487 7.40145 1.65485 7.15148C1.80484 6.90152 2.30481 5.8016 2.55477 5.25167C2.80474 4.70173 3.05475 4.25177 3.05475 4.25177C3.05475 4.25177 3.30471 4.90173 3.35472 5.45167C3.40473 5.75164 3.35472 6.25161 3.35472 6.60155C3.35472 6.60155 3.25474 6.80155 3.20473 6.95153C3.15472 7.15153 2.6548 7.80144 2.6548 7.80144C2.6548 7.80144 2.6548 7.85145 2.70481 8.00144C2.75482 8.15143 2.85479 8.2514 3.00478 8.35143C3.05479 8.40144 3.10476 8.50141 3.20478 8.55142C3.40464 8.80129 3.50466 9.00129 3.50466 9.00129Z" fill="#344A5E"/>
<path d="M15.1036 4.90162L12.1539 7.75137C12.1039 7.80138 12.1039 7.90136 12.1539 7.95137C12.2039 8.00138 12.3039 8.00138 12.3539 7.95137L15.2036 5.05161C15.3036 4.95163 15.1536 4.80164 15.1036 4.90162Z" fill="#344A5E"/>
<path d="M12.5039 7.85146H12.5539C12.7039 7.75148 12.8539 7.65146 12.9539 7.50147C13.0538 7.4015 13.1039 7.25151 13.1539 7.10152C13.0539 7.10152 12.9539 7.10152 12.8539 7.05151C12.8039 7.05151 12.8039 7.05151 12.7539 7.05151C12.7039 7.05151 12.7039 7.05151 12.7039 7.10152C12.7039 7.15154 12.7039 7.15154 12.7039 7.2015C12.7039 7.25146 12.7539 7.25151 12.7539 7.30148C12.7039 7.30148 12.7039 7.30148 12.6539 7.30148C12.6039 7.30148 12.554 7.35149 12.554 7.35149C12.554 7.4015 12.554 7.45146 12.554 7.50147C12.504 7.50147 12.404 7.50147 12.354 7.50147C12.304 7.55149 12.304 7.60145 12.304 7.65146C12.3539 7.75144 12.4039 7.80145 12.5039 7.85146Z" fill="#FFD15C"/>
<path d="M5.30457 2.00197C5.30457 2.00197 5.35458 1.502 5.30457 1.25204C5.25456 1.00207 5.60455 0.552113 5.85451 0.7021C6.10447 0.852086 6.50447 0.852086 6.65445 0.652088C6.80444 0.45209 7.2544 0.802075 7.2544 1.15206C7.2544 1.50204 7.2544 1.85198 7.2544 1.95201H7.30441C7.35442 1.85203 7.50441 1.40207 7.4544 1.15206C7.4544 0.802075 7.10441 -0.0478347 6.20449 0.00217654C5.30457 0.0521878 5.05461 0.802122 5.0046 1.25208C4.95459 1.502 5.15459 1.80197 5.30457 2.00197Z" fill="#415A6B"/>
<path d="M5.50454 3.25183C5.50454 3.25183 5.30454 3.90179 5.35455 4.45173C5.40456 5.00166 5.40456 7.60145 5.40456 7.90142C5.40456 8.2014 5.05458 10.7512 4.90459 11.1511C4.7546 11.5011 4.40462 12.351 3.85468 12.351C3.30474 12.351 2.75476 12.001 2.75476 12.001C2.75476 12.001 3.40472 8.0014 3.3047 7.15144C3.3047 7.15144 3.45468 6.10153 3.35471 5.5516C3.25473 5.00166 3.05473 4.3517 3.05473 4.3517C3.05473 4.3517 4.20462 3.90174 4.60461 3.85173C5.00461 3.80172 5.1546 3.40182 5.50454 3.25183Z" fill="#415A6B"/>
</g>
<defs>
<clipPath id="clip0_40_325">
<rect width="24" height="24" fill="white"/>
</clipPath>
</defs>
</svg>
