<svg width="31" height="31" viewBox="0 0 31 31" fill="none" xmlns="http://www.w3.org/2000/svg">
<path d="M28.1466 1.9375H14.5271C12.951 1.9375 11.6736 3.21513 11.6736 4.79101V11.4996C12.3935 11.8575 13.1714 12.2444 13.8975 12.6053L15.0084 10.3826C15.681 9.03851 17.3208 8.49241 18.6644 9.16386C20.0108 9.83768 20.5565 11.4729 19.8824 12.8196L17.9021 16.7812C17.9546 17.3055 17.908 17.8341 17.7602 18.3457H19.0676L15.6193 27.8279C15.4147 28.3903 15.8102 29.0467 16.4731 29.0467C16.8437 29.0467 17.1923 28.8179 17.3262 28.4485L21.0002 18.3457H21.6366L25.348 28.4516C25.483 28.8191 25.8307 29.0467 26.201 29.0467C26.8205 29.0467 27.2746 28.4279 27.053 27.8255L23.5715 18.3457H28.1466C29.7225 18.3457 31.0001 17.0681 31.0001 15.4922V4.79101C31.0001 3.21513 29.7225 1.9375 28.1466 1.9375V1.9375ZM26.2006 14.4549H22.1257C21.6243 14.4549 21.2175 14.0481 21.2175 13.5467C21.2175 13.0448 21.6243 12.6385 22.1257 12.6385H26.2006C26.7025 12.6385 27.1088 13.0448 27.1088 13.5467C27.1088 14.0481 26.7025 14.4549 26.2006 14.4549ZM26.2006 11.0498H22.1257C21.6243 11.0498 21.2175 10.6435 21.2175 10.1416C21.2175 9.6402 21.6243 9.2334 22.1257 9.2334H26.2006C26.7025 9.2334 27.1088 9.6402 27.1088 10.1416C27.1088 10.6435 26.7025 11.0498 26.2006 11.0498ZM26.2006 7.64523H16.4731C15.9712 7.64523 15.5649 7.23843 15.5649 6.73702C15.5649 6.23562 15.9712 5.82882 16.4731 5.82882H26.2006C26.7025 5.82882 27.1088 6.23562 27.1088 6.73702C27.1088 7.23843 26.7025 7.64523 26.2006 7.64523Z" fill="white"/>
<path d="M15.9796 17.9562C16.1438 17.4753 16.1426 16.973 16.004 16.5146L18.258 12.0072C18.4822 11.5585 18.3005 11.0129 17.8519 10.7887C17.4034 10.5642 16.8578 10.7461 16.6334 11.1948L14.711 15.039C13.562 14.4669 11.8163 13.5989 10.41 12.8996C9.10166 12.2489 8.16791 11.6654 6.57478 11.6654H5.77229C7.01279 11.6654 8.1199 11.0945 8.84457 10.201C9.39754 9.521 9.72818 8.65442 9.72818 7.71003C9.72818 5.5249 7.95718 3.75391 5.77182 3.75391C3.5874 3.75391 1.81641 5.5249 1.81641 7.71003C1.81641 8.75943 2.2251 9.71304 2.89182 10.4207C3.61271 11.1872 4.63657 11.6654 5.77158 11.6657C4.24987 11.6657 2.76221 12.2823 1.692 13.3553C0.600975 14.4435 0 15.8933 0 17.4377V20.356C0 21.6124 0.815727 22.6814 1.94554 23.0617V28.1382C1.94554 28.6399 2.3521 29.0464 2.85374 29.0464H8.69037C9.19201 29.0464 9.59857 28.6399 9.59857 28.1382V17.9339C10.4597 18.3644 11.5909 18.9299 12.5062 19.3878C13.1479 19.7085 13.8976 19.7373 14.5663 19.4653C15.233 19.191 15.7469 18.6449 15.9761 17.9668C15.9773 17.9633 15.9785 17.9597 15.9796 17.9562Z" fill="white"/>
</svg>
