<svg width="66" height="63" viewBox="0 0 66 63" fill="none" xmlns="http://www.w3.org/2000/svg">
<g filter="url(#filter0_i_69_241)">
<path d="M33 20.918C39.0514 20.918 43.957 16.2353 43.957 10.459C43.957 4.68265 39.0514 0 33 0C26.9486 0 22.043 4.68265 22.043 10.459C22.043 16.2353 26.9486 20.918 33 20.918Z" fill="#3D8CD6"/>
<path d="M41.0514 22.3349C38.7314 23.7729 35.9663 24.6094 33 24.6094C30.0337 24.6094 27.2686 23.7729 24.9486 22.3349C22.3841 23.2704 20.0062 24.6506 17.9387 26.422L33 31.8133L48.0613 26.422C45.9937 24.6506 43.6159 23.2703 41.0514 22.3349Z" fill="#3D8CD6"/>
<path d="M56.2031 38.1445H54.9141C53.8462 38.1445 52.9805 38.9709 52.9805 39.9902V44.9121C52.9805 45.9314 53.8462 46.7578 54.9141 46.7578H56.2031C58.6949 46.7578 60.7148 44.8297 60.7148 42.4512C60.7148 40.0727 58.6949 38.1445 56.2031 38.1445Z" fill="#3D8CD6"/>
<path d="M11.2736 28.8269C10.7523 29.1718 10.4414 29.7386 10.4414 30.344V34.4531H11.0859C14.2845 34.4531 16.8867 36.9371 16.8867 39.9902V44.9121C16.8867 47.9653 14.2845 50.4492 11.0859 50.4492H10.4414V54.3381C10.4414 55.1075 10.9414 55.7962 11.6961 56.0663L31.0664 63V35.0634L13.0539 28.6158C12.4601 28.403 11.7948 28.4819 11.2736 28.8269Z" fill="#3D8CD6"/>
<path d="M49.1133 44.9121V39.9902C49.1133 36.9371 51.7155 34.4531 54.9141 34.4531H55.5586V30.344C55.5586 29.7386 55.2477 29.1718 54.7264 28.8269C54.2051 28.4819 53.5397 28.403 52.9461 28.6158L34.9336 35.0634V63L54.3039 56.0663C55.0586 55.7962 55.5586 55.1075 55.5586 54.3381V50.4492H54.9141C51.7155 50.4492 49.1133 47.9653 49.1133 44.9121Z" fill="#3D8CD6"/>
<path d="M13.0195 44.9121V39.9902C13.0195 38.9709 12.1538 38.1445 11.0859 38.1445H9.79687C7.30512 38.1445 5.28516 40.0727 5.28516 42.4512C5.28516 44.8297 7.30512 46.7578 9.79687 46.7578H11.0859C12.1538 46.7578 13.0195 45.9314 13.0195 44.9121Z" fill="#3D8CD6"/>
</g>
<defs>
<filter id="filter0_i_69_241" x="0" y="0" width="66" height="67" filterUnits="userSpaceOnUse" color-interpolation-filters="sRGB">
<feFlood flood-opacity="0" result="BackgroundImageFix"/>
<feBlend mode="normal" in="SourceGraphic" in2="BackgroundImageFix" result="shape"/>
<feColorMatrix in="SourceAlpha" type="matrix" values="0 0 0 0 0 0 0 0 0 0 0 0 0 0 0 0 0 0 127 0" result="hardAlpha"/>
<feOffset dy="4"/>
<feGaussianBlur stdDeviation="2"/>
<feComposite in2="hardAlpha" operator="arithmetic" k2="-1" k3="1"/>
<feColorMatrix type="matrix" values="0 0 0 0 0 0 0 0 0 0 0 0 0 0 0 0 0 0 0.25 0"/>
<feBlend mode="normal" in2="shape" result="effect1_innerShadow_69_241"/>
</filter>
</defs>
</svg>
