<svg width="66" height="64" viewBox="0 0 66 64" fill="none" xmlns="http://www.w3.org/2000/svg">
<g clip-path="url(#clip0_291_871)">
<path d="M33 21.4838C39.0514 21.4838 43.957 16.8011 43.957 11.0248C43.957 5.24844 39.0514 0.565796 33 0.565796C26.9486 0.565796 22.043 5.24844 22.043 11.0248C22.043 16.8011 26.9486 21.4838 33 21.4838Z" fill="#222222"/>
<path d="M41.0514 22.9007C38.7314 24.3387 35.9663 25.1752 33 25.1752C30.0337 25.1752 27.2686 24.3387 24.9486 22.9007C22.3841 23.8362 20.0062 25.2164 17.9387 26.9878L33 32.3791L48.0613 26.9878C45.9937 25.2164 43.6159 23.8361 41.0514 22.9007Z" fill="#222222"/>
<path d="M56.2031 38.7103H54.9141C53.8462 38.7103 52.9805 39.5367 52.9805 40.556V45.4779C52.9805 46.4972 53.8462 47.3236 54.9141 47.3236H56.2031C58.6949 47.3236 60.7148 45.3955 60.7148 43.017C60.7148 40.6385 58.6949 38.7103 56.2031 38.7103Z" fill="#222222"/>
<path d="M11.2736 29.3927C10.7523 29.7376 10.4414 30.3044 10.4414 30.9098V35.0189H11.0859C14.2845 35.0189 16.8867 37.5029 16.8867 40.556V45.4779C16.8867 48.5311 14.2845 51.015 11.0859 51.015H10.4414V54.9039C10.4414 55.6733 10.9414 56.362 11.6961 56.6321L31.0664 63.5658V35.6292L13.0539 29.1816C12.4601 28.9688 11.7948 29.0477 11.2736 29.3927Z" fill="#222222"/>
<path d="M49.1133 45.4779V40.556C49.1133 37.5029 51.7155 35.0189 54.9141 35.0189H55.5586V30.9098C55.5586 30.3044 55.2477 29.7376 54.7264 29.3927C54.2051 29.0477 53.5397 28.9688 52.9461 29.1816L34.9336 35.6292V63.5658L54.3039 56.6321C55.0586 56.362 55.5586 55.6733 55.5586 54.9039V51.015H54.9141C51.7155 51.015 49.1133 48.5311 49.1133 45.4779Z" fill="#222222"/>
<path d="M13.0195 45.4779V40.556C13.0195 39.5367 12.1538 38.7103 11.0859 38.7103H9.79687C7.30512 38.7103 5.28516 40.6385 5.28516 43.017C5.28516 45.3955 7.30512 47.3236 9.79687 47.3236H11.0859C12.1538 47.3236 13.0195 46.4972 13.0195 45.4779Z" fill="#222222"/>
</g>
<defs>
<clipPath id="clip0_291_871">
<rect width="66" height="63" fill="white" transform="translate(0 0.565796)"/>
</clipPath>
</defs>
</svg>
