<svg width="38" height="38" viewBox="0 0 38 38" fill="none" xmlns="http://www.w3.org/2000/svg">
<g clip-path="url(#clip0_69_1014)">
<path d="M27.499 3.11208H13.3546L10.1146 0.570312H0V25.2497C0 26.541 1.0124 27.6325 2.30327 27.6679C3.64251 27.7046 4.73976 26.6299 4.73976 25.2989V7.85184H27.4991V3.11208H27.499Z" fill="#3D8CD6"/>
<path d="M22.9171 28.7887C26.4755 28.7887 29.3601 25.9041 29.3601 22.3457C29.3601 18.7872 26.4755 15.9026 22.9171 15.9026C19.3587 15.9026 16.474 18.7872 16.474 22.3457C16.474 25.9041 19.3587 28.7887 22.9171 28.7887Z" fill="#3D8CD6"/>
<path d="M22.9171 13.6737C25.7593 13.6737 28.2863 15.0481 29.8689 17.1671V10.0808H6.9687V25.299C6.9687 26.1653 6.7276 26.9763 6.30945 27.6688H16.0758C14.9292 26.1984 14.245 24.3505 14.245 22.3456C14.2451 17.5639 18.1353 13.6737 22.9171 13.6737Z" fill="#3D8CD6"/>
<path d="M30.5621 26.4358C29.7528 27.9424 28.5113 29.1835 27.0043 29.9923L34.4425 37.4296L37.9999 33.8727L30.5621 26.4358Z" fill="#3D8CD6"/>
</g>
<defs>
<clipPath id="clip0_69_1014">
<rect width="38" height="38" fill="white"/>
</clipPath>
</defs>
</svg>
