<svg width="25" height="25" viewBox="0 0 25 25" fill="none" xmlns="http://www.w3.org/2000/svg">
<g clip-path="url(#clip0_180_4222)">
<path d="M22.3633 5.60102C21.3422 4.48043 20.0653 3.60253 18.6052 3.07578C18.4443 3.01769 18.2682 3.01774 18.1073 3.07574C16.6472 3.60248 15.3702 4.48038 14.3491 5.60102C15.5908 6.20683 16.9694 6.5262 18.3562 6.5262C19.7432 6.5262 21.1216 6.20683 22.3633 5.60102Z" fill="#FFE377"/>
<path d="M8.03174 7.33447V10.9243C9.57325 10.7531 10.9563 10.0491 11.992 9.00097C10.8957 8.08582 9.52944 7.48386 8.03174 7.33447Z" fill="#FFE377"/>
<path d="M6.56469 10.9243V7.33447C5.06698 7.48391 3.70073 8.08577 2.60449 9.00093C3.64019 10.0489 5.02322 10.7531 6.56469 10.9243Z" fill="#FFE377"/>
<path d="M6.56469 21.9313V18.3416C5.02322 18.5128 3.64019 19.2169 2.60449 20.2649C3.70073 21.18 5.06698 21.7819 6.56469 21.9313Z" fill="#FFE377"/>
<path d="M8.03174 21.9311C9.52944 21.7817 10.8957 21.1798 11.992 20.2646C10.9563 19.2166 9.57325 18.5126 8.03174 18.3413V21.9311Z" fill="#FFE377"/>
<path d="M8.03174 15.3663V16.8671C9.9732 17.0429 11.7181 17.9095 13.0187 19.2182C13.884 18.1408 14.4521 16.815 14.5967 15.3662H8.03174V15.3663Z" fill="#FFE377"/>
<path d="M0 13.8992H6.56488V12.3985C4.62341 12.2226 2.87848 11.356 1.57794 10.0474C0.712615 11.1247 0.144547 12.4504 0 13.8992H0Z" fill="#FFE377"/>
<path d="M13.0188 10.0474C11.7181 11.3561 9.9732 12.2227 8.03174 12.3985V13.8992H14.5967C14.4522 12.4505 13.8841 11.1247 13.0188 10.0474Z" fill="#FFE377"/>
<path d="M1.57799 19.2183C2.87853 17.9097 4.62341 17.0431 6.56488 16.8673V15.3665H0C0.144547 16.8152 0.712615 18.141 1.57799 19.2183Z" fill="#FFE377"/>
<path d="M23.2836 6.77905C21.7717 7.57308 20.0695 7.99323 18.3564 7.99323C16.6434 7.99323 14.9412 7.57308 13.4292 6.77905C13.2122 7.10482 13.0139 7.44443 12.835 7.79572C14.8257 9.41083 16.1004 11.8756 16.1004 14.6328C16.1004 15.5826 15.9486 16.4974 15.669 17.355C16.5441 17.1259 17.4486 17.0068 18.3564 17.0068C20.0695 17.0068 21.7717 17.4269 23.2836 18.2209C24.3752 16.5827 25.0001 14.5986 25.0001 12.5C25.0001 10.4014 24.3752 8.41719 23.2836 6.77905ZM19.09 14.3038C19.09 14.7089 18.7616 15.0373 18.3565 15.0373C17.9514 15.0373 17.623 14.7089 17.623 14.3038V10.7538C17.623 10.3487 17.9514 10.0203 18.3565 10.0203C18.7616 10.0203 19.09 10.3487 19.09 10.7538V14.3038Z" fill="#FFE377"/>
<path d="M14.8321 19.1809C14.7429 19.3281 14.6491 19.4722 14.5518 19.6137C15.5374 20.6317 16.7425 21.4315 18.1079 21.9241C18.1883 21.9531 18.2725 21.9677 18.3568 21.9677C18.441 21.9677 18.5253 21.9531 18.6058 21.9241C20.0658 21.3973 21.3428 20.5194 22.3639 19.3989C21.1222 18.793 19.7438 18.4736 18.3568 18.4736C17.147 18.4736 15.9437 18.7168 14.8321 19.1809Z" fill="#FFE377"/>
</g>
<defs>
<clipPath id="clip0_180_4222">
<rect width="25" height="25" fill="white"/>
</clipPath>
</defs>
</svg>
