<svg width="25" height="25" viewBox="0 0 25 25" fill="none" xmlns="http://www.w3.org/2000/svg">
<g clip-path="url(#clip0_242_469)">
<path d="M22.3633 5.60102C21.3422 4.48043 20.0653 3.60253 18.6052 3.07578C18.4443 3.01769 18.2682 3.01774 18.1073 3.07574C16.6472 3.60248 15.3702 4.48038 14.3491 5.60102C15.5908 6.20683 16.9694 6.5262 18.3562 6.5262C19.7432 6.5262 21.1216 6.20683 22.3633 5.60102Z" fill="#A7A1A1"/>
<path d="M8.03174 7.33441V10.9243C9.57325 10.7531 10.9563 10.049 11.992 9.00091C10.8957 8.08576 9.52944 7.4838 8.03174 7.33441Z" fill="#A7A1A1"/>
<path d="M6.56469 10.9243V7.33447C5.06698 7.48391 3.70073 8.08577 2.60449 9.00093C3.64019 10.0489 5.02322 10.7531 6.56469 10.9243Z" fill="#A7A1A1"/>
<path d="M6.56469 21.9312V18.3414C5.02322 18.5127 3.64019 19.2167 2.60449 20.2648C3.70073 21.1799 5.06698 21.7818 6.56469 21.9312Z" fill="#A7A1A1"/>
<path d="M8.03174 21.9313C9.52944 21.7818 10.8957 21.18 11.992 20.2648C10.9563 19.2167 9.57325 18.5127 8.03174 18.3414V21.9313Z" fill="#A7A1A1"/>
<path d="M8.03174 15.3663V16.8671C9.9732 17.0429 11.7181 17.9096 13.0187 19.2182C13.884 18.1408 14.4521 16.8151 14.5967 15.3663H8.03174V15.3663Z" fill="#A7A1A1"/>
<path d="M0 13.8993H6.56488V12.3986C4.62341 12.2227 2.87848 11.3561 1.57794 10.0475C0.712615 11.1248 0.144547 12.4505 0 13.8993H0Z" fill="#A7A1A1"/>
<path d="M13.0188 10.0475C11.7181 11.3562 9.9732 12.2228 8.03174 12.3986V13.8993H14.5967C14.4522 12.4506 13.8841 11.1248 13.0188 10.0475Z" fill="#A7A1A1"/>
<path d="M1.57799 19.2182C2.87853 17.9096 4.62341 17.043 6.56488 16.8672V15.3663H0C0.144547 16.8151 0.712615 18.1408 1.57799 19.2182Z" fill="#A7A1A1"/>
<path d="M23.2836 6.77911C21.7717 7.57315 20.0695 7.99329 18.3564 7.99329C16.6434 7.99329 14.9412 7.57315 13.4292 6.77911C13.2122 7.10488 13.0139 7.44449 12.835 7.79579C14.8257 9.41089 16.1004 11.8757 16.1004 14.6329C16.1004 15.5827 15.9486 16.4975 15.669 17.3551C16.5441 17.1259 17.4486 17.0068 18.3564 17.0068C20.0695 17.0068 21.7717 17.427 23.2836 18.221C24.3752 16.5828 25.0001 14.5987 25.0001 12.5001C25.0001 10.4015 24.3752 8.41725 23.2836 6.77911ZM19.09 14.3038C19.09 14.7089 18.7616 15.0373 18.3565 15.0373C17.9514 15.0373 17.623 14.7089 17.623 14.3038V10.7538C17.623 10.3487 17.9514 10.0203 18.3565 10.0203C18.7616 10.0203 19.09 10.3487 19.09 10.7538V14.3038Z" fill="#A7A1A1"/>
<path d="M14.8321 19.181C14.7429 19.3282 14.6491 19.4723 14.5518 19.6137C15.5374 20.6317 16.7425 21.4315 18.1079 21.9242C18.1883 21.9532 18.2725 21.9677 18.3568 21.9677C18.441 21.9677 18.5253 21.9532 18.6058 21.9242C20.0658 21.3974 21.3428 20.5195 22.3639 19.3989C21.1222 18.7931 19.7438 18.4737 18.3568 18.4737C17.147 18.4737 15.9437 18.7168 14.8321 19.181Z" fill="#A7A1A1"/>
</g>
<defs>
<clipPath id="clip0_242_469">
<rect width="25" height="25" fill="white"/>
</clipPath>
</defs>
</svg>
