<svg width="41" height="41" viewBox="0 0 41 41" fill="none" xmlns="http://www.w3.org/2000/svg">
<g clip-path="url(#clip0_69_550)">
<path d="M11.5312 25.5049H5.125C4.77121 25.5049 4.48438 25.7917 4.48438 26.1455V40.2393C4.48438 40.593 4.77121 40.8799 5.125 40.8799H11.5312C11.885 40.8799 12.1719 40.593 12.1719 40.2393V26.1455C12.1719 25.7917 11.885 25.5049 11.5312 25.5049Z" fill="#3D8CD6"/>
<path d="M6.40625 40.2393V26.1455C6.40625 25.7917 6.69309 25.5049 7.04688 25.5049H5.125C4.77121 25.5049 4.48438 25.7917 4.48438 26.1455V40.2393C4.48438 40.593 4.77121 40.8799 5.125 40.8799H7.04688C6.69309 40.8799 6.40625 40.593 6.40625 40.2393Z" fill="#3C87D0"/>
<path d="M23.7031 22.3018H17.2969C16.9431 22.3018 16.6562 22.5886 16.6562 22.9424V40.2393C16.6562 40.593 16.9431 40.8799 17.2969 40.8799H23.7031C24.0569 40.8799 24.3438 40.593 24.3438 40.2393V22.9424C24.3438 22.5886 24.0569 22.3018 23.7031 22.3018Z" fill="#3C87D0"/>
<path d="M18.5781 40.2393V22.9424C18.5781 22.5886 18.865 22.3018 19.2188 22.3018H17.2969C16.9431 22.3018 16.6562 22.5886 16.6562 22.9424V40.2393C16.6562 40.593 16.9431 40.8799 17.2969 40.8799H19.2188C18.865 40.8799 18.5781 40.593 18.5781 40.2393Z" fill="#3C87D0"/>
<path d="M35.875 15.2549H29.4688C29.115 15.2549 28.8281 15.5417 28.8281 15.8955V40.2393C28.8281 40.593 29.115 40.8799 29.4688 40.8799H35.875C36.2288 40.8799 36.5156 40.593 36.5156 40.2393V15.8955C36.5156 15.5417 36.2288 15.2549 35.875 15.2549Z" fill="#3C87D0"/>
<path d="M30.75 40.2393V15.8955C30.75 15.5417 31.0368 15.2549 31.3906 15.2549H29.4688C29.115 15.2549 28.8281 15.5417 28.8281 15.8955V40.2393C28.8281 40.593 29.115 40.8799 29.4688 40.8799H31.3906C31.0368 40.8799 30.75 40.593 30.75 40.2393Z" fill="#3C87D0"/>
<path d="M40.3594 40.8799H0.640625C0.28684 40.8799 0 40.593 0 40.2393C0 39.8855 0.28684 39.5986 0.640625 39.5986H40.3594C40.7132 39.5986 41 39.8855 41 40.2393C41 40.593 40.7132 40.8799 40.3594 40.8799Z" fill="#3D8CD6"/>
<path d="M38.6448 0.440903C38.3693 0.197625 38.0023 0.084395 37.638 0.13004L32.513 0.770664C31.8108 0.85843 31.3127 1.49881 31.4005 2.20094C31.4883 2.90322 32.1294 3.40075 32.8307 3.31338L34.758 3.07251C28.2394 11.1835 20.2245 15.3177 14.4735 17.3794C7.75969 19.7862 2.57407 19.9785 2.52242 19.9801C1.81573 20.0021 1.26039 20.5926 1.28185 21.2996C1.30283 21.9936 1.87211 22.542 2.56174 22.542C2.57487 22.542 2.58801 22.5418 2.60122 22.5414C2.82528 22.5346 8.16913 22.3462 15.2444 19.8251C19.3948 18.3462 23.2837 16.3652 26.803 13.9372C30.4542 11.4181 33.7109 8.40915 36.5156 4.9726V6.52636C36.5156 7.23393 37.0892 7.80761 37.7968 7.80761C38.5045 7.80761 39.0781 7.23393 39.0781 6.52636V1.40136C39.0781 1.03388 38.9202 0.6841 38.6448 0.440903Z" fill="#3C87D0"/>
</g>
<defs>
<clipPath id="clip0_69_550">
<rect width="41" height="41" fill="white"/>
</clipPath>
</defs>
</svg>
