<svg width="30" height="30" viewBox="0 0 30 30" fill="none" xmlns="http://www.w3.org/2000/svg">
<path d="M17.9004 9.77345L13.3477 14.3261C13.1719 14.4843 12.9435 14.5722 12.7324 14.5722C12.504 14.5722 12.2754 14.4843 12.0996 14.3261C11.7656 13.9746 11.7656 13.412 12.0996 13.078L16.6523 8.52536C16.9864 8.19142 17.5488 8.19142 17.9006 8.52536C18.2343 8.87692 18.2343 9.43951 17.9004 9.77345Z" fill="#465A61"/>
<path d="M17.9004 9.77345L15 12.6738V10.1777L16.6523 8.52536C16.9862 8.19142 17.5488 8.19142 17.9004 8.52536C18.2343 8.87692 18.2343 9.43951 17.9004 9.77345Z" fill="#3B4A51"/>
<path d="M9.91112 15.0341C9.77905 15.0341 9.64516 15.0041 9.51881 14.9414L5.63263 12.9982C5.19821 12.781 5.0222 12.2532 5.23941 11.819C5.45754 11.3855 5.98534 11.2086 6.41884 11.4258L10.305 13.369C10.7394 13.5862 10.9154 14.114 10.6982 14.5482C10.5437 14.8565 10.2338 15.0341 9.91112 15.0341Z" fill="#465A61"/>
<path d="M19.9223 7.73413C19.6545 7.73413 19.3911 7.61328 19.2185 7.38234C18.9267 6.99438 19.0057 6.44324 19.3945 6.15233L23.614 2.98873C24.001 2.6969 24.5512 2.77404 24.844 3.16451C25.1358 3.55246 25.0568 4.10361 24.668 4.39452L20.4485 7.55812C20.2906 7.67668 20.1061 7.73413 19.9223 7.73413Z" fill="#3B4A51"/>
<path d="M4.45312 8.78906C2.994 8.78906 1.81641 9.96666 1.81641 11.4258C1.81641 12.8847 2.994 14.0625 4.45312 14.0625C5.91225 14.0625 7.08984 12.8847 7.08984 11.4258C7.08984 9.96666 5.91225 8.78906 4.45312 8.78906Z" fill="#697C86"/>
<path d="M11.4844 12.3047C10.0253 12.3047 8.84766 13.4823 8.84766 14.9414C8.84766 16.4003 10.0253 17.5781 11.4844 17.5781C12.9435 17.5781 14.1211 16.4003 14.1211 14.9414C14.1211 13.4823 12.9435 12.3047 11.4844 12.3047Z" fill="#C6E2E7"/>
<path d="M18.5156 5.27344C17.0565 5.27344 15.8789 6.45103 15.8789 7.91016C15.8789 9.36905 17.0565 10.5469 18.5156 10.5469C19.9747 10.5469 21.1523 9.36905 21.1523 7.91016C21.1523 6.45103 19.9747 5.27344 18.5156 5.27344Z" fill="#FDBF00"/>
<path d="M25.5469 0C24.0878 0 22.9102 1.1776 22.9102 2.63672C22.9102 4.09561 24.0878 5.27344 25.5469 5.27344C27.006 5.27344 28.1836 4.09561 28.1836 2.63672C28.1836 1.1776 27.006 0 25.5469 0Z" fill="#E63950"/>
<path d="M28.1836 9.66797V28.7343H22.9102V9.66797C22.9102 9.17564 23.2967 8.78906 23.7891 8.78906H27.3047C27.797 8.78906 28.1836 9.17564 28.1836 9.66797Z" fill="#E63950"/>
<path d="M21.1523 14.9414V28.7343H15.8789V14.9414C15.8789 14.4491 16.2655 14.0625 16.7578 14.0625H20.2734C20.7658 14.0625 21.1523 14.4491 21.1523 14.9414Z" fill="#FDBF00"/>
<path d="M14.1211 21.9727V28.7343H8.84766V21.9727C8.84766 21.4803 9.23424 21.0938 9.72656 21.0938H13.2422C13.7345 21.0938 14.1211 21.4803 14.1211 21.9727Z" fill="#C6E2E7"/>
<path d="M7.08984 18.457V28.7343H1.81641V18.457C1.81641 17.9647 2.20299 17.5781 2.69531 17.5781H6.21094C6.70326 17.5781 7.08984 17.9647 7.08984 18.457Z" fill="#697C86"/>
<path d="M25.5469 5.27344V0C27.006 0 28.1836 1.1776 28.1836 2.63672C28.1836 4.09561 27.006 5.27344 25.5469 5.27344Z" fill="#CC2E43"/>
<path d="M28.1836 9.66797V28.7343H25.5469V8.78906H27.3047C27.797 8.78906 28.1836 9.17564 28.1836 9.66797Z" fill="#CC2E43"/>
<path d="M18.5156 10.5469V5.27344C19.9747 5.27344 21.1523 6.45103 21.1523 7.91016C21.1523 9.36905 19.9747 10.5469 18.5156 10.5469Z" fill="#FF9F00"/>
<path d="M21.1523 14.9414V28.7343H18.5156V14.0625H20.2734C20.7658 14.0625 21.1523 14.4491 21.1523 14.9414Z" fill="#FF9F00"/>
<path d="M11.4844 17.5781V12.3047C12.9435 12.3047 14.1211 13.4823 14.1211 14.9414C14.1211 16.4003 12.9435 17.5781 11.4844 17.5781Z" fill="#A8D3D8"/>
<path d="M14.1211 21.9727V28.7343H11.4844V21.0938H13.2422C13.7345 21.0938 14.1211 21.4803 14.1211 21.9727Z" fill="#A8D3D8"/>
<path d="M4.45312 14.0625V8.78906C5.91225 8.78906 7.08984 9.96666 7.08984 11.4258C7.08984 12.8847 5.91225 14.0625 4.45312 14.0625Z" fill="#596C76"/>
<path d="M7.08984 18.457V28.7343H4.45312V17.5781H6.21094C6.70326 17.5781 7.08984 17.9647 7.08984 18.457Z" fill="#596C76"/>
<path d="M30 29.1211C30 29.6132 29.6134 30 29.1211 30H0.878906C0.386581 30 0 29.6132 0 29.1211C0 28.6288 0.386581 28.2422 0.878906 28.2422H29.1211C29.6134 28.2422 30 28.6288 30 29.1211Z" fill="#465A61"/>
<path d="M30 29.1211C30 29.6132 29.6134 30 29.1211 30H15V28.2422H29.1211C29.6134 28.2422 30 28.6288 30 29.1211Z" fill="#3B4A51"/>
</svg>
