<svg width="26" height="26" viewBox="0 0 26 26" fill="none" xmlns="http://www.w3.org/2000/svg">
<path d="M17.2585 25.1033H18.1551H19.0516V18.8274H17.2585V25.1033Z" fill="#FFEBDB"/>
<path d="M20.8447 25.1033H21.7413H22.6378V18.8274H20.8447V25.1033Z" fill="#FFEBDB"/>
<path d="M3.8103 25.1033H4.70685H5.60341V18.8274H3.8103V25.1033Z" fill="#FFEBDB"/>
<path d="M7.39648 25.1033H8.29304H9.18959V18.8274H7.39648V25.1033Z" fill="#FFEBDB"/>
<path d="M17.2584 10.7585H15.4653V12.9999L15.2708 14.3627C15.15 15.212 15.7406 15.9984 16.5899 16.1191C16.6516 16.1279 16.7138 16.133 16.7761 16.1343L17.2584 12.9999V10.7585Z" fill="#FFEBDB"/>
<path d="M22.6379 12.9999L23.1203 16.1343C23.9779 16.1163 24.6586 15.4065 24.6407 14.5488C24.6394 14.4865 24.6344 14.4244 24.6256 14.3627L24.431 12.9999V10.7585H22.6379V12.9999Z" fill="#FFEBDB"/>
<path d="M19.9483 13H17.2586L16.7763 16.1343C16.7879 16.1343 16.7987 16.1379 16.8103 16.1379C16.7987 16.1379 16.7879 16.1343 16.7763 16.1343L16.3621 18.8276H19.9483H23.5345L23.1203 16.1343C23.1086 16.1343 23.0979 16.1379 23.0862 16.1379C23.0979 16.1379 23.1086 16.1343 23.1203 16.1343L22.6379 13H19.9483Z" fill="#4F81BD"/>
<path d="M3.81023 7.62061H3.14185C2.74148 7.62066 2.3897 7.8861 2.27981 8.27105L1.56885 10.7585H3.81023V7.62061Z" fill="#D1E1E8"/>
<path d="M3.81055 12.9999V10.7585H2.01745V12.9999L1.52434 15.1283C1.32951 15.6146 1.56581 16.1668 2.05208 16.3616C2.0922 16.3777 2.13333 16.391 2.17524 16.4014C2.27991 16.426 2.38806 16.4322 2.49486 16.4198L3.03548 15.014L3.81055 12.9999Z" fill="#FFEBDB"/>
<path d="M10.9828 10.7585H11.4311L10.7201 8.27105C10.6102 7.8861 10.2584 7.62066 9.85808 7.62061H9.1897V10.7585H10.9828Z" fill="#D1E1E8"/>
<path d="M9.1897 12.9999L9.96432 15.014L10.5049 16.4198C10.6117 16.4322 10.7199 16.426 10.8246 16.4014C11.3328 16.2746 11.6421 15.7598 11.5153 15.2515C11.5048 15.2096 11.4915 15.1685 11.4755 15.1283L10.9828 12.9999V10.7585H9.1897V12.9999Z" fill="#FFEBDB"/>
<path d="M10.5048 16.4198L9.96416 15.014L9.18954 12.9999V10.7585V7.62061H7.84471V10.3103H5.15506V7.62061H3.81023V10.7585V12.9999L3.03561 15.014L2.49499 16.4198L1.56885 18.8275H3.81023H5.60333H7.39643H9.18954H11.4309L10.5048 16.4198Z" fill="#4F81BD"/>
<path d="M3.26213 5.12211C3.28006 5.16066 3.30158 5.19697 3.3213 5.23463C3.37689 5.34227 3.43796 5.447 3.5042 5.54842C3.52482 5.5798 3.54409 5.61207 3.56561 5.64256C3.65106 5.76393 3.74391 5.87992 3.84354 5.98997C3.86372 6.01194 3.88434 6.0348 3.90496 6.05497C4.25624 6.42542 4.68249 6.71668 5.1552 6.90939V7.6208C5.89771 8.36354 7.10172 8.3637 7.84446 7.62119C7.84457 7.62108 7.84474 7.62091 7.84485 7.6208V6.90939C8.31762 6.71651 8.74387 6.42508 9.09509 6.05452C9.11572 6.03301 9.13634 6.0097 9.15651 5.98952C9.25614 5.87947 9.34899 5.76348 9.43444 5.64211C9.45596 5.61163 9.47523 5.57935 9.49585 5.54797C9.56209 5.44655 9.62316 5.34182 9.67875 5.23418C9.69847 5.19652 9.71999 5.16021 9.73792 5.12166C9.79362 5.00242 9.84254 4.88015 9.88451 4.75542C9.90468 4.69714 9.92351 4.63887 9.94099 4.57925C10.0358 4.25671 10.0847 3.92247 10.0862 3.58632C9.03239 3.58626 8.11382 2.86896 7.8583 1.84656L7.84485 1.79321L6.72416 2.9139C6.29348 3.34447 5.70949 3.58632 5.10051 3.58632H2.91382C2.91533 3.92264 2.96419 4.25705 3.05906 4.5797C3.07654 4.63932 3.09537 4.69759 3.11554 4.75587C3.15751 4.8806 3.20643 5.00287 3.26213 5.12211Z" fill="#FFEBDB"/>
<path d="M5.15527 7.62061V10.3103H7.84493V7.62061C7.10242 8.36334 5.8984 8.36351 5.15567 7.621C5.15555 7.62089 5.15539 7.62072 5.15527 7.62061Z" fill="#D1E1E8"/>
<path d="M6.72416 2.91379L7.84485 1.7931L7.8583 1.84645C8.11382 2.86885 9.03239 3.58615 10.0862 3.58621C10.0862 1.60561 8.48062 0 6.50003 0C4.51943 0 2.91382 1.60561 2.91382 3.58621H5.10051C5.70949 3.58621 6.29348 3.34436 6.72416 2.91379Z" fill="#383838"/>
<path d="M3.36206 25.5516V25.9999H6.05171V25.5516C6.05171 24.8089 5.44962 24.2068 4.70689 24.2068C3.96415 24.2068 3.36206 24.8089 3.36206 25.5516Z" fill="#383838"/>
<path d="M6.94824 25.5516V25.9999H9.6379V25.5516C9.6379 24.8089 9.03581 24.2068 8.29307 24.2068C7.55033 24.2068 6.94824 24.8089 6.94824 25.5516Z" fill="#383838"/>
<path d="M19.9483 8.06907L21.2931 7.6208V6.90939C22.6473 6.36159 23.5339 5.04714 23.5345 3.58632C22.4806 3.58626 21.5621 2.86896 21.3065 1.84656L21.2931 1.79321L20.1724 2.9139C19.7417 3.34447 19.1577 3.58632 18.5487 3.58632H16.3621C16.3626 5.04714 17.2493 6.36159 18.6034 6.90939V7.6208L19.9483 8.06907Z" fill="#FFEBDB"/>
<path d="M20.1724 2.91379L21.2931 1.7931L21.3065 1.84645C21.5621 2.86885 22.4806 3.58615 23.5345 3.58621C23.5345 1.60561 21.9289 0 19.9483 0C17.9677 0 16.3621 1.60561 16.3621 3.58621H18.5487C19.1577 3.58621 19.7417 3.34436 20.1724 2.91379Z" fill="#383838"/>
<path d="M24.1684 8.27105C24.0586 7.8861 23.7068 7.62066 23.3064 7.62061H21.2932L19.9484 8.06888L18.6035 7.62061H16.5903C16.19 7.62066 15.8382 7.8861 15.7283 8.27105L15.0173 10.7585H17.2587V12.9999H22.638V10.7585H24.8794L24.1684 8.27105Z" fill="#D1E1E8"/>
<path d="M16.8103 25.5516V25.9999H19.5V25.5516C19.5 24.8089 18.8979 24.2068 18.1551 24.2068C17.4124 24.2068 16.8103 24.8089 16.8103 25.5516Z" fill="#383838"/>
<path d="M20.3965 25.5516V25.9999H23.0861V25.5516C23.0861 24.8089 22.484 24.2068 21.7413 24.2068C20.9986 24.2068 20.3965 24.8089 20.3965 25.5516Z" fill="#383838"/>
<path d="M4.23881 6.36813C3.56886 5.82331 3.1184 5.05463 2.97064 4.20386C1.86116 4.60411 1.12139 5.65666 1.12061 6.83613V7.62062L2.91371 6.72406L4.23881 6.36813Z" fill="#383838"/>
<path d="M8.76099 6.36813C9.43093 5.82331 9.8814 5.05463 10.0292 4.20386C11.1386 4.60411 11.8784 5.65666 11.8792 6.83613V7.62062L10.0861 6.72406L8.76099 6.36813Z" fill="#383838"/>
<path d="M20.3966 15.6897H19.5V18.8276H20.3966V15.6897Z" fill="#4571A6"/>
<path d="M22.3891 8.1444L21.35 8.83699L20.4238 7.9104L19.9482 8.06909L19.4726 7.9104L18.5465 8.83699L17.5074 8.1444L17.0098 8.89033L18.3546 9.78688C18.5324 9.90545 18.7692 9.88197 18.9203 9.73085L19.4999 9.15123V13.0001H20.3965V9.15123L20.9761 9.73085C21.1272 9.88197 21.364 9.90545 21.5418 9.78688L22.8867 8.89033L22.3891 8.1444Z" fill="#BFCDD4"/>
</svg>
