<svg width="26" height="26" viewBox="0 0 26 26" fill="none" xmlns="http://www.w3.org/2000/svg">
<path d="M17.2588 25.1033H18.1553H19.0519V18.8274H17.2588V25.1033Z" fill="#FFEBDB"/>
<path d="M20.8452 25.1033H21.7418H22.6383V18.8274H20.8452V25.1033Z" fill="#FFEBDB"/>
<path d="M3.81055 25.1033H4.7071H5.60365V18.8274H3.81055V25.1033Z" fill="#FFEBDB"/>
<path d="M7.39697 25.1033H8.29352H9.19008V18.8274H7.39697V25.1033Z" fill="#FFEBDB"/>
<path d="M17.2587 10.7585H15.4656V12.9999L15.271 14.3627C15.1503 15.212 15.7409 15.9984 16.5902 16.1191C16.6519 16.1279 16.714 16.133 16.7763 16.1343L17.2587 12.9999V10.7585Z" fill="#FFEBDB"/>
<path d="M22.6382 12.9999L23.1205 16.1343C23.9782 16.1163 24.6589 15.4065 24.641 14.5488C24.6397 14.4865 24.6346 14.4244 24.6258 14.3627L24.4313 12.9999V10.7585H22.6382V12.9999Z" fill="#FFEBDB"/>
<path d="M19.9485 13H17.2589L16.7765 16.1343C16.7882 16.1343 16.7989 16.1379 16.8106 16.1379C16.7989 16.1379 16.7882 16.1343 16.7765 16.1343L16.3623 18.8276H19.9485H23.5347L23.1205 16.1343C23.1089 16.1343 23.0981 16.1379 23.0864 16.1379C23.0981 16.1379 23.1089 16.1343 23.1205 16.1343L22.6382 13H19.9485Z" fill="#4F81BD"/>
<path d="M3.81023 7.62061H3.14185C2.74148 7.62066 2.3897 7.8861 2.27981 8.27105L1.56885 10.7585H3.81023V7.62061Z" fill="#D1E1E8"/>
<path d="M3.81055 12.9999V10.7585H2.01745V12.9999L1.52434 15.1283C1.32951 15.6146 1.56581 16.1668 2.05208 16.3616C2.0922 16.3777 2.13333 16.391 2.17524 16.4014C2.27991 16.426 2.38806 16.4322 2.49486 16.4198L3.03548 15.014L3.81055 12.9999Z" fill="#FFEBDB"/>
<path d="M10.9826 10.7585H11.4308L10.7199 8.27105C10.61 7.8861 10.2582 7.62066 9.85783 7.62061H9.18945V10.7585H10.9826Z" fill="#D1E1E8"/>
<path d="M9.18945 12.9999L9.96407 15.014L10.5047 16.4198C10.6115 16.4322 10.7196 16.426 10.8243 16.4014C11.3326 16.2746 11.6419 15.7598 11.5151 15.2515C11.5046 15.2096 11.4913 15.1685 11.4752 15.1283L10.9826 12.9999V10.7585H9.18945V12.9999Z" fill="#FFEBDB"/>
<path d="M10.5048 16.4198L9.96416 15.014L9.18954 12.9999V10.7585V7.62061H7.84471V10.3103H5.15506V7.62061H3.81023V10.7585V12.9999L3.03561 15.014L2.49499 16.4198L1.56885 18.8275H3.81023H5.60333H7.39643H9.18954H11.4309L10.5048 16.4198Z" fill="#4F81BD"/>
<path d="M3.26188 5.12211C3.27982 5.16066 3.30133 5.19697 3.32106 5.23463C3.37664 5.34227 3.43772 5.447 3.50395 5.54842C3.52457 5.5798 3.54385 5.61207 3.56537 5.64256C3.65082 5.76393 3.74367 5.87992 3.8433 5.98997C3.86347 6.01194 3.88409 6.0348 3.90471 6.05497C4.25599 6.42542 4.68225 6.71668 5.15495 6.90939V7.6208C5.89747 8.36354 7.10148 8.3637 7.84422 7.62119C7.84433 7.62108 7.8445 7.62091 7.84461 7.6208V6.90939C8.31737 6.71651 8.74363 6.42508 9.09485 6.05452C9.11547 6.03301 9.13609 6.0097 9.15626 5.98952C9.25589 5.87947 9.34874 5.76348 9.4342 5.64211C9.45571 5.61163 9.47499 5.57935 9.49561 5.54797C9.56184 5.44655 9.62292 5.34182 9.67851 5.23418C9.69823 5.19652 9.71975 5.16021 9.73768 5.12166C9.79338 5.00242 9.84229 4.88015 9.88426 4.75542C9.90444 4.69714 9.92326 4.63887 9.94075 4.57925C10.0356 4.25671 10.0844 3.92247 10.086 3.58632C9.03215 3.58626 8.11357 2.86896 7.85806 1.84656L7.84461 1.79321L6.72392 2.9139C6.29324 3.34447 5.70925 3.58632 5.10026 3.58632H2.91357C2.91509 3.92264 2.96395 4.25705 3.05882 4.5797C3.0763 4.63932 3.09513 4.69759 3.1153 4.75587C3.15727 4.8806 3.20619 5.00287 3.26188 5.12211Z" fill="#FFEBDB"/>
<path d="M5.15527 7.62061V10.3103H7.84493V7.62061C7.10242 8.36334 5.8984 8.36351 5.15567 7.621C5.15555 7.62089 5.15539 7.62072 5.15527 7.62061Z" fill="#D1E1E8"/>
<path d="M6.72392 2.91379L7.84461 1.7931L7.85806 1.84645C8.11357 2.86885 9.03215 3.58615 10.086 3.58621C10.086 1.60561 8.48038 0 6.49978 0C4.51919 0 2.91357 1.60561 2.91357 3.58621H5.10026C5.70925 3.58621 6.29324 3.34436 6.72392 2.91379Z" fill="#383838"/>
<path d="M3.36182 25.5516V25.9999H6.05147V25.5516C6.05147 24.8089 5.44938 24.2068 4.70664 24.2068C3.96391 24.2068 3.36182 24.8089 3.36182 25.5516Z" fill="#383838"/>
<path d="M6.94824 25.5516V25.9999H9.6379V25.5516C9.6379 24.8089 9.03581 24.2068 8.29307 24.2068C7.55033 24.2068 6.94824 24.8089 6.94824 25.5516Z" fill="#383838"/>
<path d="M19.9485 8.06907L21.2933 7.6208V6.90939C22.6475 6.36159 23.5342 5.04714 23.5347 3.58632C22.4809 3.58626 21.5623 2.86896 21.3068 1.84656L21.2933 1.79321L20.1726 2.9139C19.742 3.34447 19.158 3.58632 18.549 3.58632H16.3623C16.3629 5.04714 17.2495 6.36159 18.6037 6.90939V7.6208L19.9485 8.06907Z" fill="#FFEBDB"/>
<path d="M20.1726 2.91379L21.2933 1.7931L21.3068 1.84645C21.5623 2.86885 22.4809 3.58615 23.5347 3.58621C23.5347 1.60561 21.9291 0 19.9485 0C17.9679 0 16.3623 1.60561 16.3623 3.58621H18.549C19.158 3.58621 19.742 3.34436 20.1726 2.91379Z" fill="#383838"/>
<path d="M24.1682 8.27105C24.0583 7.8861 23.7065 7.62066 23.3062 7.62061H21.293L19.9481 8.06888L18.6033 7.62061H16.5901C16.1897 7.62066 15.8379 7.8861 15.7281 8.27105L15.0171 10.7585H17.2585V12.9999H22.6378V10.7585H24.8792L24.1682 8.27105Z" fill="#D1E1E8"/>
<path d="M16.8101 25.5516V25.9999H19.4997V25.5516C19.4997 24.8089 18.8976 24.2068 18.1549 24.2068C17.4121 24.2068 16.8101 24.8089 16.8101 25.5516Z" fill="#383838"/>
<path d="M20.3965 25.5516V25.9999H23.0861V25.5516C23.0861 24.8089 22.484 24.2068 21.7413 24.2068C20.9986 24.2068 20.3965 24.8089 20.3965 25.5516Z" fill="#383838"/>
<path d="M4.23881 6.36813C3.56886 5.82331 3.1184 5.05463 2.97064 4.20386C1.86116 4.60411 1.12139 5.65666 1.12061 6.83613V7.62062L2.91371 6.72406L4.23881 6.36813Z" fill="#383838"/>
<path d="M8.76074 6.36813C9.43069 5.82331 9.88115 5.05463 10.0289 4.20386C11.1384 4.60411 11.8782 5.65666 11.8789 6.83613V7.62062L10.0858 6.72406L8.76074 6.36813Z" fill="#383838"/>
<path d="M20.3966 15.6897H19.5V18.8276H20.3966V15.6897Z" fill="#4571A6"/>
<path d="M22.3891 8.1444L21.35 8.83699L20.4238 7.9104L19.9482 8.06909L19.4726 7.9104L18.5465 8.83699L17.5074 8.1444L17.0098 8.89033L18.3546 9.78688C18.5324 9.90545 18.7692 9.88197 18.9203 9.73085L19.4999 9.15123V13.0001H20.3965V9.15123L20.9761 9.73085C21.1272 9.88197 21.364 9.90545 21.5418 9.78688L22.8867 8.89033L22.3891 8.1444Z" fill="#BFCDD4"/>
</svg>
