<svg width="26" height="26" viewBox="0 0 26 26" fill="none" xmlns="http://www.w3.org/2000/svg">
<path d="M17.2585 25.1035H18.1551H19.0516V18.8276H17.2585V25.1035Z" fill="#FFEBDB"/>
<path d="M20.8447 25.1035H21.7413H22.6378V18.8276H20.8447V25.1035Z" fill="#FFEBDB"/>
<path d="M3.8103 25.1035H4.70685H5.60341V18.8276H3.8103V25.1035Z" fill="#FFEBDB"/>
<path d="M7.39648 25.1035H8.29304H9.18959V18.8276H7.39648V25.1035Z" fill="#FFEBDB"/>
<path d="M17.2584 10.7587H15.4653V13L15.2708 14.3628C15.15 15.2121 15.7406 15.9985 16.5899 16.1193C16.6516 16.1281 16.7138 16.1331 16.7761 16.1344L17.2584 13V10.7587Z" fill="#FFEBDB"/>
<path d="M22.6379 13L23.1203 16.1344C23.9779 16.1165 24.6586 15.4066 24.6407 14.549C24.6394 14.4866 24.6344 14.4245 24.6256 14.3628L24.431 13V10.7587H22.6379V13Z" fill="#FFEBDB"/>
<path d="M19.9483 13H17.2586L16.7763 16.1343C16.7879 16.1343 16.7987 16.1379 16.8103 16.1379C16.7987 16.1379 16.7879 16.1343 16.7763 16.1343L16.3621 18.8276H19.9483H23.5345L23.1203 16.1343C23.1086 16.1343 23.0979 16.1379 23.0862 16.1379C23.0979 16.1379 23.1086 16.1343 23.1203 16.1343L22.6379 13H19.9483Z" fill="#4F81BD"/>
<path d="M3.81023 7.62073H3.14185C2.74148 7.62078 2.3897 7.88622 2.27981 8.27118L1.56885 10.7587H3.81023V7.62073Z" fill="#D1E1E8"/>
<path d="M3.81055 13V10.7587H2.01745V13L1.52434 15.1285C1.32951 15.6147 1.56581 16.1669 2.05208 16.3617C2.0922 16.3778 2.13333 16.3911 2.17524 16.4016C2.27991 16.4262 2.38806 16.4323 2.49486 16.4199L3.03548 15.0141L3.81055 13Z" fill="#FFEBDB"/>
<path d="M10.9828 10.7587H11.4311L10.7201 8.27118C10.6102 7.88622 10.2584 7.62078 9.85808 7.62073H9.1897V10.7587H10.9828Z" fill="#D1E1E8"/>
<path d="M9.1897 13L9.96432 15.0141L10.5049 16.4199C10.6117 16.4323 10.7199 16.4262 10.8246 16.4016C11.3328 16.2747 11.6421 15.7599 11.5153 15.2516C11.5048 15.2097 11.4915 15.1686 11.4755 15.1285L10.9828 13V10.7587H9.1897V13Z" fill="#FFEBDB"/>
<path d="M10.5048 16.4199L9.96416 15.0141L9.18954 13V10.7587V7.62073H7.84471V10.3104H5.15506V7.62073H3.81023V10.7587V13L3.03561 15.0141L2.49499 16.4199L1.56885 18.8276H3.81023H5.60333H7.39643H9.18954H11.4309L10.5048 16.4199Z" fill="#4F81BD"/>
<path d="M3.26213 5.12199C3.28006 5.16054 3.30158 5.19685 3.3213 5.2345C3.37689 5.34215 3.43796 5.44688 3.5042 5.5483C3.52482 5.57968 3.54409 5.61195 3.56561 5.64244C3.65106 5.76381 3.74391 5.8798 3.84354 5.98985C3.86372 6.01182 3.88434 6.03468 3.90496 6.05485C4.25624 6.42529 4.68249 6.71656 5.1552 6.90926V7.62068C5.89771 8.36341 7.10172 8.36358 7.84446 7.62107C7.84457 7.62096 7.84474 7.62079 7.84485 7.62068V6.90926C8.31762 6.71639 8.74387 6.42496 9.09509 6.0544C9.11572 6.03288 9.13634 6.00957 9.15651 5.9894C9.25614 5.87935 9.34899 5.76336 9.43444 5.64199C9.45596 5.6115 9.47523 5.57923 9.49585 5.54785C9.56209 5.44643 9.62316 5.3417 9.67875 5.23406C9.69847 5.1964 9.71999 5.16009 9.73792 5.12154C9.79362 5.0023 9.84254 4.88003 9.88451 4.7553C9.90468 4.69702 9.92351 4.63875 9.94099 4.57913C10.0358 4.25659 10.0847 3.92235 10.0862 3.58619C9.03239 3.58614 8.11382 2.86884 7.8583 1.84644L7.84485 1.79309L6.72416 2.91378C6.29348 3.34435 5.70949 3.58619 5.10051 3.58619H2.91382C2.91533 3.92251 2.96419 4.25693 3.05906 4.57957C3.07654 4.63919 3.09537 4.69747 3.11554 4.75575C3.15751 4.88048 3.20643 5.00275 3.26213 5.12199Z" fill="#FFEBDB"/>
<path d="M5.15527 7.62073V10.3104H7.84493V7.62073C7.10242 8.36346 5.8984 8.36363 5.15567 7.62112C5.15555 7.62101 5.15539 7.62084 5.15527 7.62073Z" fill="#D1E1E8"/>
<path d="M6.72416 2.91379L7.84485 1.7931L7.8583 1.84645C8.11382 2.86885 9.03239 3.58615 10.0862 3.58621C10.0862 1.60561 8.48062 0 6.50003 0C4.51943 0 2.91382 1.60561 2.91382 3.58621H5.10051C5.70949 3.58621 6.29348 3.34436 6.72416 2.91379Z" fill="#383838"/>
<path d="M3.36206 25.5517V26H6.05171V25.5517C6.05171 24.809 5.44962 24.2069 4.70689 24.2069C3.96415 24.2069 3.36206 24.809 3.36206 25.5517Z" fill="#383838"/>
<path d="M6.94824 25.5517V26H9.6379V25.5517C9.6379 24.809 9.03581 24.2069 8.29307 24.2069C7.55033 24.2069 6.94824 24.809 6.94824 25.5517Z" fill="#383838"/>
<path d="M19.9483 8.06895L21.2931 7.62068V6.90926C22.6473 6.36147 23.5339 5.04701 23.5345 3.58619C22.4806 3.58614 21.5621 2.86884 21.3065 1.84644L21.2931 1.79309L20.1724 2.91378C19.7417 3.34435 19.1577 3.58619 18.5487 3.58619H16.3621C16.3626 5.04701 17.2493 6.36147 18.6034 6.90926V7.62068L19.9483 8.06895Z" fill="#FFEBDB"/>
<path d="M20.1724 2.91379L21.2931 1.7931L21.3065 1.84645C21.5621 2.86885 22.4806 3.58615 23.5345 3.58621C23.5345 1.60561 21.9289 0 19.9483 0C17.9677 0 16.3621 1.60561 16.3621 3.58621H18.5487C19.1577 3.58621 19.7417 3.34436 20.1724 2.91379Z" fill="#383838"/>
<path d="M24.1684 8.27118C24.0586 7.88622 23.7068 7.62078 23.3064 7.62073H21.2932L19.9484 8.069L18.6035 7.62073H16.5903C16.19 7.62078 15.8382 7.88622 15.7283 8.27118L15.0173 10.7587H17.2587V13H22.638V10.7587H24.8794L24.1684 8.27118Z" fill="#D1E1E8"/>
<path d="M16.8103 25.5517V26H19.5V25.5517C19.5 24.809 18.8979 24.2069 18.1551 24.2069C17.4124 24.2069 16.8103 24.809 16.8103 25.5517Z" fill="#383838"/>
<path d="M20.3965 25.5517V26H23.0861V25.5517C23.0861 24.809 22.484 24.2069 21.7413 24.2069C20.9986 24.2069 20.3965 24.809 20.3965 25.5517Z" fill="#383838"/>
<path d="M4.23881 6.36813C3.56886 5.82331 3.1184 5.05463 2.97064 4.20386C1.86116 4.60411 1.12139 5.65666 1.12061 6.83613V7.62062L2.91371 6.72406L4.23881 6.36813Z" fill="#383838"/>
<path d="M8.76099 6.36813C9.43093 5.82331 9.8814 5.05463 10.0292 4.20386C11.1386 4.60411 11.8784 5.65666 11.8792 6.83613V7.62062L10.0861 6.72406L8.76099 6.36813Z" fill="#383838"/>
<path d="M20.3966 15.6897H19.5V18.8276H20.3966V15.6897Z" fill="#4571A6"/>
<path d="M22.3891 8.14428L21.35 8.83686L20.4238 7.91028L19.9482 8.06897L19.4726 7.91028L18.5465 8.83686L17.5074 8.14428L17.0098 8.89021L18.3546 9.78676C18.5324 9.90533 18.7692 9.88185 18.9203 9.73073L19.4999 9.15111V13H20.3965V9.15111L20.9761 9.73073C21.1272 9.88185 21.364 9.90533 21.5418 9.78676L22.8867 8.89021L22.3891 8.14428Z" fill="#BFCDD4"/>
</svg>
