<svg width="26" height="26" viewBox="0 0 26 26" fill="none" xmlns="http://www.w3.org/2000/svg">
<path d="M17.2588 25.1035H18.1553H19.0519V18.8276H17.2588V25.1035Z" fill="#FFEBDB"/>
<path d="M20.8447 25.1035H21.7413H22.6378V18.8276H20.8447V25.1035Z" fill="#FFEBDB"/>
<path d="M3.81055 25.1035H4.7071H5.60365V18.8276H3.81055V25.1035Z" fill="#FFEBDB"/>
<path d="M7.39648 25.1035H8.29304H9.18959V18.8276H7.39648V25.1035Z" fill="#FFEBDB"/>
<path d="M17.2592 10.7587H15.4661V13L15.2715 14.3628C15.1508 15.2121 15.7414 15.9985 16.5907 16.1193C16.6524 16.1281 16.7145 16.1331 16.7768 16.1344L17.2592 13V10.7587Z" fill="#FFEBDB"/>
<path d="M22.6377 13L23.12 16.1344C23.9777 16.1165 24.6584 15.4066 24.6405 14.549C24.6392 14.4866 24.6341 14.4245 24.6253 14.3628L24.4308 13V10.7587H22.6377V13Z" fill="#FFEBDB"/>
<path d="M19.9485 13H17.2589L16.7765 16.1343C16.7882 16.1343 16.7989 16.1379 16.8106 16.1379C16.7989 16.1379 16.7882 16.1343 16.7765 16.1343L16.3623 18.8276H19.9485H23.5347L23.1205 16.1343C23.1089 16.1343 23.0981 16.1379 23.0864 16.1379C23.0981 16.1379 23.1089 16.1343 23.1205 16.1343L22.6382 13H19.9485Z" fill="#4F81BD"/>
<path d="M3.81072 7.62073H3.14234C2.74197 7.62078 2.39019 7.88622 2.2803 8.27118L1.56934 10.7587H3.81072V7.62073Z" fill="#D1E1E8"/>
<path d="M3.81055 13V10.7587H2.01745V13L1.52434 15.1285C1.32951 15.6147 1.56581 16.1669 2.05208 16.3617C2.0922 16.3778 2.13333 16.3911 2.17524 16.4016C2.27991 16.4262 2.38806 16.4323 2.49486 16.4199L3.03548 15.0141L3.81055 13Z" fill="#FFEBDB"/>
<path d="M10.9826 10.7587H11.4308L10.7199 8.27118C10.61 7.88622 10.2582 7.62078 9.85783 7.62073H9.18945V10.7587H10.9826Z" fill="#D1E1E8"/>
<path d="M9.18945 13L9.96407 15.0141L10.5047 16.4199C10.6115 16.4323 10.7196 16.4262 10.8243 16.4016C11.3326 16.2747 11.6419 15.7599 11.5151 15.2516C11.5046 15.2097 11.4913 15.1686 11.4752 15.1285L10.9826 13V10.7587H9.18945V13Z" fill="#FFEBDB"/>
<path d="M10.5053 16.4199L9.96465 15.0141L9.19003 13V10.7587V7.62073H7.8452V10.3104H5.15554V7.62073H3.81072V10.7587V13L3.03609 15.0141L2.49547 16.4199L1.56934 18.8276H3.81072H5.60382H7.39692H9.19003H11.4314L10.5053 16.4199Z" fill="#4F81BD"/>
<path d="M3.26237 5.12199C3.2803 5.16054 3.30182 5.19685 3.32155 5.2345C3.37713 5.34215 3.43821 5.44688 3.50444 5.5483C3.52506 5.57968 3.54434 5.61195 3.56586 5.64244C3.65131 5.76381 3.74416 5.8798 3.84379 5.98985C3.86396 6.01182 3.88458 6.03468 3.9052 6.05485C4.25648 6.42529 4.68274 6.71656 5.15544 6.90926V7.62068C5.89795 8.36341 7.10197 8.36358 7.84471 7.62107C7.84482 7.62096 7.84499 7.62079 7.8451 7.62068V6.90926C8.31786 6.71639 8.74411 6.42496 9.09534 6.0544C9.11596 6.03288 9.13658 6.00957 9.15675 5.9894C9.25638 5.87935 9.34923 5.76336 9.43468 5.64199C9.4562 5.6115 9.47548 5.57923 9.4961 5.54785C9.56233 5.44643 9.62341 5.3417 9.67899 5.23406C9.69872 5.1964 9.72024 5.16009 9.73817 5.12154C9.79386 5.0023 9.84278 4.88003 9.88475 4.7553C9.90492 4.69702 9.92375 4.63875 9.94124 4.57913C10.036 4.25659 10.0849 3.92235 10.0865 3.58619C9.03264 3.58614 8.11406 2.86884 7.85855 1.84644L7.8451 1.79309L6.72441 2.91378C6.29373 3.34435 5.70974 3.58619 5.10075 3.58619H2.91406C2.91558 3.92251 2.96444 4.25693 3.0593 4.57957C3.07679 4.63919 3.09561 4.69747 3.11579 4.75575C3.15776 4.88048 3.20667 5.00275 3.26237 5.12199Z" fill="#FFEBDB"/>
<path d="M5.15527 7.62073V10.3104H7.84493V7.62073C7.10242 8.36346 5.8984 8.36363 5.15567 7.62112C5.15555 7.62101 5.15539 7.62084 5.15527 7.62073Z" fill="#D1E1E8"/>
<path d="M6.72441 2.91379L7.8451 1.7931L7.85855 1.84645C8.11406 2.86885 9.03264 3.58615 10.0865 3.58621C10.0865 1.60561 8.48086 0 6.50027 0C4.51967 0 2.91406 1.60561 2.91406 3.58621H5.10075C5.70974 3.58621 6.29373 3.34436 6.72441 2.91379Z" fill="#383838"/>
<path d="M3.3623 25.5517V26H6.05196V25.5517C6.05196 24.809 5.44987 24.2069 4.70713 24.2069C3.96439 24.2069 3.3623 24.809 3.3623 25.5517Z" fill="#383838"/>
<path d="M6.94824 25.5517V26H9.6379V25.5517C9.6379 24.809 9.03581 24.2069 8.29307 24.2069C7.55033 24.2069 6.94824 24.809 6.94824 25.5517Z" fill="#383838"/>
<path d="M19.9485 8.06895L21.2933 7.62068V6.90926C22.6475 6.36147 23.5342 5.04701 23.5347 3.58619C22.4809 3.58614 21.5623 2.86884 21.3068 1.84644L21.2933 1.79309L20.1726 2.91378C19.742 3.34435 19.158 3.58619 18.549 3.58619H16.3623C16.3629 5.04701 17.2495 6.36147 18.6037 6.90926V7.62068L19.9485 8.06895Z" fill="#FFEBDB"/>
<path d="M20.1726 2.91379L21.2933 1.7931L21.3068 1.84645C21.5623 2.86885 22.4809 3.58615 23.5347 3.58621C23.5347 1.60561 21.9291 0 19.9485 0C17.9679 0 16.3623 1.60561 16.3623 3.58621H18.549C19.158 3.58621 19.742 3.34436 20.1726 2.91379Z" fill="#383838"/>
<path d="M24.1687 8.27118C24.0588 7.88622 23.707 7.62078 23.3066 7.62073H21.2934L19.9486 8.069L18.6038 7.62073H16.5906C16.1902 7.62078 15.8384 7.88622 15.7285 8.27118L15.0176 10.7587H17.259V13H22.6383V10.7587H24.8796L24.1687 8.27118Z" fill="#D1E1E8"/>
<path d="M16.8105 25.5517V26H19.5002V25.5517C19.5002 24.809 18.8981 24.2069 18.1554 24.2069C17.4126 24.2069 16.8105 24.809 16.8105 25.5517Z" fill="#383838"/>
<path d="M20.3965 25.5517V26H23.0861V25.5517C23.0861 24.809 22.484 24.2069 21.7413 24.2069C20.9986 24.2069 20.3965 24.809 20.3965 25.5517Z" fill="#383838"/>
<path d="M4.2393 6.36813C3.56935 5.82331 3.11889 5.05463 2.97113 4.20386C1.86165 4.60411 1.12188 5.65666 1.12109 6.83613V7.62062L2.9142 6.72406L4.2393 6.36813Z" fill="#383838"/>
<path d="M8.76172 6.36813C9.43167 5.82331 9.88213 5.05463 10.0299 4.20386C11.1394 4.60411 11.8791 5.65666 11.8799 6.83613V7.62062L10.0868 6.72406L8.76172 6.36813Z" fill="#383838"/>
<path d="M20.3966 15.6897H19.5V18.8276H20.3966V15.6897Z" fill="#4571A6"/>
<path d="M22.3891 8.14428L21.35 8.83686L20.4238 7.91028L19.9482 8.06897L19.4726 7.91028L18.5465 8.83686L17.5074 8.14428L17.0098 8.89021L18.3546 9.78676C18.5324 9.90533 18.7692 9.88185 18.9203 9.73073L19.4999 9.15111V13H20.3965V9.15111L20.9761 9.73073C21.1272 9.88185 21.364 9.90533 21.5418 9.78676L22.8867 8.89021L22.3891 8.14428Z" fill="#BFCDD4"/>
</svg>
