<svg width="26" height="26" viewBox="0 0 26 26" fill="none" xmlns="http://www.w3.org/2000/svg">
<path d="M17.2585 25.1035H18.1551H19.0516V18.8276H17.2585V25.1035Z" fill="#FFEBDB"/>
<path d="M20.8447 25.1035H21.7413H22.6378V18.8276H20.8447V25.1035Z" fill="#FFEBDB"/>
<path d="M3.8103 25.1035H4.70685H5.60341V18.8276H3.8103V25.1035Z" fill="#FFEBDB"/>
<path d="M7.39648 25.1035H8.29304H9.18959V18.8276H7.39648V25.1035Z" fill="#FFEBDB"/>
<path d="M17.2584 10.7588H15.4653V13.0002L15.2708 14.3629C15.15 15.2122 15.7406 15.9986 16.5899 16.1194C16.6516 16.1282 16.7138 16.1332 16.7761 16.1345L17.2584 13.0002V10.7588Z" fill="#FFEBDB"/>
<path d="M22.6379 13.0002L23.1203 16.1345C23.9779 16.1166 24.6586 15.4067 24.6407 14.5491C24.6394 14.4868 24.6344 14.4246 24.6256 14.3629L24.431 13.0002V10.7588H22.6379V13.0002Z" fill="#FFEBDB"/>
<path d="M19.9483 13H17.2586L16.7763 16.1343C16.7879 16.1343 16.7987 16.1379 16.8103 16.1379C16.7987 16.1379 16.7879 16.1343 16.7763 16.1343L16.3621 18.8276H19.9483H23.5345L23.1203 16.1343C23.1086 16.1343 23.0979 16.1379 23.0862 16.1379C23.0979 16.1379 23.1086 16.1343 23.1203 16.1343L22.6379 13H19.9483Z" fill="#4F81BD"/>
<path d="M3.81023 7.62061H3.14185C2.74148 7.62066 2.3897 7.8861 2.27981 8.27105L1.56885 10.7585H3.81023V7.62061Z" fill="#D1E1E8"/>
<path d="M3.81055 13.0002V10.7588H2.01745V13.0002L1.52434 15.1286C1.32951 15.6148 1.56581 16.167 2.05208 16.3618C2.0922 16.3779 2.13333 16.3912 2.17524 16.4017C2.27991 16.4263 2.38806 16.4324 2.49486 16.4201L3.03548 15.0143L3.81055 13.0002Z" fill="#FFEBDB"/>
<path d="M10.9828 10.7585H11.4311L10.7201 8.27105C10.6102 7.8861 10.2584 7.62066 9.85808 7.62061H9.1897V10.7585H10.9828Z" fill="#D1E1E8"/>
<path d="M9.1897 13.0002L9.96432 15.0143L10.5049 16.4201C10.6117 16.4324 10.7199 16.4263 10.8246 16.4017C11.3328 16.2749 11.6421 15.76 11.5153 15.2517C11.5048 15.2098 11.4915 15.1687 11.4755 15.1286L10.9828 13.0002V10.7588H9.1897V13.0002Z" fill="#FFEBDB"/>
<path d="M10.5048 16.4198L9.96416 15.014L9.18954 12.9999V10.7585V7.62061H7.84471V10.3103H5.15506V7.62061H3.81023V10.7585V12.9999L3.03561 15.014L2.49499 16.4198L1.56885 18.8275H3.81023H5.60333H7.39643H9.18954H11.4309L10.5048 16.4198Z" fill="#4F81BD"/>
<path d="M3.26213 5.12187C3.28006 5.16042 3.30158 5.19673 3.3213 5.23438C3.37689 5.34202 3.43796 5.44675 3.5042 5.54818C3.52482 5.57955 3.54409 5.61183 3.56561 5.64231C3.65106 5.76368 3.74391 5.87968 3.84354 5.98973C3.86372 6.01169 3.88434 6.03455 3.90496 6.05473C4.25624 6.42517 4.68249 6.71644 5.1552 6.90914V7.62055C5.89771 8.36329 7.10172 8.36346 7.84446 7.62095C7.84457 7.62084 7.84474 7.62067 7.84485 7.62055V6.90914C8.31762 6.71627 8.74387 6.42483 9.09509 6.05428C9.11572 6.03276 9.13634 6.00945 9.15651 5.98928C9.25614 5.87923 9.34899 5.76324 9.43444 5.64187C9.45596 5.61138 9.47523 5.57911 9.49585 5.54773C9.56209 5.44631 9.62316 5.34158 9.67875 5.23393C9.69847 5.19628 9.71999 5.15997 9.73792 5.12142C9.79362 5.00218 9.84254 4.87991 9.88451 4.75518C9.90468 4.6969 9.92351 4.63862 9.94099 4.579C10.0358 4.25647 10.0847 3.92222 10.0862 3.58607C9.03239 3.58602 8.11382 2.86872 7.8583 1.84631L7.84485 1.79297L6.72416 2.91366C6.29348 3.34423 5.70949 3.58607 5.10051 3.58607H2.91382C2.91533 3.92239 2.96419 4.2568 3.05906 4.57945C3.07654 4.63907 3.09537 4.69735 3.11554 4.75562C3.15751 4.88036 3.20643 5.00262 3.26213 5.12187Z" fill="#FFEBDB"/>
<path d="M5.15527 7.62061V10.3103H7.84493V7.62061C7.10242 8.36334 5.8984 8.36351 5.15567 7.621C5.15555 7.62089 5.15539 7.62072 5.15527 7.62061Z" fill="#D1E1E8"/>
<path d="M6.72416 2.91379L7.84485 1.7931L7.8583 1.84645C8.11382 2.86885 9.03239 3.58615 10.0862 3.58621C10.0862 1.60561 8.48062 0 6.50003 0C4.51943 0 2.91382 1.60561 2.91382 3.58621H5.10051C5.70949 3.58621 6.29348 3.34436 6.72416 2.91379Z" fill="#383838"/>
<path d="M3.36206 25.5519V26.0001H6.05171V25.5519C6.05171 24.8091 5.44962 24.207 4.70689 24.207C3.96415 24.207 3.36206 24.8091 3.36206 25.5519Z" fill="#383838"/>
<path d="M6.94824 25.5519V26.0001H9.6379V25.5519C9.6379 24.8091 9.03581 24.207 8.29307 24.207C7.55033 24.207 6.94824 24.8091 6.94824 25.5519Z" fill="#383838"/>
<path d="M19.9483 8.06883L21.2931 7.62055V6.90914C22.6473 6.36135 23.5339 5.04689 23.5345 3.58607C22.4806 3.58602 21.5621 2.86872 21.3065 1.84631L21.2931 1.79297L20.1724 2.91366C19.7417 3.34423 19.1577 3.58607 18.5487 3.58607H16.3621C16.3626 5.04689 17.2493 6.36135 18.6034 6.90914V7.62055L19.9483 8.06883Z" fill="#FFEBDB"/>
<path d="M20.1724 2.91379L21.2931 1.7931L21.3065 1.84645C21.5621 2.86885 22.4806 3.58615 23.5345 3.58621C23.5345 1.60561 21.9289 0 19.9483 0C17.9677 0 16.3621 1.60561 16.3621 3.58621H18.5487C19.1577 3.58621 19.7417 3.34436 20.1724 2.91379Z" fill="#383838"/>
<path d="M24.1684 8.27105C24.0586 7.8861 23.7068 7.62066 23.3064 7.62061H21.2932L19.9484 8.06888L18.6035 7.62061H16.5903C16.19 7.62066 15.8382 7.8861 15.7283 8.27105L15.0173 10.7585H17.2587V12.9999H22.638V10.7585H24.8794L24.1684 8.27105Z" fill="#D1E1E8"/>
<path d="M16.8103 25.5519V26.0001H19.5V25.5519C19.5 24.8091 18.8979 24.207 18.1551 24.207C17.4124 24.207 16.8103 24.8091 16.8103 25.5519Z" fill="#383838"/>
<path d="M20.3965 25.5519V26.0001H23.0861V25.5519C23.0861 24.8091 22.484 24.207 21.7413 24.207C20.9986 24.207 20.3965 24.8091 20.3965 25.5519Z" fill="#383838"/>
<path d="M4.23881 6.36838C3.56886 5.82355 3.1184 5.05487 2.97064 4.2041C1.86116 4.60436 1.12139 5.65691 1.12061 6.83638V7.62086L2.91371 6.72431L4.23881 6.36838Z" fill="#383838"/>
<path d="M8.76099 6.36838C9.43093 5.82355 9.8814 5.05487 10.0292 4.2041C11.1386 4.60436 11.8784 5.65691 11.8792 6.83638V7.62086L10.0861 6.72431L8.76099 6.36838Z" fill="#383838"/>
<path d="M20.3966 15.6895H19.5V18.8274H20.3966V15.6895Z" fill="#4571A6"/>
<path d="M22.3891 8.14416L21.35 8.83674L20.4238 7.91016L19.9482 8.06885L19.4726 7.91016L18.5465 8.83674L17.5074 8.14416L17.0098 8.89009L18.3546 9.78664C18.5324 9.90521 18.7692 9.88173 18.9203 9.73061L19.4999 9.15098V12.9999H20.3965V9.15098L20.9761 9.73061C21.1272 9.88173 21.364 9.90521 21.5418 9.78664L22.8867 8.89009L22.3891 8.14416Z" fill="#BFCDD4"/>
</svg>
