<svg width="25" height="25" viewBox="0 0 25 25" fill="none" xmlns="http://www.w3.org/2000/svg">
<path d="M12.4023 24.1699C18.8477 24.1699 24.0723 18.9453 24.0723 12.5C24.0723 6.05469 18.8477 0.830078 12.4023 0.830078C5.95703 0.830078 0.732422 6.05469 0.732422 12.5C0.732422 18.9453 5.95703 24.1699 12.4023 24.1699ZM12.4023 3.125C17.5801 3.125 21.7773 7.32227 21.7773 12.5C21.7773 17.6777 17.5801 21.875 12.4023 21.875C7.22461 21.875 3.02734 17.6777 3.02734 12.5C3.02734 7.32227 7.22461 3.125 12.4023 3.125Z" fill="#57A4FF"/>
<path d="M17.895 9.20361L17.0659 8.37451L10.2539 15.187L7.73877 12.6714L6.90967 13.5005L10.2539 16.8442L17.895 9.20361Z" fill="#57A4FF"/>
<path d="M24.6094 12.4999C24.6093 14.8949 23.8991 17.2361 22.5685 19.2274C21.2379 21.2187 19.3467 22.7708 17.134 23.6873C14.9214 24.6038 12.4866 24.8436 10.1377 24.3764C7.7887 23.9092 5.63104 22.7559 3.93751 21.0624C1.93695 19.0616 0.700013 16.4235 0.441358 13.606C0.182703 10.7884 0.918654 7.96923 2.5215 5.63762C2.55012 5.59426 2.58711 5.55703 2.6303 5.52814C2.67349 5.49924 2.722 5.47926 2.77301 5.46935C2.82402 5.45943 2.87649 5.4598 2.92736 5.47042C2.97823 5.48104 3.02646 5.50171 3.06924 5.5312C3.11202 5.5607 3.14849 5.59843 3.1765 5.64219C3.20452 5.68596 3.22352 5.73487 3.2324 5.78607C3.24128 5.83727 3.23985 5.88972 3.2282 5.94036C3.21655 5.991 3.19492 6.03881 3.16456 6.08098C1.56395 8.40909 0.890993 11.2513 1.27772 14.0499C1.66445 16.8486 3.08295 19.4017 5.25494 21.2085C7.42694 23.0153 10.1957 23.9454 13.018 23.8162C15.8403 23.687 18.5124 22.5079 20.5103 20.5102C22.499 18.5209 23.6765 15.8628 23.8137 13.0533C23.9509 10.2437 23.038 7.48361 21.2526 5.30996C19.4672 3.13631 16.937 1.70461 14.1543 1.29343C11.3717 0.882246 8.53552 1.52099 6.19777 3.08538L6.81593 3.82073L4.13136 4.2968L5.06105 1.73382L5.6924 2.48479C7.51278 1.24756 9.63594 0.529857 11.8336 0.408828C14.0313 0.287799 16.2205 0.768024 18.1657 1.79788C20.1109 2.82773 21.7387 4.36827 22.874 6.25389C24.0094 8.13951 24.6093 10.2989 24.6094 12.4999Z" fill="#004FAC"/>
<path d="M12.5 22.2656C17.8848 22.2656 22.2656 17.8848 22.2656 12.5C22.2656 7.11523 17.8848 2.73438 12.5 2.73438C7.11523 2.73438 2.73438 7.11523 2.73438 12.5C2.73438 17.8848 7.11523 22.2656 12.5 22.2656ZM12.5 3.51562C17.454 3.51562 21.4844 7.546 21.4844 12.5C21.4844 17.454 17.454 21.4844 12.5 21.4844C7.546 21.4844 3.51562 17.454 3.51562 12.5C3.51562 7.546 7.546 3.51562 12.5 3.51562Z" fill="#004FAC"/>
<path d="M12.5 5.07813C12.6036 5.07813 12.703 5.03697 12.7762 4.96371C12.8495 4.89046 12.8906 4.7911 12.8906 4.6875V4.29688C12.8906 4.19327 12.8495 4.09392 12.7762 4.02066C12.703 3.94741 12.6036 3.90625 12.5 3.90625C12.3964 3.90625 12.297 3.94741 12.2238 4.02066C12.1505 4.09392 12.1094 4.19327 12.1094 4.29688V4.6875C12.1094 4.7911 12.1505 4.89046 12.2238 4.96371C12.297 5.03697 12.3964 5.07813 12.5 5.07813Z" fill="#004FAC"/>
<path d="M12.5 19.9218C12.3964 19.9218 12.297 19.9629 12.2238 20.0362C12.1505 20.1094 12.1094 20.2088 12.1094 20.3124V20.703C12.1094 20.8066 12.1505 20.906 12.2238 20.9792C12.297 21.0525 12.3964 21.0936 12.5 21.0936C12.6036 21.0936 12.703 21.0525 12.7762 20.9792C12.8495 20.906 12.8906 20.8066 12.8906 20.703V20.3124C12.8906 20.2088 12.8495 20.1094 12.7762 20.0362C12.703 19.9629 12.6036 19.9218 12.5 19.9218Z" fill="#004FAC"/>
<path d="M20.3125 12.8906H20.7031C20.8067 12.8906 20.9061 12.8495 20.9793 12.7762C21.0526 12.703 21.0938 12.6036 21.0938 12.5C21.0938 12.3964 21.0526 12.297 20.9793 12.2238C20.9061 12.1505 20.8067 12.1094 20.7031 12.1094H20.3125C20.2089 12.1094 20.1095 12.1505 20.0363 12.2238C19.963 12.297 19.9219 12.3964 19.9219 12.5C19.9219 12.6036 19.963 12.703 20.0363 12.7762C20.1095 12.8495 20.2089 12.8906 20.3125 12.8906Z" fill="#004FAC"/>
<path d="M4.29687 12.8906H4.6875C4.7911 12.8906 4.89046 12.8495 4.96371 12.7762C5.03697 12.703 5.07812 12.6036 5.07812 12.5C5.07812 12.3964 5.03697 12.297 4.96371 12.2238C4.89046 12.1505 4.7911 12.1094 4.6875 12.1094H4.29687C4.19327 12.1094 4.09392 12.1505 4.02066 12.2238C3.94741 12.297 3.90625 12.3964 3.90625 12.5C3.90625 12.6036 3.94741 12.703 4.02066 12.7762C4.09392 12.8495 4.19327 12.8906 4.29687 12.8906Z" fill="#004FAC"/>
<path d="M18.0243 7.36623C18.0756 7.36629 18.1264 7.35622 18.1738 7.33658C18.2212 7.31695 18.2643 7.28814 18.3005 7.25182L18.5767 6.9756C18.6136 6.93948 18.6431 6.89639 18.6632 6.84883C18.6834 6.80127 18.6939 6.75017 18.6942 6.69851C18.6945 6.64684 18.6846 6.59564 18.6649 6.54785C18.6453 6.50006 18.6164 6.45664 18.5799 6.4201C18.5433 6.38356 18.4999 6.35464 18.4521 6.33499C18.4043 6.31535 18.3531 6.30539 18.3015 6.30567C18.2498 6.30595 18.1987 6.31649 18.1511 6.33665C18.1036 6.35682 18.0605 6.38622 18.0244 6.42316L17.7481 6.69938C17.6935 6.75401 17.6562 6.82361 17.6412 6.89939C17.6261 6.97517 17.6338 7.05371 17.6634 7.12509C17.693 7.19647 17.743 7.25748 17.8073 7.3004C17.8715 7.34332 17.947 7.36623 18.0243 7.36623Z" fill="#004FAC"/>
<path d="M6.69954 18.6911C6.75085 18.6912 6.80166 18.6811 6.84907 18.6615C6.89647 18.6418 6.93953 18.613 6.97576 18.5767L7.25203 18.3005C7.28831 18.2642 7.31708 18.2211 7.33672 18.1737C7.35635 18.1263 7.36645 18.0755 7.36645 18.0242C7.36645 17.9729 7.35635 17.9221 7.33672 17.8747C7.31708 17.8273 7.28831 17.7842 7.25203 17.748C7.21575 17.7117 7.17269 17.6829 7.12529 17.6633C7.07789 17.6437 7.02709 17.6335 6.97578 17.6335C6.92448 17.6335 6.87368 17.6437 6.82628 17.6633C6.77888 17.6829 6.73582 17.7117 6.69954 17.748L6.42332 18.0242C6.36869 18.0789 6.33148 18.1485 6.31641 18.2242C6.30133 18.3 6.30907 18.3786 6.33863 18.4499C6.3682 18.5213 6.41827 18.5823 6.48251 18.6253C6.54675 18.6682 6.62228 18.6911 6.69954 18.6911Z" fill="#004FAC"/>
<path d="M18.3005 17.748C18.2643 17.7117 18.2212 17.6829 18.1738 17.6633C18.1264 17.6437 18.0756 17.6335 18.0243 17.6335C17.973 17.6335 17.9222 17.6437 17.8748 17.6633C17.8274 17.6829 17.7843 17.7117 17.748 17.748C17.7118 17.7842 17.683 17.8273 17.6633 17.8747C17.6437 17.9221 17.6336 17.9729 17.6336 18.0242C17.6336 18.0755 17.6437 18.1263 17.6633 18.1737C17.683 18.2211 17.7118 18.2642 17.748 18.3005L18.0243 18.5767C18.0976 18.6499 18.1969 18.6911 18.3005 18.6911C18.4041 18.6911 18.5035 18.6499 18.5768 18.5767C18.65 18.5034 18.6912 18.4041 18.6912 18.3005C18.6912 18.1969 18.65 18.0975 18.5768 18.0242L18.3005 17.748Z" fill="#004FAC"/>
<path d="M6.69961 7.25182C6.73581 7.28845 6.77889 7.31757 6.82637 7.33749C6.87386 7.35741 6.92482 7.36775 6.97632 7.3679C7.02781 7.36806 7.07883 7.35802 7.12644 7.33839C7.17404 7.31875 7.2173 7.28989 7.25371 7.25348C7.29012 7.21706 7.31898 7.17381 7.33861 7.1262C7.35824 7.07859 7.36827 7.02757 7.36811 6.97607C7.36795 6.92458 7.35761 6.87362 7.33769 6.82613C7.31776 6.77865 7.28864 6.73557 7.252 6.69938L6.97574 6.42316C6.93961 6.38622 6.89652 6.35682 6.84895 6.33665C6.80138 6.31649 6.75029 6.30595 6.69862 6.30567C6.64696 6.30539 6.59575 6.31535 6.54796 6.33499C6.50018 6.35464 6.45676 6.38356 6.42023 6.4201C6.3837 6.45664 6.35479 6.50006 6.33515 6.54785C6.31552 6.59564 6.30556 6.64684 6.30585 6.69851C6.30615 6.75017 6.31669 6.80127 6.33686 6.84883C6.35704 6.89639 6.38645 6.93948 6.42339 6.9756L6.69961 7.25182Z" fill="#004FAC"/>
<path d="M6.73132 13.7765L10.0754 17.1205C10.1116 17.1567 10.1547 17.1855 10.2021 17.2052C10.2495 17.2248 10.3003 17.2349 10.3516 17.2349C10.4029 17.2349 10.4537 17.2248 10.5011 17.2052C10.5485 17.1855 10.5915 17.1567 10.6278 17.1205L18.2687 9.4796C18.305 9.44333 18.3338 9.40026 18.3534 9.35286C18.3731 9.30547 18.3832 9.25466 18.3832 9.20336C18.3832 9.15205 18.3731 9.10125 18.3534 9.05385C18.3338 9.00645 18.305 8.96339 18.2687 8.92711L17.4401 8.09845C17.4038 8.06217 17.3607 8.03339 17.3133 8.01375C17.2659 7.99412 17.2151 7.98401 17.1638 7.98401C17.1125 7.98401 17.0617 7.99412 17.0143 8.01375C16.9669 8.03339 16.9238 8.06217 16.8876 8.09845L10.3516 14.6345L8.11248 12.3953C8.0762 12.359 8.03314 12.3303 7.98574 12.3106C7.93834 12.291 7.88754 12.2809 7.83623 12.2809C7.78493 12.2809 7.73412 12.291 7.68673 12.3106C7.63933 12.3303 7.59626 12.359 7.55999 12.3953L6.73132 13.224C6.69504 13.2603 6.66626 13.3033 6.64663 13.3507C6.62699 13.3981 6.61688 13.4489 6.61688 13.5002C6.61688 13.5515 6.62699 13.6023 6.64663 13.6497C6.66626 13.6971 6.69504 13.7402 6.73132 13.7765ZM7.83621 13.224L10.0754 15.4632C10.1116 15.4995 10.1547 15.5282 10.2021 15.5479C10.2495 15.5675 10.3003 15.5776 10.3516 15.5776C10.4029 15.5776 10.4537 15.5675 10.5011 15.5479C10.5485 15.5282 10.5915 15.4995 10.6278 15.4632L17.1638 8.92711L17.4401 9.20333L10.3516 16.2918L7.55999 13.5002L7.83621 13.224Z" fill="#004FAC"/>
</svg>
