<svg width="74" height="77" viewBox="0 0 74 77" fill="none" xmlns="http://www.w3.org/2000/svg">
<path d="M40.5224 29.8343C40.9647 29.8343 41.3911 29.9073 41.8018 30.029L49.4624 20.385C49.952 19.7686 50.8603 19.655 51.4526 20.1741C52.0291 20.6689 52.1081 21.553 51.6263 22.1532L44.0526 31.6917C44.5659 32.4217 44.8739 33.3221 44.8739 34.2955C44.8739 36.1042 43.8156 37.6696 42.3072 38.3671H72.0257C73.1155 38.3671 74.0001 37.4587 74.0001 36.3393V10.668C74.0001 9.54873 73.1155 8.6403 72.0257 8.6403H34.2754C33.1856 8.6403 32.301 9.54873 32.301 10.668V27.5227L34.0859 29.8424H40.5224V29.8343Z" fill="#222222"/>
<path d="M15.8978 18.7547C20.3641 18.7547 23.9848 15.0361 23.9848 10.449C23.9848 5.86195 20.3641 2.14339 15.8978 2.14339C11.4314 2.14339 7.81067 5.86195 7.81067 10.449C7.81067 15.0361 11.4314 18.7547 15.8978 18.7547Z" fill="#222222"/>
<path d="M24.1902 72.9605C24.1902 74.0799 23.3057 74.9882 22.2158 74.9882H18.8988C17.809 74.9882 16.9244 74.0799 16.9244 72.9605V55.9598C16.9244 55.3596 16.4506 54.8729 15.8662 54.8729C15.2817 54.8729 14.8079 55.3596 14.8079 55.9598V72.8793C14.8079 74.0393 13.8839 74.9882 12.7545 74.9882H9.50864C8.41878 74.9882 7.53426 74.0799 7.53426 72.9605L7.51846 31.9188C7.51846 31.3673 7.0841 30.9132 6.53917 30.9132C6.00213 30.9132 5.55987 31.3593 5.55987 31.9188V47.7028C5.55987 48.8221 4.67535 49.7306 3.58549 49.7306H1.97439C0.884525 49.7306 0 48.8221 0 47.7028V26.0627C0 23.4915 2.02967 21.4151 4.52529 21.4151H22.508C24.4349 21.4151 26.2593 22.3235 27.4598 23.8727L32.293 30.1344L33.3118 31.4565C33.3118 31.4565 37.8923 31.4565 40.5301 31.4646C41.62 31.4646 42.5045 32.3731 42.5045 33.4924V35.1065C42.5045 36.2258 41.62 37.1342 40.5301 37.1342H31.9851C31.14 37.1342 30.3424 36.7368 29.8211 36.0554L26.2198 31.3023C26.0382 31.059 25.746 30.913 25.4459 30.913H25.2011C24.664 30.913 24.2218 31.3591 24.2218 31.9187L24.1902 72.9605Z" fill="#222222"/>
</svg>
