<svg width="74" height="76" viewBox="0 0 74 76" fill="none" xmlns="http://www.w3.org/2000/svg">
<g filter="url(#filter0_i_69_274)">
<path d="M40.5224 29.2685C40.9647 29.2685 41.3911 29.3415 41.8018 29.4632L49.4624 19.8192C49.952 19.2028 50.8603 19.0892 51.4526 19.6083C52.0291 20.1031 52.1081 20.9872 51.6263 21.5874L44.0526 31.1259C44.5659 31.8559 44.8739 32.7563 44.8739 33.7296C44.8739 35.5384 43.8156 37.1038 42.3072 37.8013H72.0257C73.1155 37.8013 74.0001 36.8929 74.0001 35.7735V10.1022C74.0001 8.98292 73.1155 8.07449 72.0257 8.07449H34.2754C33.1856 8.07449 32.301 8.98292 32.301 10.1022V26.9569L34.0859 29.2766H40.5224V29.2685Z" fill="#D3D729"/>
<path d="M15.8978 18.1889C20.3641 18.1889 23.9848 14.4703 23.9848 9.88323C23.9848 5.29614 20.3641 1.57758 15.8978 1.57758C11.4314 1.57758 7.81067 5.29614 7.81067 9.88323C7.81067 14.4703 11.4314 18.1889 15.8978 18.1889Z" fill="#D3D729"/>
<path d="M24.1902 72.3947C24.1902 73.5141 23.3057 74.4224 22.2158 74.4224H18.8988C17.809 74.4224 16.9244 73.5141 16.9244 72.3947V55.394C16.9244 54.7938 16.4506 54.3071 15.8662 54.3071C15.2817 54.3071 14.8079 54.7938 14.8079 55.394V72.3136C14.8079 73.4735 13.8839 74.4224 12.7545 74.4224H9.50864C8.41878 74.4224 7.53426 73.5141 7.53426 72.3947L7.51846 31.353C7.51846 30.8015 7.0841 30.3474 6.53917 30.3474C6.00213 30.3474 5.55987 30.7935 5.55987 31.353V47.137C5.55987 48.2564 4.67535 49.1648 3.58549 49.1648H1.97439C0.884525 49.1648 0 48.2564 0 47.137V25.4969C0 22.9257 2.02967 20.8493 4.52529 20.8493H22.508C24.4349 20.8493 26.2593 21.7577 27.4598 23.3069L32.293 29.5686L33.3118 30.8907C33.3118 30.8907 37.8923 30.8907 40.5301 30.8988C41.62 30.8988 42.5045 31.8073 42.5045 32.9266V34.5407C42.5045 35.66 41.62 36.5684 40.5301 36.5684H31.9851C31.14 36.5684 30.3424 36.171 29.8211 35.4896L26.2198 30.7365C26.0382 30.4932 25.746 30.3472 25.4459 30.3472H25.2011C24.664 30.3472 24.2218 30.7933 24.2218 31.3529L24.1902 72.3947Z" fill="#D3D729"/>
</g>
<defs>
<filter id="filter0_i_69_274" x="0" y="0" width="74" height="80" filterUnits="userSpaceOnUse" color-interpolation-filters="sRGB">
<feFlood flood-opacity="0" result="BackgroundImageFix"/>
<feBlend mode="normal" in="SourceGraphic" in2="BackgroundImageFix" result="shape"/>
<feColorMatrix in="SourceAlpha" type="matrix" values="0 0 0 0 0 0 0 0 0 0 0 0 0 0 0 0 0 0 127 0" result="hardAlpha"/>
<feOffset dy="4"/>
<feGaussianBlur stdDeviation="2"/>
<feComposite in2="hardAlpha" operator="arithmetic" k2="-1" k3="1"/>
<feColorMatrix type="matrix" values="0 0 0 0 0 0 0 0 0 0 0 0 0 0 0 0 0 0 0.25 0"/>
<feBlend mode="normal" in2="shape" result="effect1_innerShadow_69_274"/>
</filter>
</defs>
</svg>
