<svg width="28" height="28" viewBox="0 0 28 28" fill="none" xmlns="http://www.w3.org/2000/svg">
<path d="M11.3726 26.1039L13.943 25.5107L11.9657 23.5334L11.3726 26.1039Z" fill="#A7A1A1"/>
<path d="M10.8653 24.4105L11.2906 22.5675C11.2916 22.563 11.2931 22.5587 11.2943 22.5543C11.2964 22.5467 11.2984 22.5391 11.3008 22.5316C11.3032 22.5241 11.3056 22.5178 11.3082 22.511C11.3107 22.5042 11.313 22.4982 11.3157 22.4919C11.3189 22.4844 11.3225 22.4772 11.3261 22.4701C11.3288 22.4646 11.3316 22.4594 11.3344 22.4542C11.3386 22.4465 11.3431 22.4392 11.3477 22.4319C11.3506 22.4272 11.3536 22.4226 11.3567 22.4181C11.3617 22.4108 11.367 22.4037 11.3725 22.3968C11.3758 22.3925 11.3792 22.3882 11.3827 22.384C11.3881 22.3773 11.3943 22.3709 11.4003 22.3645C11.4028 22.3619 11.405 22.359 11.4075 22.3566L17.139 16.625C15.539 13.3339 12.5801 11.375 9.18515 11.375C6.69566 11.375 4.39573 12.4406 2.709 14.3754C1.0103 16.3241 0.0531016 19.0403 0 22.0476C1.00428 22.5541 5.12799 24.5 9.18515 24.5C9.74635 24.4991 10.3071 24.4692 10.8653 24.4105Z" fill="#A7A1A1"/>
<path d="M12.332 22.6655L19.1369 15.8607L21.6114 18.3352L14.8065 25.14L12.332 22.6655Z" fill="#A7A1A1"/>
<path d="M9.18506 10.5C11.6013 10.5 13.5601 8.54125 13.5601 6.125C13.5601 3.70875 11.6013 1.75 9.18506 1.75C6.76881 1.75 4.81006 3.70875 4.81006 6.125C4.81006 8.54125 6.76881 10.5 9.18506 10.5Z" fill="#A7A1A1"/>
<path d="M22.7477 16.4786C22.7476 16.1325 22.645 15.7941 22.4527 15.5064C22.2604 15.2186 21.987 14.9944 21.6673 14.8619C21.3475 14.7295 20.9957 14.6949 20.6562 14.7624C20.3168 14.8299 20.005 14.9966 19.7603 15.2413L22.2351 17.7161C22.3981 17.554 22.5274 17.3611 22.6154 17.1487C22.7034 16.9363 22.7483 16.7085 22.7477 16.4786Z" fill="#A7A1A1"/>
</svg>
