<svg width="20" height="20" viewBox="0 0 20 20" fill="none" xmlns="http://www.w3.org/2000/svg">
<path d="M18.0405 13.3322L15.2126 13.0347C14.8801 12.9987 14.543 13.0326 14.2268 13.1339C13.9105 13.2352 13.6233 13.4012 13.3867 13.6195L11.3381 15.5074C8.17747 14.026 5.60849 11.6586 4.00105 8.74593L6.06076 6.84781C6.53951 6.40662 6.77331 5.79101 6.69538 5.16515L6.3725 2.57959C6.30938 2.07908 6.04873 1.61744 5.64018 1.28256C5.23162 0.947678 4.7037 0.762952 4.15692 0.763551H2.23081C0.972712 0.763551 -0.0738452 1.728 0.0040899 2.8874C0.59417 11.6495 8.19841 18.647 17.6954 19.1907C18.9535 19.2626 20 18.2981 20 17.1387V15.3637C20.0111 14.3274 19.165 13.4553 18.0405 13.3322Z" fill="#3C8CD6"/>
</svg>
