<svg width="18" height="23" viewBox="0 0 18 23" fill="none" xmlns="http://www.w3.org/2000/svg">
<path d="M18 14.1589C15.4169 20.5637 9.22885 16.6889 9.22885 16.6889C7.33023 20.5215 4.19399 22.9859 0.574893 23C-0.179866 23 -0.203306 21.8568 0.574893 21.8568C3.59393 21.8427 6.22387 19.8562 7.94435 16.6983C6.0176 17.4433 2.38444 18.0055 0.368624 12.847C5.47849 10.7433 7.82715 13.3718 8.72724 14.9788C9.19134 13.8356 9.52419 12.594 9.73983 11.2447C9.73983 11.2447 3.19077 12.2707 2.73135 6.6484C8.3147 4.40416 9.88516 10.242 9.88516 10.242C9.96017 9.45956 10.0399 7.77755 10.0399 7.74007C10.0399 7.74007 5.05657 4.28702 8.25375 0C14.0949 2.01467 11.1322 7.60888 11.1322 7.60888C11.1556 7.68385 11.1556 8.72398 11.1322 9.17376C11.1322 9.17376 13.2511 5.00387 17.5265 6.47973C17.3296 12.758 10.8743 11.4649 10.8743 11.4649C10.668 12.7486 10.3493 13.9668 9.93673 15.0959C9.93673 15.0959 13.8277 10.7949 18 14.1589Z" fill="#285A87"/>
</svg>
