<svg width="25" height="26" viewBox="0 0 25 26" fill="none" xmlns="http://www.w3.org/2000/svg">
<path d="M0.844807 19.7747L4.97497 15.6446C4.22403 14.1427 3.7234 12.3905 3.7234 10.6383C3.7234 4.75595 8.47935 0 14.3617 0C20.2441 0 25 4.75595 25 10.6383C25 16.5207 20.2441 21.2766 14.3617 21.2766C12.6095 21.2766 10.8573 20.776 9.35544 20.025L5.22528 24.1552C3.97372 25.4068 2.09637 25.4068 0.844807 24.1552C-0.281603 22.9036 -0.281603 21.0263 0.844807 19.7747ZM14.3617 18.7735C18.8673 18.7735 22.4969 15.1439 22.4969 10.6383C22.4969 6.13267 18.8673 2.50313 14.3617 2.50313C9.85607 2.50313 6.22653 6.13267 6.22653 10.6383C6.22653 15.1439 9.85607 18.7735 14.3617 18.7735Z" fill="#FFE377"/>
</svg>
