<svg width="41" height="40" viewBox="0 0 41 40" fill="none" xmlns="http://www.w3.org/2000/svg">
<path d="M20.2899 11.9669C19.6334 11.9669 19.1011 11.4346 19.1011 10.7781V8.42031C19.1011 7.76374 19.6334 7.23145 20.2899 7.23145C20.9465 7.23145 21.4788 7.76374 21.4788 8.42031V10.7781C21.4788 11.4346 20.9466 11.9669 20.2899 11.9669Z" fill="#5F69E2"/>
<path d="M36.1459 21.9603H4.4341C3.77753 21.9603 3.24524 22.4926 3.24524 23.1492V37.0641C3.24524 37.7206 3.77753 38.2529 4.4341 38.2529H36.1458C36.8024 38.2529 37.3347 37.7206 37.3347 37.0641V23.1492C37.3348 22.4926 36.8025 21.9603 36.1459 21.9603Z" fill="#FFE377"/>
<path d="M36.1459 21.9603H20.29V38.2529H36.1459C36.8025 38.2529 37.3348 37.7206 37.3348 37.0641V23.1492C37.3348 22.4925 36.8025 21.9603 36.1459 21.9603Z" fill="#FFCC00"/>
<path d="M10.7132 11.9669C10.0566 11.9669 9.52429 11.4346 9.52429 10.7781V8.42031C9.52429 7.76374 10.0566 7.23145 10.7132 7.23145C11.3697 7.23145 11.902 7.76374 11.902 8.42031V10.7781C11.902 11.4346 11.3698 11.9669 10.7132 11.9669Z" fill="#5F69E2"/>
<path d="M29.8667 11.9669C29.2102 11.9669 28.6779 11.4346 28.6779 10.7781V8.42031C28.6779 7.76374 29.2102 7.23145 29.8667 7.23145C30.5233 7.23145 31.0556 7.76374 31.0556 8.42031V10.7781C31.0556 11.4346 30.5233 11.9669 29.8667 11.9669Z" fill="#3440DA"/>
<path d="M31.8503 2.38182C31.3081 1.37247 30.7737 0.523619 30.7512 0.487953C30.5597 0.184317 30.2257 0.00012207 29.8668 0.00012207C29.5078 0.00012207 29.1738 0.184317 28.9823 0.487953C28.9598 0.523619 28.4255 1.37247 27.8833 2.38182C26.8313 4.34004 26.6965 5.12382 26.6965 5.58787C26.6965 7.33637 28.1187 8.75889 29.8668 8.75889C31.6149 8.75889 33.0371 7.33637 33.0371 5.58787C33.0371 5.12374 32.9022 4.34004 31.8503 2.38182Z" fill="#FFCC00"/>
<path d="M20.29 7.23145L20.2899 11.9669C20.9465 11.9669 21.4788 11.4346 21.4788 10.7781V8.42031C21.4789 7.76374 20.9466 7.23145 20.29 7.23145Z" fill="#3440DA"/>
<path d="M21.1745 0.487831C20.9831 0.184195 20.6491 0 20.2901 0C19.9311 0 19.5972 0.184195 19.4057 0.487831C19.3832 0.523497 18.8488 1.37235 18.3066 2.38169C17.2547 4.33991 17.1199 5.12369 17.1199 5.58775C17.1199 7.33625 18.5421 8.75877 20.2902 8.75877C22.0383 8.75877 23.4605 7.33625 23.4605 5.58775C23.4605 5.12369 23.3256 4.33991 22.2738 2.38169C21.7314 1.37243 21.1971 0.523497 21.1745 0.487831Z" fill="#FFE377"/>
<path d="M22.2735 2.38182C21.7313 1.37247 21.197 0.523619 21.1745 0.487953C20.983 0.184317 20.649 0.00012207 20.29 0.00012207V8.75889C22.0381 8.75889 23.4603 7.33637 23.4603 5.58787C23.4603 5.12374 23.3255 4.34004 22.2735 2.38182Z" fill="#FFCC00"/>
<path d="M39.3911 39.3097H1.18887C0.532295 39.3097 0 38.7774 0 38.1209C0 37.4643 0.532295 36.932 1.18887 36.932H39.3911C40.0476 36.932 40.5799 37.4643 40.5799 38.1209C40.5799 38.7774 40.0476 39.3097 39.3911 39.3097Z" fill="#E5E5E5"/>
<path d="M39.391 36.932H20.2899V39.3097H39.391C40.0476 39.3097 40.5799 38.7774 40.5799 38.1209C40.5799 37.4643 40.0476 36.932 39.391 36.932Z" fill="#D6D6D6"/>
<path d="M22.011 10.6849H18.5691C17.7686 10.6849 17.1198 11.3338 17.1198 12.1342V21.3166C17.1198 22.117 17.7686 22.7659 18.5691 22.7659H22.011C22.8114 22.7659 23.4603 22.117 23.4603 21.3166V12.1342C23.4603 11.3338 22.8114 10.6849 22.011 10.6849Z" fill="#989EEC"/>
<path d="M12.4342 10.6849H8.99228C8.19185 10.6849 7.54297 11.3338 7.54297 12.1342V21.3166C7.54297 22.117 8.19185 22.7659 8.99228 22.7659H12.4342C13.2346 22.7659 13.8835 22.117 13.8835 21.3166V12.1342C13.8835 11.3338 13.2346 10.6849 12.4342 10.6849Z" fill="#989EEC"/>
<path d="M31.5876 10.6849H28.1457C27.3453 10.6849 26.6964 11.3338 26.6964 12.1342V21.3166C26.6964 22.117 27.3453 22.7659 28.1457 22.7659H31.5876C32.3881 22.7659 33.0369 22.117 33.0369 21.3166V12.1342C33.037 11.3338 32.3881 10.6849 31.5876 10.6849Z" fill="#7C83E7"/>
<path d="M22.0108 10.6849H20.2899V22.766H22.0108C22.8113 22.766 23.4602 22.1171 23.4602 21.3166V12.1342C23.4602 11.3338 22.8113 10.6849 22.0108 10.6849Z" fill="#7C83E7"/>
<path d="M35.0072 19.681H5.57284C3.74397 19.681 2.25598 21.0397 2.25598 22.7098V25.7748C2.25598 26.6085 2.65766 27.3865 3.35798 27.9096C4.15008 28.5012 5.20389 28.6825 6.17678 28.3943L9.17795 27.5058C10.9123 26.9925 12.8225 26.9926 14.5567 27.5058L16.9256 28.2071C18.0105 28.5283 19.15 28.6888 20.2899 28.6888C21.4295 28.6888 22.5696 28.5283 23.6541 28.2071L26.0231 27.5058C27.7574 26.9923 29.6675 26.9925 31.4018 27.5058L34.403 28.3943C35.3759 28.6823 36.4298 28.5011 37.2217 27.9096C37.9221 27.3865 38.3237 26.6085 38.3237 25.7748V22.7098C38.3239 21.0397 36.836 19.681 35.0072 19.681Z" fill="#FFA1C0"/>
<path d="M35.0071 19.681H20.2899V28.6887C21.4296 28.6887 22.5696 28.5282 23.6542 28.207L26.0231 27.5057C27.7574 26.9922 29.6675 26.9924 31.4018 27.5057L34.403 28.3942C35.3759 28.6822 36.4298 28.501 37.2217 27.9096C37.9221 27.3864 38.3237 26.6084 38.3237 25.7748V22.7097C38.3239 21.0397 36.836 19.681 35.0071 19.681Z" fill="#FF80A9"/>
<path d="M11.5977 0.487831C11.4062 0.184195 11.0722 0 10.7132 0C10.3543 0 10.0203 0.184195 9.8288 0.487831C9.80629 0.523497 9.27193 1.37235 8.72973 2.38169C7.67774 4.33999 7.54285 5.12369 7.54285 5.58783C7.54285 7.33633 8.96505 8.75885 10.7132 8.75885C12.4613 8.75885 13.8835 7.33633 13.8835 5.58783C13.8835 5.12377 13.7486 4.33999 12.6967 2.38177C12.1545 1.37243 11.6202 0.523497 11.5977 0.487831Z" fill="#FFE377"/>
</svg>
